<?xml version="1.0" encoding="UTF-8" standalone="no"?>
<!DOCTYPE svg PUBLIC "-//W3C//DTD SVG 1.1//EN"
 "http://www.w3.org/Graphics/SVG/1.1/DTD/svg11.dtd">
<!-- Generated by graphviz version 2.40.1 (20161225.0304)
 -->
<!-- Title: snakemake_dag Pages: 1 -->
<svg width="533pt" height="707pt"
 viewBox="0.00 0.00 533.40 707.00" xmlns="http://www.w3.org/2000/svg" xmlns:xlink="http://www.w3.org/1999/xlink">
<g id="graph0" class="graph" transform="scale(1 1) rotate(0) translate(4 703)">
<title>snakemake_dag</title>
<polygon fill="#ffffff" stroke="transparent" points="-4,4 -4,-703 529.4008,-703 529.4008,4 -4,4"/>
<!-- 0 -->
<g id="node1" class="node">
<title>0</title>
<path fill="none" stroke="#56d892" stroke-width="2" d="M194.4008,-36C194.4008,-36 164.4008,-36 164.4008,-36 158.4008,-36 152.4008,-30 152.4008,-24 152.4008,-24 152.4008,-12 152.4008,-12 152.4008,-6 158.4008,0 164.4008,0 164.4008,0 194.4008,0 194.4008,0 200.4008,0 206.4008,-6 206.4008,-12 206.4008,-12 206.4008,-24 206.4008,-24 206.4008,-30 200.4008,-36 194.4008,-36"/>
<text text-anchor="middle" x="179.4008" y="-15.5" font-family="sans" font-size="10.00" fill="#000000">all</text>
</g>
<!-- 1 -->
<g id="node2" class="node">
<title>1</title>
<path fill="none" stroke="#d8a456" stroke-width="2" d="M158.4008,-108C158.4008,-108 46.4008,-108 46.4008,-108 40.4008,-108 34.4008,-102 34.4008,-96 34.4008,-96 34.4008,-84 34.4008,-84 34.4008,-78 40.4008,-72 46.4008,-72 46.4008,-72 158.4008,-72 158.4008,-72 164.4008,-72 170.4008,-78 170.4008,-84 170.4008,-84 170.4008,-96 170.4008,-96 170.4008,-102 164.4008,-108 158.4008,-108"/>
<text text-anchor="middle" x="102.4008" y="-87.5" font-family="sans" font-size="10.00" fill="#000000">post_hic_pilon_polishing</text>
</g>
<!-- 1&#45;&gt;0 -->
<g id="edge1" class="edge">
<title>1&#45;&gt;0</title>
<path fill="none" stroke="#c0c0c0" stroke-width="2" d="M121.8311,-71.8314C131.1328,-63.1337 142.4212,-52.5783 152.5294,-43.1265"/>
<polygon fill="#c0c0c0" stroke="#c0c0c0" stroke-width="2" points="155.0629,-45.5493 159.9767,-36.1628 150.2819,-40.4363 155.0629,-45.5493"/>
</g>
<!-- 2 -->
<g id="node3" class="node">
<title>2</title>
<path fill="none" stroke="#d8a456" stroke-width="2" d="M324.4008,-108C324.4008,-108 212.4008,-108 212.4008,-108 206.4008,-108 200.4008,-102 200.4008,-96 200.4008,-96 200.4008,-84 200.4008,-84 200.4008,-78 206.4008,-72 212.4008,-72 212.4008,-72 324.4008,-72 324.4008,-72 330.4008,-72 336.4008,-78 336.4008,-84 336.4008,-84 336.4008,-96 336.4008,-96 336.4008,-102 330.4008,-108 324.4008,-108"/>
<text text-anchor="middle" x="268.4008" y="-87.5" font-family="sans" font-size="10.00" fill="#000000">post_hic_pilon_polishing</text>
</g>
<!-- 2&#45;&gt;0 -->
<g id="edge2" class="edge">
<title>2&#45;&gt;0</title>
<path fill="none" stroke="#c0c0c0" stroke-width="2" d="M245.9423,-71.8314C234.9803,-62.9632 221.6309,-52.1637 209.7743,-42.5718"/>
<polygon fill="#c0c0c0" stroke="#c0c0c0" stroke-width="2" points="211.8279,-39.7313 201.8521,-36.1628 207.4252,-45.1734 211.8279,-39.7313"/>
</g>
<!-- 3 -->
<g id="node4" class="node">
<title>3</title>
<path fill="none" stroke="#567bd8" stroke-width="2" stroke-dasharray="5,2" d="M115.9008,-478C115.9008,-478 44.9008,-478 44.9008,-478 38.9008,-478 32.9008,-472 32.9008,-466 32.9008,-466 32.9008,-449 32.9008,-449 32.9008,-443 38.9008,-437 44.9008,-437 44.9008,-437 115.9008,-437 115.9008,-437 121.9008,-437 127.9008,-443 127.9008,-449 127.9008,-449 127.9008,-466 127.9008,-466 127.9008,-472 121.9008,-478 115.9008,-478"/>
<text text-anchor="middle" x="80.4008" y="-466" font-family="sans" font-size="10.00" fill="#000000">combine_units</text>
<text text-anchor="middle" x="80.4008" y="-455" font-family="sans" font-size="10.00" fill="#000000">libtype: shotgun</text>
<text text-anchor="middle" x="80.4008" y="-444" font-family="sans" font-size="10.00" fill="#000000">strain: C3</text>
</g>
<!-- 3&#45;&gt;1 -->
<g id="edge3" class="edge">
<title>3&#45;&gt;1</title>
<path fill="none" stroke="#c0c0c0" stroke-width="2" d="M51.1157,-436.8287C39.5544,-427.2106 27.1957,-414.8336 19.4008,-401 -1.2024,-364.4358 .4008,-350.4694 .4008,-308.5 .4008,-308.5 .4008,-308.5 .4008,-234 .4008,-191.6937 6.6083,-178.2806 31.4008,-144 39.6453,-132.6004 50.9791,-122.4914 62.1716,-114.1924"/>
<polygon fill="#c0c0c0" stroke="#c0c0c0" stroke-width="2" points="64.4985,-116.8341 70.6495,-108.2077 60.4615,-111.1154 64.4985,-116.8341"/>
</g>
<!-- 11 -->
<g id="node12" class="node">
<title>11</title>
<path fill="none" stroke="#d8cb56" stroke-width="2" d="M228.4008,-401C228.4008,-401 162.4008,-401 162.4008,-401 156.4008,-401 150.4008,-395 150.4008,-389 150.4008,-389 150.4008,-377 150.4008,-377 150.4008,-371 156.4008,-365 162.4008,-365 162.4008,-365 228.4008,-365 228.4008,-365 234.4008,-365 240.4008,-371 240.4008,-377 240.4008,-377 240.4008,-389 240.4008,-389 240.4008,-395 234.4008,-401 228.4008,-401"/>
<text text-anchor="middle" x="195.4008" y="-380.5" font-family="sans" font-size="10.00" fill="#000000">pilon_polishing</text>
</g>
<!-- 3&#45;&gt;11 -->
<g id="edge19" class="edge">
<title>3&#45;&gt;11</title>
<path fill="none" stroke="#c0c0c0" stroke-width="2" d="M112.1295,-436.9453C126.5791,-427.5845 143.7665,-416.45 158.7635,-406.7346"/>
<polygon fill="#c0c0c0" stroke="#c0c0c0" stroke-width="2" points="160.8133,-409.577 167.3031,-401.2024 157.0073,-403.702 160.8133,-409.577"/>
</g>
<!-- 12 -->
<g id="node13" class="node">
<title>12</title>
<path fill="none" stroke="#d87d56" stroke-width="2" stroke-dasharray="5,2" d="M119.9008,-401C119.9008,-401 40.9008,-401 40.9008,-401 34.9008,-401 28.9008,-395 28.9008,-389 28.9008,-389 28.9008,-377 28.9008,-377 28.9008,-371 34.9008,-365 40.9008,-365 40.9008,-365 119.9008,-365 119.9008,-365 125.9008,-365 131.9008,-371 131.9008,-377 131.9008,-377 131.9008,-389 131.9008,-389 131.9008,-395 125.9008,-401 119.9008,-401"/>
<text text-anchor="middle" x="80.4008" y="-380.5" font-family="sans" font-size="10.00" fill="#000000">combine_fq_pairs</text>
</g>
<!-- 3&#45;&gt;12 -->
<g id="edge21" class="edge">
<title>3&#45;&gt;12</title>
<path fill="none" stroke="#c0c0c0" stroke-width="2" d="M80.4008,-436.7476C80.4008,-428.8767 80.4008,-419.7743 80.4008,-411.3232"/>
<polygon fill="#c0c0c0" stroke="#c0c0c0" stroke-width="2" points="83.9009,-411.1086 80.4008,-401.1087 76.9009,-411.1087 83.9009,-411.1086"/>
</g>
<!-- 4 -->
<g id="node5" class="node">
<title>4</title>
<path fill="none" stroke="#56d86b" stroke-width="2" d="M152.4008,-180C152.4008,-180 52.4008,-180 52.4008,-180 46.4008,-180 40.4008,-174 40.4008,-168 40.4008,-168 40.4008,-156 40.4008,-156 40.4008,-150 46.4008,-144 52.4008,-144 52.4008,-144 152.4008,-144 152.4008,-144 158.4008,-144 164.4008,-150 164.4008,-156 164.4008,-156 164.4008,-168 164.4008,-168 164.4008,-174 158.4008,-180 152.4008,-180"/>
<text text-anchor="middle" x="102.4008" y="-159.5" font-family="sans" font-size="10.00" fill="#000000">instagraal_scaffolding</text>
</g>
<!-- 4&#45;&gt;1 -->
<g id="edge4" class="edge">
<title>4&#45;&gt;1</title>
<path fill="none" stroke="#c0c0c0" stroke-width="2" d="M102.4008,-143.8314C102.4008,-136.131 102.4008,-126.9743 102.4008,-118.4166"/>
<polygon fill="#c0c0c0" stroke="#c0c0c0" stroke-width="2" points="105.9009,-118.4132 102.4008,-108.4133 98.9009,-118.4133 105.9009,-118.4132"/>
</g>
<!-- 5 -->
<g id="node6" class="node">
<title>5</title>
<path fill="none" stroke="#567bd8" stroke-width="2" stroke-dasharray="5,2" d="M383.9008,-478C383.9008,-478 312.9008,-478 312.9008,-478 306.9008,-478 300.9008,-472 300.9008,-466 300.9008,-466 300.9008,-449 300.9008,-449 300.9008,-443 306.9008,-437 312.9008,-437 312.9008,-437 383.9008,-437 383.9008,-437 389.9008,-437 395.9008,-443 395.9008,-449 395.9008,-449 395.9008,-466 395.9008,-466 395.9008,-472 389.9008,-478 383.9008,-478"/>
<text text-anchor="middle" x="348.4008" y="-466" font-family="sans" font-size="10.00" fill="#000000">combine_units</text>
<text text-anchor="middle" x="348.4008" y="-455" font-family="sans" font-size="10.00" fill="#000000">libtype: shotgun</text>
<text text-anchor="middle" x="348.4008" y="-444" font-family="sans" font-size="10.00" fill="#000000">strain: Neff</text>
</g>
<!-- 5&#45;&gt;2 -->
<g id="edge5" class="edge">
<title>5&#45;&gt;2</title>
<path fill="none" stroke="#c0c0c0" stroke-width="2" d="M319.1157,-436.8287C307.5544,-427.2106 295.1957,-414.8336 287.4008,-401 266.7976,-364.4358 268.4008,-350.4694 268.4008,-308.5 268.4008,-308.5 268.4008,-308.5 268.4008,-234 268.4008,-193.876 268.4008,-147.4631 268.4008,-118.4177"/>
<polygon fill="#c0c0c0" stroke="#c0c0c0" stroke-width="2" points="271.9009,-118.1853 268.4008,-108.1854 264.9009,-118.1854 271.9009,-118.1853"/>
</g>
<!-- 14 -->
<g id="node15" class="node">
<title>14</title>
<path fill="none" stroke="#d8cb56" stroke-width="2" d="M496.4008,-401C496.4008,-401 430.4008,-401 430.4008,-401 424.4008,-401 418.4008,-395 418.4008,-389 418.4008,-389 418.4008,-377 418.4008,-377 418.4008,-371 424.4008,-365 430.4008,-365 430.4008,-365 496.4008,-365 496.4008,-365 502.4008,-365 508.4008,-371 508.4008,-377 508.4008,-377 508.4008,-389 508.4008,-389 508.4008,-395 502.4008,-401 496.4008,-401"/>
<text text-anchor="middle" x="463.4008" y="-380.5" font-family="sans" font-size="10.00" fill="#000000">pilon_polishing</text>
</g>
<!-- 5&#45;&gt;14 -->
<g id="edge22" class="edge">
<title>5&#45;&gt;14</title>
<path fill="none" stroke="#c0c0c0" stroke-width="2" d="M380.1295,-436.9453C394.5791,-427.5845 411.7665,-416.45 426.7635,-406.7346"/>
<polygon fill="#c0c0c0" stroke="#c0c0c0" stroke-width="2" points="428.8133,-409.577 435.3031,-401.2024 425.0073,-403.702 428.8133,-409.577"/>
</g>
<!-- 15 -->
<g id="node16" class="node">
<title>15</title>
<path fill="none" stroke="#d87d56" stroke-width="2" stroke-dasharray="5,2" d="M387.9008,-401C387.9008,-401 308.9008,-401 308.9008,-401 302.9008,-401 296.9008,-395 296.9008,-389 296.9008,-389 296.9008,-377 296.9008,-377 296.9008,-371 302.9008,-365 308.9008,-365 308.9008,-365 387.9008,-365 387.9008,-365 393.9008,-365 399.9008,-371 399.9008,-377 399.9008,-377 399.9008,-389 399.9008,-389 399.9008,-395 393.9008,-401 387.9008,-401"/>
<text text-anchor="middle" x="348.4008" y="-380.5" font-family="sans" font-size="10.00" fill="#000000">combine_fq_pairs</text>
</g>
<!-- 5&#45;&gt;15 -->
<g id="edge24" class="edge">
<title>5&#45;&gt;15</title>
<path fill="none" stroke="#c0c0c0" stroke-width="2" d="M348.4008,-436.7476C348.4008,-428.8767 348.4008,-419.7743 348.4008,-411.3232"/>
<polygon fill="#c0c0c0" stroke="#c0c0c0" stroke-width="2" points="351.9009,-411.1086 348.4008,-401.1087 344.9009,-411.1087 351.9009,-411.1086"/>
</g>
<!-- 6 -->
<g id="node7" class="node">
<title>6</title>
<path fill="none" stroke="#56d86b" stroke-width="2" d="M408.4008,-180C408.4008,-180 308.4008,-180 308.4008,-180 302.4008,-180 296.4008,-174 296.4008,-168 296.4008,-168 296.4008,-156 296.4008,-156 296.4008,-150 302.4008,-144 308.4008,-144 308.4008,-144 408.4008,-144 408.4008,-144 414.4008,-144 420.4008,-150 420.4008,-156 420.4008,-156 420.4008,-168 420.4008,-168 420.4008,-174 414.4008,-180 408.4008,-180"/>
<text text-anchor="middle" x="358.4008" y="-159.5" font-family="sans" font-size="10.00" fill="#000000">instagraal_scaffolding</text>
</g>
<!-- 6&#45;&gt;2 -->
<g id="edge6" class="edge">
<title>6&#45;&gt;2</title>
<path fill="none" stroke="#c0c0c0" stroke-width="2" d="M335.69,-143.8314C324.6048,-134.9632 311.1054,-124.1637 299.1156,-114.5718"/>
<polygon fill="#c0c0c0" stroke="#c0c0c0" stroke-width="2" points="301.0995,-111.6768 291.1043,-108.1628 296.7266,-117.1429 301.0995,-111.6768"/>
</g>
<!-- 7 -->
<g id="node8" class="node">
<title>7</title>
<path fill="none" stroke="#56a9d8" stroke-width="2" d="M115.9008,-326.5C115.9008,-326.5 46.9008,-326.5 46.9008,-326.5 40.9008,-326.5 34.9008,-320.5 34.9008,-314.5 34.9008,-314.5 34.9008,-302.5 34.9008,-302.5 34.9008,-296.5 40.9008,-290.5 46.9008,-290.5 46.9008,-290.5 115.9008,-290.5 115.9008,-290.5 121.9008,-290.5 127.9008,-296.5 127.9008,-302.5 127.9008,-302.5 127.9008,-314.5 127.9008,-314.5 127.9008,-320.5 121.9008,-326.5 115.9008,-326.5"/>
<text text-anchor="middle" x="81.4008" y="-306" font-family="sans" font-size="10.00" fill="#000000">racon_polishing</text>
</g>
<!-- 7&#45;&gt;4 -->
<g id="edge7" class="edge">
<title>7&#45;&gt;4</title>
<path fill="none" stroke="#c0c0c0" stroke-width="2" d="M84.018,-290.2419C87.6216,-265.1025 94.1444,-219.5981 98.3724,-190.1029"/>
<polygon fill="#c0c0c0" stroke="#c0c0c0" stroke-width="2" points="101.8621,-190.4235 99.8166,-180.028 94.933,-189.4302 101.8621,-190.4235"/>
</g>
<!-- 8 -->
<g id="node9" class="node">
<title>8</title>
<path fill="none" stroke="#56d0d8" stroke-width="2" d="M227.4008,-252C227.4008,-252 121.4008,-252 121.4008,-252 115.4008,-252 109.4008,-246 109.4008,-240 109.4008,-240 109.4008,-228 109.4008,-228 109.4008,-222 115.4008,-216 121.4008,-216 121.4008,-216 227.4008,-216 227.4008,-216 233.4008,-216 239.4008,-222 239.4008,-228 239.4008,-228 239.4008,-240 239.4008,-240 239.4008,-246 233.4008,-252 227.4008,-252"/>
<text text-anchor="middle" x="174.4008" y="-231.5" font-family="sans" font-size="10.00" fill="#000000">hicstuff_hic_processing</text>
</g>
<!-- 7&#45;&gt;8 -->
<g id="edge14" class="edge">
<title>7&#45;&gt;8</title>
<path fill="none" stroke="#c0c0c0" stroke-width="2" d="M103.9135,-290.4656C115.9332,-280.8369 130.8976,-268.8493 143.9424,-258.3995"/>
<polygon fill="#c0c0c0" stroke="#c0c0c0" stroke-width="2" points="146.1567,-261.1102 151.7731,-252.1265 141.7802,-255.647 146.1567,-261.1102"/>
</g>
<!-- 8&#45;&gt;4 -->
<g id="edge8" class="edge">
<title>8&#45;&gt;4</title>
<path fill="none" stroke="#c0c0c0" stroke-width="2" d="M156.2321,-215.8314C147.6855,-207.2848 137.3451,-196.9443 128.0206,-187.6198"/>
<polygon fill="#c0c0c0" stroke="#c0c0c0" stroke-width="2" points="130.36,-185.0095 120.8141,-180.4133 125.4103,-189.9592 130.36,-185.0095"/>
</g>
<!-- 9 -->
<g id="node10" class="node">
<title>9</title>
<path fill="none" stroke="#56a9d8" stroke-width="2" d="M387.9008,-326.5C387.9008,-326.5 318.9008,-326.5 318.9008,-326.5 312.9008,-326.5 306.9008,-320.5 306.9008,-314.5 306.9008,-314.5 306.9008,-302.5 306.9008,-302.5 306.9008,-296.5 312.9008,-290.5 318.9008,-290.5 318.9008,-290.5 387.9008,-290.5 387.9008,-290.5 393.9008,-290.5 399.9008,-296.5 399.9008,-302.5 399.9008,-302.5 399.9008,-314.5 399.9008,-314.5 399.9008,-320.5 393.9008,-326.5 387.9008,-326.5"/>
<text text-anchor="middle" x="353.4008" y="-306" font-family="sans" font-size="10.00" fill="#000000">racon_polishing</text>
</g>
<!-- 9&#45;&gt;6 -->
<g id="edge9" class="edge">
<title>9&#45;&gt;6</title>
<path fill="none" stroke="#c0c0c0" stroke-width="2" d="M354.0239,-290.2419C354.8819,-265.1025 356.435,-219.5981 357.4416,-190.1029"/>
<polygon fill="#c0c0c0" stroke="#c0c0c0" stroke-width="2" points="360.9423,-190.1416 357.7855,-180.028 353.9463,-189.9028 360.9423,-190.1416"/>
</g>
<!-- 10 -->
<g id="node11" class="node">
<title>10</title>
<path fill="none" stroke="#56d0d8" stroke-width="2" d="M499.4008,-252C499.4008,-252 393.4008,-252 393.4008,-252 387.4008,-252 381.4008,-246 381.4008,-240 381.4008,-240 381.4008,-228 381.4008,-228 381.4008,-222 387.4008,-216 393.4008,-216 393.4008,-216 499.4008,-216 499.4008,-216 505.4008,-216 511.4008,-222 511.4008,-228 511.4008,-228 511.4008,-240 511.4008,-240 511.4008,-246 505.4008,-252 499.4008,-252"/>
<text text-anchor="middle" x="446.4008" y="-231.5" font-family="sans" font-size="10.00" fill="#000000">hicstuff_hic_processing</text>
</g>
<!-- 9&#45;&gt;10 -->
<g id="edge18" class="edge">
<title>9&#45;&gt;10</title>
<path fill="none" stroke="#c0c0c0" stroke-width="2" d="M375.9135,-290.4656C387.9332,-280.8369 402.8976,-268.8493 415.9424,-258.3995"/>
<polygon fill="#c0c0c0" stroke="#c0c0c0" stroke-width="2" points="418.1567,-261.1102 423.7731,-252.1265 413.7802,-255.647 418.1567,-261.1102"/>
</g>
<!-- 10&#45;&gt;6 -->
<g id="edge10" class="edge">
<title>10&#45;&gt;6</title>
<path fill="none" stroke="#c0c0c0" stroke-width="2" d="M424.1947,-215.8314C413.3558,-206.9632 400.1564,-196.1637 388.433,-186.5718"/>
<polygon fill="#c0c0c0" stroke="#c0c0c0" stroke-width="2" points="390.5557,-183.7864 380.5998,-180.1628 386.123,-189.2041 390.5557,-183.7864"/>
</g>
<!-- 11&#45;&gt;7 -->
<g id="edge11" class="edge">
<title>11&#45;&gt;7</title>
<path fill="none" stroke="#c0c0c0" stroke-width="2" d="M167.8046,-364.9656C152.7927,-355.1552 134.0338,-342.8961 117.8343,-332.3096"/>
<polygon fill="#c0c0c0" stroke="#c0c0c0" stroke-width="2" points="119.4237,-329.1672 109.138,-326.6265 115.5943,-335.0269 119.4237,-329.1672"/>
</g>
<!-- 12&#45;&gt;7 -->
<g id="edge12" class="edge">
<title>12&#45;&gt;7</title>
<path fill="none" stroke="#c0c0c0" stroke-width="2" d="M80.6429,-364.9656C80.7563,-356.5178 80.894,-346.2542 81.0208,-336.8064"/>
<polygon fill="#c0c0c0" stroke="#c0c0c0" stroke-width="2" points="84.5229,-336.6726 81.1575,-326.6265 77.5235,-336.5786 84.5229,-336.6726"/>
</g>
<!-- 13 -->
<g id="node14" class="node">
<title>13</title>
<path fill="none" stroke="#567bd8" stroke-width="2" stroke-dasharray="5,2" d="M222.4008,-329C222.4008,-329 158.4008,-329 158.4008,-329 152.4008,-329 146.4008,-323 146.4008,-317 146.4008,-317 146.4008,-300 146.4008,-300 146.4008,-294 152.4008,-288 158.4008,-288 158.4008,-288 222.4008,-288 222.4008,-288 228.4008,-288 234.4008,-294 234.4008,-300 234.4008,-300 234.4008,-317 234.4008,-317 234.4008,-323 228.4008,-329 222.4008,-329"/>
<text text-anchor="middle" x="190.4008" y="-317" font-family="sans" font-size="10.00" fill="#000000">combine_units</text>
<text text-anchor="middle" x="190.4008" y="-306" font-family="sans" font-size="10.00" fill="#000000">libtype: Hi&#45;C</text>
<text text-anchor="middle" x="190.4008" y="-295" font-family="sans" font-size="10.00" fill="#000000">strain: C3</text>
</g>
<!-- 13&#45;&gt;8 -->
<g id="edge13" class="edge">
<title>13&#45;&gt;8</title>
<path fill="none" stroke="#c0c0c0" stroke-width="2" d="M185.9439,-287.7476C184.2347,-279.7892 182.2551,-270.5718 180.4232,-262.0418"/>
<polygon fill="#c0c0c0" stroke="#c0c0c0" stroke-width="2" points="183.8117,-261.1508 178.2899,-252.1087 176.9678,-262.6207 183.8117,-261.1508"/>
</g>
<!-- 14&#45;&gt;9 -->
<g id="edge15" class="edge">
<title>14&#45;&gt;9</title>
<path fill="none" stroke="#c0c0c0" stroke-width="2" d="M436.7729,-364.9656C422.2877,-355.1552 404.187,-342.8961 388.556,-332.3096"/>
<polygon fill="#c0c0c0" stroke="#c0c0c0" stroke-width="2" points="390.4072,-329.3363 380.1648,-326.6265 386.4818,-335.1321 390.4072,-329.3363"/>
</g>
<!-- 15&#45;&gt;9 -->
<g id="edge16" class="edge">
<title>15&#45;&gt;9</title>
<path fill="none" stroke="#c0c0c0" stroke-width="2" d="M349.6111,-364.9656C350.1781,-356.5178 350.8669,-346.2542 351.501,-336.8064"/>
<polygon fill="#c0c0c0" stroke="#c0c0c0" stroke-width="2" points="355.0067,-336.8385 352.1842,-326.6265 348.0224,-336.3697 355.0067,-336.8385"/>
</g>
<!-- 16 -->
<g id="node17" class="node">
<title>16</title>
<path fill="none" stroke="#567bd8" stroke-width="2" stroke-dasharray="5,2" d="M494.4008,-329C494.4008,-329 430.4008,-329 430.4008,-329 424.4008,-329 418.4008,-323 418.4008,-317 418.4008,-317 418.4008,-300 418.4008,-300 418.4008,-294 424.4008,-288 430.4008,-288 430.4008,-288 494.4008,-288 494.4008,-288 500.4008,-288 506.4008,-294 506.4008,-300 506.4008,-300 506.4008,-317 506.4008,-317 506.4008,-323 500.4008,-329 494.4008,-329"/>
<text text-anchor="middle" x="462.4008" y="-317" font-family="sans" font-size="10.00" fill="#000000">combine_units</text>
<text text-anchor="middle" x="462.4008" y="-306" font-family="sans" font-size="10.00" fill="#000000">libtype: Hi&#45;C</text>
<text text-anchor="middle" x="462.4008" y="-295" font-family="sans" font-size="10.00" fill="#000000">strain: Neff</text>
</g>
<!-- 16&#45;&gt;10 -->
<g id="edge17" class="edge">
<title>16&#45;&gt;10</title>
<path fill="none" stroke="#c0c0c0" stroke-width="2" d="M457.9439,-287.7476C456.2347,-279.7892 454.2551,-270.5718 452.4232,-262.0418"/>
<polygon fill="#c0c0c0" stroke="#c0c0c0" stroke-width="2" points="455.8117,-261.1508 450.2899,-252.1087 448.9678,-262.6207 455.8117,-261.1508"/>
</g>
<!-- 17 -->
<g id="node18" class="node">
<title>17</title>
<path fill="none" stroke="#d85656" stroke-width="2" d="M226.9008,-475.5C226.9008,-475.5 163.9008,-475.5 163.9008,-475.5 157.9008,-475.5 151.9008,-469.5 151.9008,-463.5 151.9008,-463.5 151.9008,-451.5 151.9008,-451.5 151.9008,-445.5 157.9008,-439.5 163.9008,-439.5 163.9008,-439.5 226.9008,-439.5 226.9008,-439.5 232.9008,-439.5 238.9008,-445.5 238.9008,-451.5 238.9008,-451.5 238.9008,-463.5 238.9008,-463.5 238.9008,-469.5 232.9008,-475.5 226.9008,-475.5"/>
<text text-anchor="middle" x="195.4008" y="-455" font-family="sans" font-size="10.00" fill="#000000">flye_assembly</text>
</g>
<!-- 17&#45;&gt;11 -->
<g id="edge20" class="edge">
<title>17&#45;&gt;11</title>
<path fill="none" stroke="#c0c0c0" stroke-width="2" d="M195.4008,-439.4656C195.4008,-431.0178 195.4008,-420.7542 195.4008,-411.3064"/>
<polygon fill="#c0c0c0" stroke="#c0c0c0" stroke-width="2" points="198.9009,-411.1265 195.4008,-401.1265 191.9009,-411.1265 198.9009,-411.1265"/>
</g>
<!-- 18 -->
<g id="node19" class="node">
<title>18</title>
<path fill="none" stroke="#d85656" stroke-width="2" d="M494.9008,-475.5C494.9008,-475.5 431.9008,-475.5 431.9008,-475.5 425.9008,-475.5 419.9008,-469.5 419.9008,-463.5 419.9008,-463.5 419.9008,-451.5 419.9008,-451.5 419.9008,-445.5 425.9008,-439.5 431.9008,-439.5 431.9008,-439.5 494.9008,-439.5 494.9008,-439.5 500.9008,-439.5 506.9008,-445.5 506.9008,-451.5 506.9008,-451.5 506.9008,-463.5 506.9008,-463.5 506.9008,-469.5 500.9008,-475.5 494.9008,-475.5"/>
<text text-anchor="middle" x="463.4008" y="-455" font-family="sans" font-size="10.00" fill="#000000">flye_assembly</text>
</g>
<!-- 18&#45;&gt;14 -->
<g id="edge23" class="edge">
<title>18&#45;&gt;14</title>
<path fill="none" stroke="#c0c0c0" stroke-width="2" d="M463.4008,-439.4656C463.4008,-431.0178 463.4008,-420.7542 463.4008,-411.3064"/>
<polygon fill="#c0c0c0" stroke="#c0c0c0" stroke-width="2" points="466.9009,-411.1265 463.4008,-401.1265 459.9009,-411.1265 466.9009,-411.1265"/>
</g>
<!-- 19 -->
<g id="node20" class="node">
<title>19</title>
<path fill="none" stroke="#b6d856" stroke-width="2" d="M245.4008,-550C245.4008,-550 145.4008,-550 145.4008,-550 139.4008,-550 133.4008,-544 133.4008,-538 133.4008,-538 133.4008,-526 133.4008,-526 133.4008,-520 139.4008,-514 145.4008,-514 145.4008,-514 245.4008,-514 245.4008,-514 251.4008,-514 257.4008,-520 257.4008,-526 257.4008,-526 257.4008,-538 257.4008,-538 257.4008,-544 251.4008,-550 245.4008,-550"/>
<text text-anchor="middle" x="195.4008" y="-529.5" font-family="sans" font-size="10.00" fill="#000000">long_reads_correction</text>
</g>
<!-- 19&#45;&gt;17 -->
<g id="edge25" class="edge">
<title>19&#45;&gt;17</title>
<path fill="none" stroke="#c0c0c0" stroke-width="2" d="M195.4008,-513.9656C195.4008,-505.5178 195.4008,-495.2542 195.4008,-485.8064"/>
<polygon fill="#c0c0c0" stroke="#c0c0c0" stroke-width="2" points="198.9009,-485.6265 195.4008,-475.6265 191.9009,-485.6265 198.9009,-485.6265"/>
</g>
<!-- 20 -->
<g id="node21" class="node">
<title>20</title>
<path fill="none" stroke="#b6d856" stroke-width="2" d="M513.4008,-550C513.4008,-550 413.4008,-550 413.4008,-550 407.4008,-550 401.4008,-544 401.4008,-538 401.4008,-538 401.4008,-526 401.4008,-526 401.4008,-520 407.4008,-514 413.4008,-514 413.4008,-514 513.4008,-514 513.4008,-514 519.4008,-514 525.4008,-520 525.4008,-526 525.4008,-526 525.4008,-538 525.4008,-538 525.4008,-544 519.4008,-550 513.4008,-550"/>
<text text-anchor="middle" x="463.4008" y="-529.5" font-family="sans" font-size="10.00" fill="#000000">long_reads_correction</text>
</g>
<!-- 20&#45;&gt;18 -->
<g id="edge26" class="edge">
<title>20&#45;&gt;18</title>
<path fill="none" stroke="#c0c0c0" stroke-width="2" d="M463.4008,-513.9656C463.4008,-505.5178 463.4008,-495.2542 463.4008,-485.8064"/>
<polygon fill="#c0c0c0" stroke="#c0c0c0" stroke-width="2" points="466.9009,-485.6265 463.4008,-475.6265 459.9009,-485.6265 466.9009,-485.6265"/>
</g>
<!-- 21 -->
<g id="node22" class="node">
<title>21</title>
<path fill="none" stroke="#68d856" stroke-width="2" stroke-dasharray="5,2" d="M239.9008,-622C239.9008,-622 150.9008,-622 150.9008,-622 144.9008,-622 138.9008,-616 138.9008,-610 138.9008,-610 138.9008,-598 138.9008,-598 138.9008,-592 144.9008,-586 150.9008,-586 150.9008,-586 239.9008,-586 239.9008,-586 245.9008,-586 251.9008,-592 251.9008,-598 251.9008,-598 251.9008,-610 251.9008,-610 251.9008,-616 245.9008,-622 239.9008,-622"/>
<text text-anchor="middle" x="195.4008" y="-601.5" font-family="sans" font-size="10.00" fill="#000000">fastq_to_fasta_ONT</text>
</g>
<!-- 21&#45;&gt;19 -->
<g id="edge27" class="edge">
<title>21&#45;&gt;19</title>
<path fill="none" stroke="#c0c0c0" stroke-width="2" d="M195.4008,-585.8314C195.4008,-578.131 195.4008,-568.9743 195.4008,-560.4166"/>
<polygon fill="#c0c0c0" stroke="#c0c0c0" stroke-width="2" points="198.9009,-560.4132 195.4008,-550.4133 191.9009,-560.4133 198.9009,-560.4132"/>
</g>
<!-- 22 -->
<g id="node23" class="node">
<title>22</title>
<path fill="none" stroke="#68d856" stroke-width="2" stroke-dasharray="5,2" d="M507.9008,-622C507.9008,-622 418.9008,-622 418.9008,-622 412.9008,-622 406.9008,-616 406.9008,-610 406.9008,-610 406.9008,-598 406.9008,-598 406.9008,-592 412.9008,-586 418.9008,-586 418.9008,-586 507.9008,-586 507.9008,-586 513.9008,-586 519.9008,-592 519.9008,-598 519.9008,-598 519.9008,-610 519.9008,-610 519.9008,-616 513.9008,-622 507.9008,-622"/>
<text text-anchor="middle" x="463.4008" y="-601.5" font-family="sans" font-size="10.00" fill="#000000">fastq_to_fasta_ONT</text>
</g>
<!-- 22&#45;&gt;20 -->
<g id="edge28" class="edge">
<title>22&#45;&gt;20</title>
<path fill="none" stroke="#c0c0c0" stroke-width="2" d="M463.4008,-585.8314C463.4008,-578.131 463.4008,-568.9743 463.4008,-560.4166"/>
<polygon fill="#c0c0c0" stroke="#c0c0c0" stroke-width="2" points="466.9009,-560.4132 463.4008,-550.4133 459.9009,-560.4133 466.9009,-560.4132"/>
</g>
<!-- 23 -->
<g id="node24" class="node">
<title>23</title>
<path fill="none" stroke="#567bd8" stroke-width="2" stroke-dasharray="5,2" d="M238.4008,-699C238.4008,-699 152.4008,-699 152.4008,-699 146.4008,-699 140.4008,-693 140.4008,-687 140.4008,-687 140.4008,-670 140.4008,-670 140.4008,-664 146.4008,-658 152.4008,-658 152.4008,-658 238.4008,-658 238.4008,-658 244.4008,-658 250.4008,-664 250.4008,-670 250.4008,-670 250.4008,-687 250.4008,-687 250.4008,-693 244.4008,-699 238.4008,-699"/>
<text text-anchor="middle" x="195.4008" y="-687" font-family="sans" font-size="10.00" fill="#000000">combine_units</text>
<text text-anchor="middle" x="195.4008" y="-676" font-family="sans" font-size="10.00" fill="#000000">libtype: long_reads</text>
<text text-anchor="middle" x="195.4008" y="-665" font-family="sans" font-size="10.00" fill="#000000">strain: C3</text>
</g>
<!-- 23&#45;&gt;21 -->
<g id="edge29" class="edge">
<title>23&#45;&gt;21</title>
<path fill="none" stroke="#c0c0c0" stroke-width="2" d="M195.4008,-657.7476C195.4008,-649.8767 195.4008,-640.7743 195.4008,-632.3232"/>
<polygon fill="#c0c0c0" stroke="#c0c0c0" stroke-width="2" points="198.9009,-632.1086 195.4008,-622.1087 191.9009,-632.1087 198.9009,-632.1086"/>
</g>
<!-- 24 -->
<g id="node25" class="node">
<title>24</title>
<path fill="none" stroke="#567bd8" stroke-width="2" stroke-dasharray="5,2" d="M506.4008,-699C506.4008,-699 420.4008,-699 420.4008,-699 414.4008,-699 408.4008,-693 408.4008,-687 408.4008,-687 408.4008,-670 408.4008,-670 408.4008,-664 414.4008,-658 420.4008,-658 420.4008,-658 506.4008,-658 506.4008,-658 512.4008,-658 518.4008,-664 518.4008,-670 518.4008,-670 518.4008,-687 518.4008,-687 518.4008,-693 512.4008,-699 506.4008,-699"/>
<text text-anchor="middle" x="463.4008" y="-687" font-family="sans" font-size="10.00" fill="#000000">combine_units</text>
<text text-anchor="middle" x="463.4008" y="-676" font-family="sans" font-size="10.00" fill="#000000">libtype: long_reads</text>
<text text-anchor="middle" x="463.4008" y="-665" font-family="sans" font-size="10.00" fill="#000000">strain: Neff</text>
</g>
<!-- 24&#45;&gt;22 -->
<g id="edge30" class="edge">
<title>24&#45;&gt;22</title>
<path fill="none" stroke="#c0c0c0" stroke-width="2" d="M463.4008,-657.7476C463.4008,-649.8767 463.4008,-640.7743 463.4008,-632.3232"/>
<polygon fill="#c0c0c0" stroke="#c0c0c0" stroke-width="2" points="466.9009,-632.1086 463.4008,-622.1087 459.9009,-632.1087 466.9009,-632.1086"/>
</g>
</g>
</svg>
