<?xml version="1.0" encoding="UTF-8" standalone="no"?>
<!DOCTYPE svg PUBLIC "-//W3C//DTD SVG 1.1//EN"
 "http://www.w3.org/Graphics/SVG/1.1/DTD/svg11.dtd">
<!-- Generated by graphviz version 2.40.1 (20161225.0304)
 -->
<!-- Title: snakemake_dag Pages: 1 -->
<svg width="756pt" height="1499pt"
 viewBox="0.00 0.00 756.49 1499.00" xmlns="http://www.w3.org/2000/svg" xmlns:xlink="http://www.w3.org/1999/xlink">
<g id="graph0" class="graph" transform="scale(1 1) rotate(0) translate(4 1495)">
<title>snakemake_dag</title>
<polygon fill="#ffffff" stroke="transparent" points="-4,4 -4,-1495 752.4859,-1495 752.4859,4 -4,4"/>
<!-- 0 -->
<g id="node1" class="node">
<title>0</title>
<path fill="none" stroke="#d8d356" stroke-width="2" d="M447.9859,-36C447.9859,-36 417.9859,-36 417.9859,-36 411.9859,-36 405.9859,-30 405.9859,-24 405.9859,-24 405.9859,-12 405.9859,-12 405.9859,-6 411.9859,0 417.9859,0 417.9859,0 447.9859,0 447.9859,0 453.9859,0 459.9859,-6 459.9859,-12 459.9859,-12 459.9859,-24 459.9859,-24 459.9859,-30 453.9859,-36 447.9859,-36"/>
<text text-anchor="middle" x="432.9859" y="-15.5" font-family="sans" font-size="10.00" fill="#000000">all</text>
</g>
<!-- 1 -->
<g id="node2" class="node">
<title>1</title>
<path fill="none" stroke="#56d88a" stroke-width="2" d="M412.4859,-108C412.4859,-108 279.4859,-108 279.4859,-108 273.4859,-108 267.4859,-102 267.4859,-96 267.4859,-96 267.4859,-84 267.4859,-84 267.4859,-78 273.4859,-72 279.4859,-72 279.4859,-72 412.4859,-72 412.4859,-72 418.4859,-72 424.4859,-78 424.4859,-84 424.4859,-84 424.4859,-96 424.4859,-96 424.4859,-102 418.4859,-108 412.4859,-108"/>
<text text-anchor="middle" x="345.9859" y="-87.5" font-family="sans" font-size="10.00" fill="#000000">post_hic_pilon_polishing_round2</text>
</g>
<!-- 1&#45;&gt;0 -->
<g id="edge1" class="edge">
<title>1&#45;&gt;0</title>
<path fill="none" stroke="#c0c0c0" stroke-width="2" d="M367.9397,-71.8314C378.6554,-62.9632 391.7048,-52.1637 403.295,-42.5718"/>
<polygon fill="#c0c0c0" stroke="#c0c0c0" stroke-width="2" points="405.5667,-45.2349 411.0392,-36.1628 401.1037,-39.8422 405.5667,-45.2349"/>
</g>
<!-- 2 -->
<g id="node3" class="node">
<title>2</title>
<path fill="none" stroke="#56d88a" stroke-width="2" d="M607.4859,-108C607.4859,-108 474.4859,-108 474.4859,-108 468.4859,-108 462.4859,-102 462.4859,-96 462.4859,-96 462.4859,-84 462.4859,-84 462.4859,-78 468.4859,-72 474.4859,-72 474.4859,-72 607.4859,-72 607.4859,-72 613.4859,-72 619.4859,-78 619.4859,-84 619.4859,-84 619.4859,-96 619.4859,-96 619.4859,-102 613.4859,-108 607.4859,-108"/>
<text text-anchor="middle" x="540.9859" y="-87.5" font-family="sans" font-size="10.00" fill="#000000">post_hic_pilon_polishing_round2</text>
</g>
<!-- 2&#45;&gt;0 -->
<g id="edge2" class="edge">
<title>2&#45;&gt;0</title>
<path fill="none" stroke="#c0c0c0" stroke-width="2" d="M513.733,-71.8314C500.047,-62.7074 483.2945,-51.539 468.6032,-41.7449"/>
<polygon fill="#c0c0c0" stroke="#c0c0c0" stroke-width="2" points="470.4922,-38.7977 460.2302,-36.1628 466.6092,-44.6221 470.4922,-38.7977"/>
</g>
<!-- 3 -->
<g id="node4" class="node">
<title>3</title>
<path fill="none" stroke="#78d856" stroke-width="2" d="M423.4859,-180C423.4859,-180 268.4859,-180 268.4859,-180 262.4859,-180 256.4859,-174 256.4859,-168 256.4859,-168 256.4859,-156 256.4859,-156 256.4859,-150 262.4859,-144 268.4859,-144 268.4859,-144 423.4859,-144 423.4859,-144 429.4859,-144 435.4859,-150 435.4859,-156 435.4859,-156 435.4859,-168 435.4859,-168 435.4859,-174 429.4859,-180 423.4859,-180"/>
<text text-anchor="middle" x="345.9859" y="-159.5" font-family="sans" font-size="10.00" fill="#000000">index_shotgun_bam_pilon_3c_round2</text>
</g>
<!-- 3&#45;&gt;1 -->
<g id="edge3" class="edge">
<title>3&#45;&gt;1</title>
<path fill="none" stroke="#c0c0c0" stroke-width="2" d="M345.9859,-143.8314C345.9859,-136.131 345.9859,-126.9743 345.9859,-118.4166"/>
<polygon fill="#c0c0c0" stroke="#c0c0c0" stroke-width="2" points="349.486,-118.4132 345.9859,-108.4133 342.486,-118.4133 349.486,-118.4132"/>
</g>
<!-- 4 -->
<g id="node5" class="node">
<title>4</title>
<path fill="none" stroke="#5682d8" stroke-width="2" d="M283.9859,-324C283.9859,-324 185.9859,-324 185.9859,-324 179.9859,-324 173.9859,-318 173.9859,-312 173.9859,-312 173.9859,-300 173.9859,-300 173.9859,-294 179.9859,-288 185.9859,-288 185.9859,-288 283.9859,-288 283.9859,-288 289.9859,-288 295.9859,-294 295.9859,-300 295.9859,-300 295.9859,-312 295.9859,-312 295.9859,-318 289.9859,-324 283.9859,-324"/>
<text text-anchor="middle" x="234.9859" y="-303.5" font-family="sans" font-size="10.00" fill="#000000">post_hic_pilon_polishing</text>
</g>
<!-- 4&#45;&gt;1 -->
<g id="edge4" class="edge">
<title>4&#45;&gt;1</title>
<path fill="none" stroke="#c0c0c0" stroke-width="2" d="M231.1318,-287.9773C225.3646,-256.1025 218.0253,-188.9158 246.9859,-144 255.4713,-130.8398 268.3179,-120.6319 281.9723,-112.816"/>
<polygon fill="#c0c0c0" stroke="#c0c0c0" stroke-width="2" points="283.8276,-115.7939 291.0241,-108.0183 280.5494,-109.609 283.8276,-115.7939"/>
</g>
<!-- 7 -->
<g id="node8" class="node">
<title>7</title>
<path fill="none" stroke="#88d856" stroke-width="2" d="M417.9859,-252C417.9859,-252 267.9859,-252 267.9859,-252 261.9859,-252 255.9859,-246 255.9859,-240 255.9859,-240 255.9859,-228 255.9859,-228 255.9859,-222 261.9859,-216 267.9859,-216 267.9859,-216 417.9859,-216 417.9859,-216 423.9859,-216 429.9859,-222 429.9859,-228 429.9859,-228 429.9859,-240 429.9859,-240 429.9859,-246 423.9859,-252 417.9859,-252"/>
<text text-anchor="middle" x="342.9859" y="-231.5" font-family="sans" font-size="10.00" fill="#000000">align_shotgun_3c_assembly_round2</text>
</g>
<!-- 4&#45;&gt;7 -->
<g id="edge14" class="edge">
<title>4&#45;&gt;7</title>
<path fill="none" stroke="#c0c0c0" stroke-width="2" d="M262.2389,-287.8314C275.9248,-278.7074 292.6774,-267.539 307.3686,-257.7449"/>
<polygon fill="#c0c0c0" stroke="#c0c0c0" stroke-width="2" points="309.3626,-260.6221 315.7417,-252.1628 305.4797,-254.7977 309.3626,-260.6221"/>
</g>
<!-- 5 -->
<g id="node6" class="node">
<title>5</title>
<path fill="none" stroke="#78d856" stroke-width="2" d="M736.4859,-180C736.4859,-180 581.4859,-180 581.4859,-180 575.4859,-180 569.4859,-174 569.4859,-168 569.4859,-168 569.4859,-156 569.4859,-156 569.4859,-150 575.4859,-144 581.4859,-144 581.4859,-144 736.4859,-144 736.4859,-144 742.4859,-144 748.4859,-150 748.4859,-156 748.4859,-156 748.4859,-168 748.4859,-168 748.4859,-174 742.4859,-180 736.4859,-180"/>
<text text-anchor="middle" x="658.9859" y="-159.5" font-family="sans" font-size="10.00" fill="#000000">index_shotgun_bam_pilon_3c_round2</text>
</g>
<!-- 5&#45;&gt;2 -->
<g id="edge5" class="edge">
<title>5&#45;&gt;2</title>
<path fill="none" stroke="#c0c0c0" stroke-width="2" d="M629.2095,-143.8314C614.1166,-134.6221 595.6103,-123.3301 579.4517,-113.4706"/>
<polygon fill="#c0c0c0" stroke="#c0c0c0" stroke-width="2" points="581.1122,-110.3838 570.7528,-108.1628 577.4661,-116.3593 581.1122,-110.3838"/>
</g>
<!-- 6 -->
<g id="node7" class="node">
<title>6</title>
<path fill="none" stroke="#5682d8" stroke-width="2" d="M628.9859,-324C628.9859,-324 530.9859,-324 530.9859,-324 524.9859,-324 518.9859,-318 518.9859,-312 518.9859,-312 518.9859,-300 518.9859,-300 518.9859,-294 524.9859,-288 530.9859,-288 530.9859,-288 628.9859,-288 628.9859,-288 634.9859,-288 640.9859,-294 640.9859,-300 640.9859,-300 640.9859,-312 640.9859,-312 640.9859,-318 634.9859,-324 628.9859,-324"/>
<text text-anchor="middle" x="579.9859" y="-303.5" font-family="sans" font-size="10.00" fill="#000000">post_hic_pilon_polishing</text>
</g>
<!-- 6&#45;&gt;2 -->
<g id="edge6" class="edge">
<title>6&#45;&gt;2</title>
<path fill="none" stroke="#c0c0c0" stroke-width="2" d="M573.3773,-287.7169C569.8488,-277.3558 565.6883,-264.0856 562.9859,-252 552.6358,-205.7121 546.4238,-150.8252 543.3577,-118.2894"/>
<polygon fill="#c0c0c0" stroke="#c0c0c0" stroke-width="2" points="546.8277,-117.7993 542.4371,-108.1571 539.8564,-118.4328 546.8277,-117.7993"/>
</g>
<!-- 10 -->
<g id="node11" class="node">
<title>10</title>
<path fill="none" stroke="#88d856" stroke-width="2" d="M733.9859,-252C733.9859,-252 583.9859,-252 583.9859,-252 577.9859,-252 571.9859,-246 571.9859,-240 571.9859,-240 571.9859,-228 571.9859,-228 571.9859,-222 577.9859,-216 583.9859,-216 583.9859,-216 733.9859,-216 733.9859,-216 739.9859,-216 745.9859,-222 745.9859,-228 745.9859,-228 745.9859,-240 745.9859,-240 745.9859,-246 739.9859,-252 733.9859,-252"/>
<text text-anchor="middle" x="658.9859" y="-231.5" font-family="sans" font-size="10.00" fill="#000000">align_shotgun_3c_assembly_round2</text>
</g>
<!-- 6&#45;&gt;10 -->
<g id="edge19" class="edge">
<title>6&#45;&gt;10</title>
<path fill="none" stroke="#c0c0c0" stroke-width="2" d="M599.921,-287.8314C609.4642,-279.1337 621.0458,-268.5783 631.4165,-259.1265"/>
<polygon fill="#c0c0c0" stroke="#c0c0c0" stroke-width="2" points="634.0239,-261.4857 639.0573,-252.1628 629.3087,-256.3121 634.0239,-261.4857"/>
</g>
<!-- 7&#45;&gt;3 -->
<g id="edge7" class="edge">
<title>7&#45;&gt;3</title>
<path fill="none" stroke="#c0c0c0" stroke-width="2" d="M343.743,-215.8314C344.0638,-208.131 344.4453,-198.9743 344.8019,-190.4166"/>
<polygon fill="#c0c0c0" stroke="#c0c0c0" stroke-width="2" points="348.2993,-190.5503 345.2187,-180.4133 341.3053,-190.2589 348.2993,-190.5503"/>
</g>
<!-- 8 -->
<g id="node9" class="node">
<title>8</title>
<path fill="none" stroke="#566bd8" stroke-width="2" d="M299.4859,-396C299.4859,-396 178.4859,-396 178.4859,-396 172.4859,-396 166.4859,-390 166.4859,-384 166.4859,-384 166.4859,-372 166.4859,-372 166.4859,-366 172.4859,-360 178.4859,-360 178.4859,-360 299.4859,-360 299.4859,-360 305.4859,-360 311.4859,-366 311.4859,-372 311.4859,-372 311.4859,-384 311.4859,-384 311.4859,-390 305.4859,-396 299.4859,-396"/>
<text text-anchor="middle" x="238.9859" y="-375.5" font-family="sans" font-size="10.00" fill="#000000">index_shotgun_bam_pilon_3c</text>
</g>
<!-- 8&#45;&gt;4 -->
<g id="edge8" class="edge">
<title>8&#45;&gt;4</title>
<path fill="none" stroke="#c0c0c0" stroke-width="2" d="M237.9766,-359.8314C237.5488,-352.131 237.0401,-342.9743 236.5646,-334.4166"/>
<polygon fill="#c0c0c0" stroke="#c0c0c0" stroke-width="2" points="240.0583,-334.2037 236.0089,-324.4133 233.0691,-334.592 240.0583,-334.2037"/>
</g>
<!-- 9 -->
<g id="node10" class="node">
<title>9</title>
<path fill="none" stroke="#d8ac56" stroke-width="2" d="M189.4859,-540C189.4859,-540 120.4859,-540 120.4859,-540 114.4859,-540 108.4859,-534 108.4859,-528 108.4859,-528 108.4859,-516 108.4859,-516 108.4859,-510 114.4859,-504 120.4859,-504 120.4859,-504 189.4859,-504 189.4859,-504 195.4859,-504 201.4859,-510 201.4859,-516 201.4859,-516 201.4859,-528 201.4859,-528 201.4859,-534 195.4859,-540 189.4859,-540"/>
<text text-anchor="middle" x="154.9859" y="-519.5" font-family="sans" font-size="10.00" fill="#000000">merge_organelles</text>
</g>
<!-- 9&#45;&gt;4 -->
<g id="edge9" class="edge">
<title>9&#45;&gt;4</title>
<path fill="none" stroke="#c0c0c0" stroke-width="2" d="M150.0785,-503.6639C142.7163,-472.17 132.1558,-406.6868 156.9859,-360 163.5826,-347.5966 174.4427,-337.4637 185.9927,-329.4653"/>
<polygon fill="#c0c0c0" stroke="#c0c0c0" stroke-width="2" points="187.9523,-332.3664 194.4738,-324.0165 184.1686,-326.4771 187.9523,-332.3664"/>
</g>
<!-- 14 -->
<g id="node15" class="node">
<title>14</title>
<path fill="none" stroke="#56c1d8" stroke-width="2" d="M296.9859,-468C296.9859,-468 180.9859,-468 180.9859,-468 174.9859,-468 168.9859,-462 168.9859,-456 168.9859,-456 168.9859,-444 168.9859,-444 168.9859,-438 174.9859,-432 180.9859,-432 180.9859,-432 296.9859,-432 296.9859,-432 302.9859,-432 308.9859,-438 308.9859,-444 308.9859,-444 308.9859,-456 308.9859,-456 308.9859,-462 302.9859,-468 296.9859,-468"/>
<text text-anchor="middle" x="238.9859" y="-447.5" font-family="sans" font-size="10.00" fill="#000000">align_shotgun_3c_assembly</text>
</g>
<!-- 9&#45;&gt;14 -->
<g id="edge24" class="edge">
<title>9&#45;&gt;14</title>
<path fill="none" stroke="#c0c0c0" stroke-width="2" d="M176.1827,-503.8314C186.4294,-495.0485 198.8862,-484.3712 209.9956,-474.8489"/>
<polygon fill="#c0c0c0" stroke="#c0c0c0" stroke-width="2" points="212.4812,-477.3282 217.796,-468.1628 207.9256,-472.0134 212.4812,-477.3282"/>
</g>
<!-- 10&#45;&gt;5 -->
<g id="edge10" class="edge">
<title>10&#45;&gt;5</title>
<path fill="none" stroke="#c0c0c0" stroke-width="2" d="M658.9859,-215.8314C658.9859,-208.131 658.9859,-198.9743 658.9859,-190.4166"/>
<polygon fill="#c0c0c0" stroke="#c0c0c0" stroke-width="2" points="662.486,-190.4132 658.9859,-180.4133 655.486,-190.4133 662.486,-190.4132"/>
</g>
<!-- 11 -->
<g id="node12" class="node">
<title>11</title>
<path fill="none" stroke="#566bd8" stroke-width="2" d="M660.4859,-396C660.4859,-396 539.4859,-396 539.4859,-396 533.4859,-396 527.4859,-390 527.4859,-384 527.4859,-384 527.4859,-372 527.4859,-372 527.4859,-366 533.4859,-360 539.4859,-360 539.4859,-360 660.4859,-360 660.4859,-360 666.4859,-360 672.4859,-366 672.4859,-372 672.4859,-372 672.4859,-384 672.4859,-384 672.4859,-390 666.4859,-396 660.4859,-396"/>
<text text-anchor="middle" x="599.9859" y="-375.5" font-family="sans" font-size="10.00" fill="#000000">index_shotgun_bam_pilon_3c</text>
</g>
<!-- 11&#45;&gt;6 -->
<g id="edge11" class="edge">
<title>11&#45;&gt;6</title>
<path fill="none" stroke="#c0c0c0" stroke-width="2" d="M594.9391,-359.8314C592.7766,-352.0463 590.2006,-342.7729 587.8011,-334.1347"/>
<polygon fill="#c0c0c0" stroke="#c0c0c0" stroke-width="2" points="591.1495,-333.1117 585.1007,-324.4133 584.4049,-334.9852 591.1495,-333.1117"/>
</g>
<!-- 12 -->
<g id="node13" class="node">
<title>12</title>
<path fill="none" stroke="#d8ac56" stroke-width="2" d="M550.4859,-540C550.4859,-540 481.4859,-540 481.4859,-540 475.4859,-540 469.4859,-534 469.4859,-528 469.4859,-528 469.4859,-516 469.4859,-516 469.4859,-510 475.4859,-504 481.4859,-504 481.4859,-504 550.4859,-504 550.4859,-504 556.4859,-504 562.4859,-510 562.4859,-516 562.4859,-516 562.4859,-528 562.4859,-528 562.4859,-534 556.4859,-540 550.4859,-540"/>
<text text-anchor="middle" x="515.9859" y="-519.5" font-family="sans" font-size="10.00" fill="#000000">merge_organelles</text>
</g>
<!-- 12&#45;&gt;6 -->
<g id="edge12" class="edge">
<title>12&#45;&gt;6</title>
<path fill="none" stroke="#c0c0c0" stroke-width="2" d="M511.6348,-503.9403C505.1124,-472.8635 495.7837,-407.9922 517.9859,-360 523.2769,-348.5631 532.2917,-338.5925 541.8329,-330.437"/>
<polygon fill="#c0c0c0" stroke="#c0c0c0" stroke-width="2" points="544.2527,-332.9845 549.9012,-324.0209 539.8958,-327.5057 544.2527,-332.9845"/>
</g>
<!-- 18 -->
<g id="node19" class="node">
<title>18</title>
<path fill="none" stroke="#56c1d8" stroke-width="2" d="M657.9859,-468C657.9859,-468 541.9859,-468 541.9859,-468 535.9859,-468 529.9859,-462 529.9859,-456 529.9859,-456 529.9859,-444 529.9859,-444 529.9859,-438 535.9859,-432 541.9859,-432 541.9859,-432 657.9859,-432 657.9859,-432 663.9859,-432 669.9859,-438 669.9859,-444 669.9859,-444 669.9859,-456 669.9859,-456 669.9859,-462 663.9859,-468 657.9859,-468"/>
<text text-anchor="middle" x="599.9859" y="-447.5" font-family="sans" font-size="10.00" fill="#000000">align_shotgun_3c_assembly</text>
</g>
<!-- 12&#45;&gt;18 -->
<g id="edge29" class="edge">
<title>12&#45;&gt;18</title>
<path fill="none" stroke="#c0c0c0" stroke-width="2" d="M537.1827,-503.8314C547.4294,-495.0485 559.8862,-484.3712 570.9956,-474.8489"/>
<polygon fill="#c0c0c0" stroke="#c0c0c0" stroke-width="2" points="573.4812,-477.3282 578.796,-468.1628 568.9256,-472.0134 573.4812,-477.3282"/>
</g>
<!-- 13 -->
<g id="node14" class="node">
<title>13</title>
<path fill="none" stroke="#5692d8" stroke-width="2" stroke-dasharray="5,2" d="M286.9859,-1414C286.9859,-1414 224.9859,-1414 224.9859,-1414 218.9859,-1414 212.9859,-1408 212.9859,-1402 212.9859,-1402 212.9859,-1385 212.9859,-1385 212.9859,-1379 218.9859,-1373 224.9859,-1373 224.9859,-1373 286.9859,-1373 286.9859,-1373 292.9859,-1373 298.9859,-1379 298.9859,-1385 298.9859,-1385 298.9859,-1402 298.9859,-1402 298.9859,-1408 292.9859,-1414 286.9859,-1414"/>
<text text-anchor="middle" x="255.9859" y="-1402" font-family="sans" font-size="10.00" fill="#000000">combine_units</text>
<text text-anchor="middle" x="255.9859" y="-1391" font-family="sans" font-size="10.00" fill="#000000">libtype: shotgun</text>
<text text-anchor="middle" x="255.9859" y="-1380" font-family="sans" font-size="10.00" fill="#000000">strain: C3</text>
</g>
<!-- 13&#45;&gt;7 -->
<g id="edge13" class="edge">
<title>13&#45;&gt;7</title>
<path fill="none" stroke="#c0c0c0" stroke-width="2" d="M277.1827,-1372.8198C302.067,-1346.2255 339.9859,-1297.4275 339.9859,-1247 339.9859,-1247 339.9859,-1247 339.9859,-378 339.9859,-337.8673 341.1651,-291.4566 342.0449,-262.414"/>
<polygon fill="#c0c0c0" stroke="#c0c0c0" stroke-width="2" points="345.5504,-262.2872 342.3643,-252.1828 338.5539,-262.0687 345.5504,-262.2872"/>
</g>
<!-- 13&#45;&gt;14 -->
<g id="edge23" class="edge">
<title>13&#45;&gt;14</title>
<path fill="none" stroke="#c0c0c0" stroke-width="2" d="M264.9914,-1372.5919C276.2285,-1344.5578 293.9859,-1292.9825 293.9859,-1247 293.9859,-1247 293.9859,-1247 293.9859,-594 293.9859,-550.9621 272.2807,-505.1692 256.1409,-477.0671"/>
<polygon fill="#c0c0c0" stroke="#c0c0c0" stroke-width="2" points="259.025,-475.0682 250.9201,-468.2446 253.0007,-478.6331 259.025,-475.0682"/>
</g>
<!-- 27 -->
<g id="node28" class="node">
<title>27</title>
<path fill="none" stroke="#d85656" stroke-width="2" d="M253.4859,-977C253.4859,-977 184.4859,-977 184.4859,-977 178.4859,-977 172.4859,-971 172.4859,-965 172.4859,-965 172.4859,-953 172.4859,-953 172.4859,-947 178.4859,-941 184.4859,-941 184.4859,-941 253.4859,-941 253.4859,-941 259.4859,-941 265.4859,-947 265.4859,-953 265.4859,-953 265.4859,-965 265.4859,-965 265.4859,-971 259.4859,-977 253.4859,-977"/>
<text text-anchor="middle" x="218.9859" y="-956.5" font-family="sans" font-size="10.00" fill="#000000">combine_fq_pairs</text>
</g>
<!-- 13&#45;&gt;27 -->
<g id="edge45" class="edge">
<title>13&#45;&gt;27</title>
<path fill="none" stroke="#c0c0c0" stroke-width="2" d="M255.9859,-1372.6361C255.9859,-1344.2216 255.9859,-1291.7639 255.9859,-1247 255.9859,-1247 255.9859,-1247 255.9859,-1103 255.9859,-1061.4385 241.3487,-1015.1923 230.487,-986.5961"/>
<polygon fill="#c0c0c0" stroke="#c0c0c0" stroke-width="2" points="233.7351,-985.2919 226.8327,-977.254 227.2161,-987.8419 233.7351,-985.2919"/>
</g>
<!-- 37 -->
<g id="node38" class="node">
<title>37</title>
<path fill="none" stroke="#9fd856" stroke-width="2" d="M215.4859,-1121C215.4859,-1121 96.4859,-1121 96.4859,-1121 90.4859,-1121 84.4859,-1115 84.4859,-1109 84.4859,-1109 84.4859,-1097 84.4859,-1097 84.4859,-1091 90.4859,-1085 96.4859,-1085 96.4859,-1085 215.4859,-1085 215.4859,-1085 221.4859,-1085 227.4859,-1091 227.4859,-1097 227.4859,-1097 227.4859,-1109 227.4859,-1109 227.4859,-1115 221.4859,-1121 215.4859,-1121"/>
<text text-anchor="middle" x="155.9859" y="-1100.5" font-family="sans" font-size="10.00" fill="#000000">align_shotgun_ont_assembly</text>
</g>
<!-- 13&#45;&gt;37 -->
<g id="edge59" class="edge">
<title>13&#45;&gt;37</title>
<path fill="none" stroke="#c0c0c0" stroke-width="2" d="M248.7942,-1372.608C231.0927,-1321.1853 185.4093,-1188.475 165.4985,-1130.634"/>
<polygon fill="#c0c0c0" stroke="#c0c0c0" stroke-width="2" points="168.7668,-1129.3751 162.2024,-1121.0589 162.148,-1131.6536 168.7668,-1129.3751"/>
</g>
<!-- 44 -->
<g id="node45" class="node">
<title>44</title>
<path fill="none" stroke="#56d0d8" stroke-width="2" d="M177.9859,-1337C177.9859,-1337 113.9859,-1337 113.9859,-1337 107.9859,-1337 101.9859,-1331 101.9859,-1325 101.9859,-1325 101.9859,-1313 101.9859,-1313 101.9859,-1307 107.9859,-1301 113.9859,-1301 113.9859,-1301 177.9859,-1301 177.9859,-1301 183.9859,-1301 189.9859,-1307 189.9859,-1313 189.9859,-1313 189.9859,-1325 189.9859,-1325 189.9859,-1331 183.9859,-1337 177.9859,-1337"/>
<text text-anchor="middle" x="145.9859" y="-1316.5" font-family="sans" font-size="10.00" fill="#000000">filter_long_reads</text>
</g>
<!-- 13&#45;&gt;44 -->
<g id="edge68" class="edge">
<title>13&#45;&gt;44</title>
<path fill="none" stroke="#c0c0c0" stroke-width="2" d="M225.6368,-1372.9453C211.9445,-1363.6719 195.6823,-1352.658 181.433,-1343.0074"/>
<polygon fill="#c0c0c0" stroke="#c0c0c0" stroke-width="2" points="183.1044,-1339.9122 172.862,-1337.2024 179.179,-1345.708 183.1044,-1339.9122"/>
</g>
<!-- 14&#45;&gt;8 -->
<g id="edge15" class="edge">
<title>14&#45;&gt;8</title>
<path fill="none" stroke="#c0c0c0" stroke-width="2" d="M238.9859,-431.8314C238.9859,-424.131 238.9859,-414.9743 238.9859,-406.4166"/>
<polygon fill="#c0c0c0" stroke="#c0c0c0" stroke-width="2" points="242.486,-406.4132 238.9859,-396.4133 235.486,-406.4133 242.486,-406.4132"/>
</g>
<!-- 15 -->
<g id="node16" class="node">
<title>15</title>
<path fill="none" stroke="#61d856" stroke-width="2" d="M203.4859,-612C203.4859,-612 116.4859,-612 116.4859,-612 110.4859,-612 104.4859,-606 104.4859,-600 104.4859,-600 104.4859,-588 104.4859,-588 104.4859,-582 110.4859,-576 116.4859,-576 116.4859,-576 203.4859,-576 203.4859,-576 209.4859,-576 215.4859,-582 215.4859,-588 215.4859,-588 215.4859,-600 215.4859,-600 215.4859,-606 209.4859,-612 203.4859,-612"/>
<text text-anchor="middle" x="159.9859" y="-591.5" font-family="sans" font-size="10.00" fill="#000000">instagraal_scaffolding</text>
</g>
<!-- 15&#45;&gt;9 -->
<g id="edge16" class="edge">
<title>15&#45;&gt;9</title>
<path fill="none" stroke="#c0c0c0" stroke-width="2" d="M158.7242,-575.8314C158.1895,-568.131 157.5536,-558.9743 156.9593,-550.4166"/>
<polygon fill="#c0c0c0" stroke="#c0c0c0" stroke-width="2" points="160.4491,-550.1467 156.2646,-540.4133 153.4659,-550.6317 160.4491,-550.1467"/>
</g>
<!-- 16 -->
<g id="node17" class="node">
<title>16</title>
<path fill="none" stroke="#56d8a2" stroke-width="2" d="M136.9859,-758.5C136.9859,-758.5 80.9859,-758.5 80.9859,-758.5 74.9859,-758.5 68.9859,-752.5 68.9859,-746.5 68.9859,-746.5 68.9859,-734.5 68.9859,-734.5 68.9859,-728.5 74.9859,-722.5 80.9859,-722.5 80.9859,-722.5 136.9859,-722.5 136.9859,-722.5 142.9859,-722.5 148.9859,-728.5 148.9859,-734.5 148.9859,-734.5 148.9859,-746.5 148.9859,-746.5 148.9859,-752.5 142.9859,-758.5 136.9859,-758.5"/>
<text text-anchor="middle" x="108.9859" y="-738" font-family="sans" font-size="10.00" fill="#000000">split_mito_tigs</text>
</g>
<!-- 16&#45;&gt;9 -->
<g id="edge17" class="edge">
<title>16&#45;&gt;9</title>
<path fill="none" stroke="#c0c0c0" stroke-width="2" d="M101.907,-722.2655C90.8899,-690.8662 73.0634,-625.224 94.9859,-576 100.0193,-564.6983 108.7164,-554.7696 117.9518,-546.611"/>
<polygon fill="#c0c0c0" stroke="#c0c0c0" stroke-width="2" points="120.2675,-549.2382 125.7675,-540.1828 115.8209,-543.8319 120.2675,-549.2382"/>
</g>
<!-- 16&#45;&gt;15 -->
<g id="edge25" class="edge">
<title>16&#45;&gt;15</title>
<path fill="none" stroke="#c0c0c0" stroke-width="2" d="M112.5001,-722.4234C116.445,-703.523 123.5492,-673.1659 132.9859,-648 136.355,-639.0154 140.7673,-629.551 145.0458,-621.0991"/>
<polygon fill="#c0c0c0" stroke="#c0c0c0" stroke-width="2" points="148.2358,-622.5513 149.7568,-612.0662 142.0292,-619.3142 148.2358,-622.5513"/>
</g>
<!-- 21 -->
<g id="node22" class="node">
<title>21</title>
<path fill="none" stroke="#c6d856" stroke-width="2" d="M249.4859,-684C249.4859,-684 154.4859,-684 154.4859,-684 148.4859,-684 142.4859,-678 142.4859,-672 142.4859,-672 142.4859,-660 142.4859,-660 142.4859,-654 148.4859,-648 154.4859,-648 154.4859,-648 249.4859,-648 249.4859,-648 255.4859,-648 261.4859,-654 261.4859,-660 261.4859,-660 261.4859,-672 261.4859,-672 261.4859,-678 255.4859,-684 249.4859,-684"/>
<text text-anchor="middle" x="201.9859" y="-663.5" font-family="sans" font-size="10.00" fill="#000000">hicstuff_hic_processing</text>
</g>
<!-- 16&#45;&gt;21 -->
<g id="edge34" class="edge">
<title>16&#45;&gt;21</title>
<path fill="none" stroke="#c0c0c0" stroke-width="2" d="M131.4986,-722.4656C143.5184,-712.8369 158.4827,-700.8493 171.5275,-690.3995"/>
<polygon fill="#c0c0c0" stroke="#c0c0c0" stroke-width="2" points="173.7418,-693.1102 179.3582,-684.1265 169.3653,-687.647 173.7418,-693.1102"/>
</g>
<!-- 17 -->
<g id="node18" class="node">
<title>17</title>
<path fill="none" stroke="#5692d8" stroke-width="2" stroke-dasharray="5,2" d="M655.9859,-1414C655.9859,-1414 593.9859,-1414 593.9859,-1414 587.9859,-1414 581.9859,-1408 581.9859,-1402 581.9859,-1402 581.9859,-1385 581.9859,-1385 581.9859,-1379 587.9859,-1373 593.9859,-1373 593.9859,-1373 655.9859,-1373 655.9859,-1373 661.9859,-1373 667.9859,-1379 667.9859,-1385 667.9859,-1385 667.9859,-1402 667.9859,-1402 667.9859,-1408 661.9859,-1414 655.9859,-1414"/>
<text text-anchor="middle" x="624.9859" y="-1402" font-family="sans" font-size="10.00" fill="#000000">combine_units</text>
<text text-anchor="middle" x="624.9859" y="-1391" font-family="sans" font-size="10.00" fill="#000000">libtype: shotgun</text>
<text text-anchor="middle" x="624.9859" y="-1380" font-family="sans" font-size="10.00" fill="#000000">strain: Neff</text>
</g>
<!-- 17&#45;&gt;10 -->
<g id="edge18" class="edge">
<title>17&#45;&gt;10</title>
<path fill="none" stroke="#c0c0c0" stroke-width="2" d="M643.7724,-1372.9184C666.2782,-1346.0463 700.9859,-1296.5693 700.9859,-1247 700.9859,-1247 700.9859,-1247 700.9859,-378 700.9859,-336.0688 684.3707,-289.918 672.0412,-261.4435"/>
<polygon fill="#c0c0c0" stroke="#c0c0c0" stroke-width="2" points="675.1635,-259.8513 667.893,-252.1447 668.7707,-262.7032 675.1635,-259.8513"/>
</g>
<!-- 17&#45;&gt;18 -->
<g id="edge28" class="edge">
<title>17&#45;&gt;18</title>
<path fill="none" stroke="#c0c0c0" stroke-width="2" d="M633.9914,-1372.5919C645.2285,-1344.5578 662.9859,-1292.9825 662.9859,-1247 662.9859,-1247 662.9859,-1247 662.9859,-594 662.9859,-550.171 638.1863,-504.6548 619.7062,-476.8215"/>
<polygon fill="#c0c0c0" stroke="#c0c0c0" stroke-width="2" points="622.5018,-474.7091 613.9677,-468.4307 616.7238,-478.6608 622.5018,-474.7091"/>
</g>
<!-- 31 -->
<g id="node32" class="node">
<title>31</title>
<path fill="none" stroke="#d85656" stroke-width="2" d="M622.4859,-977C622.4859,-977 553.4859,-977 553.4859,-977 547.4859,-977 541.4859,-971 541.4859,-965 541.4859,-965 541.4859,-953 541.4859,-953 541.4859,-947 547.4859,-941 553.4859,-941 553.4859,-941 622.4859,-941 622.4859,-941 628.4859,-941 634.4859,-947 634.4859,-953 634.4859,-953 634.4859,-965 634.4859,-965 634.4859,-971 628.4859,-977 622.4859,-977"/>
<text text-anchor="middle" x="587.9859" y="-956.5" font-family="sans" font-size="10.00" fill="#000000">combine_fq_pairs</text>
</g>
<!-- 17&#45;&gt;31 -->
<g id="edge50" class="edge">
<title>17&#45;&gt;31</title>
<path fill="none" stroke="#c0c0c0" stroke-width="2" d="M624.9859,-1372.6361C624.9859,-1344.2216 624.9859,-1291.7639 624.9859,-1247 624.9859,-1247 624.9859,-1247 624.9859,-1103 624.9859,-1061.4385 610.3487,-1015.1923 599.487,-986.5961"/>
<polygon fill="#c0c0c0" stroke="#c0c0c0" stroke-width="2" points="602.7351,-985.2919 595.8327,-977.254 596.2161,-987.8419 602.7351,-985.2919"/>
</g>
<!-- 40 -->
<g id="node41" class="node">
<title>40</title>
<path fill="none" stroke="#9fd856" stroke-width="2" d="M584.4859,-1121C584.4859,-1121 465.4859,-1121 465.4859,-1121 459.4859,-1121 453.4859,-1115 453.4859,-1109 453.4859,-1109 453.4859,-1097 453.4859,-1097 453.4859,-1091 459.4859,-1085 465.4859,-1085 465.4859,-1085 584.4859,-1085 584.4859,-1085 590.4859,-1085 596.4859,-1091 596.4859,-1097 596.4859,-1097 596.4859,-1109 596.4859,-1109 596.4859,-1115 590.4859,-1121 584.4859,-1121"/>
<text text-anchor="middle" x="524.9859" y="-1100.5" font-family="sans" font-size="10.00" fill="#000000">align_shotgun_ont_assembly</text>
</g>
<!-- 17&#45;&gt;40 -->
<g id="edge63" class="edge">
<title>17&#45;&gt;40</title>
<path fill="none" stroke="#c0c0c0" stroke-width="2" d="M617.7942,-1372.608C600.0927,-1321.1853 554.4093,-1188.475 534.4985,-1130.634"/>
<polygon fill="#c0c0c0" stroke="#c0c0c0" stroke-width="2" points="537.7668,-1129.3751 531.2024,-1121.0589 531.148,-1131.6536 537.7668,-1129.3751"/>
</g>
<!-- 46 -->
<g id="node47" class="node">
<title>46</title>
<path fill="none" stroke="#56d0d8" stroke-width="2" d="M546.9859,-1337C546.9859,-1337 482.9859,-1337 482.9859,-1337 476.9859,-1337 470.9859,-1331 470.9859,-1325 470.9859,-1325 470.9859,-1313 470.9859,-1313 470.9859,-1307 476.9859,-1301 482.9859,-1301 482.9859,-1301 546.9859,-1301 546.9859,-1301 552.9859,-1301 558.9859,-1307 558.9859,-1313 558.9859,-1313 558.9859,-1325 558.9859,-1325 558.9859,-1331 552.9859,-1337 546.9859,-1337"/>
<text text-anchor="middle" x="514.9859" y="-1316.5" font-family="sans" font-size="10.00" fill="#000000">filter_long_reads</text>
</g>
<!-- 17&#45;&gt;46 -->
<g id="edge70" class="edge">
<title>17&#45;&gt;46</title>
<path fill="none" stroke="#c0c0c0" stroke-width="2" d="M594.6368,-1372.9453C580.9445,-1363.6719 564.6823,-1352.658 550.433,-1343.0074"/>
<polygon fill="#c0c0c0" stroke="#c0c0c0" stroke-width="2" points="552.1044,-1339.9122 541.862,-1337.2024 548.179,-1345.708 552.1044,-1339.9122"/>
</g>
<!-- 18&#45;&gt;11 -->
<g id="edge20" class="edge">
<title>18&#45;&gt;11</title>
<path fill="none" stroke="#c0c0c0" stroke-width="2" d="M599.9859,-431.8314C599.9859,-424.131 599.9859,-414.9743 599.9859,-406.4166"/>
<polygon fill="#c0c0c0" stroke="#c0c0c0" stroke-width="2" points="603.486,-406.4132 599.9859,-396.4133 596.486,-406.4133 603.486,-406.4132"/>
</g>
<!-- 19 -->
<g id="node20" class="node">
<title>19</title>
<path fill="none" stroke="#61d856" stroke-width="2" d="M576.4859,-612C576.4859,-612 489.4859,-612 489.4859,-612 483.4859,-612 477.4859,-606 477.4859,-600 477.4859,-600 477.4859,-588 477.4859,-588 477.4859,-582 483.4859,-576 489.4859,-576 489.4859,-576 576.4859,-576 576.4859,-576 582.4859,-576 588.4859,-582 588.4859,-588 588.4859,-588 588.4859,-600 588.4859,-600 588.4859,-606 582.4859,-612 576.4859,-612"/>
<text text-anchor="middle" x="532.9859" y="-591.5" font-family="sans" font-size="10.00" fill="#000000">instagraal_scaffolding</text>
</g>
<!-- 19&#45;&gt;12 -->
<g id="edge21" class="edge">
<title>19&#45;&gt;12</title>
<path fill="none" stroke="#c0c0c0" stroke-width="2" d="M528.6961,-575.8314C526.878,-568.131 524.716,-558.9743 522.6954,-550.4166"/>
<polygon fill="#c0c0c0" stroke="#c0c0c0" stroke-width="2" points="526.0378,-549.3414 520.3335,-540.4133 519.2252,-550.95 526.0378,-549.3414"/>
</g>
<!-- 20 -->
<g id="node21" class="node">
<title>20</title>
<path fill="none" stroke="#56d8a2" stroke-width="2" d="M514.9859,-758.5C514.9859,-758.5 458.9859,-758.5 458.9859,-758.5 452.9859,-758.5 446.9859,-752.5 446.9859,-746.5 446.9859,-746.5 446.9859,-734.5 446.9859,-734.5 446.9859,-728.5 452.9859,-722.5 458.9859,-722.5 458.9859,-722.5 514.9859,-722.5 514.9859,-722.5 520.9859,-722.5 526.9859,-728.5 526.9859,-734.5 526.9859,-734.5 526.9859,-746.5 526.9859,-746.5 526.9859,-752.5 520.9859,-758.5 514.9859,-758.5"/>
<text text-anchor="middle" x="486.9859" y="-738" font-family="sans" font-size="10.00" fill="#000000">split_mito_tigs</text>
</g>
<!-- 20&#45;&gt;12 -->
<g id="edge22" class="edge">
<title>20&#45;&gt;12</title>
<path fill="none" stroke="#c0c0c0" stroke-width="2" d="M479.5181,-722.2919C467.9266,-691.2087 448.8294,-626.3854 467.9859,-576 472.0131,-565.4076 479.1759,-555.5662 486.7596,-547.2649"/>
<polygon fill="#c0c0c0" stroke="#c0c0c0" stroke-width="2" points="489.2785,-549.695 493.7647,-540.0968 484.2722,-544.8025 489.2785,-549.695"/>
</g>
<!-- 20&#45;&gt;19 -->
<g id="edge30" class="edge">
<title>20&#45;&gt;19</title>
<path fill="none" stroke="#c0c0c0" stroke-width="2" d="M489.2771,-722.3963C491.9997,-703.4737 497.3014,-673.0988 505.9859,-648 509.0738,-639.0759 513.3323,-629.745 517.555,-621.3989"/>
<polygon fill="#c0c0c0" stroke="#c0c0c0" stroke-width="2" points="520.6939,-622.9494 522.2431,-612.4685 514.496,-619.6958 520.6939,-622.9494"/>
</g>
<!-- 23 -->
<g id="node24" class="node">
<title>23</title>
<path fill="none" stroke="#c6d856" stroke-width="2" d="M622.4859,-684C622.4859,-684 527.4859,-684 527.4859,-684 521.4859,-684 515.4859,-678 515.4859,-672 515.4859,-672 515.4859,-660 515.4859,-660 515.4859,-654 521.4859,-648 527.4859,-648 527.4859,-648 622.4859,-648 622.4859,-648 628.4859,-648 634.4859,-654 634.4859,-660 634.4859,-660 634.4859,-672 634.4859,-672 634.4859,-678 628.4859,-684 622.4859,-684"/>
<text text-anchor="middle" x="574.9859" y="-663.5" font-family="sans" font-size="10.00" fill="#000000">hicstuff_hic_processing</text>
</g>
<!-- 20&#45;&gt;23 -->
<g id="edge39" class="edge">
<title>20&#45;&gt;23</title>
<path fill="none" stroke="#c0c0c0" stroke-width="2" d="M508.2883,-722.4656C519.5545,-712.9277 533.5547,-701.0753 545.8152,-690.6956"/>
<polygon fill="#c0c0c0" stroke="#c0c0c0" stroke-width="2" points="548.204,-693.2592 553.5747,-684.1265 543.681,-687.9166 548.204,-693.2592"/>
</g>
<!-- 21&#45;&gt;15 -->
<g id="edge26" class="edge">
<title>21&#45;&gt;15</title>
<path fill="none" stroke="#c0c0c0" stroke-width="2" d="M191.3876,-647.8314C186.6982,-639.7925 181.0831,-630.1666 175.9061,-621.2918"/>
<polygon fill="#c0c0c0" stroke="#c0c0c0" stroke-width="2" points="178.789,-619.2875 170.727,-612.4133 172.7425,-622.8146 178.789,-619.2875"/>
</g>
<!-- 22 -->
<g id="node23" class="node">
<title>22</title>
<path fill="none" stroke="#d8bc56" stroke-width="2" d="M138.9859,-833C138.9859,-833 78.9859,-833 78.9859,-833 72.9859,-833 66.9859,-827 66.9859,-821 66.9859,-821 66.9859,-809 66.9859,-809 66.9859,-803 72.9859,-797 78.9859,-797 78.9859,-797 138.9859,-797 138.9859,-797 144.9859,-797 150.9859,-803 150.9859,-809 150.9859,-809 150.9859,-821 150.9859,-821 150.9859,-827 144.9859,-833 138.9859,-833"/>
<text text-anchor="middle" x="108.9859" y="-812.5" font-family="sans" font-size="10.00" fill="#000000">racon_polishing</text>
</g>
<!-- 22&#45;&gt;16 -->
<g id="edge27" class="edge">
<title>22&#45;&gt;16</title>
<path fill="none" stroke="#c0c0c0" stroke-width="2" d="M108.9859,-796.9656C108.9859,-788.5178 108.9859,-778.2542 108.9859,-768.8064"/>
<polygon fill="#c0c0c0" stroke="#c0c0c0" stroke-width="2" points="112.486,-768.6265 108.9859,-758.6265 105.486,-768.6265 112.486,-768.6265"/>
</g>
<!-- 23&#45;&gt;19 -->
<g id="edge31" class="edge">
<title>23&#45;&gt;19</title>
<path fill="none" stroke="#c0c0c0" stroke-width="2" d="M564.3876,-647.8314C559.6982,-639.7925 554.0831,-630.1666 548.9061,-621.2918"/>
<polygon fill="#c0c0c0" stroke="#c0c0c0" stroke-width="2" points="551.789,-619.2875 543.727,-612.4133 545.7425,-622.8146 551.789,-619.2875"/>
</g>
<!-- 24 -->
<g id="node25" class="node">
<title>24</title>
<path fill="none" stroke="#d8bc56" stroke-width="2" d="M524.9859,-833C524.9859,-833 464.9859,-833 464.9859,-833 458.9859,-833 452.9859,-827 452.9859,-821 452.9859,-821 452.9859,-809 452.9859,-809 452.9859,-803 458.9859,-797 464.9859,-797 464.9859,-797 524.9859,-797 524.9859,-797 530.9859,-797 536.9859,-803 536.9859,-809 536.9859,-809 536.9859,-821 536.9859,-821 536.9859,-827 530.9859,-833 524.9859,-833"/>
<text text-anchor="middle" x="494.9859" y="-812.5" font-family="sans" font-size="10.00" fill="#000000">racon_polishing</text>
</g>
<!-- 24&#45;&gt;20 -->
<g id="edge32" class="edge">
<title>24&#45;&gt;20</title>
<path fill="none" stroke="#c0c0c0" stroke-width="2" d="M493.0493,-796.9656C492.1422,-788.5178 491.0401,-778.2542 490.0255,-768.8064"/>
<polygon fill="#c0c0c0" stroke="#c0c0c0" stroke-width="2" points="493.4802,-768.1956 488.9324,-758.6265 486.5202,-768.9431 493.4802,-768.1956"/>
</g>
<!-- 25 -->
<g id="node26" class="node">
<title>25</title>
<path fill="none" stroke="#5692d8" stroke-width="2" stroke-dasharray="5,2" d="M234.9859,-761C234.9859,-761 178.9859,-761 178.9859,-761 172.9859,-761 166.9859,-755 166.9859,-749 166.9859,-749 166.9859,-732 166.9859,-732 166.9859,-726 172.9859,-720 178.9859,-720 178.9859,-720 234.9859,-720 234.9859,-720 240.9859,-720 246.9859,-726 246.9859,-732 246.9859,-732 246.9859,-749 246.9859,-749 246.9859,-755 240.9859,-761 234.9859,-761"/>
<text text-anchor="middle" x="206.9859" y="-749" font-family="sans" font-size="10.00" fill="#000000">combine_units</text>
<text text-anchor="middle" x="206.9859" y="-738" font-family="sans" font-size="10.00" fill="#000000">libtype: hic</text>
<text text-anchor="middle" x="206.9859" y="-727" font-family="sans" font-size="10.00" fill="#000000">strain: C3</text>
</g>
<!-- 25&#45;&gt;21 -->
<g id="edge33" class="edge">
<title>25&#45;&gt;21</title>
<path fill="none" stroke="#c0c0c0" stroke-width="2" d="M205.5931,-719.7476C205.0649,-711.8767 204.454,-702.7743 203.8868,-694.3232"/>
<polygon fill="#c0c0c0" stroke="#c0c0c0" stroke-width="2" points="207.3631,-693.8518 203.2013,-684.1087 200.3789,-694.3206 207.3631,-693.8518"/>
</g>
<!-- 26 -->
<g id="node27" class="node">
<title>26</title>
<path fill="none" stroke="#d86e56" stroke-width="2" d="M110.9859,-977C110.9859,-977 54.9859,-977 54.9859,-977 48.9859,-977 42.9859,-971 42.9859,-965 42.9859,-965 42.9859,-953 42.9859,-953 42.9859,-947 48.9859,-941 54.9859,-941 54.9859,-941 110.9859,-941 110.9859,-941 116.9859,-941 122.9859,-947 122.9859,-953 122.9859,-953 122.9859,-965 122.9859,-965 122.9859,-971 116.9859,-977 110.9859,-977"/>
<text text-anchor="middle" x="82.9859" y="-956.5" font-family="sans" font-size="10.00" fill="#000000">pilon_polishing</text>
</g>
<!-- 26&#45;&gt;22 -->
<g id="edge35" class="edge">
<title>26&#45;&gt;22</title>
<path fill="none" stroke="#c0c0c0" stroke-width="2" d="M42.8833,-940.9226C28.5461,-932.2521 13.972,-920.3548 5.9859,-905 -1.3969,-890.8051 -2.2945,-882.6907 5.9859,-869 17.3453,-850.2188 37.631,-837.6508 57.2135,-829.4058"/>
<polygon fill="#c0c0c0" stroke="#c0c0c0" stroke-width="2" points="58.6819,-832.59 66.728,-825.6973 56.1397,-826.0679 58.6819,-832.59"/>
</g>
<!-- 28 -->
<g id="node29" class="node">
<title>28</title>
<path fill="none" stroke="#56d8c9" stroke-width="2" d="M190.4859,-905C190.4859,-905 27.4859,-905 27.4859,-905 21.4859,-905 15.4859,-899 15.4859,-893 15.4859,-893 15.4859,-881 15.4859,-881 15.4859,-875 21.4859,-869 27.4859,-869 27.4859,-869 190.4859,-869 190.4859,-869 196.4859,-869 202.4859,-875 202.4859,-881 202.4859,-881 202.4859,-893 202.4859,-893 202.4859,-899 196.4859,-905 190.4859,-905"/>
<text text-anchor="middle" x="108.9859" y="-884.5" font-family="sans" font-size="10.00" fill="#000000">align_merged_shotgun_pilon_assembly</text>
</g>
<!-- 26&#45;&gt;28 -->
<g id="edge47" class="edge">
<title>26&#45;&gt;28</title>
<path fill="none" stroke="#c0c0c0" stroke-width="2" d="M89.5468,-940.8314C92.3886,-932.9617 95.7797,-923.5712 98.9278,-914.8533"/>
<polygon fill="#c0c0c0" stroke="#c0c0c0" stroke-width="2" points="102.2321,-916.0076 102.3367,-905.4133 95.6482,-913.63 102.2321,-916.0076"/>
</g>
<!-- 27&#45;&gt;22 -->
<g id="edge36" class="edge">
<title>27&#45;&gt;22</title>
<path fill="none" stroke="#c0c0c0" stroke-width="2" d="M222.1436,-940.7869C224.4993,-921.3388 225.2192,-890.43 210.9859,-869 199.1791,-851.2233 179.5414,-838.8914 160.6325,-830.5508"/>
<polygon fill="#c0c0c0" stroke="#c0c0c0" stroke-width="2" points="161.7321,-827.2188 151.1521,-826.6581 159.0733,-833.6942 161.7321,-827.2188"/>
</g>
<!-- 27&#45;&gt;28 -->
<g id="edge46" class="edge">
<title>27&#45;&gt;28</title>
<path fill="none" stroke="#c0c0c0" stroke-width="2" d="M191.2283,-940.8314C177.2889,-931.7074 160.2261,-920.539 145.2628,-910.7449"/>
<polygon fill="#c0c0c0" stroke="#c0c0c0" stroke-width="2" points="147.0185,-907.711 136.7347,-905.1628 143.1849,-913.5679 147.0185,-907.711"/>
</g>
<!-- 28&#45;&gt;22 -->
<g id="edge37" class="edge">
<title>28&#45;&gt;22</title>
<path fill="none" stroke="#c0c0c0" stroke-width="2" d="M108.9859,-868.8314C108.9859,-861.131 108.9859,-851.9743 108.9859,-843.4166"/>
<polygon fill="#c0c0c0" stroke="#c0c0c0" stroke-width="2" points="112.486,-843.4132 108.9859,-833.4133 105.486,-843.4133 112.486,-843.4132"/>
</g>
<!-- 29 -->
<g id="node30" class="node">
<title>29</title>
<path fill="none" stroke="#5692d8" stroke-width="2" stroke-dasharray="5,2" d="M612.9859,-761C612.9859,-761 556.9859,-761 556.9859,-761 550.9859,-761 544.9859,-755 544.9859,-749 544.9859,-749 544.9859,-732 544.9859,-732 544.9859,-726 550.9859,-720 556.9859,-720 556.9859,-720 612.9859,-720 612.9859,-720 618.9859,-720 624.9859,-726 624.9859,-732 624.9859,-732 624.9859,-749 624.9859,-749 624.9859,-755 618.9859,-761 612.9859,-761"/>
<text text-anchor="middle" x="584.9859" y="-749" font-family="sans" font-size="10.00" fill="#000000">combine_units</text>
<text text-anchor="middle" x="584.9859" y="-738" font-family="sans" font-size="10.00" fill="#000000">libtype: hic</text>
<text text-anchor="middle" x="584.9859" y="-727" font-family="sans" font-size="10.00" fill="#000000">strain: Neff</text>
</g>
<!-- 29&#45;&gt;23 -->
<g id="edge38" class="edge">
<title>29&#45;&gt;23</title>
<path fill="none" stroke="#c0c0c0" stroke-width="2" d="M582.2004,-719.7476C581.1321,-711.7892 579.8949,-702.5718 578.7499,-694.0418"/>
<polygon fill="#c0c0c0" stroke="#c0c0c0" stroke-width="2" points="582.2159,-693.5541 577.4166,-684.1087 575.2782,-694.4854 582.2159,-693.5541"/>
</g>
<!-- 30 -->
<g id="node31" class="node">
<title>30</title>
<path fill="none" stroke="#d86e56" stroke-width="2" d="M481.9859,-977C481.9859,-977 425.9859,-977 425.9859,-977 419.9859,-977 413.9859,-971 413.9859,-965 413.9859,-965 413.9859,-953 413.9859,-953 413.9859,-947 419.9859,-941 425.9859,-941 425.9859,-941 481.9859,-941 481.9859,-941 487.9859,-941 493.9859,-947 493.9859,-953 493.9859,-953 493.9859,-965 493.9859,-965 493.9859,-971 487.9859,-977 481.9859,-977"/>
<text text-anchor="middle" x="453.9859" y="-956.5" font-family="sans" font-size="10.00" fill="#000000">pilon_polishing</text>
</g>
<!-- 30&#45;&gt;24 -->
<g id="edge40" class="edge">
<title>30&#45;&gt;24</title>
<path fill="none" stroke="#c0c0c0" stroke-width="2" d="M426.0251,-940.862C414.4319,-931.6621 402.2457,-919.3809 395.9859,-905 389.6001,-890.3296 387.8185,-882.7584 395.9859,-869 406.5445,-851.2136 425.2497,-838.9108 443.5789,-830.5948"/>
<polygon fill="#c0c0c0" stroke="#c0c0c0" stroke-width="2" points="444.9377,-833.8203 452.7958,-826.714 442.2212,-827.3689 444.9377,-833.8203"/>
</g>
<!-- 32 -->
<g id="node33" class="node">
<title>32</title>
<path fill="none" stroke="#56d8c9" stroke-width="2" d="M580.4859,-905C580.4859,-905 417.4859,-905 417.4859,-905 411.4859,-905 405.4859,-899 405.4859,-893 405.4859,-893 405.4859,-881 405.4859,-881 405.4859,-875 411.4859,-869 417.4859,-869 417.4859,-869 580.4859,-869 580.4859,-869 586.4859,-869 592.4859,-875 592.4859,-881 592.4859,-881 592.4859,-893 592.4859,-893 592.4859,-899 586.4859,-905 580.4859,-905"/>
<text text-anchor="middle" x="498.9859" y="-884.5" font-family="sans" font-size="10.00" fill="#000000">align_merged_shotgun_pilon_assembly</text>
</g>
<!-- 30&#45;&gt;32 -->
<g id="edge52" class="edge">
<title>30&#45;&gt;32</title>
<path fill="none" stroke="#c0c0c0" stroke-width="2" d="M465.3413,-940.8314C470.4185,-932.7079 476.5086,-922.9637 482.1036,-914.0118"/>
<polygon fill="#c0c0c0" stroke="#c0c0c0" stroke-width="2" points="485.1456,-915.7483 487.4776,-905.4133 479.2096,-912.0383 485.1456,-915.7483"/>
</g>
<!-- 31&#45;&gt;24 -->
<g id="edge41" class="edge">
<title>31&#45;&gt;24</title>
<path fill="none" stroke="#c0c0c0" stroke-width="2" d="M597.21,-940.6837C605.4852,-921.4282 614.4322,-890.9406 600.9859,-869 588.9677,-849.3897 567.3466,-836.6221 546.7517,-828.4549"/>
<polygon fill="#c0c0c0" stroke="#c0c0c0" stroke-width="2" points="547.6799,-825.0674 537.0862,-824.9117 545.2706,-831.6398 547.6799,-825.0674"/>
</g>
<!-- 31&#45;&gt;32 -->
<g id="edge51" class="edge">
<title>31&#45;&gt;32</title>
<path fill="none" stroke="#c0c0c0" stroke-width="2" d="M565.5275,-940.8314C554.5654,-931.9632 541.216,-921.1637 529.3594,-911.5718"/>
<polygon fill="#c0c0c0" stroke="#c0c0c0" stroke-width="2" points="531.413,-908.7313 521.4372,-905.1628 527.0104,-914.1734 531.413,-908.7313"/>
</g>
<!-- 32&#45;&gt;24 -->
<g id="edge42" class="edge">
<title>32&#45;&gt;24</title>
<path fill="none" stroke="#c0c0c0" stroke-width="2" d="M497.9766,-868.8314C497.5488,-861.131 497.0401,-851.9743 496.5646,-843.4166"/>
<polygon fill="#c0c0c0" stroke="#c0c0c0" stroke-width="2" points="500.0583,-843.2037 496.0089,-833.4133 493.0691,-843.592 500.0583,-843.2037"/>
</g>
<!-- 33 -->
<g id="node34" class="node">
<title>33</title>
<path fill="none" stroke="#56d8b1" stroke-width="2" d="M205.4859,-1049C205.4859,-1049 100.4859,-1049 100.4859,-1049 94.4859,-1049 88.4859,-1043 88.4859,-1037 88.4859,-1037 88.4859,-1025 88.4859,-1025 88.4859,-1019 94.4859,-1013 100.4859,-1013 100.4859,-1013 205.4859,-1013 205.4859,-1013 211.4859,-1013 217.4859,-1019 217.4859,-1025 217.4859,-1025 217.4859,-1037 217.4859,-1037 217.4859,-1043 211.4859,-1049 205.4859,-1049"/>
<text text-anchor="middle" x="152.9859" y="-1028.5" font-family="sans" font-size="10.00" fill="#000000">index_shotgun_bam_pilon</text>
</g>
<!-- 33&#45;&gt;26 -->
<g id="edge43" class="edge">
<title>33&#45;&gt;26</title>
<path fill="none" stroke="#c0c0c0" stroke-width="2" d="M135.322,-1012.8314C127.0128,-1004.2848 116.9596,-993.9443 107.8941,-984.6198"/>
<polygon fill="#c0c0c0" stroke="#c0c0c0" stroke-width="2" points="110.368,-982.1435 100.8877,-977.4133 105.349,-987.023 110.368,-982.1435"/>
</g>
<!-- 34 -->
<g id="node35" class="node">
<title>34</title>
<path fill="none" stroke="#56a9d8" stroke-width="2" d="M146.4859,-1193C146.4859,-1193 63.4859,-1193 63.4859,-1193 57.4859,-1193 51.4859,-1187 51.4859,-1181 51.4859,-1181 51.4859,-1169 51.4859,-1169 51.4859,-1163 57.4859,-1157 63.4859,-1157 63.4859,-1157 146.4859,-1157 146.4859,-1157 152.4859,-1157 158.4859,-1163 158.4859,-1169 158.4859,-1169 158.4859,-1181 158.4859,-1181 158.4859,-1187 152.4859,-1193 146.4859,-1193"/>
<text text-anchor="middle" x="104.9859" y="-1172.5" font-family="sans" font-size="10.00" fill="#000000">long_reads_polishing</text>
</g>
<!-- 34&#45;&gt;26 -->
<g id="edge44" class="edge">
<title>34&#45;&gt;26</title>
<path fill="none" stroke="#c0c0c0" stroke-width="2" d="M91.6297,-1156.5137C85.2351,-1146.5235 78.2679,-1133.6657 74.9859,-1121 63.1821,-1075.4477 70.1976,-1020.336 76.4927,-987.5554"/>
<polygon fill="#c0c0c0" stroke="#c0c0c0" stroke-width="2" points="80.0069,-987.8379 78.5717,-977.3407 73.1475,-986.4417 80.0069,-987.8379"/>
</g>
<!-- 34&#45;&gt;37 -->
<g id="edge60" class="edge">
<title>34&#45;&gt;37</title>
<path fill="none" stroke="#c0c0c0" stroke-width="2" d="M117.8554,-1156.8314C123.6695,-1148.6232 130.6555,-1138.7606 137.0505,-1129.7323"/>
<polygon fill="#c0c0c0" stroke="#c0c0c0" stroke-width="2" points="140.0191,-1131.5966 142.9432,-1121.4133 134.3069,-1127.5505 140.0191,-1131.5966"/>
</g>
<!-- 35 -->
<g id="node36" class="node">
<title>35</title>
<path fill="none" stroke="#56d8b1" stroke-width="2" d="M573.4859,-1049C573.4859,-1049 468.4859,-1049 468.4859,-1049 462.4859,-1049 456.4859,-1043 456.4859,-1037 456.4859,-1037 456.4859,-1025 456.4859,-1025 456.4859,-1019 462.4859,-1013 468.4859,-1013 468.4859,-1013 573.4859,-1013 573.4859,-1013 579.4859,-1013 585.4859,-1019 585.4859,-1025 585.4859,-1025 585.4859,-1037 585.4859,-1037 585.4859,-1043 579.4859,-1049 573.4859,-1049"/>
<text text-anchor="middle" x="520.9859" y="-1028.5" font-family="sans" font-size="10.00" fill="#000000">index_shotgun_bam_pilon</text>
</g>
<!-- 35&#45;&gt;30 -->
<g id="edge48" class="edge">
<title>35&#45;&gt;30</title>
<path fill="none" stroke="#c0c0c0" stroke-width="2" d="M504.079,-1012.8314C496.2046,-1004.3694 486.6939,-994.1489 478.0846,-984.8971"/>
<polygon fill="#c0c0c0" stroke="#c0c0c0" stroke-width="2" points="480.4951,-982.3497 471.1205,-977.4133 475.3706,-987.1183 480.4951,-982.3497"/>
</g>
<!-- 36 -->
<g id="node37" class="node">
<title>36</title>
<path fill="none" stroke="#56a9d8" stroke-width="2" d="M515.4859,-1193C515.4859,-1193 432.4859,-1193 432.4859,-1193 426.4859,-1193 420.4859,-1187 420.4859,-1181 420.4859,-1181 420.4859,-1169 420.4859,-1169 420.4859,-1163 426.4859,-1157 432.4859,-1157 432.4859,-1157 515.4859,-1157 515.4859,-1157 521.4859,-1157 527.4859,-1163 527.4859,-1169 527.4859,-1169 527.4859,-1181 527.4859,-1181 527.4859,-1187 521.4859,-1193 515.4859,-1193"/>
<text text-anchor="middle" x="473.9859" y="-1172.5" font-family="sans" font-size="10.00" fill="#000000">long_reads_polishing</text>
</g>
<!-- 36&#45;&gt;30 -->
<g id="edge49" class="edge">
<title>36&#45;&gt;30</title>
<path fill="none" stroke="#c0c0c0" stroke-width="2" d="M460.6297,-1156.5137C454.2351,-1146.5235 447.2679,-1133.6657 443.9859,-1121 432.1227,-1075.2184 440.113,-1019.8351 447.0236,-987.118"/>
<polygon fill="#c0c0c0" stroke="#c0c0c0" stroke-width="2" points="450.4452,-987.8547 449.2028,-977.3329 443.6126,-986.3329 450.4452,-987.8547"/>
</g>
<!-- 36&#45;&gt;40 -->
<g id="edge64" class="edge">
<title>36&#45;&gt;40</title>
<path fill="none" stroke="#c0c0c0" stroke-width="2" d="M486.8554,-1156.8314C492.6695,-1148.6232 499.6555,-1138.7606 506.0505,-1129.7323"/>
<polygon fill="#c0c0c0" stroke="#c0c0c0" stroke-width="2" points="509.0191,-1131.5966 511.9432,-1121.4133 503.3069,-1127.5505 509.0191,-1131.5966"/>
</g>
<!-- 37&#45;&gt;33 -->
<g id="edge53" class="edge">
<title>37&#45;&gt;33</title>
<path fill="none" stroke="#c0c0c0" stroke-width="2" d="M155.2289,-1084.8314C154.908,-1077.131 154.5265,-1067.9743 154.17,-1059.4166"/>
<polygon fill="#c0c0c0" stroke="#c0c0c0" stroke-width="2" points="157.6665,-1059.2589 153.7531,-1049.4133 150.6726,-1059.5503 157.6665,-1059.2589"/>
</g>
<!-- 38 -->
<g id="node39" class="node">
<title>38</title>
<path fill="none" stroke="#d87d56" stroke-width="2" stroke-dasharray="5,2" d="M148.4859,-1411.5C148.4859,-1411.5 67.4859,-1411.5 67.4859,-1411.5 61.4859,-1411.5 55.4859,-1405.5 55.4859,-1399.5 55.4859,-1399.5 55.4859,-1387.5 55.4859,-1387.5 55.4859,-1381.5 61.4859,-1375.5 67.4859,-1375.5 67.4859,-1375.5 148.4859,-1375.5 148.4859,-1375.5 154.4859,-1375.5 160.4859,-1381.5 160.4859,-1387.5 160.4859,-1387.5 160.4859,-1399.5 160.4859,-1399.5 160.4859,-1405.5 154.4859,-1411.5 148.4859,-1411.5"/>
<text text-anchor="middle" x="107.9859" y="-1391" font-family="sans" font-size="10.00" fill="#000000">fastq_to_fasta_ONT</text>
</g>
<!-- 38&#45;&gt;34 -->
<g id="edge54" class="edge">
<title>38&#45;&gt;34</title>
<path fill="none" stroke="#c0c0c0" stroke-width="2" d="M101.9023,-1375.4198C98.5344,-1364.448 94.693,-1350.0826 92.9859,-1337 86.8882,-1290.2679 93.8646,-1235.5167 99.4446,-1203.1287"/>
<polygon fill="#c0c0c0" stroke="#c0c0c0" stroke-width="2" points="102.9325,-1203.5085 101.2626,-1193.0461 96.0436,-1202.2664 102.9325,-1203.5085"/>
</g>
<!-- 38&#45;&gt;44 -->
<g id="edge67" class="edge">
<title>38&#45;&gt;44</title>
<path fill="none" stroke="#c0c0c0" stroke-width="2" d="M117.1847,-1375.4656C121.679,-1366.6544 127.1808,-1355.868 132.1671,-1346.0921"/>
<polygon fill="#c0c0c0" stroke="#c0c0c0" stroke-width="2" points="135.3142,-1347.625 136.7402,-1337.1265 129.0786,-1344.4443 135.3142,-1347.625"/>
</g>
<!-- 39 -->
<g id="node40" class="node">
<title>39</title>
<path fill="none" stroke="#56d863" stroke-width="2" d="M165.9859,-1265C165.9859,-1265 117.9859,-1265 117.9859,-1265 111.9859,-1265 105.9859,-1259 105.9859,-1253 105.9859,-1253 105.9859,-1241 105.9859,-1241 105.9859,-1235 111.9859,-1229 117.9859,-1229 117.9859,-1229 165.9859,-1229 165.9859,-1229 171.9859,-1229 177.9859,-1235 177.9859,-1241 177.9859,-1241 177.9859,-1253 177.9859,-1253 177.9859,-1259 171.9859,-1265 165.9859,-1265"/>
<text text-anchor="middle" x="141.9859" y="-1244.5" font-family="sans" font-size="10.00" fill="#000000">ra_assembly</text>
</g>
<!-- 39&#45;&gt;34 -->
<g id="edge55" class="edge">
<title>39&#45;&gt;34</title>
<path fill="none" stroke="#c0c0c0" stroke-width="2" d="M132.6493,-1228.8314C128.5617,-1220.8771 123.6756,-1211.369 119.155,-1202.5723"/>
<polygon fill="#c0c0c0" stroke="#c0c0c0" stroke-width="2" points="122.1321,-1200.7078 114.4483,-1193.4133 115.906,-1203.9074 122.1321,-1200.7078"/>
</g>
<!-- 40&#45;&gt;35 -->
<g id="edge56" class="edge">
<title>40&#45;&gt;35</title>
<path fill="none" stroke="#c0c0c0" stroke-width="2" d="M523.9766,-1084.8314C523.5488,-1077.131 523.0401,-1067.9743 522.5646,-1059.4166"/>
<polygon fill="#c0c0c0" stroke="#c0c0c0" stroke-width="2" points="526.0583,-1059.2037 522.0089,-1049.4133 519.0691,-1059.592 526.0583,-1059.2037"/>
</g>
<!-- 41 -->
<g id="node42" class="node">
<title>41</title>
<path fill="none" stroke="#d87d56" stroke-width="2" stroke-dasharray="5,2" d="M517.4859,-1411.5C517.4859,-1411.5 436.4859,-1411.5 436.4859,-1411.5 430.4859,-1411.5 424.4859,-1405.5 424.4859,-1399.5 424.4859,-1399.5 424.4859,-1387.5 424.4859,-1387.5 424.4859,-1381.5 430.4859,-1375.5 436.4859,-1375.5 436.4859,-1375.5 517.4859,-1375.5 517.4859,-1375.5 523.4859,-1375.5 529.4859,-1381.5 529.4859,-1387.5 529.4859,-1387.5 529.4859,-1399.5 529.4859,-1399.5 529.4859,-1405.5 523.4859,-1411.5 517.4859,-1411.5"/>
<text text-anchor="middle" x="476.9859" y="-1391" font-family="sans" font-size="10.00" fill="#000000">fastq_to_fasta_ONT</text>
</g>
<!-- 41&#45;&gt;36 -->
<g id="edge57" class="edge">
<title>41&#45;&gt;36</title>
<path fill="none" stroke="#c0c0c0" stroke-width="2" d="M470.9023,-1375.4198C467.5344,-1364.448 463.693,-1350.0826 461.9859,-1337 455.8882,-1290.2679 462.8646,-1235.5167 468.4446,-1203.1287"/>
<polygon fill="#c0c0c0" stroke="#c0c0c0" stroke-width="2" points="471.9325,-1203.5085 470.2626,-1193.0461 465.0436,-1202.2664 471.9325,-1203.5085"/>
</g>
<!-- 41&#45;&gt;46 -->
<g id="edge69" class="edge">
<title>41&#45;&gt;46</title>
<path fill="none" stroke="#c0c0c0" stroke-width="2" d="M486.1847,-1375.4656C490.679,-1366.6544 496.1808,-1355.868 501.1671,-1346.0921"/>
<polygon fill="#c0c0c0" stroke="#c0c0c0" stroke-width="2" points="504.3142,-1347.625 505.7402,-1337.1265 498.0786,-1344.4443 504.3142,-1347.625"/>
</g>
<!-- 42 -->
<g id="node43" class="node">
<title>42</title>
<path fill="none" stroke="#56d863" stroke-width="2" d="M534.9859,-1265C534.9859,-1265 486.9859,-1265 486.9859,-1265 480.9859,-1265 474.9859,-1259 474.9859,-1253 474.9859,-1253 474.9859,-1241 474.9859,-1241 474.9859,-1235 480.9859,-1229 486.9859,-1229 486.9859,-1229 534.9859,-1229 534.9859,-1229 540.9859,-1229 546.9859,-1235 546.9859,-1241 546.9859,-1241 546.9859,-1253 546.9859,-1253 546.9859,-1259 540.9859,-1265 534.9859,-1265"/>
<text text-anchor="middle" x="510.9859" y="-1244.5" font-family="sans" font-size="10.00" fill="#000000">ra_assembly</text>
</g>
<!-- 42&#45;&gt;36 -->
<g id="edge58" class="edge">
<title>42&#45;&gt;36</title>
<path fill="none" stroke="#c0c0c0" stroke-width="2" d="M501.6493,-1228.8314C497.5617,-1220.8771 492.6756,-1211.369 488.155,-1202.5723"/>
<polygon fill="#c0c0c0" stroke="#c0c0c0" stroke-width="2" points="491.1321,-1200.7078 483.4483,-1193.4133 484.906,-1203.9074 491.1321,-1200.7078"/>
</g>
<!-- 43 -->
<g id="node44" class="node">
<title>43</title>
<path fill="none" stroke="#5692d8" stroke-width="2" stroke-dasharray="5,2" d="M144.9859,-1491C144.9859,-1491 70.9859,-1491 70.9859,-1491 64.9859,-1491 58.9859,-1485 58.9859,-1479 58.9859,-1479 58.9859,-1462 58.9859,-1462 58.9859,-1456 64.9859,-1450 70.9859,-1450 70.9859,-1450 144.9859,-1450 144.9859,-1450 150.9859,-1450 156.9859,-1456 156.9859,-1462 156.9859,-1462 156.9859,-1479 156.9859,-1479 156.9859,-1485 150.9859,-1491 144.9859,-1491"/>
<text text-anchor="middle" x="107.9859" y="-1479" font-family="sans" font-size="10.00" fill="#000000">combine_units</text>
<text text-anchor="middle" x="107.9859" y="-1468" font-family="sans" font-size="10.00" fill="#000000">libtype: long_reads</text>
<text text-anchor="middle" x="107.9859" y="-1457" font-family="sans" font-size="10.00" fill="#000000">strain: C3</text>
</g>
<!-- 43&#45;&gt;38 -->
<g id="edge61" class="edge">
<title>43&#45;&gt;38</title>
<path fill="none" stroke="#c0c0c0" stroke-width="2" d="M107.9859,-1449.8654C107.9859,-1441.1912 107.9859,-1430.9623 107.9859,-1421.6158"/>
<polygon fill="#c0c0c0" stroke="#c0c0c0" stroke-width="2" points="111.486,-1421.5682 107.9859,-1411.5683 104.486,-1421.5683 111.486,-1421.5682"/>
</g>
<!-- 44&#45;&gt;39 -->
<g id="edge62" class="edge">
<title>44&#45;&gt;39</title>
<path fill="none" stroke="#c0c0c0" stroke-width="2" d="M144.9766,-1300.8314C144.5488,-1293.131 144.0401,-1283.9743 143.5646,-1275.4166"/>
<polygon fill="#c0c0c0" stroke="#c0c0c0" stroke-width="2" points="147.0583,-1275.2037 143.0089,-1265.4133 140.0691,-1275.592 147.0583,-1275.2037"/>
</g>
<!-- 45 -->
<g id="node46" class="node">
<title>45</title>
<path fill="none" stroke="#5692d8" stroke-width="2" stroke-dasharray="5,2" d="M513.9859,-1491C513.9859,-1491 439.9859,-1491 439.9859,-1491 433.9859,-1491 427.9859,-1485 427.9859,-1479 427.9859,-1479 427.9859,-1462 427.9859,-1462 427.9859,-1456 433.9859,-1450 439.9859,-1450 439.9859,-1450 513.9859,-1450 513.9859,-1450 519.9859,-1450 525.9859,-1456 525.9859,-1462 525.9859,-1462 525.9859,-1479 525.9859,-1479 525.9859,-1485 519.9859,-1491 513.9859,-1491"/>
<text text-anchor="middle" x="476.9859" y="-1479" font-family="sans" font-size="10.00" fill="#000000">combine_units</text>
<text text-anchor="middle" x="476.9859" y="-1468" font-family="sans" font-size="10.00" fill="#000000">libtype: long_reads</text>
<text text-anchor="middle" x="476.9859" y="-1457" font-family="sans" font-size="10.00" fill="#000000">strain: Neff</text>
</g>
<!-- 45&#45;&gt;41 -->
<g id="edge65" class="edge">
<title>45&#45;&gt;41</title>
<path fill="none" stroke="#c0c0c0" stroke-width="2" d="M476.9859,-1449.8654C476.9859,-1441.1912 476.9859,-1430.9623 476.9859,-1421.6158"/>
<polygon fill="#c0c0c0" stroke="#c0c0c0" stroke-width="2" points="480.486,-1421.5682 476.9859,-1411.5683 473.486,-1421.5683 480.486,-1421.5682"/>
</g>
<!-- 46&#45;&gt;42 -->
<g id="edge66" class="edge">
<title>46&#45;&gt;42</title>
<path fill="none" stroke="#c0c0c0" stroke-width="2" d="M513.9766,-1300.8314C513.5488,-1293.131 513.0401,-1283.9743 512.5646,-1275.4166"/>
<polygon fill="#c0c0c0" stroke="#c0c0c0" stroke-width="2" points="516.0583,-1275.2037 512.0089,-1265.4133 509.0691,-1275.592 516.0583,-1275.2037"/>
</g>
</g>
</svg>
