<?xml version="1.0" encoding="UTF-8" standalone="no"?>
<!DOCTYPE svg PUBLIC "-//W3C//DTD SVG 1.1//EN"
 "http://www.w3.org/Graphics/SVG/1.1/DTD/svg11.dtd">
<!-- Generated by graphviz version 2.40.1 (20161225.0304)
 -->
<!-- Title: snakemake_dag Pages: 1 -->
<svg width="726pt" height="851pt"
 viewBox="0.00 0.00 725.50 851.00" xmlns="http://www.w3.org/2000/svg" xmlns:xlink="http://www.w3.org/1999/xlink">
<g id="graph0" class="graph" transform="scale(1 1) rotate(0) translate(4 847)">
<title>snakemake_dag</title>
<polygon fill="#ffffff" stroke="transparent" points="-4,4 -4,-847 721.5,-847 721.5,4 -4,4"/>
<!-- 0 -->
<g id="node1" class="node">
<title>0</title>
<path fill="none" stroke="#d85656" stroke-width="2" d="M286.5,-36C286.5,-36 256.5,-36 256.5,-36 250.5,-36 244.5,-30 244.5,-24 244.5,-24 244.5,-12 244.5,-12 244.5,-6 250.5,0 256.5,0 256.5,0 286.5,0 286.5,0 292.5,0 298.5,-6 298.5,-12 298.5,-12 298.5,-24 298.5,-24 298.5,-30 292.5,-36 286.5,-36"/>
<text text-anchor="middle" x="271.5" y="-15.5" font-family="sans" font-size="10.00" fill="#000000">all</text>
</g>
<!-- 1 -->
<g id="node2" class="node">
<title>1</title>
<path fill="none" stroke="#78d856" stroke-width="2" d="M250.5,-108C250.5,-108 174.5,-108 174.5,-108 168.5,-108 162.5,-102 162.5,-96 162.5,-96 162.5,-84 162.5,-84 162.5,-78 168.5,-72 174.5,-72 174.5,-72 250.5,-72 250.5,-72 256.5,-72 262.5,-78 262.5,-84 262.5,-84 262.5,-96 262.5,-96 262.5,-102 256.5,-108 250.5,-108"/>
<text text-anchor="middle" x="212.5" y="-87.5" font-family="sans" font-size="10.00" fill="#000000">instagraal_polish</text>
</g>
<!-- 1&#45;&gt;0 -->
<g id="edge1" class="edge">
<title>1&#45;&gt;0</title>
<path fill="none" stroke="#c0c0c0" stroke-width="2" d="M227.3882,-71.8314C234.253,-63.454 242.5301,-53.3531 250.0511,-44.1749"/>
<polygon fill="#c0c0c0" stroke="#c0c0c0" stroke-width="2" points="252.7803,-46.3665 256.4114,-36.4133 247.3659,-41.9297 252.7803,-46.3665"/>
</g>
<!-- 2 -->
<g id="node3" class="node">
<title>2</title>
<path fill="none" stroke="#78d856" stroke-width="2" d="M369.5,-108C369.5,-108 293.5,-108 293.5,-108 287.5,-108 281.5,-102 281.5,-96 281.5,-96 281.5,-84 281.5,-84 281.5,-78 287.5,-72 293.5,-72 293.5,-72 369.5,-72 369.5,-72 375.5,-72 381.5,-78 381.5,-84 381.5,-84 381.5,-96 381.5,-96 381.5,-102 375.5,-108 369.5,-108"/>
<text text-anchor="middle" x="331.5" y="-87.5" font-family="sans" font-size="10.00" fill="#000000">instagraal_polish</text>
</g>
<!-- 2&#45;&gt;0 -->
<g id="edge2" class="edge">
<title>2&#45;&gt;0</title>
<path fill="none" stroke="#c0c0c0" stroke-width="2" d="M316.3595,-71.8314C309.3783,-63.454 300.9609,-53.3531 293.3124,-44.1749"/>
<polygon fill="#c0c0c0" stroke="#c0c0c0" stroke-width="2" points="295.9351,-41.8548 286.8444,-36.4133 290.5575,-46.3362 295.9351,-41.8548"/>
</g>
<!-- 3 -->
<g id="node4" class="node">
<title>3</title>
<path fill="none" stroke="#b6d856" stroke-width="2" d="M252.5,-180C252.5,-180 172.5,-180 172.5,-180 166.5,-180 160.5,-174 160.5,-168 160.5,-168 160.5,-156 160.5,-156 160.5,-150 166.5,-144 172.5,-144 172.5,-144 252.5,-144 252.5,-144 258.5,-144 264.5,-150 264.5,-156 264.5,-156 264.5,-168 264.5,-168 264.5,-174 258.5,-180 252.5,-180"/>
<text text-anchor="middle" x="212.5" y="-159.5" font-family="sans" font-size="10.00" fill="#000000">merge_organelles</text>
</g>
<!-- 3&#45;&gt;1 -->
<g id="edge3" class="edge">
<title>3&#45;&gt;1</title>
<path fill="none" stroke="#c0c0c0" stroke-width="2" d="M212.5,-143.8314C212.5,-136.131 212.5,-126.9743 212.5,-118.4166"/>
<polygon fill="#c0c0c0" stroke="#c0c0c0" stroke-width="2" points="216.0001,-118.4132 212.5,-108.4133 209.0001,-118.4133 216.0001,-118.4132"/>
</g>
<!-- 4 -->
<g id="node5" class="node">
<title>4</title>
<path fill="none" stroke="#d87556" stroke-width="2" d="M175.5,-252C175.5,-252 75.5,-252 75.5,-252 69.5,-252 63.5,-246 63.5,-240 63.5,-240 63.5,-228 63.5,-228 63.5,-222 69.5,-216 75.5,-216 75.5,-216 175.5,-216 175.5,-216 181.5,-216 187.5,-222 187.5,-228 187.5,-228 187.5,-240 187.5,-240 187.5,-246 181.5,-252 175.5,-252"/>
<text text-anchor="middle" x="125.5" y="-231.5" font-family="sans" font-size="10.00" fill="#000000">instagraal_scaffolding</text>
</g>
<!-- 4&#45;&gt;1 -->
<g id="edge4" class="edge">
<title>4&#45;&gt;1</title>
<path fill="none" stroke="#c0c0c0" stroke-width="2" d="M127.6926,-215.869C130.6675,-196.7681 137.3348,-166.4085 151.5,-144 158.477,-132.9628 168.3549,-122.8634 178.1342,-114.4609"/>
<polygon fill="#c0c0c0" stroke="#c0c0c0" stroke-width="2" points="180.3806,-117.1451 185.8984,-108.1005 175.9447,-111.73 180.3806,-117.1451"/>
</g>
<!-- 4&#45;&gt;3 -->
<g id="edge7" class="edge">
<title>4&#45;&gt;3</title>
<path fill="none" stroke="#c0c0c0" stroke-width="2" d="M147.4538,-215.8314C158.1695,-206.9632 171.2189,-196.1637 182.809,-186.5718"/>
<polygon fill="#c0c0c0" stroke="#c0c0c0" stroke-width="2" points="185.0808,-189.2349 190.5533,-180.1628 180.6178,-183.8422 185.0808,-189.2349"/>
</g>
<!-- 5 -->
<g id="node6" class="node">
<title>5</title>
<path fill="none" stroke="#b6d856" stroke-width="2" d="M451.5,-180C451.5,-180 371.5,-180 371.5,-180 365.5,-180 359.5,-174 359.5,-168 359.5,-168 359.5,-156 359.5,-156 359.5,-150 365.5,-144 371.5,-144 371.5,-144 451.5,-144 451.5,-144 457.5,-144 463.5,-150 463.5,-156 463.5,-156 463.5,-168 463.5,-168 463.5,-174 457.5,-180 451.5,-180"/>
<text text-anchor="middle" x="411.5" y="-159.5" font-family="sans" font-size="10.00" fill="#000000">merge_organelles</text>
</g>
<!-- 5&#45;&gt;2 -->
<g id="edge5" class="edge">
<title>5&#45;&gt;2</title>
<path fill="none" stroke="#c0c0c0" stroke-width="2" d="M391.3126,-143.8314C381.6486,-135.1337 369.9204,-124.5783 359.4184,-115.1265"/>
<polygon fill="#c0c0c0" stroke="#c0c0c0" stroke-width="2" points="361.4553,-112.251 351.6809,-108.1628 356.7725,-117.454 361.4553,-112.251"/>
</g>
<!-- 6 -->
<g id="node7" class="node">
<title>6</title>
<path fill="none" stroke="#d87556" stroke-width="2" d="M384.5,-252C384.5,-252 284.5,-252 284.5,-252 278.5,-252 272.5,-246 272.5,-240 272.5,-240 272.5,-228 272.5,-228 272.5,-222 278.5,-216 284.5,-216 284.5,-216 384.5,-216 384.5,-216 390.5,-216 396.5,-222 396.5,-228 396.5,-228 396.5,-240 396.5,-240 396.5,-246 390.5,-252 384.5,-252"/>
<text text-anchor="middle" x="334.5" y="-231.5" font-family="sans" font-size="10.00" fill="#000000">instagraal_scaffolding</text>
</g>
<!-- 6&#45;&gt;2 -->
<g id="edge6" class="edge">
<title>6&#45;&gt;2</title>
<path fill="none" stroke="#c0c0c0" stroke-width="2" d="M334.12,-215.7623C333.6084,-191.201 332.6927,-147.2474 332.0907,-118.3541"/>
<polygon fill="#c0c0c0" stroke="#c0c0c0" stroke-width="2" points="335.5845,-118.0145 331.8769,-108.0896 328.586,-118.1604 335.5845,-118.0145"/>
</g>
<!-- 6&#45;&gt;5 -->
<g id="edge11" class="edge">
<title>6&#45;&gt;5</title>
<path fill="none" stroke="#c0c0c0" stroke-width="2" d="M353.9304,-215.8314C363.232,-207.1337 374.5204,-196.5783 384.6286,-187.1265"/>
<polygon fill="#c0c0c0" stroke="#c0c0c0" stroke-width="2" points="387.1621,-189.5493 392.0759,-180.1628 382.3811,-184.4363 387.1621,-189.5493"/>
</g>
<!-- 7 -->
<g id="node8" class="node">
<title>7</title>
<path fill="none" stroke="#d8b456" stroke-width="2" d="M203,-398.5C203,-398.5 138,-398.5 138,-398.5 132,-398.5 126,-392.5 126,-386.5 126,-386.5 126,-374.5 126,-374.5 126,-368.5 132,-362.5 138,-362.5 138,-362.5 203,-362.5 203,-362.5 209,-362.5 215,-368.5 215,-374.5 215,-374.5 215,-386.5 215,-386.5 215,-392.5 209,-398.5 203,-398.5"/>
<text text-anchor="middle" x="170.5" y="-378" font-family="sans" font-size="10.00" fill="#000000">split_mito_tigs</text>
</g>
<!-- 7&#45;&gt;3 -->
<g id="edge8" class="edge">
<title>7&#45;&gt;3</title>
<path fill="none" stroke="#c0c0c0" stroke-width="2" d="M174.3393,-362.2264C179.5368,-337.3334 189.0214,-291.3553 196.5,-252 200.4011,-231.4711 204.522,-208.2505 207.6045,-190.5382"/>
<polygon fill="#c0c0c0" stroke="#c0c0c0" stroke-width="2" points="211.1206,-190.7454 209.3784,-180.2948 204.2233,-189.5509 211.1206,-190.7454"/>
</g>
<!-- 7&#45;&gt;4 -->
<g id="edge9" class="edge">
<title>7&#45;&gt;4</title>
<path fill="none" stroke="#c0c0c0" stroke-width="2" d="M168.133,-362.4222C165.3485,-343.5208 159.9969,-313.1629 151.5,-288 148.4525,-278.9751 144.2597,-269.4993 140.1304,-261.0492"/>
<polygon fill="#c0c0c0" stroke="#c0c0c0" stroke-width="2" points="143.2,-259.3635 135.5598,-252.0234 136.9551,-262.5259 143.2,-259.3635"/>
</g>
<!-- 8 -->
<g id="node9" class="node">
<title>8</title>
<path fill="none" stroke="#59d856" stroke-width="2" d="M130.5,-324C130.5,-324 24.5,-324 24.5,-324 18.5,-324 12.5,-318 12.5,-312 12.5,-312 12.5,-300 12.5,-300 12.5,-294 18.5,-288 24.5,-288 24.5,-288 130.5,-288 130.5,-288 136.5,-288 142.5,-294 142.5,-300 142.5,-300 142.5,-312 142.5,-312 142.5,-318 136.5,-324 130.5,-324"/>
<text text-anchor="middle" x="77.5" y="-303.5" font-family="sans" font-size="10.00" fill="#000000">hicstuff_hic_processing</text>
</g>
<!-- 7&#45;&gt;8 -->
<g id="edge17" class="edge">
<title>7&#45;&gt;8</title>
<path fill="none" stroke="#c0c0c0" stroke-width="2" d="M147.9873,-362.4656C135.9676,-352.8369 121.0032,-340.8493 107.9584,-330.3995"/>
<polygon fill="#c0c0c0" stroke="#c0c0c0" stroke-width="2" points="110.1206,-327.647 100.1277,-324.1265 105.7441,-333.1102 110.1206,-327.647"/>
</g>
<!-- 8&#45;&gt;4 -->
<g id="edge10" class="edge">
<title>8&#45;&gt;4</title>
<path fill="none" stroke="#c0c0c0" stroke-width="2" d="M89.6124,-287.8314C95.0281,-279.7079 101.5242,-269.9637 107.4921,-261.0118"/>
<polygon fill="#c0c0c0" stroke="#c0c0c0" stroke-width="2" points="110.5896,-262.6753 113.2245,-252.4133 104.7653,-258.7923 110.5896,-262.6753"/>
</g>
<!-- 9 -->
<g id="node10" class="node">
<title>9</title>
<path fill="none" stroke="#d8b456" stroke-width="2" d="M477,-398.5C477,-398.5 412,-398.5 412,-398.5 406,-398.5 400,-392.5 400,-386.5 400,-386.5 400,-374.5 400,-374.5 400,-368.5 406,-362.5 412,-362.5 412,-362.5 477,-362.5 477,-362.5 483,-362.5 489,-368.5 489,-374.5 489,-374.5 489,-386.5 489,-386.5 489,-392.5 483,-398.5 477,-398.5"/>
<text text-anchor="middle" x="444.5" y="-378" font-family="sans" font-size="10.00" fill="#000000">split_mito_tigs</text>
</g>
<!-- 9&#45;&gt;5 -->
<g id="edge12" class="edge">
<title>9&#45;&gt;5</title>
<path fill="none" stroke="#c0c0c0" stroke-width="2" d="M441.7432,-362.2466C435.9781,-324.0749 422.6149,-235.5939 415.7454,-190.1098"/>
<polygon fill="#c0c0c0" stroke="#c0c0c0" stroke-width="2" points="419.1799,-189.4129 414.2257,-180.0477 412.2584,-190.4583 419.1799,-189.4129"/>
</g>
<!-- 9&#45;&gt;6 -->
<g id="edge13" class="edge">
<title>9&#45;&gt;6</title>
<path fill="none" stroke="#c0c0c0" stroke-width="2" d="M437.4651,-362.2835C429.3834,-342.725 414.8432,-311.3223 396.5,-288 388.1444,-277.3763 377.4878,-267.224 367.3755,-258.6476"/>
<polygon fill="#c0c0c0" stroke="#c0c0c0" stroke-width="2" points="369.3862,-255.7699 359.4367,-252.1286 364.9438,-261.1797 369.3862,-255.7699"/>
</g>
<!-- 10 -->
<g id="node11" class="node">
<title>10</title>
<path fill="none" stroke="#59d856" stroke-width="2" d="M375.5,-324C375.5,-324 269.5,-324 269.5,-324 263.5,-324 257.5,-318 257.5,-312 257.5,-312 257.5,-300 257.5,-300 257.5,-294 263.5,-288 269.5,-288 269.5,-288 375.5,-288 375.5,-288 381.5,-288 387.5,-294 387.5,-300 387.5,-300 387.5,-312 387.5,-312 387.5,-318 381.5,-324 375.5,-324"/>
<text text-anchor="middle" x="322.5" y="-303.5" font-family="sans" font-size="10.00" fill="#000000">hicstuff_hic_processing</text>
</g>
<!-- 9&#45;&gt;10 -->
<g id="edge20" class="edge">
<title>9&#45;&gt;10</title>
<path fill="none" stroke="#c0c0c0" stroke-width="2" d="M414.9672,-362.4656C398.7531,-352.5644 378.4544,-340.1689 361.0094,-329.516"/>
<polygon fill="#c0c0c0" stroke="#c0c0c0" stroke-width="2" points="362.5423,-326.3511 352.1837,-324.1265 358.8941,-332.3253 362.5423,-326.3511"/>
</g>
<!-- 10&#45;&gt;6 -->
<g id="edge14" class="edge">
<title>10&#45;&gt;6</title>
<path fill="none" stroke="#c0c0c0" stroke-width="2" d="M325.5281,-287.8314C326.8115,-280.131 328.3376,-270.9743 329.7639,-262.4166"/>
<polygon fill="#c0c0c0" stroke="#c0c0c0" stroke-width="2" points="333.2394,-262.8526 331.4311,-252.4133 326.3347,-261.7018 333.2394,-262.8526"/>
</g>
<!-- 11 -->
<g id="node12" class="node">
<title>11</title>
<path fill="none" stroke="#56b9d8" stroke-width="2" d="M197.5,-473C197.5,-473 131.5,-473 131.5,-473 125.5,-473 119.5,-467 119.5,-461 119.5,-461 119.5,-449 119.5,-449 119.5,-443 125.5,-437 131.5,-437 131.5,-437 197.5,-437 197.5,-437 203.5,-437 209.5,-443 209.5,-449 209.5,-449 209.5,-461 209.5,-461 209.5,-467 203.5,-473 197.5,-473"/>
<text text-anchor="middle" x="164.5" y="-452.5" font-family="sans" font-size="10.00" fill="#000000">hypo_polishing</text>
</g>
<!-- 11&#45;&gt;7 -->
<g id="edge15" class="edge">
<title>11&#45;&gt;7</title>
<path fill="none" stroke="#c0c0c0" stroke-width="2" d="M165.9524,-436.9656C166.6328,-428.5178 167.4594,-418.2542 168.2203,-408.8064"/>
<polygon fill="#c0c0c0" stroke="#c0c0c0" stroke-width="2" points="171.726,-408.8752 169.0401,-398.6265 164.7486,-408.3132 171.726,-408.8752"/>
</g>
<!-- 12 -->
<g id="node13" class="node">
<title>12</title>
<path fill="none" stroke="#56d89a" stroke-width="2" stroke-dasharray="5,2" d="M96.5,-401C96.5,-401 32.5,-401 32.5,-401 26.5,-401 20.5,-395 20.5,-389 20.5,-389 20.5,-372 20.5,-372 20.5,-366 26.5,-360 32.5,-360 32.5,-360 96.5,-360 96.5,-360 102.5,-360 108.5,-366 108.5,-372 108.5,-372 108.5,-389 108.5,-389 108.5,-395 102.5,-401 96.5,-401"/>
<text text-anchor="middle" x="64.5" y="-389" font-family="sans" font-size="10.00" fill="#000000">combine_units</text>
<text text-anchor="middle" x="64.5" y="-378" font-family="sans" font-size="10.00" fill="#000000">libtype: hic</text>
<text text-anchor="middle" x="64.5" y="-367" font-family="sans" font-size="10.00" fill="#000000">strain: C3</text>
</g>
<!-- 12&#45;&gt;8 -->
<g id="edge16" class="edge">
<title>12&#45;&gt;8</title>
<path fill="none" stroke="#c0c0c0" stroke-width="2" d="M68.1212,-359.7476C69.5099,-351.7892 71.1183,-342.5718 72.6068,-334.0418"/>
<polygon fill="#c0c0c0" stroke="#c0c0c0" stroke-width="2" points="76.0689,-334.5615 74.3401,-324.1087 69.1731,-333.3581 76.0689,-334.5615"/>
</g>
<!-- 13 -->
<g id="node14" class="node">
<title>13</title>
<path fill="none" stroke="#56b9d8" stroke-width="2" d="M477.5,-473C477.5,-473 411.5,-473 411.5,-473 405.5,-473 399.5,-467 399.5,-461 399.5,-461 399.5,-449 399.5,-449 399.5,-443 405.5,-437 411.5,-437 411.5,-437 477.5,-437 477.5,-437 483.5,-437 489.5,-443 489.5,-449 489.5,-449 489.5,-461 489.5,-461 489.5,-467 483.5,-473 477.5,-473"/>
<text text-anchor="middle" x="444.5" y="-452.5" font-family="sans" font-size="10.00" fill="#000000">hypo_polishing</text>
</g>
<!-- 13&#45;&gt;9 -->
<g id="edge18" class="edge">
<title>13&#45;&gt;9</title>
<path fill="none" stroke="#c0c0c0" stroke-width="2" d="M444.5,-436.9656C444.5,-428.5178 444.5,-418.2542 444.5,-408.8064"/>
<polygon fill="#c0c0c0" stroke="#c0c0c0" stroke-width="2" points="448.0001,-408.6265 444.5,-398.6265 441.0001,-408.6265 448.0001,-408.6265"/>
</g>
<!-- 14 -->
<g id="node15" class="node">
<title>14</title>
<path fill="none" stroke="#56d89a" stroke-width="2" stroke-dasharray="5,2" d="M354.5,-401C354.5,-401 290.5,-401 290.5,-401 284.5,-401 278.5,-395 278.5,-389 278.5,-389 278.5,-372 278.5,-372 278.5,-366 284.5,-360 290.5,-360 290.5,-360 354.5,-360 354.5,-360 360.5,-360 366.5,-366 366.5,-372 366.5,-372 366.5,-389 366.5,-389 366.5,-395 360.5,-401 354.5,-401"/>
<text text-anchor="middle" x="322.5" y="-389" font-family="sans" font-size="10.00" fill="#000000">combine_units</text>
<text text-anchor="middle" x="322.5" y="-378" font-family="sans" font-size="10.00" fill="#000000">libtype: hic</text>
<text text-anchor="middle" x="322.5" y="-367" font-family="sans" font-size="10.00" fill="#000000">strain: Neff</text>
</g>
<!-- 14&#45;&gt;10 -->
<g id="edge19" class="edge">
<title>14&#45;&gt;10</title>
<path fill="none" stroke="#c0c0c0" stroke-width="2" d="M322.5,-359.7476C322.5,-351.8767 322.5,-342.7743 322.5,-334.3232"/>
<polygon fill="#c0c0c0" stroke="#c0c0c0" stroke-width="2" points="326.0001,-334.1086 322.5,-324.1087 319.0001,-334.1087 326.0001,-334.1086"/>
</g>
<!-- 15 -->
<g id="node16" class="node">
<title>15</title>
<path fill="none" stroke="#56d87b" stroke-width="2" d="M337.5,-545C337.5,-545 203.5,-545 203.5,-545 197.5,-545 191.5,-539 191.5,-533 191.5,-533 191.5,-521 191.5,-521 191.5,-515 197.5,-509 203.5,-509 203.5,-509 337.5,-509 337.5,-509 343.5,-509 349.5,-515 349.5,-521 349.5,-521 349.5,-533 349.5,-533 349.5,-539 343.5,-545 337.5,-545"/>
<text text-anchor="middle" x="270.5" y="-524.5" font-family="sans" font-size="10.00" fill="#000000">align_shotgun_ont_assembly</text>
</g>
<!-- 15&#45;&gt;11 -->
<g id="edge21" class="edge">
<title>15&#45;&gt;11</title>
<path fill="none" stroke="#c0c0c0" stroke-width="2" d="M243.7517,-508.8314C230.4447,-499.7927 214.184,-488.7476 199.8625,-479.0198"/>
<polygon fill="#c0c0c0" stroke="#c0c0c0" stroke-width="2" points="201.4785,-475.8864 191.2397,-473.1628 197.5453,-481.677 201.4785,-475.8864"/>
</g>
<!-- 16 -->
<g id="node17" class="node">
<title>16</title>
<path fill="none" stroke="#d89556" stroke-width="2" d="M123,-545C123,-545 12,-545 12,-545 6,-545 0,-539 0,-533 0,-533 0,-521 0,-521 0,-515 6,-509 12,-509 12,-509 123,-509 123,-509 129,-509 135,-515 135,-521 135,-521 135,-533 135,-533 135,-539 129,-545 123,-545"/>
<text text-anchor="middle" x="67.5" y="-524.5" font-family="sans" font-size="10.00" fill="#000000">align_ont_ont_assembly</text>
</g>
<!-- 16&#45;&gt;11 -->
<g id="edge22" class="edge">
<title>16&#45;&gt;11</title>
<path fill="none" stroke="#c0c0c0" stroke-width="2" d="M91.9772,-508.8314C104.0395,-499.8779 118.754,-488.9558 131.7686,-479.2955"/>
<polygon fill="#c0c0c0" stroke="#c0c0c0" stroke-width="2" points="134.087,-481.9335 140.0306,-473.1628 129.9148,-476.3127 134.087,-481.9335"/>
</g>
<!-- 17 -->
<g id="node18" class="node">
<title>17</title>
<path fill="none" stroke="#d6d856" stroke-width="2" stroke-dasharray="5,2" d="M195,-617C195,-617 132,-617 132,-617 126,-617 120,-611 120,-605 120,-605 120,-593 120,-593 120,-587 126,-581 132,-581 132,-581 195,-581 195,-581 201,-581 207,-587 207,-593 207,-593 207,-605 207,-605 207,-611 201,-617 195,-617"/>
<text text-anchor="middle" x="163.5" y="-596.5" font-family="sans" font-size="10.00" fill="#000000">flye_assembly</text>
</g>
<!-- 17&#45;&gt;11 -->
<g id="edge23" class="edge">
<title>17&#45;&gt;11</title>
<path fill="none" stroke="#c0c0c0" stroke-width="2" d="M163.6267,-580.7623C163.7972,-556.201 164.1024,-512.2474 164.3031,-483.3541"/>
<polygon fill="#c0c0c0" stroke="#c0c0c0" stroke-width="2" points="167.8048,-483.1137 164.3744,-473.0896 160.8049,-483.065 167.8048,-483.1137"/>
</g>
<!-- 17&#45;&gt;15 -->
<g id="edge28" class="edge">
<title>17&#45;&gt;15</title>
<path fill="none" stroke="#c0c0c0" stroke-width="2" d="M190.5006,-580.8314C203.9331,-571.7927 220.3473,-560.7476 234.8039,-551.0198"/>
<polygon fill="#c0c0c0" stroke="#c0c0c0" stroke-width="2" points="237.1654,-553.6494 243.508,-545.1628 233.2575,-547.8418 237.1654,-553.6494"/>
</g>
<!-- 17&#45;&gt;16 -->
<g id="edge30" class="edge">
<title>17&#45;&gt;16</title>
<path fill="none" stroke="#c0c0c0" stroke-width="2" d="M139.2751,-580.8314C127.3372,-571.8779 112.7744,-560.9558 99.894,-551.2955"/>
<polygon fill="#c0c0c0" stroke="#c0c0c0" stroke-width="2" points="101.8171,-548.3629 91.7171,-545.1628 97.6171,-553.9629 101.8171,-548.3629"/>
</g>
<!-- 18 -->
<g id="node19" class="node">
<title>18</title>
<path fill="none" stroke="#56d87b" stroke-width="2" d="M705.5,-545C705.5,-545 571.5,-545 571.5,-545 565.5,-545 559.5,-539 559.5,-533 559.5,-533 559.5,-521 559.5,-521 559.5,-515 565.5,-509 571.5,-509 571.5,-509 705.5,-509 705.5,-509 711.5,-509 717.5,-515 717.5,-521 717.5,-521 717.5,-533 717.5,-533 717.5,-539 711.5,-545 705.5,-545"/>
<text text-anchor="middle" x="638.5" y="-524.5" font-family="sans" font-size="10.00" fill="#000000">align_shotgun_ont_assembly</text>
</g>
<!-- 18&#45;&gt;13 -->
<g id="edge24" class="edge">
<title>18&#45;&gt;13</title>
<path fill="none" stroke="#c0c0c0" stroke-width="2" d="M589.5456,-508.8314C562.0142,-498.6135 527.5743,-485.8317 499.1631,-475.2873"/>
<polygon fill="#c0c0c0" stroke="#c0c0c0" stroke-width="2" points="500.3708,-472.0023 489.7778,-471.8041 497.9351,-478.5649 500.3708,-472.0023"/>
</g>
<!-- 19 -->
<g id="node20" class="node">
<title>19</title>
<path fill="none" stroke="#d89556" stroke-width="2" d="M491,-545C491,-545 380,-545 380,-545 374,-545 368,-539 368,-533 368,-533 368,-521 368,-521 368,-515 374,-509 380,-509 380,-509 491,-509 491,-509 497,-509 503,-515 503,-521 503,-521 503,-533 503,-533 503,-539 497,-545 491,-545"/>
<text text-anchor="middle" x="435.5" y="-524.5" font-family="sans" font-size="10.00" fill="#000000">align_ont_ont_assembly</text>
</g>
<!-- 19&#45;&gt;13 -->
<g id="edge25" class="edge">
<title>19&#45;&gt;13</title>
<path fill="none" stroke="#c0c0c0" stroke-width="2" d="M437.7711,-508.8314C438.7336,-501.131 439.8782,-491.9743 440.9479,-483.4166"/>
<polygon fill="#c0c0c0" stroke="#c0c0c0" stroke-width="2" points="444.4309,-483.7702 442.1983,-473.4133 437.4849,-482.9019 444.4309,-483.7702"/>
</g>
<!-- 20 -->
<g id="node21" class="node">
<title>20</title>
<path fill="none" stroke="#d6d856" stroke-width="2" stroke-dasharray="5,2" d="M563,-617C563,-617 500,-617 500,-617 494,-617 488,-611 488,-605 488,-605 488,-593 488,-593 488,-587 494,-581 500,-581 500,-581 563,-581 563,-581 569,-581 575,-587 575,-593 575,-593 575,-605 575,-605 575,-611 569,-617 563,-617"/>
<text text-anchor="middle" x="531.5" y="-596.5" font-family="sans" font-size="10.00" fill="#000000">flye_assembly</text>
</g>
<!-- 20&#45;&gt;13 -->
<g id="edge26" class="edge">
<title>20&#45;&gt;13</title>
<path fill="none" stroke="#c0c0c0" stroke-width="2" d="M530.9472,-580.7731C529.6058,-561.5922 525.2601,-531.1664 511.5,-509 504.3422,-497.4693 493.8274,-487.3222 483.2396,-479.0288"/>
<polygon fill="#c0c0c0" stroke="#c0c0c0" stroke-width="2" points="485.3007,-476.1999 475.1831,-473.0558 481.1317,-481.8231 485.3007,-476.1999"/>
</g>
<!-- 20&#45;&gt;18 -->
<g id="edge33" class="edge">
<title>20&#45;&gt;18</title>
<path fill="none" stroke="#c0c0c0" stroke-width="2" d="M558.5006,-580.8314C571.9331,-571.7927 588.3473,-560.7476 602.8039,-551.0198"/>
<polygon fill="#c0c0c0" stroke="#c0c0c0" stroke-width="2" points="605.1654,-553.6494 611.508,-545.1628 601.2575,-547.8418 605.1654,-553.6494"/>
</g>
<!-- 20&#45;&gt;19 -->
<g id="edge35" class="edge">
<title>20&#45;&gt;19</title>
<path fill="none" stroke="#c0c0c0" stroke-width="2" d="M507.2751,-580.8314C495.3372,-571.8779 480.7744,-560.9558 467.894,-551.2955"/>
<polygon fill="#c0c0c0" stroke="#c0c0c0" stroke-width="2" points="469.8171,-548.3629 459.7171,-545.1628 465.6171,-553.9629 469.8171,-548.3629"/>
</g>
<!-- 21 -->
<g id="node22" class="node">
<title>21</title>
<path fill="none" stroke="#56d89a" stroke-width="2" stroke-dasharray="5,2" d="M308,-766C308,-766 237,-766 237,-766 231,-766 225,-760 225,-754 225,-754 225,-737 225,-737 225,-731 231,-725 237,-725 237,-725 308,-725 308,-725 314,-725 320,-731 320,-737 320,-737 320,-754 320,-754 320,-760 314,-766 308,-766"/>
<text text-anchor="middle" x="272.5" y="-754" font-family="sans" font-size="10.00" fill="#000000">combine_units</text>
<text text-anchor="middle" x="272.5" y="-743" font-family="sans" font-size="10.00" fill="#000000">libtype: shotgun</text>
<text text-anchor="middle" x="272.5" y="-732" font-family="sans" font-size="10.00" fill="#000000">strain: C3</text>
</g>
<!-- 21&#45;&gt;15 -->
<g id="edge27" class="edge">
<title>21&#45;&gt;15</title>
<path fill="none" stroke="#c0c0c0" stroke-width="2" d="M272.3118,-724.9441C271.9525,-685.6867 271.1681,-599.9857 270.7593,-555.331"/>
<polygon fill="#c0c0c0" stroke="#c0c0c0" stroke-width="2" points="274.2578,-555.1391 270.6663,-545.1716 267.2581,-555.2032 274.2578,-555.1391"/>
</g>
<!-- 23 -->
<g id="node24" class="node">
<title>23</title>
<path fill="none" stroke="#567bd8" stroke-width="2" stroke-dasharray="5,2" d="M200.5,-689C200.5,-689 126.5,-689 126.5,-689 120.5,-689 114.5,-683 114.5,-677 114.5,-677 114.5,-665 114.5,-665 114.5,-659 120.5,-653 126.5,-653 126.5,-653 200.5,-653 200.5,-653 206.5,-653 212.5,-659 212.5,-665 212.5,-665 212.5,-677 212.5,-677 212.5,-683 206.5,-689 200.5,-689"/>
<text text-anchor="middle" x="163.5" y="-668.5" font-family="sans" font-size="10.00" fill="#000000">filter_long_reads</text>
</g>
<!-- 21&#45;&gt;23 -->
<g id="edge38" class="edge">
<title>21&#45;&gt;23</title>
<path fill="none" stroke="#c0c0c0" stroke-width="2" d="M242.4267,-724.9453C228.859,-715.6719 212.7446,-704.658 198.6249,-695.0074"/>
<polygon fill="#c0c0c0" stroke="#c0c0c0" stroke-width="2" points="200.3626,-691.9557 190.1317,-689.2024 196.4126,-697.7348 200.3626,-691.9557"/>
</g>
<!-- 22 -->
<g id="node23" class="node">
<title>22</title>
<path fill="none" stroke="#56d89a" stroke-width="2" stroke-dasharray="5,2" d="M151.5,-843C151.5,-843 65.5,-843 65.5,-843 59.5,-843 53.5,-837 53.5,-831 53.5,-831 53.5,-814 53.5,-814 53.5,-808 59.5,-802 65.5,-802 65.5,-802 151.5,-802 151.5,-802 157.5,-802 163.5,-808 163.5,-814 163.5,-814 163.5,-831 163.5,-831 163.5,-837 157.5,-843 151.5,-843"/>
<text text-anchor="middle" x="108.5" y="-831" font-family="sans" font-size="10.00" fill="#000000">combine_units</text>
<text text-anchor="middle" x="108.5" y="-820" font-family="sans" font-size="10.00" fill="#000000">libtype: long_reads</text>
<text text-anchor="middle" x="108.5" y="-809" font-family="sans" font-size="10.00" fill="#000000">strain: C3</text>
</g>
<!-- 22&#45;&gt;16 -->
<g id="edge29" class="edge">
<title>22&#45;&gt;16</title>
<path fill="none" stroke="#c0c0c0" stroke-width="2" d="M97.7878,-801.8687C92.8643,-791.4051 87.4696,-778.3296 84.5,-766 66.5934,-691.6517 65.6382,-600.8316 66.5225,-555.54"/>
<polygon fill="#c0c0c0" stroke="#c0c0c0" stroke-width="2" points="70.0273,-555.3819 66.7703,-545.3002 63.0293,-555.2125 70.0273,-555.3819"/>
</g>
<!-- 27 -->
<g id="node28" class="node">
<title>27</title>
<path fill="none" stroke="#569ad8" stroke-width="2" stroke-dasharray="5,2" d="M195,-763.5C195,-763.5 106,-763.5 106,-763.5 100,-763.5 94,-757.5 94,-751.5 94,-751.5 94,-739.5 94,-739.5 94,-733.5 100,-727.5 106,-727.5 106,-727.5 195,-727.5 195,-727.5 201,-727.5 207,-733.5 207,-739.5 207,-739.5 207,-751.5 207,-751.5 207,-757.5 201,-763.5 195,-763.5"/>
<text text-anchor="middle" x="150.5" y="-743" font-family="sans" font-size="10.00" fill="#000000">fastq_to_fasta_ONT</text>
</g>
<!-- 22&#45;&gt;27 -->
<g id="edge41" class="edge">
<title>22&#45;&gt;27</title>
<path fill="none" stroke="#c0c0c0" stroke-width="2" d="M119.7552,-801.8654C124.6901,-792.8181 130.5475,-782.0795 135.8191,-772.4149"/>
<polygon fill="#c0c0c0" stroke="#c0c0c0" stroke-width="2" points="138.9286,-774.0232 140.6446,-763.5683 132.7834,-770.6712 138.9286,-774.0232"/>
</g>
<!-- 23&#45;&gt;17 -->
<g id="edge31" class="edge">
<title>23&#45;&gt;17</title>
<path fill="none" stroke="#c0c0c0" stroke-width="2" d="M163.5,-652.8314C163.5,-645.131 163.5,-635.9743 163.5,-627.4166"/>
<polygon fill="#c0c0c0" stroke="#c0c0c0" stroke-width="2" points="167.0001,-627.4132 163.5,-617.4133 160.0001,-627.4133 167.0001,-627.4132"/>
</g>
<!-- 24 -->
<g id="node25" class="node">
<title>24</title>
<path fill="none" stroke="#56d89a" stroke-width="2" stroke-dasharray="5,2" d="M677,-766C677,-766 606,-766 606,-766 600,-766 594,-760 594,-754 594,-754 594,-737 594,-737 594,-731 600,-725 606,-725 606,-725 677,-725 677,-725 683,-725 689,-731 689,-737 689,-737 689,-754 689,-754 689,-760 683,-766 677,-766"/>
<text text-anchor="middle" x="641.5" y="-754" font-family="sans" font-size="10.00" fill="#000000">combine_units</text>
<text text-anchor="middle" x="641.5" y="-743" font-family="sans" font-size="10.00" fill="#000000">libtype: shotgun</text>
<text text-anchor="middle" x="641.5" y="-732" font-family="sans" font-size="10.00" fill="#000000">strain: Neff</text>
</g>
<!-- 24&#45;&gt;18 -->
<g id="edge32" class="edge">
<title>24&#45;&gt;18</title>
<path fill="none" stroke="#c0c0c0" stroke-width="2" d="M641.2178,-724.9441C640.6788,-685.6867 639.5021,-599.9857 638.889,-555.331"/>
<polygon fill="#c0c0c0" stroke="#c0c0c0" stroke-width="2" points="642.3865,-555.1226 638.7495,-545.1716 635.3872,-555.2187 642.3865,-555.1226"/>
</g>
<!-- 26 -->
<g id="node27" class="node">
<title>26</title>
<path fill="none" stroke="#567bd8" stroke-width="2" stroke-dasharray="5,2" d="M568.5,-689C568.5,-689 494.5,-689 494.5,-689 488.5,-689 482.5,-683 482.5,-677 482.5,-677 482.5,-665 482.5,-665 482.5,-659 488.5,-653 494.5,-653 494.5,-653 568.5,-653 568.5,-653 574.5,-653 580.5,-659 580.5,-665 580.5,-665 580.5,-677 580.5,-677 580.5,-683 574.5,-689 568.5,-689"/>
<text text-anchor="middle" x="531.5" y="-668.5" font-family="sans" font-size="10.00" fill="#000000">filter_long_reads</text>
</g>
<!-- 24&#45;&gt;26 -->
<g id="edge40" class="edge">
<title>24&#45;&gt;26</title>
<path fill="none" stroke="#c0c0c0" stroke-width="2" d="M611.1508,-724.9453C597.4586,-715.6719 581.1964,-704.658 566.9471,-695.0074"/>
<polygon fill="#c0c0c0" stroke="#c0c0c0" stroke-width="2" points="568.6185,-691.9122 558.376,-689.2024 564.6931,-697.708 568.6185,-691.9122"/>
</g>
<!-- 25 -->
<g id="node26" class="node">
<title>25</title>
<path fill="none" stroke="#56d89a" stroke-width="2" stroke-dasharray="5,2" d="M519.5,-843C519.5,-843 433.5,-843 433.5,-843 427.5,-843 421.5,-837 421.5,-831 421.5,-831 421.5,-814 421.5,-814 421.5,-808 427.5,-802 433.5,-802 433.5,-802 519.5,-802 519.5,-802 525.5,-802 531.5,-808 531.5,-814 531.5,-814 531.5,-831 531.5,-831 531.5,-837 525.5,-843 519.5,-843"/>
<text text-anchor="middle" x="476.5" y="-831" font-family="sans" font-size="10.00" fill="#000000">combine_units</text>
<text text-anchor="middle" x="476.5" y="-820" font-family="sans" font-size="10.00" fill="#000000">libtype: long_reads</text>
<text text-anchor="middle" x="476.5" y="-809" font-family="sans" font-size="10.00" fill="#000000">strain: Neff</text>
</g>
<!-- 25&#45;&gt;19 -->
<g id="edge34" class="edge">
<title>25&#45;&gt;19</title>
<path fill="none" stroke="#c0c0c0" stroke-width="2" d="M466.267,-801.8162C461.5566,-791.3396 456.384,-778.2684 453.5,-766 435.9945,-691.5323 434.3487,-600.7643 434.8117,-555.5116"/>
<polygon fill="#c0c0c0" stroke="#c0c0c0" stroke-width="2" points="438.3146,-555.3311 434.9615,-545.2809 431.3153,-555.2286 438.3146,-555.3311"/>
</g>
<!-- 28 -->
<g id="node29" class="node">
<title>28</title>
<path fill="none" stroke="#569ad8" stroke-width="2" stroke-dasharray="5,2" d="M564,-763.5C564,-763.5 475,-763.5 475,-763.5 469,-763.5 463,-757.5 463,-751.5 463,-751.5 463,-739.5 463,-739.5 463,-733.5 469,-727.5 475,-727.5 475,-727.5 564,-727.5 564,-727.5 570,-727.5 576,-733.5 576,-739.5 576,-739.5 576,-751.5 576,-751.5 576,-757.5 570,-763.5 564,-763.5"/>
<text text-anchor="middle" x="519.5" y="-743" font-family="sans" font-size="10.00" fill="#000000">fastq_to_fasta_ONT</text>
</g>
<!-- 25&#45;&gt;28 -->
<g id="edge42" class="edge">
<title>25&#45;&gt;28</title>
<path fill="none" stroke="#c0c0c0" stroke-width="2" d="M488.0232,-801.8654C493.0756,-792.8181 499.0725,-782.0795 504.4696,-772.4149"/>
<polygon fill="#c0c0c0" stroke="#c0c0c0" stroke-width="2" points="507.59,-774.0056 509.4099,-763.5683 501.4784,-770.5926 507.59,-774.0056"/>
</g>
<!-- 26&#45;&gt;20 -->
<g id="edge36" class="edge">
<title>26&#45;&gt;20</title>
<path fill="none" stroke="#c0c0c0" stroke-width="2" d="M531.5,-652.8314C531.5,-645.131 531.5,-635.9743 531.5,-627.4166"/>
<polygon fill="#c0c0c0" stroke="#c0c0c0" stroke-width="2" points="535.0001,-627.4132 531.5,-617.4133 528.0001,-627.4133 535.0001,-627.4132"/>
</g>
<!-- 27&#45;&gt;23 -->
<g id="edge37" class="edge">
<title>27&#45;&gt;23</title>
<path fill="none" stroke="#c0c0c0" stroke-width="2" d="M153.6469,-727.4656C155.1369,-718.927 156.9506,-708.5333 158.6138,-699.002"/>
<polygon fill="#c0c0c0" stroke="#c0c0c0" stroke-width="2" points="162.0658,-699.5793 160.337,-689.1265 155.17,-698.376 162.0658,-699.5793"/>
</g>
<!-- 28&#45;&gt;26 -->
<g id="edge39" class="edge">
<title>28&#45;&gt;26</title>
<path fill="none" stroke="#c0c0c0" stroke-width="2" d="M522.4049,-727.4656C523.7802,-718.927 525.4544,-708.5333 526.9896,-699.002"/>
<polygon fill="#c0c0c0" stroke="#c0c0c0" stroke-width="2" points="530.4454,-699.5559 528.5803,-689.1265 523.5345,-698.4426 530.4454,-699.5559"/>
</g>
</g>
</svg>
