<?xml version="1.0" encoding="UTF-8" standalone="no"?>
<!DOCTYPE svg PUBLIC "-//W3C//DTD SVG 1.1//EN"
 "http://www.w3.org/Graphics/SVG/1.1/DTD/svg11.dtd">
<!-- Generated by graphviz version 2.40.1 (20161225.0304)
 -->
<!-- Title: snakemake_dag Pages: 1 -->
<svg width="756pt" height="1499pt"
 viewBox="0.00 0.00 756.47 1499.00" xmlns="http://www.w3.org/2000/svg" xmlns:xlink="http://www.w3.org/1999/xlink">
<g id="graph0" class="graph" transform="scale(1 1) rotate(0) translate(4 1495)">
<title>snakemake_dag</title>
<polygon fill="#ffffff" stroke="transparent" points="-4,4 -4,-1495 752.475,-1495 752.475,4 -4,4"/>
<!-- 0 -->
<g id="node1" class="node">
<title>0</title>
<path fill="none" stroke="#d87d56" stroke-width="2" d="M447.975,-36C447.975,-36 417.975,-36 417.975,-36 411.975,-36 405.975,-30 405.975,-24 405.975,-24 405.975,-12 405.975,-12 405.975,-6 411.975,0 417.975,0 417.975,0 447.975,0 447.975,0 453.975,0 459.975,-6 459.975,-12 459.975,-12 459.975,-24 459.975,-24 459.975,-30 453.975,-36 447.975,-36"/>
<text text-anchor="middle" x="432.975" y="-15.5" font-family="sans" font-size="10.00" fill="#000000">all</text>
</g>
<!-- 1 -->
<g id="node2" class="node">
<title>1</title>
<path fill="none" stroke="#56d8a2" stroke-width="2" d="M412.475,-108C412.475,-108 279.475,-108 279.475,-108 273.475,-108 267.475,-102 267.475,-96 267.475,-96 267.475,-84 267.475,-84 267.475,-78 273.475,-72 279.475,-72 279.475,-72 412.475,-72 412.475,-72 418.475,-72 424.475,-78 424.475,-84 424.475,-84 424.475,-96 424.475,-96 424.475,-102 418.475,-108 412.475,-108"/>
<text text-anchor="middle" x="345.975" y="-87.5" font-family="sans" font-size="10.00" fill="#000000">post_hic_pilon_polishing_round2</text>
</g>
<!-- 1&#45;&gt;0 -->
<g id="edge1" class="edge">
<title>1&#45;&gt;0</title>
<path fill="none" stroke="#c0c0c0" stroke-width="2" d="M367.9288,-71.8314C378.6445,-62.9632 391.6939,-52.1637 403.284,-42.5718"/>
<polygon fill="#c0c0c0" stroke="#c0c0c0" stroke-width="2" points="405.5558,-45.2349 411.0282,-36.1628 401.0928,-39.8422 405.5558,-45.2349"/>
</g>
<!-- 2 -->
<g id="node3" class="node">
<title>2</title>
<path fill="none" stroke="#56d8a2" stroke-width="2" d="M607.475,-108C607.475,-108 474.475,-108 474.475,-108 468.475,-108 462.475,-102 462.475,-96 462.475,-96 462.475,-84 462.475,-84 462.475,-78 468.475,-72 474.475,-72 474.475,-72 607.475,-72 607.475,-72 613.475,-72 619.475,-78 619.475,-84 619.475,-84 619.475,-96 619.475,-96 619.475,-102 613.475,-108 607.475,-108"/>
<text text-anchor="middle" x="540.975" y="-87.5" font-family="sans" font-size="10.00" fill="#000000">post_hic_pilon_polishing_round2</text>
</g>
<!-- 2&#45;&gt;0 -->
<g id="edge2" class="edge">
<title>2&#45;&gt;0</title>
<path fill="none" stroke="#c0c0c0" stroke-width="2" d="M513.722,-71.8314C500.0361,-62.7074 483.2835,-51.539 468.5923,-41.7449"/>
<polygon fill="#c0c0c0" stroke="#c0c0c0" stroke-width="2" points="470.4812,-38.7977 460.2192,-36.1628 466.5983,-44.6221 470.4812,-38.7977"/>
</g>
<!-- 3 -->
<g id="node4" class="node">
<title>3</title>
<path fill="none" stroke="#c6d856" stroke-width="2" d="M423.475,-180C423.475,-180 268.475,-180 268.475,-180 262.475,-180 256.475,-174 256.475,-168 256.475,-168 256.475,-156 256.475,-156 256.475,-150 262.475,-144 268.475,-144 268.475,-144 423.475,-144 423.475,-144 429.475,-144 435.475,-150 435.475,-156 435.475,-156 435.475,-168 435.475,-168 435.475,-174 429.475,-180 423.475,-180"/>
<text text-anchor="middle" x="345.975" y="-159.5" font-family="sans" font-size="10.00" fill="#000000">index_shotgun_bam_pilon_3c_round2</text>
</g>
<!-- 3&#45;&gt;1 -->
<g id="edge3" class="edge">
<title>3&#45;&gt;1</title>
<path fill="none" stroke="#c0c0c0" stroke-width="2" d="M345.975,-143.8314C345.975,-136.131 345.975,-126.9743 345.975,-118.4166"/>
<polygon fill="#c0c0c0" stroke="#c0c0c0" stroke-width="2" points="349.4751,-118.4132 345.975,-108.4133 342.4751,-118.4133 349.4751,-118.4132"/>
</g>
<!-- 4 -->
<g id="node5" class="node">
<title>4</title>
<path fill="none" stroke="#b6d856" stroke-width="2" d="M283.975,-324C283.975,-324 185.975,-324 185.975,-324 179.975,-324 173.975,-318 173.975,-312 173.975,-312 173.975,-300 173.975,-300 173.975,-294 179.975,-288 185.975,-288 185.975,-288 283.975,-288 283.975,-288 289.975,-288 295.975,-294 295.975,-300 295.975,-300 295.975,-312 295.975,-312 295.975,-318 289.975,-324 283.975,-324"/>
<text text-anchor="middle" x="234.975" y="-303.5" font-family="sans" font-size="10.00" fill="#000000">post_hic_pilon_polishing</text>
</g>
<!-- 4&#45;&gt;1 -->
<g id="edge4" class="edge">
<title>4&#45;&gt;1</title>
<path fill="none" stroke="#c0c0c0" stroke-width="2" d="M231.1209,-287.9773C225.3537,-256.1025 218.0144,-188.9158 246.975,-144 255.4604,-130.8398 268.3069,-120.6319 281.9614,-112.816"/>
<polygon fill="#c0c0c0" stroke="#c0c0c0" stroke-width="2" points="283.8167,-115.7939 291.0132,-108.0183 280.5385,-109.609 283.8167,-115.7939"/>
</g>
<!-- 7 -->
<g id="node8" class="node">
<title>7</title>
<path fill="none" stroke="#88d856" stroke-width="2" d="M417.975,-252C417.975,-252 267.975,-252 267.975,-252 261.975,-252 255.975,-246 255.975,-240 255.975,-240 255.975,-228 255.975,-228 255.975,-222 261.975,-216 267.975,-216 267.975,-216 417.975,-216 417.975,-216 423.975,-216 429.975,-222 429.975,-228 429.975,-228 429.975,-240 429.975,-240 429.975,-246 423.975,-252 417.975,-252"/>
<text text-anchor="middle" x="342.975" y="-231.5" font-family="sans" font-size="10.00" fill="#000000">align_shotgun_3c_assembly_round2</text>
</g>
<!-- 4&#45;&gt;7 -->
<g id="edge14" class="edge">
<title>4&#45;&gt;7</title>
<path fill="none" stroke="#c0c0c0" stroke-width="2" d="M262.2279,-287.8314C275.9139,-278.7074 292.6664,-267.539 307.3577,-257.7449"/>
<polygon fill="#c0c0c0" stroke="#c0c0c0" stroke-width="2" points="309.3517,-260.6221 315.7307,-252.1628 305.4688,-254.7977 309.3517,-260.6221"/>
</g>
<!-- 5 -->
<g id="node6" class="node">
<title>5</title>
<path fill="none" stroke="#c6d856" stroke-width="2" d="M736.475,-180C736.475,-180 581.475,-180 581.475,-180 575.475,-180 569.475,-174 569.475,-168 569.475,-168 569.475,-156 569.475,-156 569.475,-150 575.475,-144 581.475,-144 581.475,-144 736.475,-144 736.475,-144 742.475,-144 748.475,-150 748.475,-156 748.475,-156 748.475,-168 748.475,-168 748.475,-174 742.475,-180 736.475,-180"/>
<text text-anchor="middle" x="658.975" y="-159.5" font-family="sans" font-size="10.00" fill="#000000">index_shotgun_bam_pilon_3c_round2</text>
</g>
<!-- 5&#45;&gt;2 -->
<g id="edge5" class="edge">
<title>5&#45;&gt;2</title>
<path fill="none" stroke="#c0c0c0" stroke-width="2" d="M629.1986,-143.8314C614.1057,-134.6221 595.5993,-123.3301 579.4407,-113.4706"/>
<polygon fill="#c0c0c0" stroke="#c0c0c0" stroke-width="2" points="581.1013,-110.3838 570.7418,-108.1628 577.4552,-116.3593 581.1013,-110.3838"/>
</g>
<!-- 6 -->
<g id="node7" class="node">
<title>6</title>
<path fill="none" stroke="#b6d856" stroke-width="2" d="M628.975,-324C628.975,-324 530.975,-324 530.975,-324 524.975,-324 518.975,-318 518.975,-312 518.975,-312 518.975,-300 518.975,-300 518.975,-294 524.975,-288 530.975,-288 530.975,-288 628.975,-288 628.975,-288 634.975,-288 640.975,-294 640.975,-300 640.975,-300 640.975,-312 640.975,-312 640.975,-318 634.975,-324 628.975,-324"/>
<text text-anchor="middle" x="579.975" y="-303.5" font-family="sans" font-size="10.00" fill="#000000">post_hic_pilon_polishing</text>
</g>
<!-- 6&#45;&gt;2 -->
<g id="edge6" class="edge">
<title>6&#45;&gt;2</title>
<path fill="none" stroke="#c0c0c0" stroke-width="2" d="M573.3664,-287.7169C569.8378,-277.3558 565.6774,-264.0856 562.975,-252 552.6249,-205.7121 546.4128,-150.8252 543.3468,-118.2894"/>
<polygon fill="#c0c0c0" stroke="#c0c0c0" stroke-width="2" points="546.8167,-117.7993 542.4261,-108.1571 539.8454,-118.4328 546.8167,-117.7993"/>
</g>
<!-- 10 -->
<g id="node11" class="node">
<title>10</title>
<path fill="none" stroke="#88d856" stroke-width="2" d="M733.975,-252C733.975,-252 583.975,-252 583.975,-252 577.975,-252 571.975,-246 571.975,-240 571.975,-240 571.975,-228 571.975,-228 571.975,-222 577.975,-216 583.975,-216 583.975,-216 733.975,-216 733.975,-216 739.975,-216 745.975,-222 745.975,-228 745.975,-228 745.975,-240 745.975,-240 745.975,-246 739.975,-252 733.975,-252"/>
<text text-anchor="middle" x="658.975" y="-231.5" font-family="sans" font-size="10.00" fill="#000000">align_shotgun_3c_assembly_round2</text>
</g>
<!-- 6&#45;&gt;10 -->
<g id="edge19" class="edge">
<title>6&#45;&gt;10</title>
<path fill="none" stroke="#c0c0c0" stroke-width="2" d="M599.91,-287.8314C609.4532,-279.1337 621.0349,-268.5783 631.4056,-259.1265"/>
<polygon fill="#c0c0c0" stroke="#c0c0c0" stroke-width="2" points="634.013,-261.4857 639.0463,-252.1628 629.2978,-256.3121 634.013,-261.4857"/>
</g>
<!-- 7&#45;&gt;3 -->
<g id="edge7" class="edge">
<title>7&#45;&gt;3</title>
<path fill="none" stroke="#c0c0c0" stroke-width="2" d="M343.732,-215.8314C344.0529,-208.131 344.4344,-198.9743 344.791,-190.4166"/>
<polygon fill="#c0c0c0" stroke="#c0c0c0" stroke-width="2" points="348.2883,-190.5503 345.2078,-180.4133 341.2944,-190.2589 348.2883,-190.5503"/>
</g>
<!-- 8 -->
<g id="node9" class="node">
<title>8</title>
<path fill="none" stroke="#56d88a" stroke-width="2" d="M299.475,-396C299.475,-396 178.475,-396 178.475,-396 172.475,-396 166.475,-390 166.475,-384 166.475,-384 166.475,-372 166.475,-372 166.475,-366 172.475,-360 178.475,-360 178.475,-360 299.475,-360 299.475,-360 305.475,-360 311.475,-366 311.475,-372 311.475,-372 311.475,-384 311.475,-384 311.475,-390 305.475,-396 299.475,-396"/>
<text text-anchor="middle" x="238.975" y="-375.5" font-family="sans" font-size="10.00" fill="#000000">index_shotgun_bam_pilon_3c</text>
</g>
<!-- 8&#45;&gt;4 -->
<g id="edge8" class="edge">
<title>8&#45;&gt;4</title>
<path fill="none" stroke="#c0c0c0" stroke-width="2" d="M237.9656,-359.8314C237.5378,-352.131 237.0291,-342.9743 236.5537,-334.4166"/>
<polygon fill="#c0c0c0" stroke="#c0c0c0" stroke-width="2" points="240.0474,-334.2037 235.9979,-324.4133 233.0581,-334.592 240.0474,-334.2037"/>
</g>
<!-- 9 -->
<g id="node10" class="node">
<title>9</title>
<path fill="none" stroke="#d89556" stroke-width="2" d="M189.475,-540C189.475,-540 120.475,-540 120.475,-540 114.475,-540 108.475,-534 108.475,-528 108.475,-528 108.475,-516 108.475,-516 108.475,-510 114.475,-504 120.475,-504 120.475,-504 189.475,-504 189.475,-504 195.475,-504 201.475,-510 201.475,-516 201.475,-516 201.475,-528 201.475,-528 201.475,-534 195.475,-540 189.475,-540"/>
<text text-anchor="middle" x="154.975" y="-519.5" font-family="sans" font-size="10.00" fill="#000000">merge_organelles</text>
</g>
<!-- 9&#45;&gt;4 -->
<g id="edge9" class="edge">
<title>9&#45;&gt;4</title>
<path fill="none" stroke="#c0c0c0" stroke-width="2" d="M150.0676,-503.6639C142.7054,-472.17 132.1448,-406.6868 156.975,-360 163.5717,-347.5966 174.4318,-337.4637 185.9818,-329.4653"/>
<polygon fill="#c0c0c0" stroke="#c0c0c0" stroke-width="2" points="187.9414,-332.3664 194.4628,-324.0165 184.1577,-326.4771 187.9414,-332.3664"/>
</g>
<!-- 14 -->
<g id="node15" class="node">
<title>14</title>
<path fill="none" stroke="#5692d8" stroke-width="2" d="M296.975,-468C296.975,-468 180.975,-468 180.975,-468 174.975,-468 168.975,-462 168.975,-456 168.975,-456 168.975,-444 168.975,-444 168.975,-438 174.975,-432 180.975,-432 180.975,-432 296.975,-432 296.975,-432 302.975,-432 308.975,-438 308.975,-444 308.975,-444 308.975,-456 308.975,-456 308.975,-462 302.975,-468 296.975,-468"/>
<text text-anchor="middle" x="238.975" y="-447.5" font-family="sans" font-size="10.00" fill="#000000">align_shotgun_3c_assembly</text>
</g>
<!-- 9&#45;&gt;14 -->
<g id="edge24" class="edge">
<title>9&#45;&gt;14</title>
<path fill="none" stroke="#c0c0c0" stroke-width="2" d="M176.1717,-503.8314C186.4184,-495.0485 198.8753,-484.3712 209.9847,-474.8489"/>
<polygon fill="#c0c0c0" stroke="#c0c0c0" stroke-width="2" points="212.4702,-477.3282 217.785,-468.1628 207.9147,-472.0134 212.4702,-477.3282"/>
</g>
<!-- 10&#45;&gt;5 -->
<g id="edge10" class="edge">
<title>10&#45;&gt;5</title>
<path fill="none" stroke="#c0c0c0" stroke-width="2" d="M658.975,-215.8314C658.975,-208.131 658.975,-198.9743 658.975,-190.4166"/>
<polygon fill="#c0c0c0" stroke="#c0c0c0" stroke-width="2" points="662.4751,-190.4132 658.975,-180.4133 655.4751,-190.4133 662.4751,-190.4132"/>
</g>
<!-- 11 -->
<g id="node12" class="node">
<title>11</title>
<path fill="none" stroke="#56d88a" stroke-width="2" d="M660.475,-396C660.475,-396 539.475,-396 539.475,-396 533.475,-396 527.475,-390 527.475,-384 527.475,-384 527.475,-372 527.475,-372 527.475,-366 533.475,-360 539.475,-360 539.475,-360 660.475,-360 660.475,-360 666.475,-360 672.475,-366 672.475,-372 672.475,-372 672.475,-384 672.475,-384 672.475,-390 666.475,-396 660.475,-396"/>
<text text-anchor="middle" x="599.975" y="-375.5" font-family="sans" font-size="10.00" fill="#000000">index_shotgun_bam_pilon_3c</text>
</g>
<!-- 11&#45;&gt;6 -->
<g id="edge11" class="edge">
<title>11&#45;&gt;6</title>
<path fill="none" stroke="#c0c0c0" stroke-width="2" d="M594.9281,-359.8314C592.7656,-352.0463 590.1897,-342.7729 587.7902,-334.1347"/>
<polygon fill="#c0c0c0" stroke="#c0c0c0" stroke-width="2" points="591.1386,-333.1117 585.0898,-324.4133 584.394,-334.9852 591.1386,-333.1117"/>
</g>
<!-- 12 -->
<g id="node13" class="node">
<title>12</title>
<path fill="none" stroke="#d89556" stroke-width="2" d="M550.475,-540C550.475,-540 481.475,-540 481.475,-540 475.475,-540 469.475,-534 469.475,-528 469.475,-528 469.475,-516 469.475,-516 469.475,-510 475.475,-504 481.475,-504 481.475,-504 550.475,-504 550.475,-504 556.475,-504 562.475,-510 562.475,-516 562.475,-516 562.475,-528 562.475,-528 562.475,-534 556.475,-540 550.475,-540"/>
<text text-anchor="middle" x="515.975" y="-519.5" font-family="sans" font-size="10.00" fill="#000000">merge_organelles</text>
</g>
<!-- 12&#45;&gt;6 -->
<g id="edge12" class="edge">
<title>12&#45;&gt;6</title>
<path fill="none" stroke="#c0c0c0" stroke-width="2" d="M511.6238,-503.9403C505.1015,-472.8635 495.7728,-407.9922 517.975,-360 523.2659,-348.5631 532.2808,-338.5925 541.822,-330.437"/>
<polygon fill="#c0c0c0" stroke="#c0c0c0" stroke-width="2" points="544.2418,-332.9845 549.8902,-324.0209 539.8849,-327.5057 544.2418,-332.9845"/>
</g>
<!-- 18 -->
<g id="node19" class="node">
<title>18</title>
<path fill="none" stroke="#5692d8" stroke-width="2" d="M657.975,-468C657.975,-468 541.975,-468 541.975,-468 535.975,-468 529.975,-462 529.975,-456 529.975,-456 529.975,-444 529.975,-444 529.975,-438 535.975,-432 541.975,-432 541.975,-432 657.975,-432 657.975,-432 663.975,-432 669.975,-438 669.975,-444 669.975,-444 669.975,-456 669.975,-456 669.975,-462 663.975,-468 657.975,-468"/>
<text text-anchor="middle" x="599.975" y="-447.5" font-family="sans" font-size="10.00" fill="#000000">align_shotgun_3c_assembly</text>
</g>
<!-- 12&#45;&gt;18 -->
<g id="edge29" class="edge">
<title>12&#45;&gt;18</title>
<path fill="none" stroke="#c0c0c0" stroke-width="2" d="M537.1717,-503.8314C547.4184,-495.0485 559.8753,-484.3712 570.9847,-474.8489"/>
<polygon fill="#c0c0c0" stroke="#c0c0c0" stroke-width="2" points="573.4702,-477.3282 578.785,-468.1628 568.9147,-472.0134 573.4702,-477.3282"/>
</g>
<!-- 13 -->
<g id="node14" class="node">
<title>13</title>
<path fill="none" stroke="#d86e56" stroke-width="2" stroke-dasharray="5,2" d="M286.975,-1414C286.975,-1414 224.975,-1414 224.975,-1414 218.975,-1414 212.975,-1408 212.975,-1402 212.975,-1402 212.975,-1385 212.975,-1385 212.975,-1379 218.975,-1373 224.975,-1373 224.975,-1373 286.975,-1373 286.975,-1373 292.975,-1373 298.975,-1379 298.975,-1385 298.975,-1385 298.975,-1402 298.975,-1402 298.975,-1408 292.975,-1414 286.975,-1414"/>
<text text-anchor="middle" x="255.975" y="-1402" font-family="sans" font-size="10.00" fill="#000000">combine_units</text>
<text text-anchor="middle" x="255.975" y="-1391" font-family="sans" font-size="10.00" fill="#000000">libtype: shotgun</text>
<text text-anchor="middle" x="255.975" y="-1380" font-family="sans" font-size="10.00" fill="#000000">strain: C3</text>
</g>
<!-- 13&#45;&gt;7 -->
<g id="edge13" class="edge">
<title>13&#45;&gt;7</title>
<path fill="none" stroke="#c0c0c0" stroke-width="2" d="M277.1717,-1372.8198C302.056,-1346.2255 339.975,-1297.4275 339.975,-1247 339.975,-1247 339.975,-1247 339.975,-378 339.975,-337.8673 341.1541,-291.4566 342.0339,-262.414"/>
<polygon fill="#c0c0c0" stroke="#c0c0c0" stroke-width="2" points="345.5395,-262.2872 342.3534,-252.1828 338.5429,-262.0687 345.5395,-262.2872"/>
</g>
<!-- 13&#45;&gt;14 -->
<g id="edge23" class="edge">
<title>13&#45;&gt;14</title>
<path fill="none" stroke="#c0c0c0" stroke-width="2" d="M264.9805,-1372.5919C276.2176,-1344.5578 293.975,-1292.9825 293.975,-1247 293.975,-1247 293.975,-1247 293.975,-594 293.975,-550.9621 272.2698,-505.1692 256.1299,-477.0671"/>
<polygon fill="#c0c0c0" stroke="#c0c0c0" stroke-width="2" points="259.014,-475.0682 250.9092,-468.2446 252.9898,-478.6331 259.014,-475.0682"/>
</g>
<!-- 27 -->
<g id="node28" class="node">
<title>27</title>
<path fill="none" stroke="#d8bc56" stroke-width="2" stroke-dasharray="5,2" d="M253.475,-977C253.475,-977 184.475,-977 184.475,-977 178.475,-977 172.475,-971 172.475,-965 172.475,-965 172.475,-953 172.475,-953 172.475,-947 178.475,-941 184.475,-941 184.475,-941 253.475,-941 253.475,-941 259.475,-941 265.475,-947 265.475,-953 265.475,-953 265.475,-965 265.475,-965 265.475,-971 259.475,-977 253.475,-977"/>
<text text-anchor="middle" x="218.975" y="-956.5" font-family="sans" font-size="10.00" fill="#000000">combine_fq_pairs</text>
</g>
<!-- 13&#45;&gt;27 -->
<g id="edge45" class="edge">
<title>13&#45;&gt;27</title>
<path fill="none" stroke="#c0c0c0" stroke-width="2" d="M255.975,-1372.6361C255.975,-1344.2216 255.975,-1291.7639 255.975,-1247 255.975,-1247 255.975,-1247 255.975,-1103 255.975,-1061.4385 241.3378,-1015.1923 230.476,-986.5961"/>
<polygon fill="#c0c0c0" stroke="#c0c0c0" stroke-width="2" points="233.7242,-985.2919 226.8217,-977.254 227.2052,-987.8419 233.7242,-985.2919"/>
</g>
<!-- 37 -->
<g id="node38" class="node">
<title>37</title>
<path fill="none" stroke="#d8ac56" stroke-width="2" d="M215.475,-1121C215.475,-1121 96.475,-1121 96.475,-1121 90.475,-1121 84.475,-1115 84.475,-1109 84.475,-1109 84.475,-1097 84.475,-1097 84.475,-1091 90.475,-1085 96.475,-1085 96.475,-1085 215.475,-1085 215.475,-1085 221.475,-1085 227.475,-1091 227.475,-1097 227.475,-1097 227.475,-1109 227.475,-1109 227.475,-1115 221.475,-1121 215.475,-1121"/>
<text text-anchor="middle" x="155.975" y="-1100.5" font-family="sans" font-size="10.00" fill="#000000">align_shotgun_ont_assembly</text>
</g>
<!-- 13&#45;&gt;37 -->
<g id="edge59" class="edge">
<title>13&#45;&gt;37</title>
<path fill="none" stroke="#c0c0c0" stroke-width="2" d="M248.7832,-1372.608C231.0818,-1321.1853 185.3984,-1188.475 165.4875,-1130.634"/>
<polygon fill="#c0c0c0" stroke="#c0c0c0" stroke-width="2" points="168.7558,-1129.3751 162.1915,-1121.0589 162.137,-1131.6536 168.7558,-1129.3751"/>
</g>
<!-- 44 -->
<g id="node45" class="node">
<title>44</title>
<path fill="none" stroke="#61d856" stroke-width="2" stroke-dasharray="5,2" d="M177.975,-1337C177.975,-1337 113.975,-1337 113.975,-1337 107.975,-1337 101.975,-1331 101.975,-1325 101.975,-1325 101.975,-1313 101.975,-1313 101.975,-1307 107.975,-1301 113.975,-1301 113.975,-1301 177.975,-1301 177.975,-1301 183.975,-1301 189.975,-1307 189.975,-1313 189.975,-1313 189.975,-1325 189.975,-1325 189.975,-1331 183.975,-1337 177.975,-1337"/>
<text text-anchor="middle" x="145.975" y="-1316.5" font-family="sans" font-size="10.00" fill="#000000">filter_long_reads</text>
</g>
<!-- 13&#45;&gt;44 -->
<g id="edge68" class="edge">
<title>13&#45;&gt;44</title>
<path fill="none" stroke="#c0c0c0" stroke-width="2" d="M225.6258,-1372.9453C211.9336,-1363.6719 195.6713,-1352.658 181.4221,-1343.0074"/>
<polygon fill="#c0c0c0" stroke="#c0c0c0" stroke-width="2" points="183.0935,-1339.9122 172.851,-1337.2024 179.1681,-1345.708 183.0935,-1339.9122"/>
</g>
<!-- 14&#45;&gt;8 -->
<g id="edge15" class="edge">
<title>14&#45;&gt;8</title>
<path fill="none" stroke="#c0c0c0" stroke-width="2" d="M238.975,-431.8314C238.975,-424.131 238.975,-414.9743 238.975,-406.4166"/>
<polygon fill="#c0c0c0" stroke="#c0c0c0" stroke-width="2" points="242.4751,-406.4132 238.975,-396.4133 235.4751,-406.4133 242.4751,-406.4132"/>
</g>
<!-- 15 -->
<g id="node16" class="node">
<title>15</title>
<path fill="none" stroke="#9fd856" stroke-width="2" d="M203.475,-612C203.475,-612 116.475,-612 116.475,-612 110.475,-612 104.475,-606 104.475,-600 104.475,-600 104.475,-588 104.475,-588 104.475,-582 110.475,-576 116.475,-576 116.475,-576 203.475,-576 203.475,-576 209.475,-576 215.475,-582 215.475,-588 215.475,-588 215.475,-600 215.475,-600 215.475,-606 209.475,-612 203.475,-612"/>
<text text-anchor="middle" x="159.975" y="-591.5" font-family="sans" font-size="10.00" fill="#000000">instagraal_scaffolding</text>
</g>
<!-- 15&#45;&gt;9 -->
<g id="edge16" class="edge">
<title>15&#45;&gt;9</title>
<path fill="none" stroke="#c0c0c0" stroke-width="2" d="M158.7133,-575.8314C158.1785,-568.131 157.5427,-558.9743 156.9484,-550.4166"/>
<polygon fill="#c0c0c0" stroke="#c0c0c0" stroke-width="2" points="160.4381,-550.1467 156.2537,-540.4133 153.455,-550.6317 160.4381,-550.1467"/>
</g>
<!-- 16 -->
<g id="node17" class="node">
<title>16</title>
<path fill="none" stroke="#56d873" stroke-width="2" d="M136.975,-758.5C136.975,-758.5 80.975,-758.5 80.975,-758.5 74.975,-758.5 68.975,-752.5 68.975,-746.5 68.975,-746.5 68.975,-734.5 68.975,-734.5 68.975,-728.5 74.975,-722.5 80.975,-722.5 80.975,-722.5 136.975,-722.5 136.975,-722.5 142.975,-722.5 148.975,-728.5 148.975,-734.5 148.975,-734.5 148.975,-746.5 148.975,-746.5 148.975,-752.5 142.975,-758.5 136.975,-758.5"/>
<text text-anchor="middle" x="108.975" y="-738" font-family="sans" font-size="10.00" fill="#000000">split_mito_tigs</text>
</g>
<!-- 16&#45;&gt;9 -->
<g id="edge17" class="edge">
<title>16&#45;&gt;9</title>
<path fill="none" stroke="#c0c0c0" stroke-width="2" d="M101.896,-722.2655C90.8789,-690.8662 73.0525,-625.224 94.975,-576 100.0084,-564.6983 108.7055,-554.7696 117.9409,-546.611"/>
<polygon fill="#c0c0c0" stroke="#c0c0c0" stroke-width="2" points="120.2565,-549.2382 125.7566,-540.1828 115.81,-543.8319 120.2565,-549.2382"/>
</g>
<!-- 16&#45;&gt;15 -->
<g id="edge25" class="edge">
<title>16&#45;&gt;15</title>
<path fill="none" stroke="#c0c0c0" stroke-width="2" d="M112.4892,-722.4234C116.434,-703.523 123.5382,-673.1659 132.975,-648 136.3441,-639.0154 140.7563,-629.551 145.0349,-621.0991"/>
<polygon fill="#c0c0c0" stroke="#c0c0c0" stroke-width="2" points="148.2248,-622.5513 149.7459,-612.0662 142.0182,-619.3142 148.2248,-622.5513"/>
</g>
<!-- 21 -->
<g id="node22" class="node">
<title>21</title>
<path fill="none" stroke="#56c1d8" stroke-width="2" d="M249.475,-684C249.475,-684 154.475,-684 154.475,-684 148.475,-684 142.475,-678 142.475,-672 142.475,-672 142.475,-660 142.475,-660 142.475,-654 148.475,-648 154.475,-648 154.475,-648 249.475,-648 249.475,-648 255.475,-648 261.475,-654 261.475,-660 261.475,-660 261.475,-672 261.475,-672 261.475,-678 255.475,-684 249.475,-684"/>
<text text-anchor="middle" x="201.975" y="-663.5" font-family="sans" font-size="10.00" fill="#000000">hicstuff_hic_processing</text>
</g>
<!-- 16&#45;&gt;21 -->
<g id="edge34" class="edge">
<title>16&#45;&gt;21</title>
<path fill="none" stroke="#c0c0c0" stroke-width="2" d="M131.4877,-722.4656C143.5074,-712.8369 158.4718,-700.8493 171.5166,-690.3995"/>
<polygon fill="#c0c0c0" stroke="#c0c0c0" stroke-width="2" points="173.7309,-693.1102 179.3473,-684.1265 169.3544,-687.647 173.7309,-693.1102"/>
</g>
<!-- 17 -->
<g id="node18" class="node">
<title>17</title>
<path fill="none" stroke="#d86e56" stroke-width="2" stroke-dasharray="5,2" d="M655.975,-1414C655.975,-1414 593.975,-1414 593.975,-1414 587.975,-1414 581.975,-1408 581.975,-1402 581.975,-1402 581.975,-1385 581.975,-1385 581.975,-1379 587.975,-1373 593.975,-1373 593.975,-1373 655.975,-1373 655.975,-1373 661.975,-1373 667.975,-1379 667.975,-1385 667.975,-1385 667.975,-1402 667.975,-1402 667.975,-1408 661.975,-1414 655.975,-1414"/>
<text text-anchor="middle" x="624.975" y="-1402" font-family="sans" font-size="10.00" fill="#000000">combine_units</text>
<text text-anchor="middle" x="624.975" y="-1391" font-family="sans" font-size="10.00" fill="#000000">libtype: shotgun</text>
<text text-anchor="middle" x="624.975" y="-1380" font-family="sans" font-size="10.00" fill="#000000">strain: Neff</text>
</g>
<!-- 17&#45;&gt;10 -->
<g id="edge18" class="edge">
<title>17&#45;&gt;10</title>
<path fill="none" stroke="#c0c0c0" stroke-width="2" d="M643.7615,-1372.9184C666.2673,-1346.0463 700.975,-1296.5693 700.975,-1247 700.975,-1247 700.975,-1247 700.975,-378 700.975,-336.0688 684.3598,-289.918 672.0302,-261.4435"/>
<polygon fill="#c0c0c0" stroke="#c0c0c0" stroke-width="2" points="675.1525,-259.8513 667.8821,-252.1447 668.7598,-262.7032 675.1525,-259.8513"/>
</g>
<!-- 17&#45;&gt;18 -->
<g id="edge28" class="edge">
<title>17&#45;&gt;18</title>
<path fill="none" stroke="#c0c0c0" stroke-width="2" d="M633.9805,-1372.5919C645.2176,-1344.5578 662.975,-1292.9825 662.975,-1247 662.975,-1247 662.975,-1247 662.975,-594 662.975,-550.171 638.1754,-504.6548 619.6953,-476.8215"/>
<polygon fill="#c0c0c0" stroke="#c0c0c0" stroke-width="2" points="622.4909,-474.7091 613.9567,-468.4307 616.7129,-478.6608 622.4909,-474.7091"/>
</g>
<!-- 31 -->
<g id="node32" class="node">
<title>31</title>
<path fill="none" stroke="#d8bc56" stroke-width="2" stroke-dasharray="5,2" d="M622.475,-977C622.475,-977 553.475,-977 553.475,-977 547.475,-977 541.475,-971 541.475,-965 541.475,-965 541.475,-953 541.475,-953 541.475,-947 547.475,-941 553.475,-941 553.475,-941 622.475,-941 622.475,-941 628.475,-941 634.475,-947 634.475,-953 634.475,-953 634.475,-965 634.475,-965 634.475,-971 628.475,-977 622.475,-977"/>
<text text-anchor="middle" x="587.975" y="-956.5" font-family="sans" font-size="10.00" fill="#000000">combine_fq_pairs</text>
</g>
<!-- 17&#45;&gt;31 -->
<g id="edge50" class="edge">
<title>17&#45;&gt;31</title>
<path fill="none" stroke="#c0c0c0" stroke-width="2" d="M624.975,-1372.6361C624.975,-1344.2216 624.975,-1291.7639 624.975,-1247 624.975,-1247 624.975,-1247 624.975,-1103 624.975,-1061.4385 610.3378,-1015.1923 599.476,-986.5961"/>
<polygon fill="#c0c0c0" stroke="#c0c0c0" stroke-width="2" points="602.7242,-985.2919 595.8217,-977.254 596.2052,-987.8419 602.7242,-985.2919"/>
</g>
<!-- 40 -->
<g id="node41" class="node">
<title>40</title>
<path fill="none" stroke="#d8ac56" stroke-width="2" d="M584.475,-1121C584.475,-1121 465.475,-1121 465.475,-1121 459.475,-1121 453.475,-1115 453.475,-1109 453.475,-1109 453.475,-1097 453.475,-1097 453.475,-1091 459.475,-1085 465.475,-1085 465.475,-1085 584.475,-1085 584.475,-1085 590.475,-1085 596.475,-1091 596.475,-1097 596.475,-1097 596.475,-1109 596.475,-1109 596.475,-1115 590.475,-1121 584.475,-1121"/>
<text text-anchor="middle" x="524.975" y="-1100.5" font-family="sans" font-size="10.00" fill="#000000">align_shotgun_ont_assembly</text>
</g>
<!-- 17&#45;&gt;40 -->
<g id="edge63" class="edge">
<title>17&#45;&gt;40</title>
<path fill="none" stroke="#c0c0c0" stroke-width="2" d="M617.7832,-1372.608C600.0818,-1321.1853 554.3984,-1188.475 534.4875,-1130.634"/>
<polygon fill="#c0c0c0" stroke="#c0c0c0" stroke-width="2" points="537.7558,-1129.3751 531.1915,-1121.0589 531.137,-1131.6536 537.7558,-1129.3751"/>
</g>
<!-- 46 -->
<g id="node47" class="node">
<title>46</title>
<path fill="none" stroke="#61d856" stroke-width="2" stroke-dasharray="5,2" d="M546.975,-1337C546.975,-1337 482.975,-1337 482.975,-1337 476.975,-1337 470.975,-1331 470.975,-1325 470.975,-1325 470.975,-1313 470.975,-1313 470.975,-1307 476.975,-1301 482.975,-1301 482.975,-1301 546.975,-1301 546.975,-1301 552.975,-1301 558.975,-1307 558.975,-1313 558.975,-1313 558.975,-1325 558.975,-1325 558.975,-1331 552.975,-1337 546.975,-1337"/>
<text text-anchor="middle" x="514.975" y="-1316.5" font-family="sans" font-size="10.00" fill="#000000">filter_long_reads</text>
</g>
<!-- 17&#45;&gt;46 -->
<g id="edge70" class="edge">
<title>17&#45;&gt;46</title>
<path fill="none" stroke="#c0c0c0" stroke-width="2" d="M594.6258,-1372.9453C580.9336,-1363.6719 564.6713,-1352.658 550.4221,-1343.0074"/>
<polygon fill="#c0c0c0" stroke="#c0c0c0" stroke-width="2" points="552.0935,-1339.9122 541.851,-1337.2024 548.1681,-1345.708 552.0935,-1339.9122"/>
</g>
<!-- 18&#45;&gt;11 -->
<g id="edge20" class="edge">
<title>18&#45;&gt;11</title>
<path fill="none" stroke="#c0c0c0" stroke-width="2" d="M599.975,-431.8314C599.975,-424.131 599.975,-414.9743 599.975,-406.4166"/>
<polygon fill="#c0c0c0" stroke="#c0c0c0" stroke-width="2" points="603.4751,-406.4132 599.975,-396.4133 596.4751,-406.4133 603.4751,-406.4132"/>
</g>
<!-- 19 -->
<g id="node20" class="node">
<title>19</title>
<path fill="none" stroke="#9fd856" stroke-width="2" d="M576.475,-612C576.475,-612 489.475,-612 489.475,-612 483.475,-612 477.475,-606 477.475,-600 477.475,-600 477.475,-588 477.475,-588 477.475,-582 483.475,-576 489.475,-576 489.475,-576 576.475,-576 576.475,-576 582.475,-576 588.475,-582 588.475,-588 588.475,-588 588.475,-600 588.475,-600 588.475,-606 582.475,-612 576.475,-612"/>
<text text-anchor="middle" x="532.975" y="-591.5" font-family="sans" font-size="10.00" fill="#000000">instagraal_scaffolding</text>
</g>
<!-- 19&#45;&gt;12 -->
<g id="edge21" class="edge">
<title>19&#45;&gt;12</title>
<path fill="none" stroke="#c0c0c0" stroke-width="2" d="M528.6852,-575.8314C526.867,-568.131 524.705,-558.9743 522.6845,-550.4166"/>
<polygon fill="#c0c0c0" stroke="#c0c0c0" stroke-width="2" points="526.0269,-549.3414 520.3226,-540.4133 519.2142,-550.95 526.0269,-549.3414"/>
</g>
<!-- 20 -->
<g id="node21" class="node">
<title>20</title>
<path fill="none" stroke="#56d873" stroke-width="2" d="M514.975,-758.5C514.975,-758.5 458.975,-758.5 458.975,-758.5 452.975,-758.5 446.975,-752.5 446.975,-746.5 446.975,-746.5 446.975,-734.5 446.975,-734.5 446.975,-728.5 452.975,-722.5 458.975,-722.5 458.975,-722.5 514.975,-722.5 514.975,-722.5 520.975,-722.5 526.975,-728.5 526.975,-734.5 526.975,-734.5 526.975,-746.5 526.975,-746.5 526.975,-752.5 520.975,-758.5 514.975,-758.5"/>
<text text-anchor="middle" x="486.975" y="-738" font-family="sans" font-size="10.00" fill="#000000">split_mito_tigs</text>
</g>
<!-- 20&#45;&gt;12 -->
<g id="edge22" class="edge">
<title>20&#45;&gt;12</title>
<path fill="none" stroke="#c0c0c0" stroke-width="2" d="M479.5072,-722.2919C467.9157,-691.2087 448.8185,-626.3854 467.975,-576 472.0022,-565.4076 479.165,-555.5662 486.7487,-547.2649"/>
<polygon fill="#c0c0c0" stroke="#c0c0c0" stroke-width="2" points="489.2676,-549.695 493.7537,-540.0968 484.2612,-544.8025 489.2676,-549.695"/>
</g>
<!-- 20&#45;&gt;19 -->
<g id="edge30" class="edge">
<title>20&#45;&gt;19</title>
<path fill="none" stroke="#c0c0c0" stroke-width="2" d="M489.2662,-722.3963C491.9887,-703.4737 497.2905,-673.0988 505.975,-648 509.0628,-639.0759 513.3213,-629.745 517.5441,-621.3989"/>
<polygon fill="#c0c0c0" stroke="#c0c0c0" stroke-width="2" points="520.683,-622.9494 522.2322,-612.4685 514.4851,-619.6958 520.683,-622.9494"/>
</g>
<!-- 23 -->
<g id="node24" class="node">
<title>23</title>
<path fill="none" stroke="#56c1d8" stroke-width="2" d="M622.475,-684C622.475,-684 527.475,-684 527.475,-684 521.475,-684 515.475,-678 515.475,-672 515.475,-672 515.475,-660 515.475,-660 515.475,-654 521.475,-648 527.475,-648 527.475,-648 622.475,-648 622.475,-648 628.475,-648 634.475,-654 634.475,-660 634.475,-660 634.475,-672 634.475,-672 634.475,-678 628.475,-684 622.475,-684"/>
<text text-anchor="middle" x="574.975" y="-663.5" font-family="sans" font-size="10.00" fill="#000000">hicstuff_hic_processing</text>
</g>
<!-- 20&#45;&gt;23 -->
<g id="edge39" class="edge">
<title>20&#45;&gt;23</title>
<path fill="none" stroke="#c0c0c0" stroke-width="2" d="M508.2773,-722.4656C519.5436,-712.9277 533.5438,-701.0753 545.8043,-690.6956"/>
<polygon fill="#c0c0c0" stroke="#c0c0c0" stroke-width="2" points="548.1931,-693.2592 553.5638,-684.1265 543.6701,-687.9166 548.1931,-693.2592"/>
</g>
<!-- 21&#45;&gt;15 -->
<g id="edge26" class="edge">
<title>21&#45;&gt;15</title>
<path fill="none" stroke="#c0c0c0" stroke-width="2" d="M191.3766,-647.8314C186.6873,-639.7925 181.0721,-630.1666 175.8952,-621.2918"/>
<polygon fill="#c0c0c0" stroke="#c0c0c0" stroke-width="2" points="178.7781,-619.2875 170.7161,-612.4133 172.7316,-622.8146 178.7781,-619.2875"/>
</g>
<!-- 22 -->
<g id="node23" class="node">
<title>22</title>
<path fill="none" stroke="#56d863" stroke-width="2" d="M138.975,-833C138.975,-833 78.975,-833 78.975,-833 72.975,-833 66.975,-827 66.975,-821 66.975,-821 66.975,-809 66.975,-809 66.975,-803 72.975,-797 78.975,-797 78.975,-797 138.975,-797 138.975,-797 144.975,-797 150.975,-803 150.975,-809 150.975,-809 150.975,-821 150.975,-821 150.975,-827 144.975,-833 138.975,-833"/>
<text text-anchor="middle" x="108.975" y="-812.5" font-family="sans" font-size="10.00" fill="#000000">racon_polishing</text>
</g>
<!-- 22&#45;&gt;16 -->
<g id="edge27" class="edge">
<title>22&#45;&gt;16</title>
<path fill="none" stroke="#c0c0c0" stroke-width="2" d="M108.975,-796.9656C108.975,-788.5178 108.975,-778.2542 108.975,-768.8064"/>
<polygon fill="#c0c0c0" stroke="#c0c0c0" stroke-width="2" points="112.4751,-768.6265 108.975,-758.6265 105.4751,-768.6265 112.4751,-768.6265"/>
</g>
<!-- 23&#45;&gt;19 -->
<g id="edge31" class="edge">
<title>23&#45;&gt;19</title>
<path fill="none" stroke="#c0c0c0" stroke-width="2" d="M564.3766,-647.8314C559.6873,-639.7925 554.0721,-630.1666 548.8952,-621.2918"/>
<polygon fill="#c0c0c0" stroke="#c0c0c0" stroke-width="2" points="551.7781,-619.2875 543.7161,-612.4133 545.7316,-622.8146 551.7781,-619.2875"/>
</g>
<!-- 24 -->
<g id="node25" class="node">
<title>24</title>
<path fill="none" stroke="#56d863" stroke-width="2" d="M520.975,-833C520.975,-833 460.975,-833 460.975,-833 454.975,-833 448.975,-827 448.975,-821 448.975,-821 448.975,-809 448.975,-809 448.975,-803 454.975,-797 460.975,-797 460.975,-797 520.975,-797 520.975,-797 526.975,-797 532.975,-803 532.975,-809 532.975,-809 532.975,-821 532.975,-821 532.975,-827 526.975,-833 520.975,-833"/>
<text text-anchor="middle" x="490.975" y="-812.5" font-family="sans" font-size="10.00" fill="#000000">racon_polishing</text>
</g>
<!-- 24&#45;&gt;20 -->
<g id="edge32" class="edge">
<title>24&#45;&gt;20</title>
<path fill="none" stroke="#c0c0c0" stroke-width="2" d="M490.0067,-796.9656C489.5531,-788.5178 489.0021,-778.2542 488.4948,-768.8064"/>
<polygon fill="#c0c0c0" stroke="#c0c0c0" stroke-width="2" points="491.9794,-768.4244 487.9482,-758.6265 484.9895,-768.7998 491.9794,-768.4244"/>
</g>
<!-- 25 -->
<g id="node26" class="node">
<title>25</title>
<path fill="none" stroke="#d86e56" stroke-width="2" stroke-dasharray="5,2" d="M234.975,-761C234.975,-761 178.975,-761 178.975,-761 172.975,-761 166.975,-755 166.975,-749 166.975,-749 166.975,-732 166.975,-732 166.975,-726 172.975,-720 178.975,-720 178.975,-720 234.975,-720 234.975,-720 240.975,-720 246.975,-726 246.975,-732 246.975,-732 246.975,-749 246.975,-749 246.975,-755 240.975,-761 234.975,-761"/>
<text text-anchor="middle" x="206.975" y="-749" font-family="sans" font-size="10.00" fill="#000000">combine_units</text>
<text text-anchor="middle" x="206.975" y="-738" font-family="sans" font-size="10.00" fill="#000000">libtype: hic</text>
<text text-anchor="middle" x="206.975" y="-727" font-family="sans" font-size="10.00" fill="#000000">strain: C3</text>
</g>
<!-- 25&#45;&gt;21 -->
<g id="edge33" class="edge">
<title>25&#45;&gt;21</title>
<path fill="none" stroke="#c0c0c0" stroke-width="2" d="M205.5822,-719.7476C205.054,-711.8767 204.4431,-702.7743 203.8759,-694.3232"/>
<polygon fill="#c0c0c0" stroke="#c0c0c0" stroke-width="2" points="207.3522,-693.8518 203.1903,-684.1087 200.3679,-694.3206 207.3522,-693.8518"/>
</g>
<!-- 26 -->
<g id="node27" class="node">
<title>26</title>
<path fill="none" stroke="#d85656" stroke-width="2" d="M109.975,-977C109.975,-977 53.975,-977 53.975,-977 47.975,-977 41.975,-971 41.975,-965 41.975,-965 41.975,-953 41.975,-953 41.975,-947 47.975,-941 53.975,-941 53.975,-941 109.975,-941 109.975,-941 115.975,-941 121.975,-947 121.975,-953 121.975,-953 121.975,-965 121.975,-965 121.975,-971 115.975,-977 109.975,-977"/>
<text text-anchor="middle" x="81.975" y="-956.5" font-family="sans" font-size="10.00" fill="#000000">pilon_polishing</text>
</g>
<!-- 26&#45;&gt;22 -->
<g id="edge35" class="edge">
<title>26&#45;&gt;22</title>
<path fill="none" stroke="#c0c0c0" stroke-width="2" d="M42.3802,-940.8102C28.2274,-932.1243 13.8448,-920.2457 5.975,-905 -1.3641,-890.7825 -2.3055,-882.6907 5.975,-869 17.3343,-850.2188 37.6201,-837.6508 57.2026,-829.4058"/>
<polygon fill="#c0c0c0" stroke="#c0c0c0" stroke-width="2" points="58.6709,-832.59 66.7171,-825.6973 56.1287,-826.0679 58.6709,-832.59"/>
</g>
<!-- 28 -->
<g id="node29" class="node">
<title>28</title>
<path fill="none" stroke="#d8d356" stroke-width="2" d="M190.475,-905C190.475,-905 27.475,-905 27.475,-905 21.475,-905 15.475,-899 15.475,-893 15.475,-893 15.475,-881 15.475,-881 15.475,-875 21.475,-869 27.475,-869 27.475,-869 190.475,-869 190.475,-869 196.475,-869 202.475,-875 202.475,-881 202.475,-881 202.475,-893 202.475,-893 202.475,-899 196.475,-905 190.475,-905"/>
<text text-anchor="middle" x="108.975" y="-884.5" font-family="sans" font-size="10.00" fill="#000000">align_merged_shotgun_pilon_assembly</text>
</g>
<!-- 26&#45;&gt;28 -->
<g id="edge47" class="edge">
<title>26&#45;&gt;28</title>
<path fill="none" stroke="#c0c0c0" stroke-width="2" d="M88.7882,-940.8314C91.7393,-932.9617 95.2608,-923.5712 98.53,-914.8533"/>
<polygon fill="#c0c0c0" stroke="#c0c0c0" stroke-width="2" points="101.8359,-916.0055 102.07,-905.4133 95.2816,-913.5476 101.8359,-916.0055"/>
</g>
<!-- 27&#45;&gt;22 -->
<g id="edge36" class="edge">
<title>27&#45;&gt;22</title>
<path fill="none" stroke="#c0c0c0" stroke-width="2" d="M222.1327,-940.7869C224.4884,-921.3388 225.2083,-890.43 210.975,-869 199.1681,-851.2233 179.5305,-838.8914 160.6215,-830.5508"/>
<polygon fill="#c0c0c0" stroke="#c0c0c0" stroke-width="2" points="161.7212,-827.2188 151.1412,-826.6581 159.0623,-833.6942 161.7212,-827.2188"/>
</g>
<!-- 27&#45;&gt;28 -->
<g id="edge46" class="edge">
<title>27&#45;&gt;28</title>
<path fill="none" stroke="#c0c0c0" stroke-width="2" d="M191.2173,-940.8314C177.2779,-931.7074 160.2152,-920.539 145.2519,-910.7449"/>
<polygon fill="#c0c0c0" stroke="#c0c0c0" stroke-width="2" points="147.0076,-907.711 136.7238,-905.1628 143.174,-913.5679 147.0076,-907.711"/>
</g>
<!-- 28&#45;&gt;22 -->
<g id="edge37" class="edge">
<title>28&#45;&gt;22</title>
<path fill="none" stroke="#c0c0c0" stroke-width="2" d="M108.975,-868.8314C108.975,-861.131 108.975,-851.9743 108.975,-843.4166"/>
<polygon fill="#c0c0c0" stroke="#c0c0c0" stroke-width="2" points="112.4751,-843.4132 108.975,-833.4133 105.4751,-843.4133 112.4751,-843.4132"/>
</g>
<!-- 29 -->
<g id="node30" class="node">
<title>29</title>
<path fill="none" stroke="#d86e56" stroke-width="2" stroke-dasharray="5,2" d="M612.975,-761C612.975,-761 556.975,-761 556.975,-761 550.975,-761 544.975,-755 544.975,-749 544.975,-749 544.975,-732 544.975,-732 544.975,-726 550.975,-720 556.975,-720 556.975,-720 612.975,-720 612.975,-720 618.975,-720 624.975,-726 624.975,-732 624.975,-732 624.975,-749 624.975,-749 624.975,-755 618.975,-761 612.975,-761"/>
<text text-anchor="middle" x="584.975" y="-749" font-family="sans" font-size="10.00" fill="#000000">combine_units</text>
<text text-anchor="middle" x="584.975" y="-738" font-family="sans" font-size="10.00" fill="#000000">libtype: hic</text>
<text text-anchor="middle" x="584.975" y="-727" font-family="sans" font-size="10.00" fill="#000000">strain: Neff</text>
</g>
<!-- 29&#45;&gt;23 -->
<g id="edge38" class="edge">
<title>29&#45;&gt;23</title>
<path fill="none" stroke="#c0c0c0" stroke-width="2" d="M582.1894,-719.7476C581.1212,-711.7892 579.884,-702.5718 578.739,-694.0418"/>
<polygon fill="#c0c0c0" stroke="#c0c0c0" stroke-width="2" points="582.205,-693.5541 577.4057,-684.1087 575.2672,-694.4854 582.205,-693.5541"/>
</g>
<!-- 30 -->
<g id="node31" class="node">
<title>30</title>
<path fill="none" stroke="#d85656" stroke-width="2" d="M481.975,-977C481.975,-977 425.975,-977 425.975,-977 419.975,-977 413.975,-971 413.975,-965 413.975,-965 413.975,-953 413.975,-953 413.975,-947 419.975,-941 425.975,-941 425.975,-941 481.975,-941 481.975,-941 487.975,-941 493.975,-947 493.975,-953 493.975,-953 493.975,-965 493.975,-965 493.975,-971 487.975,-977 481.975,-977"/>
<text text-anchor="middle" x="453.975" y="-956.5" font-family="sans" font-size="10.00" fill="#000000">pilon_polishing</text>
</g>
<!-- 30&#45;&gt;24 -->
<g id="edge40" class="edge">
<title>30&#45;&gt;24</title>
<path fill="none" stroke="#c0c0c0" stroke-width="2" d="M426.0141,-940.862C414.421,-931.6621 402.2347,-919.3809 395.975,-905 389.5892,-890.3296 387.9285,-882.8294 395.975,-869 405.6351,-852.3973 422.5144,-840.4806 439.3913,-832.1403"/>
<polygon fill="#c0c0c0" stroke="#c0c0c0" stroke-width="2" points="441.0866,-835.2136 448.7213,-827.8677 438.172,-828.8492 441.0866,-835.2136"/>
</g>
<!-- 32 -->
<g id="node33" class="node">
<title>32</title>
<path fill="none" stroke="#d8d356" stroke-width="2" d="M580.475,-905C580.475,-905 417.475,-905 417.475,-905 411.475,-905 405.475,-899 405.475,-893 405.475,-893 405.475,-881 405.475,-881 405.475,-875 411.475,-869 417.475,-869 417.475,-869 580.475,-869 580.475,-869 586.475,-869 592.475,-875 592.475,-881 592.475,-881 592.475,-893 592.475,-893 592.475,-899 586.475,-905 580.475,-905"/>
<text text-anchor="middle" x="498.975" y="-884.5" font-family="sans" font-size="10.00" fill="#000000">align_merged_shotgun_pilon_assembly</text>
</g>
<!-- 30&#45;&gt;32 -->
<g id="edge52" class="edge">
<title>30&#45;&gt;32</title>
<path fill="none" stroke="#c0c0c0" stroke-width="2" d="M465.3304,-940.8314C470.4076,-932.7079 476.4977,-922.9637 482.0926,-914.0118"/>
<polygon fill="#c0c0c0" stroke="#c0c0c0" stroke-width="2" points="485.1347,-915.7483 487.4667,-905.4133 479.1987,-912.0383 485.1347,-915.7483"/>
</g>
<!-- 31&#45;&gt;24 -->
<g id="edge41" class="edge">
<title>31&#45;&gt;24</title>
<path fill="none" stroke="#c0c0c0" stroke-width="2" d="M597.1101,-940.9978C605.4809,-921.7301 614.667,-890.9743 600.975,-869 588.0877,-848.317 564.7095,-835.3318 542.8091,-827.2966"/>
<polygon fill="#c0c0c0" stroke="#c0c0c0" stroke-width="2" points="543.8167,-823.9425 533.2224,-824.0456 541.5687,-830.5718 543.8167,-823.9425"/>
</g>
<!-- 31&#45;&gt;32 -->
<g id="edge51" class="edge">
<title>31&#45;&gt;32</title>
<path fill="none" stroke="#c0c0c0" stroke-width="2" d="M565.5165,-940.8314C554.5545,-931.9632 541.2051,-921.1637 529.3485,-911.5718"/>
<polygon fill="#c0c0c0" stroke="#c0c0c0" stroke-width="2" points="531.4021,-908.7313 521.4263,-905.1628 526.9994,-914.1734 531.4021,-908.7313"/>
</g>
<!-- 32&#45;&gt;24 -->
<g id="edge42" class="edge">
<title>32&#45;&gt;24</title>
<path fill="none" stroke="#c0c0c0" stroke-width="2" d="M496.9563,-868.8314C496.1007,-861.131 495.0832,-851.9743 494.1324,-843.4166"/>
<polygon fill="#c0c0c0" stroke="#c0c0c0" stroke-width="2" points="497.6039,-842.9656 493.0209,-833.4133 490.6467,-843.7386 497.6039,-842.9656"/>
</g>
<!-- 33 -->
<g id="node34" class="node">
<title>33</title>
<path fill="none" stroke="#56a9d8" stroke-width="2" d="M205.475,-1049C205.475,-1049 100.475,-1049 100.475,-1049 94.475,-1049 88.475,-1043 88.475,-1037 88.475,-1037 88.475,-1025 88.475,-1025 88.475,-1019 94.475,-1013 100.475,-1013 100.475,-1013 205.475,-1013 205.475,-1013 211.475,-1013 217.475,-1019 217.475,-1025 217.475,-1025 217.475,-1037 217.475,-1037 217.475,-1043 211.475,-1049 205.475,-1049"/>
<text text-anchor="middle" x="152.975" y="-1028.5" font-family="sans" font-size="10.00" fill="#000000">index_shotgun_bam_pilon</text>
</g>
<!-- 33&#45;&gt;26 -->
<g id="edge43" class="edge">
<title>33&#45;&gt;26</title>
<path fill="none" stroke="#c0c0c0" stroke-width="2" d="M135.0587,-1012.8314C126.6308,-1004.2848 116.434,-993.9443 107.239,-984.6198"/>
<polygon fill="#c0c0c0" stroke="#c0c0c0" stroke-width="2" points="109.6461,-982.0761 100.1325,-977.4133 104.6619,-986.9912 109.6461,-982.0761"/>
</g>
<!-- 34 -->
<g id="node35" class="node">
<title>34</title>
<path fill="none" stroke="#566bd8" stroke-width="2" d="M146.475,-1193C146.475,-1193 63.475,-1193 63.475,-1193 57.475,-1193 51.475,-1187 51.475,-1181 51.475,-1181 51.475,-1169 51.475,-1169 51.475,-1163 57.475,-1157 63.475,-1157 63.475,-1157 146.475,-1157 146.475,-1157 152.475,-1157 158.475,-1163 158.475,-1169 158.475,-1169 158.475,-1181 158.475,-1181 158.475,-1187 152.475,-1193 146.475,-1193"/>
<text text-anchor="middle" x="104.975" y="-1172.5" font-family="sans" font-size="10.00" fill="#000000">long_reads_polishing</text>
</g>
<!-- 34&#45;&gt;26 -->
<g id="edge44" class="edge">
<title>34&#45;&gt;26</title>
<path fill="none" stroke="#c0c0c0" stroke-width="2" d="M91.6188,-1156.5137C85.2242,-1146.5235 78.257,-1133.6657 74.975,-1121 63.1746,-1075.4607 69.7629,-1020.345 75.7609,-987.5601"/>
<polygon fill="#c0c0c0" stroke="#c0c0c0" stroke-width="2" points="79.2742,-987.8278 77.745,-977.3439 72.4026,-986.4932 79.2742,-987.8278"/>
</g>
<!-- 34&#45;&gt;37 -->
<g id="edge60" class="edge">
<title>34&#45;&gt;37</title>
<path fill="none" stroke="#c0c0c0" stroke-width="2" d="M117.8444,-1156.8314C123.6585,-1148.6232 130.6446,-1138.7606 137.0396,-1129.7323"/>
<polygon fill="#c0c0c0" stroke="#c0c0c0" stroke-width="2" points="140.0081,-1131.5966 142.9323,-1121.4133 134.296,-1127.5505 140.0081,-1131.5966"/>
</g>
<!-- 35 -->
<g id="node36" class="node">
<title>35</title>
<path fill="none" stroke="#56a9d8" stroke-width="2" d="M574.475,-1049C574.475,-1049 469.475,-1049 469.475,-1049 463.475,-1049 457.475,-1043 457.475,-1037 457.475,-1037 457.475,-1025 457.475,-1025 457.475,-1019 463.475,-1013 469.475,-1013 469.475,-1013 574.475,-1013 574.475,-1013 580.475,-1013 586.475,-1019 586.475,-1025 586.475,-1025 586.475,-1037 586.475,-1037 586.475,-1043 580.475,-1049 574.475,-1049"/>
<text text-anchor="middle" x="521.975" y="-1028.5" font-family="sans" font-size="10.00" fill="#000000">index_shotgun_bam_pilon</text>
</g>
<!-- 35&#45;&gt;30 -->
<g id="edge48" class="edge">
<title>35&#45;&gt;30</title>
<path fill="none" stroke="#c0c0c0" stroke-width="2" d="M504.8157,-1012.8314C496.8238,-1004.3694 487.1712,-994.1489 478.4334,-984.8971"/>
<polygon fill="#c0c0c0" stroke="#c0c0c0" stroke-width="2" points="480.7761,-982.2802 471.3653,-977.4133 475.687,-987.0866 480.7761,-982.2802"/>
</g>
<!-- 36 -->
<g id="node37" class="node">
<title>36</title>
<path fill="none" stroke="#566bd8" stroke-width="2" d="M515.475,-1193C515.475,-1193 432.475,-1193 432.475,-1193 426.475,-1193 420.475,-1187 420.475,-1181 420.475,-1181 420.475,-1169 420.475,-1169 420.475,-1163 426.475,-1157 432.475,-1157 432.475,-1157 515.475,-1157 515.475,-1157 521.475,-1157 527.475,-1163 527.475,-1169 527.475,-1169 527.475,-1181 527.475,-1181 527.475,-1187 521.475,-1193 515.475,-1193"/>
<text text-anchor="middle" x="473.975" y="-1172.5" font-family="sans" font-size="10.00" fill="#000000">long_reads_polishing</text>
</g>
<!-- 36&#45;&gt;30 -->
<g id="edge49" class="edge">
<title>36&#45;&gt;30</title>
<path fill="none" stroke="#c0c0c0" stroke-width="2" d="M460.6188,-1156.5137C454.2242,-1146.5235 447.257,-1133.6657 443.975,-1121 432.1118,-1075.2184 440.1021,-1019.8351 447.0127,-987.118"/>
<polygon fill="#c0c0c0" stroke="#c0c0c0" stroke-width="2" points="450.4343,-987.8547 449.1919,-977.3329 443.6017,-986.3329 450.4343,-987.8547"/>
</g>
<!-- 36&#45;&gt;40 -->
<g id="edge64" class="edge">
<title>36&#45;&gt;40</title>
<path fill="none" stroke="#c0c0c0" stroke-width="2" d="M486.8444,-1156.8314C492.6585,-1148.6232 499.6446,-1138.7606 506.0396,-1129.7323"/>
<polygon fill="#c0c0c0" stroke="#c0c0c0" stroke-width="2" points="509.0081,-1131.5966 511.9323,-1121.4133 503.296,-1127.5505 509.0081,-1131.5966"/>
</g>
<!-- 37&#45;&gt;33 -->
<g id="edge53" class="edge">
<title>37&#45;&gt;33</title>
<path fill="none" stroke="#c0c0c0" stroke-width="2" d="M155.218,-1084.8314C154.8971,-1077.131 154.5156,-1067.9743 154.159,-1059.4166"/>
<polygon fill="#c0c0c0" stroke="#c0c0c0" stroke-width="2" points="157.6556,-1059.2589 153.7422,-1049.4133 150.6616,-1059.5503 157.6556,-1059.2589"/>
</g>
<!-- 38 -->
<g id="node39" class="node">
<title>38</title>
<path fill="none" stroke="#56d8b1" stroke-width="2" stroke-dasharray="5,2" d="M148.475,-1411.5C148.475,-1411.5 67.475,-1411.5 67.475,-1411.5 61.475,-1411.5 55.475,-1405.5 55.475,-1399.5 55.475,-1399.5 55.475,-1387.5 55.475,-1387.5 55.475,-1381.5 61.475,-1375.5 67.475,-1375.5 67.475,-1375.5 148.475,-1375.5 148.475,-1375.5 154.475,-1375.5 160.475,-1381.5 160.475,-1387.5 160.475,-1387.5 160.475,-1399.5 160.475,-1399.5 160.475,-1405.5 154.475,-1411.5 148.475,-1411.5"/>
<text text-anchor="middle" x="107.975" y="-1391" font-family="sans" font-size="10.00" fill="#000000">fastq_to_fasta_ONT</text>
</g>
<!-- 38&#45;&gt;34 -->
<g id="edge54" class="edge">
<title>38&#45;&gt;34</title>
<path fill="none" stroke="#c0c0c0" stroke-width="2" d="M101.8914,-1375.4198C98.5235,-1364.448 94.682,-1350.0826 92.975,-1337 90.7118,-1319.6555 93.5579,-1242.3903 94.975,-1229 95.864,-1220.6 97.3353,-1211.5468 98.8794,-1203.2984"/>
<polygon fill="#c0c0c0" stroke="#c0c0c0" stroke-width="2" points="102.3323,-1203.8792 100.8359,-1193.3906 95.4649,-1202.5231 102.3323,-1203.8792"/>
</g>
<!-- 38&#45;&gt;44 -->
<g id="edge67" class="edge">
<title>38&#45;&gt;44</title>
<path fill="none" stroke="#c0c0c0" stroke-width="2" d="M117.1737,-1375.4656C121.668,-1366.6544 127.1699,-1355.868 132.1562,-1346.0921"/>
<polygon fill="#c0c0c0" stroke="#c0c0c0" stroke-width="2" points="135.3033,-1347.625 136.7293,-1337.1265 129.0676,-1344.4443 135.3033,-1347.625"/>
</g>
<!-- 39 -->
<g id="node40" class="node">
<title>39</title>
<path fill="none" stroke="#78d856" stroke-width="2" d="M171.975,-1265C171.975,-1265 115.975,-1265 115.975,-1265 109.975,-1265 103.975,-1259 103.975,-1253 103.975,-1253 103.975,-1241 103.975,-1241 103.975,-1235 109.975,-1229 115.975,-1229 115.975,-1229 171.975,-1229 171.975,-1229 177.975,-1229 183.975,-1235 183.975,-1241 183.975,-1241 183.975,-1253 183.975,-1253 183.975,-1259 177.975,-1265 171.975,-1265"/>
<text text-anchor="middle" x="143.975" y="-1244.5" font-family="sans" font-size="10.00" fill="#000000">flye_assembly</text>
</g>
<!-- 39&#45;&gt;34 -->
<g id="edge55" class="edge">
<title>39&#45;&gt;34</title>
<path fill="none" stroke="#c0c0c0" stroke-width="2" d="M134.1336,-1228.8314C129.7792,-1220.7925 124.5652,-1211.1666 119.758,-1202.2918"/>
<polygon fill="#c0c0c0" stroke="#c0c0c0" stroke-width="2" points="122.7893,-1200.5392 114.9488,-1193.4133 116.6342,-1203.8732 122.7893,-1200.5392"/>
</g>
<!-- 40&#45;&gt;35 -->
<g id="edge56" class="edge">
<title>40&#45;&gt;35</title>
<path fill="none" stroke="#c0c0c0" stroke-width="2" d="M524.218,-1084.8314C523.8971,-1077.131 523.5156,-1067.9743 523.159,-1059.4166"/>
<polygon fill="#c0c0c0" stroke="#c0c0c0" stroke-width="2" points="526.6556,-1059.2589 522.7422,-1049.4133 519.6616,-1059.5503 526.6556,-1059.2589"/>
</g>
<!-- 41 -->
<g id="node42" class="node">
<title>41</title>
<path fill="none" stroke="#56d8b1" stroke-width="2" stroke-dasharray="5,2" d="M517.475,-1411.5C517.475,-1411.5 436.475,-1411.5 436.475,-1411.5 430.475,-1411.5 424.475,-1405.5 424.475,-1399.5 424.475,-1399.5 424.475,-1387.5 424.475,-1387.5 424.475,-1381.5 430.475,-1375.5 436.475,-1375.5 436.475,-1375.5 517.475,-1375.5 517.475,-1375.5 523.475,-1375.5 529.475,-1381.5 529.475,-1387.5 529.475,-1387.5 529.475,-1399.5 529.475,-1399.5 529.475,-1405.5 523.475,-1411.5 517.475,-1411.5"/>
<text text-anchor="middle" x="476.975" y="-1391" font-family="sans" font-size="10.00" fill="#000000">fastq_to_fasta_ONT</text>
</g>
<!-- 41&#45;&gt;36 -->
<g id="edge57" class="edge">
<title>41&#45;&gt;36</title>
<path fill="none" stroke="#c0c0c0" stroke-width="2" d="M470.8914,-1375.4198C467.5235,-1364.448 463.682,-1350.0826 461.975,-1337 459.7118,-1319.6555 462.5579,-1242.3903 463.975,-1229 464.864,-1220.6 466.3353,-1211.5468 467.8794,-1203.2984"/>
<polygon fill="#c0c0c0" stroke="#c0c0c0" stroke-width="2" points="471.3323,-1203.8792 469.8359,-1193.3906 464.4649,-1202.5231 471.3323,-1203.8792"/>
</g>
<!-- 41&#45;&gt;46 -->
<g id="edge69" class="edge">
<title>41&#45;&gt;46</title>
<path fill="none" stroke="#c0c0c0" stroke-width="2" d="M486.1737,-1375.4656C490.668,-1366.6544 496.1699,-1355.868 501.1562,-1346.0921"/>
<polygon fill="#c0c0c0" stroke="#c0c0c0" stroke-width="2" points="504.3033,-1347.625 505.7293,-1337.1265 498.0676,-1344.4443 504.3033,-1347.625"/>
</g>
<!-- 42 -->
<g id="node43" class="node">
<title>42</title>
<path fill="none" stroke="#78d856" stroke-width="2" d="M540.975,-1265C540.975,-1265 484.975,-1265 484.975,-1265 478.975,-1265 472.975,-1259 472.975,-1253 472.975,-1253 472.975,-1241 472.975,-1241 472.975,-1235 478.975,-1229 484.975,-1229 484.975,-1229 540.975,-1229 540.975,-1229 546.975,-1229 552.975,-1235 552.975,-1241 552.975,-1241 552.975,-1253 552.975,-1253 552.975,-1259 546.975,-1265 540.975,-1265"/>
<text text-anchor="middle" x="512.975" y="-1244.5" font-family="sans" font-size="10.00" fill="#000000">flye_assembly</text>
</g>
<!-- 42&#45;&gt;36 -->
<g id="edge58" class="edge">
<title>42&#45;&gt;36</title>
<path fill="none" stroke="#c0c0c0" stroke-width="2" d="M503.1336,-1228.8314C498.7792,-1220.7925 493.5652,-1211.1666 488.758,-1202.2918"/>
<polygon fill="#c0c0c0" stroke="#c0c0c0" stroke-width="2" points="491.7893,-1200.5392 483.9488,-1193.4133 485.6342,-1203.8732 491.7893,-1200.5392"/>
</g>
<!-- 43 -->
<g id="node44" class="node">
<title>43</title>
<path fill="none" stroke="#d86e56" stroke-width="2" stroke-dasharray="5,2" d="M144.975,-1491C144.975,-1491 70.975,-1491 70.975,-1491 64.975,-1491 58.975,-1485 58.975,-1479 58.975,-1479 58.975,-1462 58.975,-1462 58.975,-1456 64.975,-1450 70.975,-1450 70.975,-1450 144.975,-1450 144.975,-1450 150.975,-1450 156.975,-1456 156.975,-1462 156.975,-1462 156.975,-1479 156.975,-1479 156.975,-1485 150.975,-1491 144.975,-1491"/>
<text text-anchor="middle" x="107.975" y="-1479" font-family="sans" font-size="10.00" fill="#000000">combine_units</text>
<text text-anchor="middle" x="107.975" y="-1468" font-family="sans" font-size="10.00" fill="#000000">libtype: long_reads</text>
<text text-anchor="middle" x="107.975" y="-1457" font-family="sans" font-size="10.00" fill="#000000">strain: C3</text>
</g>
<!-- 43&#45;&gt;38 -->
<g id="edge61" class="edge">
<title>43&#45;&gt;38</title>
<path fill="none" stroke="#c0c0c0" stroke-width="2" d="M107.975,-1449.8654C107.975,-1441.1912 107.975,-1430.9623 107.975,-1421.6158"/>
<polygon fill="#c0c0c0" stroke="#c0c0c0" stroke-width="2" points="111.4751,-1421.5682 107.975,-1411.5683 104.4751,-1421.5683 111.4751,-1421.5682"/>
</g>
<!-- 44&#45;&gt;39 -->
<g id="edge62" class="edge">
<title>44&#45;&gt;39</title>
<path fill="none" stroke="#c0c0c0" stroke-width="2" d="M145.4703,-1300.8314C145.2564,-1293.131 145.0021,-1283.9743 144.7643,-1275.4166"/>
<polygon fill="#c0c0c0" stroke="#c0c0c0" stroke-width="2" points="148.2629,-1275.3122 144.4865,-1265.4133 141.2656,-1275.5066 148.2629,-1275.3122"/>
</g>
<!-- 45 -->
<g id="node46" class="node">
<title>45</title>
<path fill="none" stroke="#d86e56" stroke-width="2" stroke-dasharray="5,2" d="M513.975,-1491C513.975,-1491 439.975,-1491 439.975,-1491 433.975,-1491 427.975,-1485 427.975,-1479 427.975,-1479 427.975,-1462 427.975,-1462 427.975,-1456 433.975,-1450 439.975,-1450 439.975,-1450 513.975,-1450 513.975,-1450 519.975,-1450 525.975,-1456 525.975,-1462 525.975,-1462 525.975,-1479 525.975,-1479 525.975,-1485 519.975,-1491 513.975,-1491"/>
<text text-anchor="middle" x="476.975" y="-1479" font-family="sans" font-size="10.00" fill="#000000">combine_units</text>
<text text-anchor="middle" x="476.975" y="-1468" font-family="sans" font-size="10.00" fill="#000000">libtype: long_reads</text>
<text text-anchor="middle" x="476.975" y="-1457" font-family="sans" font-size="10.00" fill="#000000">strain: Neff</text>
</g>
<!-- 45&#45;&gt;41 -->
<g id="edge65" class="edge">
<title>45&#45;&gt;41</title>
<path fill="none" stroke="#c0c0c0" stroke-width="2" d="M476.975,-1449.8654C476.975,-1441.1912 476.975,-1430.9623 476.975,-1421.6158"/>
<polygon fill="#c0c0c0" stroke="#c0c0c0" stroke-width="2" points="480.4751,-1421.5682 476.975,-1411.5683 473.4751,-1421.5683 480.4751,-1421.5682"/>
</g>
<!-- 46&#45;&gt;42 -->
<g id="edge66" class="edge">
<title>46&#45;&gt;42</title>
<path fill="none" stroke="#c0c0c0" stroke-width="2" d="M514.4703,-1300.8314C514.2564,-1293.131 514.0021,-1283.9743 513.7643,-1275.4166"/>
<polygon fill="#c0c0c0" stroke="#c0c0c0" stroke-width="2" points="517.2629,-1275.3122 513.4865,-1265.4133 510.2656,-1275.5066 517.2629,-1275.3122"/>
</g>
</g>
</svg>
