<?xml version="1.0" encoding="UTF-8" standalone="no"?>
<!DOCTYPE svg PUBLIC "-//W3C//DTD SVG 1.1//EN"
 "http://www.w3.org/Graphics/SVG/1.1/DTD/svg11.dtd">
<!-- Generated by graphviz version 2.49.0 (20210829.0051)
 -->
<!-- Title: snakemake_dag Pages: 1 -->
<svg width="1976pt" height="1532pt"
 viewBox="0.00 0.00 1976.00 1532.00" xmlns="http://www.w3.org/2000/svg" xmlns:xlink="http://www.w3.org/1999/xlink">
<g id="graph0" class="graph" transform="scale(1 1) rotate(0) translate(4 1528)">
<title>snakemake_dag</title>
<polygon fill="white" stroke="transparent" points="-4,4 -4,-1528 1972,-1528 1972,4 -4,4"/>
<!-- 0 -->
<g id="node1" class="node">
<title>0</title>
<path fill="none" stroke="#56d8a2" stroke-width="2" d="M1259,-36C1259,-36 1229,-36 1229,-36 1223,-36 1217,-30 1217,-24 1217,-24 1217,-12 1217,-12 1217,-6 1223,0 1229,0 1229,0 1259,0 1259,0 1265,0 1271,-6 1271,-12 1271,-12 1271,-24 1271,-24 1271,-30 1265,-36 1259,-36"/>
<text text-anchor="middle" x="1244" y="-15.5" font-family="sans" font-size="10.00">all</text>
</g>
<!-- 1 -->
<g id="node2" class="node">
<title>1</title>
<path fill="none" stroke="#d88556" stroke-width="2" d="M1215.5,-108C1215.5,-108 1064.5,-108 1064.5,-108 1058.5,-108 1052.5,-102 1052.5,-96 1052.5,-96 1052.5,-84 1052.5,-84 1052.5,-78 1058.5,-72 1064.5,-72 1064.5,-72 1215.5,-72 1215.5,-72 1221.5,-72 1227.5,-78 1227.5,-84 1227.5,-84 1227.5,-96 1227.5,-96 1227.5,-102 1221.5,-108 1215.5,-108"/>
<text text-anchor="middle" x="1140" y="-87.5" font-family="sans" font-size="10.00">post_hic_pilon_polishing_round2</text>
</g>
<!-- 1&#45;&gt;0 -->
<g id="edge1" class="edge">
<title>1&#45;&gt;0</title>
<path fill="none" stroke="grey" stroke-width="2" d="M1165.44,-71.88C1178.79,-62.89 1195.32,-51.76 1209.78,-42.03"/>
<polygon fill="grey" stroke="grey" stroke-width="2" points="1212.12,-44.68 1218.46,-36.19 1208.21,-38.87 1212.12,-44.68"/>
</g>
<!-- 2 -->
<g id="node3" class="node">
<title>2</title>
<path fill="none" stroke="#566bd8" stroke-width="2" d="M1228,-180C1228,-180 1052,-180 1052,-180 1046,-180 1040,-174 1040,-168 1040,-168 1040,-156 1040,-156 1040,-150 1046,-144 1052,-144 1052,-144 1228,-144 1228,-144 1234,-144 1240,-150 1240,-156 1240,-156 1240,-168 1240,-168 1240,-174 1234,-180 1228,-180"/>
<text text-anchor="middle" x="1140" y="-159.5" font-family="sans" font-size="10.00">index_shotgun_bam_pilon_3c_round2</text>
</g>
<!-- 2&#45;&gt;1 -->
<g id="edge3" class="edge">
<title>2&#45;&gt;1</title>
<path fill="none" stroke="grey" stroke-width="2" d="M1140,-143.7C1140,-135.98 1140,-126.71 1140,-118.11"/>
<polygon fill="grey" stroke="grey" stroke-width="2" points="1143.5,-118.1 1140,-108.1 1136.5,-118.1 1143.5,-118.1"/>
</g>
<!-- 3 -->
<g id="node4" class="node">
<title>3</title>
<path fill="none" stroke="#569ad8" stroke-width="2" d="M1221.5,-252C1221.5,-252 1052.5,-252 1052.5,-252 1046.5,-252 1040.5,-246 1040.5,-240 1040.5,-240 1040.5,-228 1040.5,-228 1040.5,-222 1046.5,-216 1052.5,-216 1052.5,-216 1221.5,-216 1221.5,-216 1227.5,-216 1233.5,-222 1233.5,-228 1233.5,-228 1233.5,-240 1233.5,-240 1233.5,-246 1227.5,-252 1221.5,-252"/>
<text text-anchor="middle" x="1137" y="-231.5" font-family="sans" font-size="10.00">align_shotgun_3c_assembly_round2</text>
</g>
<!-- 3&#45;&gt;2 -->
<g id="edge5" class="edge">
<title>3&#45;&gt;2</title>
<path fill="none" stroke="grey" stroke-width="2" d="M1137.74,-215.7C1138.07,-207.98 1138.47,-198.71 1138.84,-190.11"/>
<polygon fill="grey" stroke="grey" stroke-width="2" points="1142.34,-190.25 1139.27,-180.1 1135.34,-189.95 1142.34,-190.25"/>
</g>
<!-- 4 -->
<g id="node5" class="node">
<title>4</title>
<path fill="none" stroke="#56c9d8" stroke-width="2" d="M1060,-1276C1060,-1276 996,-1276 996,-1276 990,-1276 984,-1270 984,-1264 984,-1264 984,-1252 984,-1252 984,-1246 990,-1240 996,-1240 996,-1240 1060,-1240 1060,-1240 1066,-1240 1072,-1246 1072,-1252 1072,-1252 1072,-1264 1072,-1264 1072,-1270 1066,-1276 1060,-1276"/>
<text text-anchor="middle" x="1028" y="-1255.5" font-family="sans" font-size="10.00">combine_units</text>
</g>
<!-- 4&#45;&gt;3 -->
<g id="edge6" class="edge">
<title>4&#45;&gt;3</title>
<path fill="none" stroke="grey" stroke-width="2" d="M1052.82,-1239.98C1084.43,-1216.07 1135,-1169.33 1135,-1115 1135,-1115 1135,-1115 1135,-377 1135,-336.99 1135.8,-290.65 1136.39,-262.08"/>
<polygon fill="grey" stroke="grey" stroke-width="2" points="1139.89,-262.12 1136.6,-252.05 1132.89,-261.97 1139.89,-262.12"/>
</g>
<!-- 9 -->
<g id="node10" class="node">
<title>9</title>
<path fill="none" stroke="#d89c56" stroke-width="2" d="M1087,-468C1087,-468 957,-468 957,-468 951,-468 945,-462 945,-456 945,-456 945,-444 945,-444 945,-438 951,-432 957,-432 957,-432 1087,-432 1087,-432 1093,-432 1099,-438 1099,-444 1099,-444 1099,-456 1099,-456 1099,-462 1093,-468 1087,-468"/>
<text text-anchor="middle" x="1022" y="-447.5" font-family="sans" font-size="10.00">align_shotgun_3c_assembly</text>
</g>
<!-- 4&#45;&gt;9 -->
<g id="edge13" class="edge">
<title>4&#45;&gt;9</title>
<path fill="none" stroke="grey" stroke-width="2" d="M1042.63,-1239.93C1062.89,-1214.5 1097,-1164.34 1097,-1115 1097,-1115 1097,-1115 1097,-593 1097,-547.77 1066.88,-502.85 1044.82,-476"/>
<polygon fill="grey" stroke="grey" stroke-width="2" points="1047.41,-473.64 1038.27,-468.27 1042.06,-478.16 1047.41,-473.64"/>
</g>
<!-- 14 -->
<g id="node15" class="node">
<title>14</title>
<path fill="none" stroke="#56d892" stroke-width="2" d="M957,-988C957,-988 823,-988 823,-988 817,-988 811,-982 811,-976 811,-976 811,-964 811,-964 811,-958 817,-952 823,-952 823,-952 957,-952 957,-952 963,-952 969,-958 969,-964 969,-964 969,-976 969,-976 969,-982 963,-988 957,-988"/>
<text text-anchor="middle" x="890" y="-967.5" font-family="sans" font-size="10.00">align_shotgun_ont_assembly</text>
</g>
<!-- 4&#45;&gt;14 -->
<g id="edge24" class="edge">
<title>4&#45;&gt;14</title>
<path fill="none" stroke="grey" stroke-width="2" d="M1019.78,-1239.97C996.63,-1191.99 930.77,-1055.5 902.81,-997.54"/>
<polygon fill="grey" stroke="grey" stroke-width="2" points="905.85,-995.79 898.35,-988.31 899.54,-998.83 905.85,-995.79"/>
</g>
<!-- 17 -->
<g id="node18" class="node">
<title>17</title>
<path fill="none" stroke="#56b1d8" stroke-width="2" d="M898,-1204C898,-1204 824,-1204 824,-1204 818,-1204 812,-1198 812,-1192 812,-1192 812,-1180 812,-1180 812,-1174 818,-1168 824,-1168 824,-1168 898,-1168 898,-1168 904,-1168 910,-1174 910,-1180 910,-1180 910,-1192 910,-1192 910,-1198 904,-1204 898,-1204"/>
<text text-anchor="middle" x="861" y="-1183.5" font-family="sans" font-size="10.00">filter_long_reads</text>
</g>
<!-- 4&#45;&gt;17 -->
<g id="edge29" class="edge">
<title>4&#45;&gt;17</title>
<path fill="none" stroke="grey" stroke-width="2" d="M987.15,-1239.88C964.22,-1230.26 935.42,-1218.19 911.13,-1208.01"/>
<polygon fill="grey" stroke="grey" stroke-width="2" points="912.3,-1204.71 901.72,-1204.07 909.59,-1211.16 912.3,-1204.71"/>
</g>
<!-- 23 -->
<g id="node24" class="node">
<title>23</title>
<path fill="none" stroke="#d6d856" stroke-width="2" d="M1057,-988C1057,-988 999,-988 999,-988 993,-988 987,-982 987,-976 987,-976 987,-964 987,-964 987,-958 993,-952 999,-952 999,-952 1057,-952 1057,-952 1063,-952 1069,-958 1069,-964 1069,-964 1069,-976 1069,-976 1069,-982 1063,-988 1057,-988"/>
<text text-anchor="middle" x="1028" y="-967.5" font-family="sans" font-size="10.00">compute_cov</text>
</g>
<!-- 4&#45;&gt;23 -->
<g id="edge35" class="edge">
<title>4&#45;&gt;23</title>
<path fill="none" stroke="grey" stroke-width="2" d="M1028,-1239.97C1028,-1192.29 1028,-1057.18 1028,-998.63"/>
<polygon fill="grey" stroke="grey" stroke-width="2" points="1031.5,-998.31 1028,-988.31 1024.5,-998.31 1031.5,-998.31"/>
</g>
<!-- 5 -->
<g id="node6" class="node">
<title>5</title>
<path fill="none" stroke="#8fd856" stroke-width="2" d="M1087.5,-1364C1087.5,-1364 968.5,-1364 968.5,-1364 962.5,-1364 956.5,-1358 956.5,-1352 956.5,-1352 956.5,-1324 956.5,-1324 956.5,-1318 962.5,-1312 968.5,-1312 968.5,-1312 1087.5,-1312 1087.5,-1312 1093.5,-1312 1099.5,-1318 1099.5,-1324 1099.5,-1324 1099.5,-1352 1099.5,-1352 1099.5,-1358 1093.5,-1364 1087.5,-1364"/>
<text text-anchor="middle" x="1028" y="-1352" font-family="sans" font-size="10.00">sra_to_fq</text>
<text text-anchor="middle" x="1028" y="-1341" font-family="sans" font-size="10.00">libname: PM65_1.fastq.gz</text>
<text text-anchor="middle" x="1028" y="-1330" font-family="sans" font-size="10.00">libtype: shotgun</text>
<text text-anchor="middle" x="1028" y="-1319" font-family="sans" font-size="10.00">strain: C3</text>
</g>
<!-- 5&#45;&gt;4 -->
<g id="edge8" class="edge">
<title>5&#45;&gt;4</title>
<path fill="none" stroke="grey" stroke-width="2" d="M1028,-1311.89C1028,-1303.84 1028,-1294.88 1028,-1286.66"/>
<polygon fill="grey" stroke="grey" stroke-width="2" points="1031.5,-1286.41 1028,-1276.41 1024.5,-1286.41 1031.5,-1286.41"/>
</g>
<!-- 6 -->
<g id="node7" class="node">
<title>6</title>
<path fill="none" stroke="#56d863" stroke-width="2" d="M1069.5,-1444C1069.5,-1444 986.5,-1444 986.5,-1444 980.5,-1444 974.5,-1438 974.5,-1432 974.5,-1432 974.5,-1420 974.5,-1420 974.5,-1414 980.5,-1408 986.5,-1408 986.5,-1408 1069.5,-1408 1069.5,-1408 1075.5,-1408 1081.5,-1414 1081.5,-1420 1081.5,-1420 1081.5,-1432 1081.5,-1432 1081.5,-1438 1075.5,-1444 1069.5,-1444"/>
<text text-anchor="middle" x="1028" y="-1429" font-family="sans" font-size="10.00">dl_sra</text>
<text text-anchor="middle" x="1028" y="-1418" font-family="sans" font-size="10.00">acc: SRR15928355</text>
</g>
<!-- 6&#45;&gt;5 -->
<g id="edge9" class="edge">
<title>6&#45;&gt;5</title>
<path fill="none" stroke="grey" stroke-width="2" d="M1028,-1407.6C1028,-1398.05 1028,-1385.86 1028,-1374.41"/>
<polygon fill="grey" stroke="grey" stroke-width="2" points="1031.5,-1374.2 1028,-1364.2 1024.5,-1374.2 1031.5,-1374.2"/>
</g>
<!-- 7 -->
<g id="node8" class="node">
<title>7</title>
<path fill="none" stroke="#d85656" stroke-width="2" d="M1076,-324C1076,-324 964,-324 964,-324 958,-324 952,-318 952,-312 952,-312 952,-300 952,-300 952,-294 958,-288 964,-288 964,-288 1076,-288 1076,-288 1082,-288 1088,-294 1088,-300 1088,-300 1088,-312 1088,-312 1088,-318 1082,-324 1076,-324"/>
<text text-anchor="middle" x="1020" y="-303.5" font-family="sans" font-size="10.00">post_hic_pilon_polishing</text>
</g>
<!-- 7&#45;&gt;1 -->
<g id="edge4" class="edge">
<title>7&#45;&gt;1</title>
<path fill="none" stroke="grey" stroke-width="2" d="M1015.98,-287.71C1009.69,-256.15 1001.09,-188.37 1031,-144 1040.16,-130.42 1053.82,-120.2 1068.41,-112.55"/>
<polygon fill="grey" stroke="grey" stroke-width="2" points="1070.1,-115.61 1077.58,-108.11 1067.05,-109.31 1070.1,-115.61"/>
</g>
<!-- 7&#45;&gt;3 -->
<g id="edge7" class="edge">
<title>7&#45;&gt;3</title>
<path fill="none" stroke="grey" stroke-width="2" d="M1048.62,-287.88C1063.92,-278.72 1082.94,-267.34 1099.42,-257.48"/>
<polygon fill="grey" stroke="grey" stroke-width="2" points="1101.48,-260.33 1108.27,-252.19 1097.89,-254.32 1101.48,-260.33"/>
</g>
<!-- 8 -->
<g id="node9" class="node">
<title>8</title>
<path fill="none" stroke="#5682d8" stroke-width="2" d="M1090.5,-396C1090.5,-396 953.5,-396 953.5,-396 947.5,-396 941.5,-390 941.5,-384 941.5,-384 941.5,-372 941.5,-372 941.5,-366 947.5,-360 953.5,-360 953.5,-360 1090.5,-360 1090.5,-360 1096.5,-360 1102.5,-366 1102.5,-372 1102.5,-372 1102.5,-384 1102.5,-384 1102.5,-390 1096.5,-396 1090.5,-396"/>
<text text-anchor="middle" x="1022" y="-375.5" font-family="sans" font-size="10.00">index_shotgun_bam_pilon_3c</text>
</g>
<!-- 8&#45;&gt;7 -->
<g id="edge10" class="edge">
<title>8&#45;&gt;7</title>
<path fill="none" stroke="grey" stroke-width="2" d="M1021.51,-359.7C1021.29,-351.98 1021.02,-342.71 1020.77,-334.11"/>
<polygon fill="grey" stroke="grey" stroke-width="2" points="1024.27,-334 1020.49,-324.1 1017.28,-334.2 1024.27,-334"/>
</g>
<!-- 9&#45;&gt;8 -->
<g id="edge12" class="edge">
<title>9&#45;&gt;8</title>
<path fill="none" stroke="grey" stroke-width="2" d="M1022,-431.7C1022,-423.98 1022,-414.71 1022,-406.11"/>
<polygon fill="grey" stroke="grey" stroke-width="2" points="1025.5,-406.1 1022,-396.1 1018.5,-406.1 1025.5,-406.1"/>
</g>
<!-- 10 -->
<g id="node11" class="node">
<title>10</title>
<path fill="none" stroke="#56d8d0" stroke-width="2" d="M953,-540C953,-540 873,-540 873,-540 867,-540 861,-534 861,-528 861,-528 861,-516 861,-516 861,-510 867,-504 873,-504 873,-504 953,-504 953,-504 959,-504 965,-510 965,-516 965,-516 965,-528 965,-528 965,-534 959,-540 953,-540"/>
<text text-anchor="middle" x="913" y="-519.5" font-family="sans" font-size="10.00">merge_organelles</text>
</g>
<!-- 10&#45;&gt;7 -->
<g id="edge11" class="edge">
<title>10&#45;&gt;7</title>
<path fill="none" stroke="grey" stroke-width="2" d="M910.42,-503.87C906.62,-472.56 902.85,-405.17 932,-360 940.25,-347.22 952.77,-337.07 965.81,-329.22"/>
<polygon fill="grey" stroke="grey" stroke-width="2" points="967.85,-332.08 974.87,-324.14 964.43,-325.97 967.85,-332.08"/>
</g>
<!-- 10&#45;&gt;9 -->
<g id="edge14" class="edge">
<title>10&#45;&gt;9</title>
<path fill="none" stroke="grey" stroke-width="2" d="M939.66,-503.88C953.78,-494.81 971.31,-483.55 986.56,-473.76"/>
<polygon fill="grey" stroke="grey" stroke-width="2" points="988.71,-476.54 995.23,-468.19 984.93,-470.65 988.71,-476.54"/>
</g>
<!-- 11 -->
<g id="node12" class="node">
<title>11</title>
<path fill="none" stroke="#bed856" stroke-width="2" d="M873,-612C873,-612 797,-612 797,-612 791,-612 785,-606 785,-600 785,-600 785,-588 785,-588 785,-582 791,-576 797,-576 797,-576 873,-576 873,-576 879,-576 885,-582 885,-588 885,-588 885,-600 885,-600 885,-606 879,-612 873,-612"/>
<text text-anchor="middle" x="835" y="-591.5" font-family="sans" font-size="10.00">instagraal_polish</text>
</g>
<!-- 11&#45;&gt;10 -->
<g id="edge15" class="edge">
<title>11&#45;&gt;10</title>
<path fill="none" stroke="grey" stroke-width="2" d="M854.28,-575.7C863.92,-567.05 875.73,-556.45 886.23,-547.03"/>
<polygon fill="grey" stroke="grey" stroke-width="2" points="888.84,-549.39 893.94,-540.1 884.16,-544.18 888.84,-549.39"/>
</g>
<!-- 12 -->
<g id="node13" class="node">
<title>12</title>
<path fill="none" stroke="#56d8b9" stroke-width="2" d="M868.5,-828C868.5,-828 803.5,-828 803.5,-828 797.5,-828 791.5,-822 791.5,-816 791.5,-816 791.5,-804 791.5,-804 791.5,-798 797.5,-792 803.5,-792 803.5,-792 868.5,-792 868.5,-792 874.5,-792 880.5,-798 880.5,-804 880.5,-804 880.5,-816 880.5,-816 880.5,-822 874.5,-828 868.5,-828"/>
<text text-anchor="middle" x="836" y="-807.5" font-family="sans" font-size="10.00">split_mito_tigs</text>
</g>
<!-- 12&#45;&gt;10 -->
<g id="edge16" class="edge">
<title>12&#45;&gt;10</title>
<path fill="none" stroke="grey" stroke-width="2" d="M841.48,-791.99C852.33,-758.01 876.96,-679.22 894,-612 899.21,-591.45 904.18,-568 907.73,-550.33"/>
<polygon fill="grey" stroke="grey" stroke-width="2" points="911.23,-550.64 909.74,-540.15 904.36,-549.28 911.23,-550.64"/>
</g>
<!-- 12&#45;&gt;11 -->
<g id="edge17" class="edge">
<title>12&#45;&gt;11</title>
<path fill="none" stroke="grey" stroke-width="2" d="M836.11,-791.61C836.27,-762.08 836.49,-700.27 836,-648 835.92,-639.68 835.77,-630.63 835.62,-622.4"/>
<polygon fill="grey" stroke="grey" stroke-width="2" points="839.11,-622.11 835.41,-612.18 832.11,-622.25 839.11,-622.11"/>
</g>
<!-- 24 -->
<g id="node25" class="node">
<title>24</title>
<path fill="none" stroke="#78d856" stroke-width="2" d="M815,-684C815,-684 715,-684 715,-684 709,-684 703,-678 703,-672 703,-672 703,-660 703,-660 703,-654 709,-648 715,-648 715,-648 815,-648 815,-648 821,-648 827,-654 827,-660 827,-660 827,-672 827,-672 827,-678 821,-684 815,-684"/>
<text text-anchor="middle" x="765" y="-663.5" font-family="sans" font-size="10.00">instagraal_scaffolding</text>
</g>
<!-- 12&#45;&gt;24 -->
<g id="edge37" class="edge">
<title>12&#45;&gt;24</title>
<path fill="none" stroke="grey" stroke-width="2" d="M829.61,-791.91C822.6,-773.73 810.65,-744.29 798,-720 793.29,-710.96 787.59,-701.42 782.26,-692.95"/>
<polygon fill="grey" stroke="grey" stroke-width="2" points="785.04,-690.8 776.69,-684.27 779.15,-694.58 785.04,-690.8"/>
</g>
<!-- 25 -->
<g id="node26" class="node">
<title>25</title>
<path fill="none" stroke="#a7d856" stroke-width="2" d="M777,-756C777,-756 671,-756 671,-756 665,-756 659,-750 659,-744 659,-744 659,-732 659,-732 659,-726 665,-720 671,-720 671,-720 777,-720 777,-720 783,-720 789,-726 789,-732 789,-732 789,-744 789,-744 789,-750 783,-756 777,-756"/>
<text text-anchor="middle" x="724" y="-735.5" font-family="sans" font-size="10.00">hicstuff_hic_processing</text>
</g>
<!-- 12&#45;&gt;25 -->
<g id="edge40" class="edge">
<title>12&#45;&gt;25</title>
<path fill="none" stroke="grey" stroke-width="2" d="M808.6,-791.88C794.09,-782.81 776.08,-771.55 760.41,-761.76"/>
<polygon fill="grey" stroke="grey" stroke-width="2" points="761.84,-758.52 751.5,-756.19 758.13,-764.46 761.84,-758.52"/>
</g>
<!-- 13 -->
<g id="node14" class="node">
<title>13</title>
<path fill="none" stroke="#d86e56" stroke-width="2" d="M869,-908C869,-908 803,-908 803,-908 797,-908 791,-902 791,-896 791,-896 791,-884 791,-884 791,-878 797,-872 803,-872 803,-872 869,-872 869,-872 875,-872 881,-878 881,-884 881,-884 881,-896 881,-896 881,-902 875,-908 869,-908"/>
<text text-anchor="middle" x="836" y="-887.5" font-family="sans" font-size="10.00">hypo_polishing</text>
</g>
<!-- 13&#45;&gt;12 -->
<g id="edge19" class="edge">
<title>13&#45;&gt;12</title>
<path fill="none" stroke="grey" stroke-width="2" d="M836,-871.69C836,-861.89 836,-849.42 836,-838.33"/>
<polygon fill="grey" stroke="grey" stroke-width="2" points="839.5,-838.26 836,-828.26 832.5,-838.26 839.5,-838.26"/>
</g>
<!-- 14&#45;&gt;13 -->
<g id="edge20" class="edge">
<title>14&#45;&gt;13</title>
<path fill="none" stroke="grey" stroke-width="2" d="M878.02,-951.69C870.88,-941.39 861.7,-928.13 853.75,-916.63"/>
<polygon fill="grey" stroke="grey" stroke-width="2" points="856.52,-914.49 847.95,-908.26 850.77,-918.48 856.52,-914.49"/>
</g>
<!-- 15 -->
<g id="node16" class="node">
<title>15</title>
<path fill="none" stroke="#d8c356" stroke-width="2" d="M892.5,-1060C892.5,-1060 829.5,-1060 829.5,-1060 823.5,-1060 817.5,-1054 817.5,-1048 817.5,-1048 817.5,-1036 817.5,-1036 817.5,-1030 823.5,-1024 829.5,-1024 829.5,-1024 892.5,-1024 892.5,-1024 898.5,-1024 904.5,-1030 904.5,-1036 904.5,-1036 904.5,-1048 904.5,-1048 904.5,-1054 898.5,-1060 892.5,-1060"/>
<text text-anchor="middle" x="861" y="-1039.5" font-family="sans" font-size="10.00">flye_assembly</text>
</g>
<!-- 15&#45;&gt;13 -->
<g id="edge22" class="edge">
<title>15&#45;&gt;13</title>
<path fill="none" stroke="grey" stroke-width="2" d="M833.2,-1023.87C821.23,-1014.84 808.5,-1002.59 802,-988 791.48,-964.4 803.74,-936.46 816.38,-916.64"/>
<polygon fill="grey" stroke="grey" stroke-width="2" points="819.42,-918.39 822.13,-908.15 813.62,-914.47 819.42,-918.39"/>
</g>
<!-- 15&#45;&gt;14 -->
<g id="edge25" class="edge">
<title>15&#45;&gt;14</title>
<path fill="none" stroke="grey" stroke-width="2" d="M868.17,-1023.7C871.43,-1015.81 875.37,-1006.3 879,-997.55"/>
<polygon fill="grey" stroke="grey" stroke-width="2" points="882.32,-998.68 882.91,-988.1 875.85,-996 882.32,-998.68"/>
</g>
<!-- 22 -->
<g id="node23" class="node">
<title>22</title>
<path fill="none" stroke="#61d856" stroke-width="2" d="M742.5,-988C742.5,-988 631.5,-988 631.5,-988 625.5,-988 619.5,-982 619.5,-976 619.5,-976 619.5,-964 619.5,-964 619.5,-958 625.5,-952 631.5,-952 631.5,-952 742.5,-952 742.5,-952 748.5,-952 754.5,-958 754.5,-964 754.5,-964 754.5,-976 754.5,-976 754.5,-982 748.5,-988 742.5,-988"/>
<text text-anchor="middle" x="687" y="-967.5" font-family="sans" font-size="10.00">align_ont_ont_assembly</text>
</g>
<!-- 15&#45;&gt;22 -->
<g id="edge34" class="edge">
<title>15&#45;&gt;22</title>
<path fill="none" stroke="grey" stroke-width="2" d="M818.43,-1023.88C794.44,-1014.22 764.27,-1002.09 738.9,-991.88"/>
<polygon fill="grey" stroke="grey" stroke-width="2" points="740.01,-988.55 729.43,-988.07 737.4,-995.05 740.01,-988.55"/>
</g>
<!-- 15&#45;&gt;23 -->
<g id="edge36" class="edge">
<title>15&#45;&gt;23</title>
<path fill="none" stroke="grey" stroke-width="2" d="M901.85,-1023.88C924.78,-1014.26 953.58,-1002.19 977.87,-992.01"/>
<polygon fill="grey" stroke="grey" stroke-width="2" points="979.41,-995.16 987.28,-988.07 976.7,-988.71 979.41,-995.16"/>
</g>
<!-- 16 -->
<g id="node17" class="node">
<title>16</title>
<path fill="none" stroke="#d8b456" stroke-width="2" d="M903,-1132C903,-1132 819,-1132 819,-1132 813,-1132 807,-1126 807,-1120 807,-1120 807,-1108 807,-1108 807,-1102 813,-1096 819,-1096 819,-1096 903,-1096 903,-1096 909,-1096 915,-1102 915,-1108 915,-1108 915,-1120 915,-1120 915,-1126 909,-1132 903,-1132"/>
<text text-anchor="middle" x="861" y="-1111.5" font-family="sans" font-size="10.00">format_long_reads</text>
</g>
<!-- 16&#45;&gt;15 -->
<g id="edge26" class="edge">
<title>16&#45;&gt;15</title>
<path fill="none" stroke="grey" stroke-width="2" d="M861,-1095.7C861,-1087.98 861,-1078.71 861,-1070.11"/>
<polygon fill="grey" stroke="grey" stroke-width="2" points="864.5,-1070.1 861,-1060.1 857.5,-1070.1 864.5,-1070.1"/>
</g>
<!-- 17&#45;&gt;16 -->
<g id="edge27" class="edge">
<title>17&#45;&gt;16</title>
<path fill="none" stroke="grey" stroke-width="2" d="M861,-1167.7C861,-1159.98 861,-1150.71 861,-1142.11"/>
<polygon fill="grey" stroke="grey" stroke-width="2" points="864.5,-1142.1 861,-1132.1 857.5,-1142.1 864.5,-1142.1"/>
</g>
<!-- 18 -->
<g id="node19" class="node">
<title>18</title>
<path fill="none" stroke="#56d87b" stroke-width="2" d="M890.5,-1276C890.5,-1276 801.5,-1276 801.5,-1276 795.5,-1276 789.5,-1270 789.5,-1264 789.5,-1264 789.5,-1252 789.5,-1252 789.5,-1246 795.5,-1240 801.5,-1240 801.5,-1240 890.5,-1240 890.5,-1240 896.5,-1240 902.5,-1246 902.5,-1252 902.5,-1252 902.5,-1264 902.5,-1264 902.5,-1270 896.5,-1276 890.5,-1276"/>
<text text-anchor="middle" x="846" y="-1255.5" font-family="sans" font-size="10.00">fastq_to_fasta_ONT</text>
</g>
<!-- 18&#45;&gt;17 -->
<g id="edge28" class="edge">
<title>18&#45;&gt;17</title>
<path fill="none" stroke="grey" stroke-width="2" d="M849.71,-1239.7C851.36,-1231.98 853.35,-1222.71 855.19,-1214.11"/>
<polygon fill="grey" stroke="grey" stroke-width="2" points="858.66,-1214.62 857.33,-1204.1 851.82,-1213.15 858.66,-1214.62"/>
</g>
<!-- 19 -->
<g id="node20" class="node">
<title>19</title>
<path fill="none" stroke="#56c9d8" stroke-width="2" d="M848,-1356C848,-1356 784,-1356 784,-1356 778,-1356 772,-1350 772,-1344 772,-1344 772,-1332 772,-1332 772,-1326 778,-1320 784,-1320 784,-1320 848,-1320 848,-1320 854,-1320 860,-1326 860,-1332 860,-1332 860,-1344 860,-1344 860,-1350 854,-1356 848,-1356"/>
<text text-anchor="middle" x="816" y="-1335.5" font-family="sans" font-size="10.00">combine_units</text>
</g>
<!-- 19&#45;&gt;18 -->
<g id="edge30" class="edge">
<title>19&#45;&gt;18</title>
<path fill="none" stroke="grey" stroke-width="2" d="M822.66,-1319.69C826.5,-1309.69 831.42,-1296.91 835.75,-1285.65"/>
<polygon fill="grey" stroke="grey" stroke-width="2" points="839.04,-1286.85 839.36,-1276.26 832.5,-1284.34 839.04,-1286.85"/>
</g>
<!-- 19&#45;&gt;22 -->
<g id="edge33" class="edge">
<title>19&#45;&gt;22</title>
<path fill="none" stroke="grey" stroke-width="2" d="M790.7,-1319.93C757.11,-1295 702,-1245.22 702,-1187 702,-1187 702,-1187 702,-1113 702,-1072.99 696.04,-1027 691.63,-998.46"/>
<polygon fill="grey" stroke="grey" stroke-width="2" points="695.06,-997.75 690.04,-988.43 688.15,-998.85 695.06,-997.75"/>
</g>
<!-- 20 -->
<g id="node21" class="node">
<title>20</title>
<path fill="none" stroke="#8fd856" stroke-width="2" d="M875.5,-1452C875.5,-1452 756.5,-1452 756.5,-1452 750.5,-1452 744.5,-1446 744.5,-1440 744.5,-1440 744.5,-1412 744.5,-1412 744.5,-1406 750.5,-1400 756.5,-1400 756.5,-1400 875.5,-1400 875.5,-1400 881.5,-1400 887.5,-1406 887.5,-1412 887.5,-1412 887.5,-1440 887.5,-1440 887.5,-1446 881.5,-1452 875.5,-1452"/>
<text text-anchor="middle" x="816" y="-1440" font-family="sans" font-size="10.00">sra_to_fq</text>
<text text-anchor="middle" x="816" y="-1429" font-family="sans" font-size="10.00">libname: CM01_1.fastq.gz</text>
<text text-anchor="middle" x="816" y="-1418" font-family="sans" font-size="10.00">libtype: long_reads</text>
<text text-anchor="middle" x="816" y="-1407" font-family="sans" font-size="10.00">strain: C3</text>
</g>
<!-- 20&#45;&gt;19 -->
<g id="edge31" class="edge">
<title>20&#45;&gt;19</title>
<path fill="none" stroke="grey" stroke-width="2" d="M816,-1399.66C816,-1389.11 816,-1376.84 816,-1366.1"/>
<polygon fill="grey" stroke="grey" stroke-width="2" points="819.5,-1366 816,-1356 812.5,-1366 819.5,-1366"/>
</g>
<!-- 21 -->
<g id="node22" class="node">
<title>21</title>
<path fill="none" stroke="#56d863" stroke-width="2" d="M857.5,-1524C857.5,-1524 774.5,-1524 774.5,-1524 768.5,-1524 762.5,-1518 762.5,-1512 762.5,-1512 762.5,-1500 762.5,-1500 762.5,-1494 768.5,-1488 774.5,-1488 774.5,-1488 857.5,-1488 857.5,-1488 863.5,-1488 869.5,-1494 869.5,-1500 869.5,-1500 869.5,-1512 869.5,-1512 869.5,-1518 863.5,-1524 857.5,-1524"/>
<text text-anchor="middle" x="816" y="-1509" font-family="sans" font-size="10.00">dl_sra</text>
<text text-anchor="middle" x="816" y="-1498" font-family="sans" font-size="10.00">acc: SRR15928344</text>
</g>
<!-- 21&#45;&gt;20 -->
<g id="edge32" class="edge">
<title>21&#45;&gt;20</title>
<path fill="none" stroke="grey" stroke-width="2" d="M816,-1487.69C816,-1480.21 816,-1471.16 816,-1462.36"/>
<polygon fill="grey" stroke="grey" stroke-width="2" points="819.5,-1462.26 816,-1452.26 812.5,-1462.26 819.5,-1462.26"/>
</g>
<!-- 22&#45;&gt;13 -->
<g id="edge21" class="edge">
<title>22&#45;&gt;13</title>
<path fill="none" stroke="grey" stroke-width="2" d="M719.7,-951.88C741.63,-940.4 770.71,-925.18 794.3,-912.83"/>
<polygon fill="grey" stroke="grey" stroke-width="2" points="796.14,-915.82 803.38,-908.08 792.89,-909.61 796.14,-915.82"/>
</g>
<!-- 23&#45;&gt;13 -->
<g id="edge23" class="edge">
<title>23&#45;&gt;13</title>
<path fill="none" stroke="grey" stroke-width="2" d="M986.81,-952.27C957.75,-940.46 918.62,-924.56 887.5,-911.92"/>
<polygon fill="grey" stroke="grey" stroke-width="2" points="888.7,-908.63 878.12,-908.11 886.06,-915.12 888.7,-908.63"/>
</g>
<!-- 24&#45;&gt;11 -->
<g id="edge18" class="edge">
<title>24&#45;&gt;11</title>
<path fill="none" stroke="grey" stroke-width="2" d="M782.3,-647.7C790.86,-639.14 801.34,-628.66 810.7,-619.3"/>
<polygon fill="grey" stroke="grey" stroke-width="2" points="813.3,-621.65 817.9,-612.1 808.35,-616.7 813.3,-621.65"/>
</g>
<!-- 25&#45;&gt;24 -->
<g id="edge38" class="edge">
<title>25&#45;&gt;24</title>
<path fill="none" stroke="grey" stroke-width="2" d="M734.13,-719.7C738.85,-711.64 744.56,-701.89 749.78,-692.98"/>
<polygon fill="grey" stroke="grey" stroke-width="2" points="752.95,-694.5 754.98,-684.1 746.91,-690.96 752.95,-694.5"/>
</g>
<!-- 26 -->
<g id="node27" class="node">
<title>26</title>
<path fill="none" stroke="#56c9d8" stroke-width="2" d="M435,-828C435,-828 371,-828 371,-828 365,-828 359,-822 359,-816 359,-816 359,-804 359,-804 359,-798 365,-792 371,-792 371,-792 435,-792 435,-792 441,-792 447,-798 447,-804 447,-804 447,-816 447,-816 447,-822 441,-828 435,-828"/>
<text text-anchor="middle" x="403" y="-807.5" font-family="sans" font-size="10.00">combine_units</text>
</g>
<!-- 26&#45;&gt;25 -->
<g id="edge39" class="edge">
<title>26&#45;&gt;25</title>
<path fill="none" stroke="grey" stroke-width="2" d="M447.3,-799.34C499.29,-788 586.36,-769.01 648.95,-755.37"/>
<polygon fill="grey" stroke="grey" stroke-width="2" points="649.76,-758.77 658.78,-753.22 648.26,-751.93 649.76,-758.77"/>
</g>
<!-- 27 -->
<g id="node28" class="node">
<title>27</title>
<path fill="none" stroke="#8fd856" stroke-width="2" d="M298,-916C298,-916 176,-916 176,-916 170,-916 164,-910 164,-904 164,-904 164,-876 164,-876 164,-870 170,-864 176,-864 176,-864 298,-864 298,-864 304,-864 310,-870 310,-876 310,-876 310,-904 310,-904 310,-910 304,-916 298,-916"/>
<text text-anchor="middle" x="237" y="-904" font-family="sans" font-size="10.00">sra_to_fq</text>
<text text-anchor="middle" x="237" y="-893" font-family="sans" font-size="10.00">libname: AT337_1.fastq.gz</text>
<text text-anchor="middle" x="237" y="-882" font-family="sans" font-size="10.00">libtype: hic</text>
<text text-anchor="middle" x="237" y="-871" font-family="sans" font-size="10.00">strain: C3</text>
</g>
<!-- 27&#45;&gt;26 -->
<g id="edge41" class="edge">
<title>27&#45;&gt;26</title>
<path fill="none" stroke="grey" stroke-width="2" d="M290.44,-863.89C312.05,-853.73 336.75,-842.13 357.49,-832.39"/>
<polygon fill="grey" stroke="grey" stroke-width="2" points="359.15,-835.47 366.71,-828.05 356.17,-829.14 359.15,-835.47"/>
</g>
<!-- 28 -->
<g id="node29" class="node">
<title>28</title>
<path fill="none" stroke="#56d863" stroke-width="2" d="M278.5,-988C278.5,-988 195.5,-988 195.5,-988 189.5,-988 183.5,-982 183.5,-976 183.5,-976 183.5,-964 183.5,-964 183.5,-958 189.5,-952 195.5,-952 195.5,-952 278.5,-952 278.5,-952 284.5,-952 290.5,-958 290.5,-964 290.5,-964 290.5,-976 290.5,-976 290.5,-982 284.5,-988 278.5,-988"/>
<text text-anchor="middle" x="237" y="-973" font-family="sans" font-size="10.00">dl_sra</text>
<text text-anchor="middle" x="237" y="-962" font-family="sans" font-size="10.00">acc: SRR15928353</text>
</g>
<!-- 28&#45;&gt;27 -->
<g id="edge45" class="edge">
<title>28&#45;&gt;27</title>
<path fill="none" stroke="grey" stroke-width="2" d="M237,-951.69C237,-944.21 237,-935.16 237,-926.36"/>
<polygon fill="grey" stroke="grey" stroke-width="2" points="240.5,-926.26 237,-916.26 233.5,-926.26 240.5,-926.26"/>
</g>
<!-- 29 -->
<g id="node30" class="node">
<title>29</title>
<path fill="none" stroke="#8fd856" stroke-width="2" d="M465.5,-916C465.5,-916 340.5,-916 340.5,-916 334.5,-916 328.5,-910 328.5,-904 328.5,-904 328.5,-876 328.5,-876 328.5,-870 334.5,-864 340.5,-864 340.5,-864 465.5,-864 465.5,-864 471.5,-864 477.5,-870 477.5,-876 477.5,-876 477.5,-904 477.5,-904 477.5,-910 471.5,-916 465.5,-916"/>
<text text-anchor="middle" x="403" y="-904" font-family="sans" font-size="10.00">sra_to_fq</text>
<text text-anchor="middle" x="403" y="-893" font-family="sans" font-size="10.00">libname: PM106_1.fastq.gz</text>
<text text-anchor="middle" x="403" y="-882" font-family="sans" font-size="10.00">libtype: hic</text>
<text text-anchor="middle" x="403" y="-871" font-family="sans" font-size="10.00">strain: C3</text>
</g>
<!-- 29&#45;&gt;26 -->
<g id="edge42" class="edge">
<title>29&#45;&gt;26</title>
<path fill="none" stroke="grey" stroke-width="2" d="M403,-863.89C403,-855.84 403,-846.88 403,-838.66"/>
<polygon fill="grey" stroke="grey" stroke-width="2" points="406.5,-838.41 403,-828.41 399.5,-838.41 406.5,-838.41"/>
</g>
<!-- 30 -->
<g id="node31" class="node">
<title>30</title>
<path fill="none" stroke="#56d863" stroke-width="2" d="M444.5,-988C444.5,-988 361.5,-988 361.5,-988 355.5,-988 349.5,-982 349.5,-976 349.5,-976 349.5,-964 349.5,-964 349.5,-958 355.5,-952 361.5,-952 361.5,-952 444.5,-952 444.5,-952 450.5,-952 456.5,-958 456.5,-964 456.5,-964 456.5,-976 456.5,-976 456.5,-982 450.5,-988 444.5,-988"/>
<text text-anchor="middle" x="403" y="-973" font-family="sans" font-size="10.00">dl_sra</text>
<text text-anchor="middle" x="403" y="-962" font-family="sans" font-size="10.00">acc: SRR15928352</text>
</g>
<!-- 30&#45;&gt;29 -->
<g id="edge46" class="edge">
<title>30&#45;&gt;29</title>
<path fill="none" stroke="grey" stroke-width="2" d="M403,-951.69C403,-944.21 403,-935.16 403,-926.36"/>
<polygon fill="grey" stroke="grey" stroke-width="2" points="406.5,-926.26 403,-916.26 399.5,-926.26 406.5,-926.26"/>
</g>
<!-- 31 -->
<g id="node32" class="node">
<title>31</title>
<path fill="none" stroke="#8fd856" stroke-width="2" d="M630,-916C630,-916 508,-916 508,-916 502,-916 496,-910 496,-904 496,-904 496,-876 496,-876 496,-870 502,-864 508,-864 508,-864 630,-864 630,-864 636,-864 642,-870 642,-876 642,-876 642,-904 642,-904 642,-910 636,-916 630,-916"/>
<text text-anchor="middle" x="569" y="-904" font-family="sans" font-size="10.00">sra_to_fq</text>
<text text-anchor="middle" x="569" y="-893" font-family="sans" font-size="10.00">libname: AT407_1.fastq.gz</text>
<text text-anchor="middle" x="569" y="-882" font-family="sans" font-size="10.00">libtype: hic</text>
<text text-anchor="middle" x="569" y="-871" font-family="sans" font-size="10.00">strain: C3</text>
</g>
<!-- 31&#45;&gt;26 -->
<g id="edge43" class="edge">
<title>31&#45;&gt;26</title>
<path fill="none" stroke="grey" stroke-width="2" d="M515.56,-863.89C493.95,-853.73 469.25,-842.13 448.51,-832.39"/>
<polygon fill="grey" stroke="grey" stroke-width="2" points="449.83,-829.14 439.29,-828.05 446.85,-835.47 449.83,-829.14"/>
</g>
<!-- 32 -->
<g id="node33" class="node">
<title>32</title>
<path fill="none" stroke="#56d863" stroke-width="2" d="M589.5,-988C589.5,-988 506.5,-988 506.5,-988 500.5,-988 494.5,-982 494.5,-976 494.5,-976 494.5,-964 494.5,-964 494.5,-958 500.5,-952 506.5,-952 506.5,-952 589.5,-952 589.5,-952 595.5,-952 601.5,-958 601.5,-964 601.5,-964 601.5,-976 601.5,-976 601.5,-982 595.5,-988 589.5,-988"/>
<text text-anchor="middle" x="548" y="-973" font-family="sans" font-size="10.00">dl_sra</text>
<text text-anchor="middle" x="548" y="-962" font-family="sans" font-size="10.00">acc: SRR15928338</text>
</g>
<!-- 32&#45;&gt;31 -->
<g id="edge47" class="edge">
<title>32&#45;&gt;31</title>
<path fill="none" stroke="grey" stroke-width="2" d="M552.66,-951.69C554.7,-944.12 557.16,-934.96 559.56,-926.07"/>
<polygon fill="grey" stroke="grey" stroke-width="2" points="562.98,-926.82 562.2,-916.26 556.22,-925 562.98,-926.82"/>
</g>
<!-- 33 -->
<g id="node34" class="node">
<title>33</title>
<path fill="none" stroke="#8fd856" stroke-width="2" d="M134,-916C134,-916 12,-916 12,-916 6,-916 0,-910 0,-904 0,-904 0,-876 0,-876 0,-870 6,-864 12,-864 12,-864 134,-864 134,-864 140,-864 146,-870 146,-876 146,-876 146,-904 146,-904 146,-910 140,-916 134,-916"/>
<text text-anchor="middle" x="73" y="-904" font-family="sans" font-size="10.00">sra_to_fq</text>
<text text-anchor="middle" x="73" y="-893" font-family="sans" font-size="10.00">libname: AT408_1.fastq.gz</text>
<text text-anchor="middle" x="73" y="-882" font-family="sans" font-size="10.00">libtype: hic</text>
<text text-anchor="middle" x="73" y="-871" font-family="sans" font-size="10.00">strain: C3</text>
</g>
<!-- 33&#45;&gt;26 -->
<g id="edge44" class="edge">
<title>33&#45;&gt;26</title>
<path fill="none" stroke="grey" stroke-width="2" d="M146.23,-866.34C149.19,-865.53 152.12,-864.75 155,-864 221.19,-846.87 298.34,-831.02 348.8,-821.2"/>
<polygon fill="grey" stroke="grey" stroke-width="2" points="349.68,-824.59 358.83,-819.26 348.35,-817.72 349.68,-824.59"/>
</g>
<!-- 34 -->
<g id="node35" class="node">
<title>34</title>
<path fill="none" stroke="#56d863" stroke-width="2" d="M114.5,-988C114.5,-988 31.5,-988 31.5,-988 25.5,-988 19.5,-982 19.5,-976 19.5,-976 19.5,-964 19.5,-964 19.5,-958 25.5,-952 31.5,-952 31.5,-952 114.5,-952 114.5,-952 120.5,-952 126.5,-958 126.5,-964 126.5,-964 126.5,-976 126.5,-976 126.5,-982 120.5,-988 114.5,-988"/>
<text text-anchor="middle" x="73" y="-973" font-family="sans" font-size="10.00">dl_sra</text>
<text text-anchor="middle" x="73" y="-962" font-family="sans" font-size="10.00">acc: SRR15928337</text>
</g>
<!-- 34&#45;&gt;33 -->
<g id="edge48" class="edge">
<title>34&#45;&gt;33</title>
<path fill="none" stroke="grey" stroke-width="2" d="M73,-951.69C73,-944.21 73,-935.16 73,-926.36"/>
<polygon fill="grey" stroke="grey" stroke-width="2" points="76.5,-926.26 73,-916.26 69.5,-926.26 76.5,-926.26"/>
</g>
<!-- 35 -->
<g id="node36" class="node">
<title>35</title>
<path fill="none" stroke="#d88556" stroke-width="2" d="M1622.5,-108C1622.5,-108 1471.5,-108 1471.5,-108 1465.5,-108 1459.5,-102 1459.5,-96 1459.5,-96 1459.5,-84 1459.5,-84 1459.5,-78 1465.5,-72 1471.5,-72 1471.5,-72 1622.5,-72 1622.5,-72 1628.5,-72 1634.5,-78 1634.5,-84 1634.5,-84 1634.5,-96 1634.5,-96 1634.5,-102 1628.5,-108 1622.5,-108"/>
<text text-anchor="middle" x="1547" y="-87.5" font-family="sans" font-size="10.00">post_hic_pilon_polishing_round2</text>
</g>
<!-- 35&#45;&gt;0 -->
<g id="edge2" class="edge">
<title>35&#45;&gt;0</title>
<path fill="none" stroke="grey" stroke-width="2" d="M1473.27,-71.97C1412.39,-57.9 1328.54,-38.53 1280.94,-27.53"/>
<polygon fill="grey" stroke="grey" stroke-width="2" points="1281.6,-24.09 1271.07,-25.25 1280.03,-30.92 1281.6,-24.09"/>
</g>
<!-- 36 -->
<g id="node37" class="node">
<title>36</title>
<path fill="none" stroke="#566bd8" stroke-width="2" d="M1763,-180C1763,-180 1587,-180 1587,-180 1581,-180 1575,-174 1575,-168 1575,-168 1575,-156 1575,-156 1575,-150 1581,-144 1587,-144 1587,-144 1763,-144 1763,-144 1769,-144 1775,-150 1775,-156 1775,-156 1775,-168 1775,-168 1775,-174 1769,-180 1763,-180"/>
<text text-anchor="middle" x="1675" y="-159.5" font-family="sans" font-size="10.00">index_shotgun_bam_pilon_3c_round2</text>
</g>
<!-- 36&#45;&gt;35 -->
<g id="edge49" class="edge">
<title>36&#45;&gt;35</title>
<path fill="none" stroke="grey" stroke-width="2" d="M1643.69,-143.88C1626.8,-134.64 1605.75,-123.13 1587.62,-113.21"/>
<polygon fill="grey" stroke="grey" stroke-width="2" points="1588.89,-109.92 1578.43,-108.19 1585.53,-116.06 1588.89,-109.92"/>
</g>
<!-- 37 -->
<g id="node38" class="node">
<title>37</title>
<path fill="none" stroke="#569ad8" stroke-width="2" d="M1759.5,-252C1759.5,-252 1590.5,-252 1590.5,-252 1584.5,-252 1578.5,-246 1578.5,-240 1578.5,-240 1578.5,-228 1578.5,-228 1578.5,-222 1584.5,-216 1590.5,-216 1590.5,-216 1759.5,-216 1759.5,-216 1765.5,-216 1771.5,-222 1771.5,-228 1771.5,-228 1771.5,-240 1771.5,-240 1771.5,-246 1765.5,-252 1759.5,-252"/>
<text text-anchor="middle" x="1675" y="-231.5" font-family="sans" font-size="10.00">align_shotgun_3c_assembly_round2</text>
</g>
<!-- 37&#45;&gt;36 -->
<g id="edge51" class="edge">
<title>37&#45;&gt;36</title>
<path fill="none" stroke="grey" stroke-width="2" d="M1675,-215.7C1675,-207.98 1675,-198.71 1675,-190.11"/>
<polygon fill="grey" stroke="grey" stroke-width="2" points="1678.5,-190.1 1675,-180.1 1671.5,-190.1 1678.5,-190.1"/>
</g>
<!-- 38 -->
<g id="node39" class="node">
<title>38</title>
<path fill="none" stroke="#56c9d8" stroke-width="2" d="M1729,-1276C1729,-1276 1665,-1276 1665,-1276 1659,-1276 1653,-1270 1653,-1264 1653,-1264 1653,-1252 1653,-1252 1653,-1246 1659,-1240 1665,-1240 1665,-1240 1729,-1240 1729,-1240 1735,-1240 1741,-1246 1741,-1252 1741,-1252 1741,-1264 1741,-1264 1741,-1270 1735,-1276 1729,-1276"/>
<text text-anchor="middle" x="1697" y="-1255.5" font-family="sans" font-size="10.00">combine_units</text>
</g>
<!-- 38&#45;&gt;37 -->
<g id="edge52" class="edge">
<title>38&#45;&gt;37</title>
<path fill="none" stroke="grey" stroke-width="2" d="M1721.82,-1239.98C1753.43,-1216.07 1804,-1169.33 1804,-1115 1804,-1115 1804,-1115 1804,-377 1804,-323.81 1753.8,-281.72 1716.03,-257.58"/>
<polygon fill="grey" stroke="grey" stroke-width="2" points="1717.56,-254.42 1707.22,-252.13 1713.88,-260.37 1717.56,-254.42"/>
</g>
<!-- 45 -->
<g id="node46" class="node">
<title>45</title>
<path fill="none" stroke="#d89c56" stroke-width="2" d="M1731,-468C1731,-468 1601,-468 1601,-468 1595,-468 1589,-462 1589,-456 1589,-456 1589,-444 1589,-444 1589,-438 1595,-432 1601,-432 1601,-432 1731,-432 1731,-432 1737,-432 1743,-438 1743,-444 1743,-444 1743,-456 1743,-456 1743,-462 1737,-468 1731,-468"/>
<text text-anchor="middle" x="1666" y="-447.5" font-family="sans" font-size="10.00">align_shotgun_3c_assembly</text>
</g>
<!-- 38&#45;&gt;45 -->
<g id="edge61" class="edge">
<title>38&#45;&gt;45</title>
<path fill="none" stroke="grey" stroke-width="2" d="M1711.63,-1239.93C1731.89,-1214.5 1766,-1164.34 1766,-1115 1766,-1115 1766,-1115 1766,-593 1766,-544.49 1726.51,-500.87 1697.16,-475.16"/>
<polygon fill="grey" stroke="grey" stroke-width="2" points="1699.08,-472.19 1689.19,-468.39 1694.55,-477.53 1699.08,-472.19"/>
</g>
<!-- 50 -->
<g id="node51" class="node">
<title>50</title>
<path fill="none" stroke="#56d892" stroke-width="2" d="M1626,-988C1626,-988 1492,-988 1492,-988 1486,-988 1480,-982 1480,-976 1480,-976 1480,-964 1480,-964 1480,-958 1486,-952 1492,-952 1492,-952 1626,-952 1626,-952 1632,-952 1638,-958 1638,-964 1638,-964 1638,-976 1638,-976 1638,-982 1632,-988 1626,-988"/>
<text text-anchor="middle" x="1559" y="-967.5" font-family="sans" font-size="10.00">align_shotgun_ont_assembly</text>
</g>
<!-- 38&#45;&gt;50 -->
<g id="edge72" class="edge">
<title>38&#45;&gt;50</title>
<path fill="none" stroke="grey" stroke-width="2" d="M1688.78,-1239.97C1665.63,-1191.99 1599.77,-1055.5 1571.81,-997.54"/>
<polygon fill="grey" stroke="grey" stroke-width="2" points="1574.85,-995.79 1567.35,-988.31 1568.54,-998.83 1574.85,-995.79"/>
</g>
<!-- 53 -->
<g id="node54" class="node">
<title>53</title>
<path fill="none" stroke="#56b1d8" stroke-width="2" d="M1543,-1204C1543,-1204 1469,-1204 1469,-1204 1463,-1204 1457,-1198 1457,-1192 1457,-1192 1457,-1180 1457,-1180 1457,-1174 1463,-1168 1469,-1168 1469,-1168 1543,-1168 1543,-1168 1549,-1168 1555,-1174 1555,-1180 1555,-1180 1555,-1192 1555,-1192 1555,-1198 1549,-1204 1543,-1204"/>
<text text-anchor="middle" x="1506" y="-1183.5" font-family="sans" font-size="10.00">filter_long_reads</text>
</g>
<!-- 38&#45;&gt;53 -->
<g id="edge77" class="edge">
<title>38&#45;&gt;53</title>
<path fill="none" stroke="grey" stroke-width="2" d="M1652.7,-1240.76C1625.67,-1230.86 1590.87,-1218.11 1561.95,-1207.51"/>
<polygon fill="grey" stroke="grey" stroke-width="2" points="1562.98,-1204.16 1552.39,-1204 1560.57,-1210.73 1562.98,-1204.16"/>
</g>
<!-- 61 -->
<g id="node62" class="node">
<title>61</title>
<path fill="none" stroke="#d6d856" stroke-width="2" d="M1726,-988C1726,-988 1668,-988 1668,-988 1662,-988 1656,-982 1656,-976 1656,-976 1656,-964 1656,-964 1656,-958 1662,-952 1668,-952 1668,-952 1726,-952 1726,-952 1732,-952 1738,-958 1738,-964 1738,-964 1738,-976 1738,-976 1738,-982 1732,-988 1726,-988"/>
<text text-anchor="middle" x="1697" y="-967.5" font-family="sans" font-size="10.00">compute_cov</text>
</g>
<!-- 38&#45;&gt;61 -->
<g id="edge85" class="edge">
<title>38&#45;&gt;61</title>
<path fill="none" stroke="grey" stroke-width="2" d="M1697,-1239.97C1697,-1192.29 1697,-1057.18 1697,-998.63"/>
<polygon fill="grey" stroke="grey" stroke-width="2" points="1700.5,-998.31 1697,-988.31 1693.5,-998.31 1700.5,-998.31"/>
</g>
<!-- 39 -->
<g id="node40" class="node">
<title>39</title>
<path fill="none" stroke="#8fd856" stroke-width="2" d="M1956,-1364C1956,-1364 1834,-1364 1834,-1364 1828,-1364 1822,-1358 1822,-1352 1822,-1352 1822,-1324 1822,-1324 1822,-1318 1828,-1312 1834,-1312 1834,-1312 1956,-1312 1956,-1312 1962,-1312 1968,-1318 1968,-1324 1968,-1324 1968,-1352 1968,-1352 1968,-1358 1962,-1364 1956,-1364"/>
<text text-anchor="middle" x="1895" y="-1352" font-family="sans" font-size="10.00">sra_to_fq</text>
<text text-anchor="middle" x="1895" y="-1341" font-family="sans" font-size="10.00">libname: AT463_1.fastq.gz</text>
<text text-anchor="middle" x="1895" y="-1330" font-family="sans" font-size="10.00">libtype: shotgun</text>
<text text-anchor="middle" x="1895" y="-1319" font-family="sans" font-size="10.00">strain: Neff</text>
</g>
<!-- 39&#45;&gt;38 -->
<g id="edge54" class="edge">
<title>39&#45;&gt;38</title>
<path fill="none" stroke="grey" stroke-width="2" d="M1831.53,-1312C1805.16,-1301.61 1774.9,-1289.69 1749.76,-1279.79"/>
<polygon fill="grey" stroke="grey" stroke-width="2" points="1750.99,-1276.51 1740.4,-1276.1 1748.42,-1283.02 1750.99,-1276.51"/>
</g>
<!-- 40 -->
<g id="node41" class="node">
<title>40</title>
<path fill="none" stroke="#56d863" stroke-width="2" d="M1936.5,-1444C1936.5,-1444 1853.5,-1444 1853.5,-1444 1847.5,-1444 1841.5,-1438 1841.5,-1432 1841.5,-1432 1841.5,-1420 1841.5,-1420 1841.5,-1414 1847.5,-1408 1853.5,-1408 1853.5,-1408 1936.5,-1408 1936.5,-1408 1942.5,-1408 1948.5,-1414 1948.5,-1420 1948.5,-1420 1948.5,-1432 1948.5,-1432 1948.5,-1438 1942.5,-1444 1936.5,-1444"/>
<text text-anchor="middle" x="1895" y="-1429" font-family="sans" font-size="10.00">dl_sra</text>
<text text-anchor="middle" x="1895" y="-1418" font-family="sans" font-size="10.00">acc: SRR15928354</text>
</g>
<!-- 40&#45;&gt;39 -->
<g id="edge56" class="edge">
<title>40&#45;&gt;39</title>
<path fill="none" stroke="grey" stroke-width="2" d="M1895,-1407.6C1895,-1398.05 1895,-1385.86 1895,-1374.41"/>
<polygon fill="grey" stroke="grey" stroke-width="2" points="1898.5,-1374.2 1895,-1364.2 1891.5,-1374.2 1898.5,-1374.2"/>
</g>
<!-- 41 -->
<g id="node42" class="node">
<title>41</title>
<path fill="none" stroke="#8fd856" stroke-width="2" d="M1792,-1364C1792,-1364 1548,-1364 1548,-1364 1542,-1364 1536,-1358 1536,-1352 1536,-1352 1536,-1324 1536,-1324 1536,-1318 1542,-1312 1548,-1312 1548,-1312 1792,-1312 1792,-1312 1798,-1312 1804,-1318 1804,-1324 1804,-1324 1804,-1352 1804,-1352 1804,-1358 1798,-1364 1792,-1364"/>
<text text-anchor="middle" x="1670" y="-1352" font-family="sans" font-size="10.00">sra_to_fq</text>
<text text-anchor="middle" x="1670" y="-1341" font-family="sans" font-size="10.00">libname: Acas_gDNA_Illumina_PairNtrim_1.fastq.gz</text>
<text text-anchor="middle" x="1670" y="-1330" font-family="sans" font-size="10.00">libtype: shotgun</text>
<text text-anchor="middle" x="1670" y="-1319" font-family="sans" font-size="10.00">strain: Neff</text>
</g>
<!-- 41&#45;&gt;38 -->
<g id="edge55" class="edge">
<title>41&#45;&gt;38</title>
<path fill="none" stroke="grey" stroke-width="2" d="M1678.69,-1311.89C1681.54,-1303.66 1684.72,-1294.48 1687.62,-1286.1"/>
<polygon fill="grey" stroke="grey" stroke-width="2" points="1691.01,-1287.01 1690.97,-1276.41 1684.39,-1284.72 1691.01,-1287.01"/>
</g>
<!-- 42 -->
<g id="node43" class="node">
<title>42</title>
<path fill="none" stroke="#56d863" stroke-width="2" d="M1708.5,-1444C1708.5,-1444 1631.5,-1444 1631.5,-1444 1625.5,-1444 1619.5,-1438 1619.5,-1432 1619.5,-1432 1619.5,-1420 1619.5,-1420 1619.5,-1414 1625.5,-1408 1631.5,-1408 1631.5,-1408 1708.5,-1408 1708.5,-1408 1714.5,-1408 1720.5,-1414 1720.5,-1420 1720.5,-1420 1720.5,-1432 1720.5,-1432 1720.5,-1438 1714.5,-1444 1708.5,-1444"/>
<text text-anchor="middle" x="1670" y="-1429" font-family="sans" font-size="10.00">dl_sra</text>
<text text-anchor="middle" x="1670" y="-1418" font-family="sans" font-size="10.00">acc: SRR7769837</text>
</g>
<!-- 42&#45;&gt;41 -->
<g id="edge57" class="edge">
<title>42&#45;&gt;41</title>
<path fill="none" stroke="grey" stroke-width="2" d="M1670,-1407.6C1670,-1398.05 1670,-1385.86 1670,-1374.41"/>
<polygon fill="grey" stroke="grey" stroke-width="2" points="1673.5,-1374.2 1670,-1364.2 1666.5,-1374.2 1673.5,-1374.2"/>
</g>
<!-- 43 -->
<g id="node44" class="node">
<title>43</title>
<path fill="none" stroke="#d85656" stroke-width="2" d="M1667,-324C1667,-324 1555,-324 1555,-324 1549,-324 1543,-318 1543,-312 1543,-312 1543,-300 1543,-300 1543,-294 1549,-288 1555,-288 1555,-288 1667,-288 1667,-288 1673,-288 1679,-294 1679,-300 1679,-300 1679,-312 1679,-312 1679,-318 1673,-324 1667,-324"/>
<text text-anchor="middle" x="1611" y="-303.5" font-family="sans" font-size="10.00">post_hic_pilon_polishing</text>
</g>
<!-- 43&#45;&gt;35 -->
<g id="edge50" class="edge">
<title>43&#45;&gt;35</title>
<path fill="none" stroke="grey" stroke-width="2" d="M1593.57,-287.94C1584.74,-278.25 1574.71,-265.39 1569,-252 1550.21,-207.93 1546.67,-151.49 1546.41,-118.48"/>
<polygon fill="grey" stroke="grey" stroke-width="2" points="1549.91,-118.24 1546.44,-108.23 1542.91,-118.23 1549.91,-118.24"/>
</g>
<!-- 43&#45;&gt;37 -->
<g id="edge53" class="edge">
<title>43&#45;&gt;37</title>
<path fill="none" stroke="grey" stroke-width="2" d="M1626.82,-287.7C1634.57,-279.22 1644.04,-268.86 1652.52,-259.58"/>
<polygon fill="grey" stroke="grey" stroke-width="2" points="1655.2,-261.85 1659.36,-252.1 1650.03,-257.12 1655.2,-261.85"/>
</g>
<!-- 44 -->
<g id="node45" class="node">
<title>44</title>
<path fill="none" stroke="#5682d8" stroke-width="2" d="M1734.5,-396C1734.5,-396 1597.5,-396 1597.5,-396 1591.5,-396 1585.5,-390 1585.5,-384 1585.5,-384 1585.5,-372 1585.5,-372 1585.5,-366 1591.5,-360 1597.5,-360 1597.5,-360 1734.5,-360 1734.5,-360 1740.5,-360 1746.5,-366 1746.5,-372 1746.5,-372 1746.5,-384 1746.5,-384 1746.5,-390 1740.5,-396 1734.5,-396"/>
<text text-anchor="middle" x="1666" y="-375.5" font-family="sans" font-size="10.00">index_shotgun_bam_pilon_3c</text>
</g>
<!-- 44&#45;&gt;43 -->
<g id="edge58" class="edge">
<title>44&#45;&gt;43</title>
<path fill="none" stroke="grey" stroke-width="2" d="M1652.4,-359.7C1645.88,-351.39 1637.93,-341.28 1630.75,-332.14"/>
<polygon fill="grey" stroke="grey" stroke-width="2" points="1633.37,-329.81 1624.44,-324.1 1627.87,-334.13 1633.37,-329.81"/>
</g>
<!-- 45&#45;&gt;44 -->
<g id="edge60" class="edge">
<title>45&#45;&gt;44</title>
<path fill="none" stroke="grey" stroke-width="2" d="M1666,-431.7C1666,-423.98 1666,-414.71 1666,-406.11"/>
<polygon fill="grey" stroke="grey" stroke-width="2" points="1669.5,-406.1 1666,-396.1 1662.5,-406.1 1669.5,-406.1"/>
</g>
<!-- 46 -->
<g id="node47" class="node">
<title>46</title>
<path fill="none" stroke="#56d8d0" stroke-width="2" d="M1597,-540C1597,-540 1517,-540 1517,-540 1511,-540 1505,-534 1505,-528 1505,-528 1505,-516 1505,-516 1505,-510 1511,-504 1517,-504 1517,-504 1597,-504 1597,-504 1603,-504 1609,-510 1609,-516 1609,-516 1609,-528 1609,-528 1609,-534 1603,-540 1597,-540"/>
<text text-anchor="middle" x="1557" y="-519.5" font-family="sans" font-size="10.00">merge_organelles</text>
</g>
<!-- 46&#45;&gt;43 -->
<g id="edge59" class="edge">
<title>46&#45;&gt;43</title>
<path fill="none" stroke="grey" stroke-width="2" d="M1556.47,-503.95C1556.08,-473.91 1557.73,-409.96 1576,-360 1579.54,-350.32 1585.17,-340.63 1590.88,-332.25"/>
<polygon fill="grey" stroke="grey" stroke-width="2" points="1593.79,-334.19 1596.78,-324.03 1588.11,-330.11 1593.79,-334.19"/>
</g>
<!-- 46&#45;&gt;45 -->
<g id="edge62" class="edge">
<title>46&#45;&gt;45</title>
<path fill="none" stroke="grey" stroke-width="2" d="M1583.66,-503.88C1597.78,-494.81 1615.31,-483.55 1630.56,-473.76"/>
<polygon fill="grey" stroke="grey" stroke-width="2" points="1632.71,-476.54 1639.23,-468.19 1628.93,-470.65 1632.71,-476.54"/>
</g>
<!-- 47 -->
<g id="node48" class="node">
<title>47</title>
<path fill="none" stroke="#bed856" stroke-width="2" d="M1517,-612C1517,-612 1441,-612 1441,-612 1435,-612 1429,-606 1429,-600 1429,-600 1429,-588 1429,-588 1429,-582 1435,-576 1441,-576 1441,-576 1517,-576 1517,-576 1523,-576 1529,-582 1529,-588 1529,-588 1529,-600 1529,-600 1529,-606 1523,-612 1517,-612"/>
<text text-anchor="middle" x="1479" y="-591.5" font-family="sans" font-size="10.00">instagraal_polish</text>
</g>
<!-- 47&#45;&gt;46 -->
<g id="edge63" class="edge">
<title>47&#45;&gt;46</title>
<path fill="none" stroke="grey" stroke-width="2" d="M1498.28,-575.7C1507.92,-567.05 1519.73,-556.45 1530.23,-547.03"/>
<polygon fill="grey" stroke="grey" stroke-width="2" points="1532.84,-549.39 1537.94,-540.1 1528.16,-544.18 1532.84,-549.39"/>
</g>
<!-- 48 -->
<g id="node49" class="node">
<title>48</title>
<path fill="none" stroke="#56d8b9" stroke-width="2" d="M1512.5,-828C1512.5,-828 1447.5,-828 1447.5,-828 1441.5,-828 1435.5,-822 1435.5,-816 1435.5,-816 1435.5,-804 1435.5,-804 1435.5,-798 1441.5,-792 1447.5,-792 1447.5,-792 1512.5,-792 1512.5,-792 1518.5,-792 1524.5,-798 1524.5,-804 1524.5,-804 1524.5,-816 1524.5,-816 1524.5,-822 1518.5,-828 1512.5,-828"/>
<text text-anchor="middle" x="1480" y="-807.5" font-family="sans" font-size="10.00">split_mito_tigs</text>
</g>
<!-- 48&#45;&gt;46 -->
<g id="edge64" class="edge">
<title>48&#45;&gt;46</title>
<path fill="none" stroke="grey" stroke-width="2" d="M1485.48,-791.99C1496.33,-758.01 1520.96,-679.22 1538,-612 1543.21,-591.45 1548.18,-568 1551.73,-550.33"/>
<polygon fill="grey" stroke="grey" stroke-width="2" points="1555.23,-550.64 1553.74,-540.15 1548.36,-549.28 1555.23,-550.64"/>
</g>
<!-- 48&#45;&gt;47 -->
<g id="edge65" class="edge">
<title>48&#45;&gt;47</title>
<path fill="none" stroke="grey" stroke-width="2" d="M1480.11,-791.61C1480.27,-762.08 1480.49,-700.27 1480,-648 1479.92,-639.68 1479.77,-630.63 1479.62,-622.4"/>
<polygon fill="grey" stroke="grey" stroke-width="2" points="1483.11,-622.11 1479.41,-612.18 1476.11,-622.25 1483.11,-622.11"/>
</g>
<!-- 62 -->
<g id="node63" class="node">
<title>62</title>
<path fill="none" stroke="#78d856" stroke-width="2" d="M1459,-684C1459,-684 1359,-684 1359,-684 1353,-684 1347,-678 1347,-672 1347,-672 1347,-660 1347,-660 1347,-654 1353,-648 1359,-648 1359,-648 1459,-648 1459,-648 1465,-648 1471,-654 1471,-660 1471,-660 1471,-672 1471,-672 1471,-678 1465,-684 1459,-684"/>
<text text-anchor="middle" x="1409" y="-663.5" font-family="sans" font-size="10.00">instagraal_scaffolding</text>
</g>
<!-- 48&#45;&gt;62 -->
<g id="edge87" class="edge">
<title>48&#45;&gt;62</title>
<path fill="none" stroke="grey" stroke-width="2" d="M1473.61,-791.91C1466.6,-773.73 1454.65,-744.29 1442,-720 1437.29,-710.96 1431.59,-701.42 1426.26,-692.95"/>
<polygon fill="grey" stroke="grey" stroke-width="2" points="1429.04,-690.8 1420.69,-684.27 1423.15,-694.58 1429.04,-690.8"/>
</g>
<!-- 63 -->
<g id="node64" class="node">
<title>63</title>
<path fill="none" stroke="#a7d856" stroke-width="2" d="M1421,-756C1421,-756 1315,-756 1315,-756 1309,-756 1303,-750 1303,-744 1303,-744 1303,-732 1303,-732 1303,-726 1309,-720 1315,-720 1315,-720 1421,-720 1421,-720 1427,-720 1433,-726 1433,-732 1433,-732 1433,-744 1433,-744 1433,-750 1427,-756 1421,-756"/>
<text text-anchor="middle" x="1368" y="-735.5" font-family="sans" font-size="10.00">hicstuff_hic_processing</text>
</g>
<!-- 48&#45;&gt;63 -->
<g id="edge90" class="edge">
<title>48&#45;&gt;63</title>
<path fill="none" stroke="grey" stroke-width="2" d="M1452.6,-791.88C1438.09,-782.81 1420.08,-771.55 1404.41,-761.76"/>
<polygon fill="grey" stroke="grey" stroke-width="2" points="1405.84,-758.52 1395.5,-756.19 1402.13,-764.46 1405.84,-758.52"/>
</g>
<!-- 49 -->
<g id="node50" class="node">
<title>49</title>
<path fill="none" stroke="#d86e56" stroke-width="2" d="M1513,-908C1513,-908 1447,-908 1447,-908 1441,-908 1435,-902 1435,-896 1435,-896 1435,-884 1435,-884 1435,-878 1441,-872 1447,-872 1447,-872 1513,-872 1513,-872 1519,-872 1525,-878 1525,-884 1525,-884 1525,-896 1525,-896 1525,-902 1519,-908 1513,-908"/>
<text text-anchor="middle" x="1480" y="-887.5" font-family="sans" font-size="10.00">hypo_polishing</text>
</g>
<!-- 49&#45;&gt;48 -->
<g id="edge67" class="edge">
<title>49&#45;&gt;48</title>
<path fill="none" stroke="grey" stroke-width="2" d="M1480,-871.69C1480,-861.89 1480,-849.42 1480,-838.33"/>
<polygon fill="grey" stroke="grey" stroke-width="2" points="1483.5,-838.26 1480,-828.26 1476.5,-838.26 1483.5,-838.26"/>
</g>
<!-- 50&#45;&gt;49 -->
<g id="edge68" class="edge">
<title>50&#45;&gt;49</title>
<path fill="none" stroke="grey" stroke-width="2" d="M1541.47,-951.69C1530.73,-941.09 1516.81,-927.35 1504.94,-915.62"/>
<polygon fill="grey" stroke="grey" stroke-width="2" points="1507.06,-912.8 1497.48,-908.26 1502.14,-917.78 1507.06,-912.8"/>
</g>
<!-- 51 -->
<g id="node52" class="node">
<title>51</title>
<path fill="none" stroke="#d8c356" stroke-width="2" d="M1537.5,-1060C1537.5,-1060 1474.5,-1060 1474.5,-1060 1468.5,-1060 1462.5,-1054 1462.5,-1048 1462.5,-1048 1462.5,-1036 1462.5,-1036 1462.5,-1030 1468.5,-1024 1474.5,-1024 1474.5,-1024 1537.5,-1024 1537.5,-1024 1543.5,-1024 1549.5,-1030 1549.5,-1036 1549.5,-1036 1549.5,-1048 1549.5,-1048 1549.5,-1054 1543.5,-1060 1537.5,-1060"/>
<text text-anchor="middle" x="1506" y="-1039.5" font-family="sans" font-size="10.00">flye_assembly</text>
</g>
<!-- 51&#45;&gt;49 -->
<g id="edge70" class="edge">
<title>51&#45;&gt;49</title>
<path fill="none" stroke="grey" stroke-width="2" d="M1490.82,-1023.7C1483.27,-1013.94 1474.93,-1001.1 1471,-988 1464.11,-965.07 1467.59,-937.84 1472.08,-918.08"/>
<polygon fill="grey" stroke="grey" stroke-width="2" points="1475.52,-918.76 1474.55,-908.21 1468.73,-917.07 1475.52,-918.76"/>
</g>
<!-- 51&#45;&gt;50 -->
<g id="edge73" class="edge">
<title>51&#45;&gt;50</title>
<path fill="none" stroke="grey" stroke-width="2" d="M1519.1,-1023.7C1525.39,-1015.39 1533.05,-1005.28 1539.96,-996.14"/>
<polygon fill="grey" stroke="grey" stroke-width="2" points="1542.8,-998.19 1546.05,-988.1 1537.22,-993.96 1542.8,-998.19"/>
</g>
<!-- 60 -->
<g id="node61" class="node">
<title>60</title>
<path fill="none" stroke="#61d856" stroke-width="2" d="M1411.5,-988C1411.5,-988 1300.5,-988 1300.5,-988 1294.5,-988 1288.5,-982 1288.5,-976 1288.5,-976 1288.5,-964 1288.5,-964 1288.5,-958 1294.5,-952 1300.5,-952 1300.5,-952 1411.5,-952 1411.5,-952 1417.5,-952 1423.5,-958 1423.5,-964 1423.5,-964 1423.5,-976 1423.5,-976 1423.5,-982 1417.5,-988 1411.5,-988"/>
<text text-anchor="middle" x="1356" y="-967.5" font-family="sans" font-size="10.00">align_ont_ont_assembly</text>
</g>
<!-- 51&#45;&gt;60 -->
<g id="edge84" class="edge">
<title>51&#45;&gt;60</title>
<path fill="none" stroke="grey" stroke-width="2" d="M1469.31,-1023.88C1448.98,-1014.39 1423.53,-1002.51 1401.9,-992.42"/>
<polygon fill="grey" stroke="grey" stroke-width="2" points="1403.12,-989.13 1392.57,-988.07 1400.16,-995.47 1403.12,-989.13"/>
</g>
<!-- 51&#45;&gt;61 -->
<g id="edge86" class="edge">
<title>51&#45;&gt;61</title>
<path fill="none" stroke="grey" stroke-width="2" d="M1549.82,-1024.94C1578.64,-1014.38 1616.45,-1000.52 1646.53,-989.5"/>
<polygon fill="grey" stroke="grey" stroke-width="2" points="1647.81,-992.75 1656,-986.03 1645.4,-986.18 1647.81,-992.75"/>
</g>
<!-- 52 -->
<g id="node53" class="node">
<title>52</title>
<path fill="none" stroke="#d8b456" stroke-width="2" d="M1548,-1132C1548,-1132 1464,-1132 1464,-1132 1458,-1132 1452,-1126 1452,-1120 1452,-1120 1452,-1108 1452,-1108 1452,-1102 1458,-1096 1464,-1096 1464,-1096 1548,-1096 1548,-1096 1554,-1096 1560,-1102 1560,-1108 1560,-1108 1560,-1120 1560,-1120 1560,-1126 1554,-1132 1548,-1132"/>
<text text-anchor="middle" x="1506" y="-1111.5" font-family="sans" font-size="10.00">format_long_reads</text>
</g>
<!-- 52&#45;&gt;51 -->
<g id="edge74" class="edge">
<title>52&#45;&gt;51</title>
<path fill="none" stroke="grey" stroke-width="2" d="M1506,-1095.7C1506,-1087.98 1506,-1078.71 1506,-1070.11"/>
<polygon fill="grey" stroke="grey" stroke-width="2" points="1509.5,-1070.1 1506,-1060.1 1502.5,-1070.1 1509.5,-1070.1"/>
</g>
<!-- 53&#45;&gt;52 -->
<g id="edge75" class="edge">
<title>53&#45;&gt;52</title>
<path fill="none" stroke="grey" stroke-width="2" d="M1506,-1167.7C1506,-1159.98 1506,-1150.71 1506,-1142.11"/>
<polygon fill="grey" stroke="grey" stroke-width="2" points="1509.5,-1142.1 1506,-1132.1 1502.5,-1142.1 1509.5,-1142.1"/>
</g>
<!-- 54 -->
<g id="node55" class="node">
<title>54</title>
<path fill="none" stroke="#56d87b" stroke-width="2" d="M1534.5,-1276C1534.5,-1276 1445.5,-1276 1445.5,-1276 1439.5,-1276 1433.5,-1270 1433.5,-1264 1433.5,-1264 1433.5,-1252 1433.5,-1252 1433.5,-1246 1439.5,-1240 1445.5,-1240 1445.5,-1240 1534.5,-1240 1534.5,-1240 1540.5,-1240 1546.5,-1246 1546.5,-1252 1546.5,-1252 1546.5,-1264 1546.5,-1264 1546.5,-1270 1540.5,-1276 1534.5,-1276"/>
<text text-anchor="middle" x="1490" y="-1255.5" font-family="sans" font-size="10.00">fastq_to_fasta_ONT</text>
</g>
<!-- 54&#45;&gt;53 -->
<g id="edge76" class="edge">
<title>54&#45;&gt;53</title>
<path fill="none" stroke="grey" stroke-width="2" d="M1493.96,-1239.7C1495.72,-1231.98 1497.84,-1222.71 1499.8,-1214.11"/>
<polygon fill="grey" stroke="grey" stroke-width="2" points="1503.27,-1214.63 1502.09,-1204.1 1496.45,-1213.07 1503.27,-1214.63"/>
</g>
<!-- 55 -->
<g id="node56" class="node">
<title>55</title>
<path fill="none" stroke="#56c9d8" stroke-width="2" d="M1448,-1356C1448,-1356 1384,-1356 1384,-1356 1378,-1356 1372,-1350 1372,-1344 1372,-1344 1372,-1332 1372,-1332 1372,-1326 1378,-1320 1384,-1320 1384,-1320 1448,-1320 1448,-1320 1454,-1320 1460,-1326 1460,-1332 1460,-1332 1460,-1344 1460,-1344 1460,-1350 1454,-1356 1448,-1356"/>
<text text-anchor="middle" x="1416" y="-1335.5" font-family="sans" font-size="10.00">combine_units</text>
</g>
<!-- 55&#45;&gt;54 -->
<g id="edge78" class="edge">
<title>55&#45;&gt;54</title>
<path fill="none" stroke="grey" stroke-width="2" d="M1432.42,-1319.69C1442.48,-1309.09 1455.52,-1295.35 1466.64,-1283.62"/>
<polygon fill="grey" stroke="grey" stroke-width="2" points="1469.28,-1285.93 1473.62,-1276.26 1464.2,-1281.11 1469.28,-1285.93"/>
</g>
<!-- 55&#45;&gt;60 -->
<g id="edge83" class="edge">
<title>55&#45;&gt;60</title>
<path fill="none" stroke="grey" stroke-width="2" d="M1410.6,-1319.65C1402.46,-1291.91 1388,-1235.74 1388,-1187 1388,-1187 1388,-1187 1388,-1113 1388,-1072.04 1375.17,-1026.02 1365.76,-997.77"/>
<polygon fill="grey" stroke="grey" stroke-width="2" points="1369.03,-996.53 1362.48,-988.21 1362.41,-998.8 1369.03,-996.53"/>
</g>
<!-- 56 -->
<g id="node57" class="node">
<title>56</title>
<path fill="none" stroke="#8fd856" stroke-width="2" d="M1282.5,-1452C1282.5,-1452 1163.5,-1452 1163.5,-1452 1157.5,-1452 1151.5,-1446 1151.5,-1440 1151.5,-1440 1151.5,-1412 1151.5,-1412 1151.5,-1406 1157.5,-1400 1163.5,-1400 1163.5,-1400 1282.5,-1400 1282.5,-1400 1288.5,-1400 1294.5,-1406 1294.5,-1412 1294.5,-1412 1294.5,-1440 1294.5,-1440 1294.5,-1446 1288.5,-1452 1282.5,-1452"/>
<text text-anchor="middle" x="1223" y="-1440" font-family="sans" font-size="10.00">sra_to_fq</text>
<text text-anchor="middle" x="1223" y="-1429" font-family="sans" font-size="10.00">libname: CM02_1.fastq.gz</text>
<text text-anchor="middle" x="1223" y="-1418" font-family="sans" font-size="10.00">libtype: long_reads</text>
<text text-anchor="middle" x="1223" y="-1407" font-family="sans" font-size="10.00">strain: Neff</text>
</g>
<!-- 56&#45;&gt;55 -->
<g id="edge79" class="edge">
<title>56&#45;&gt;55</title>
<path fill="none" stroke="grey" stroke-width="2" d="M1279.34,-1399.89C1307.61,-1387.3 1341.47,-1372.21 1368.41,-1360.2"/>
<polygon fill="grey" stroke="grey" stroke-width="2" points="1369.93,-1363.36 1377.64,-1356.1 1367.08,-1356.97 1369.93,-1363.36"/>
</g>
<!-- 57 -->
<g id="node58" class="node">
<title>57</title>
<path fill="none" stroke="#56d863" stroke-width="2" d="M1264.5,-1524C1264.5,-1524 1181.5,-1524 1181.5,-1524 1175.5,-1524 1169.5,-1518 1169.5,-1512 1169.5,-1512 1169.5,-1500 1169.5,-1500 1169.5,-1494 1175.5,-1488 1181.5,-1488 1181.5,-1488 1264.5,-1488 1264.5,-1488 1270.5,-1488 1276.5,-1494 1276.5,-1500 1276.5,-1500 1276.5,-1512 1276.5,-1512 1276.5,-1518 1270.5,-1524 1264.5,-1524"/>
<text text-anchor="middle" x="1223" y="-1509" font-family="sans" font-size="10.00">dl_sra</text>
<text text-anchor="middle" x="1223" y="-1498" font-family="sans" font-size="10.00">acc: SRR15928343</text>
</g>
<!-- 57&#45;&gt;56 -->
<g id="edge81" class="edge">
<title>57&#45;&gt;56</title>
<path fill="none" stroke="grey" stroke-width="2" d="M1223,-1487.69C1223,-1480.21 1223,-1471.16 1223,-1462.36"/>
<polygon fill="grey" stroke="grey" stroke-width="2" points="1226.5,-1462.26 1223,-1452.26 1219.5,-1462.26 1226.5,-1462.26"/>
</g>
<!-- 58 -->
<g id="node59" class="node">
<title>58</title>
<path fill="none" stroke="#8fd856" stroke-width="2" d="M1563.5,-1452C1563.5,-1452 1324.5,-1452 1324.5,-1452 1318.5,-1452 1312.5,-1446 1312.5,-1440 1312.5,-1440 1312.5,-1412 1312.5,-1412 1312.5,-1406 1318.5,-1400 1324.5,-1400 1324.5,-1400 1563.5,-1400 1563.5,-1400 1569.5,-1400 1575.5,-1406 1575.5,-1412 1575.5,-1412 1575.5,-1440 1575.5,-1440 1575.5,-1446 1569.5,-1452 1563.5,-1452"/>
<text text-anchor="middle" x="1444" y="-1440" font-family="sans" font-size="10.00">sra_to_fq</text>
<text text-anchor="middle" x="1444" y="-1429" font-family="sans" font-size="10.00">libname: Acas_merged2_2018.04.05_pc_1.fastq.gz</text>
<text text-anchor="middle" x="1444" y="-1418" font-family="sans" font-size="10.00">libtype: long_reads</text>
<text text-anchor="middle" x="1444" y="-1407" font-family="sans" font-size="10.00">strain: Neff</text>
</g>
<!-- 58&#45;&gt;55 -->
<g id="edge80" class="edge">
<title>58&#45;&gt;55</title>
<path fill="none" stroke="grey" stroke-width="2" d="M1435.75,-1399.66C1432.28,-1389 1428.24,-1376.58 1424.72,-1365.77"/>
<polygon fill="grey" stroke="grey" stroke-width="2" points="1427.96,-1364.43 1421.54,-1356 1421.3,-1366.6 1427.96,-1364.43"/>
</g>
<!-- 59 -->
<g id="node60" class="node">
<title>59</title>
<path fill="none" stroke="#56d863" stroke-width="2" d="M1482.5,-1524C1482.5,-1524 1405.5,-1524 1405.5,-1524 1399.5,-1524 1393.5,-1518 1393.5,-1512 1393.5,-1512 1393.5,-1500 1393.5,-1500 1393.5,-1494 1399.5,-1488 1405.5,-1488 1405.5,-1488 1482.5,-1488 1482.5,-1488 1488.5,-1488 1494.5,-1494 1494.5,-1500 1494.5,-1500 1494.5,-1512 1494.5,-1512 1494.5,-1518 1488.5,-1524 1482.5,-1524"/>
<text text-anchor="middle" x="1444" y="-1509" font-family="sans" font-size="10.00">dl_sra</text>
<text text-anchor="middle" x="1444" y="-1498" font-family="sans" font-size="10.00">acc: SRR7765365</text>
</g>
<!-- 59&#45;&gt;58 -->
<g id="edge82" class="edge">
<title>59&#45;&gt;58</title>
<path fill="none" stroke="grey" stroke-width="2" d="M1444,-1487.69C1444,-1480.21 1444,-1471.16 1444,-1462.36"/>
<polygon fill="grey" stroke="grey" stroke-width="2" points="1447.5,-1462.26 1444,-1452.26 1440.5,-1462.26 1447.5,-1462.26"/>
</g>
<!-- 60&#45;&gt;49 -->
<g id="edge69" class="edge">
<title>60&#45;&gt;49</title>
<path fill="none" stroke="grey" stroke-width="2" d="M1383.21,-951.88C1401.14,-940.6 1424.81,-925.72 1444.25,-913.49"/>
<polygon fill="grey" stroke="grey" stroke-width="2" points="1446.25,-916.36 1452.85,-908.08 1442.52,-910.44 1446.25,-916.36"/>
</g>
<!-- 61&#45;&gt;49 -->
<g id="edge71" class="edge">
<title>61&#45;&gt;49</title>
<path fill="none" stroke="grey" stroke-width="2" d="M1655.93,-954.24C1621.64,-941.91 1572.47,-924.24 1534.82,-910.7"/>
<polygon fill="grey" stroke="grey" stroke-width="2" points="1535.61,-907.27 1525.02,-907.18 1533.25,-913.86 1535.61,-907.27"/>
</g>
<!-- 62&#45;&gt;47 -->
<g id="edge66" class="edge">
<title>62&#45;&gt;47</title>
<path fill="none" stroke="grey" stroke-width="2" d="M1426.3,-647.7C1434.86,-639.14 1445.34,-628.66 1454.7,-619.3"/>
<polygon fill="grey" stroke="grey" stroke-width="2" points="1457.3,-621.65 1461.9,-612.1 1452.35,-616.7 1457.3,-621.65"/>
</g>
<!-- 63&#45;&gt;62 -->
<g id="edge88" class="edge">
<title>63&#45;&gt;62</title>
<path fill="none" stroke="grey" stroke-width="2" d="M1378.13,-719.7C1382.85,-711.64 1388.56,-701.89 1393.78,-692.98"/>
<polygon fill="grey" stroke="grey" stroke-width="2" points="1396.95,-694.5 1398.98,-684.1 1390.91,-690.96 1396.95,-694.5"/>
</g>
<!-- 64 -->
<g id="node65" class="node">
<title>64</title>
<path fill="none" stroke="#56c9d8" stroke-width="2" d="M1368,-828C1368,-828 1304,-828 1304,-828 1298,-828 1292,-822 1292,-816 1292,-816 1292,-804 1292,-804 1292,-798 1298,-792 1304,-792 1304,-792 1368,-792 1368,-792 1374,-792 1380,-798 1380,-804 1380,-804 1380,-816 1380,-816 1380,-822 1374,-828 1368,-828"/>
<text text-anchor="middle" x="1336" y="-807.5" font-family="sans" font-size="10.00">combine_units</text>
</g>
<!-- 64&#45;&gt;63 -->
<g id="edge89" class="edge">
<title>64&#45;&gt;63</title>
<path fill="none" stroke="grey" stroke-width="2" d="M1343.91,-791.7C1347.55,-783.73 1351.95,-774.1 1355.99,-765.26"/>
<polygon fill="grey" stroke="grey" stroke-width="2" points="1359.21,-766.65 1360.18,-756.1 1352.84,-763.74 1359.21,-766.65"/>
</g>
<!-- 65 -->
<g id="node66" class="node">
<title>65</title>
<path fill="none" stroke="#8fd856" stroke-width="2" d="M1365,-916C1365,-916 1243,-916 1243,-916 1237,-916 1231,-910 1231,-904 1231,-904 1231,-876 1231,-876 1231,-870 1237,-864 1243,-864 1243,-864 1365,-864 1365,-864 1371,-864 1377,-870 1377,-876 1377,-876 1377,-904 1377,-904 1377,-910 1371,-916 1365,-916"/>
<text text-anchor="middle" x="1304" y="-904" font-family="sans" font-size="10.00">sra_to_fq</text>
<text text-anchor="middle" x="1304" y="-893" font-family="sans" font-size="10.00">libname: AT338_1.fastq.gz</text>
<text text-anchor="middle" x="1304" y="-882" font-family="sans" font-size="10.00">libtype: hic</text>
<text text-anchor="middle" x="1304" y="-871" font-family="sans" font-size="10.00">strain: Neff</text>
</g>
<!-- 65&#45;&gt;64 -->
<g id="edge91" class="edge">
<title>65&#45;&gt;64</title>
<path fill="none" stroke="grey" stroke-width="2" d="M1314.3,-863.89C1317.72,-855.57 1321.53,-846.28 1324.99,-837.83"/>
<polygon fill="grey" stroke="grey" stroke-width="2" points="1328.3,-838.99 1328.86,-828.41 1321.82,-836.33 1328.3,-838.99"/>
</g>
<!-- 66 -->
<g id="node67" class="node">
<title>66</title>
<path fill="none" stroke="#56d863" stroke-width="2" d="M1258.5,-988C1258.5,-988 1175.5,-988 1175.5,-988 1169.5,-988 1163.5,-982 1163.5,-976 1163.5,-976 1163.5,-964 1163.5,-964 1163.5,-958 1169.5,-952 1175.5,-952 1175.5,-952 1258.5,-952 1258.5,-952 1264.5,-952 1270.5,-958 1270.5,-964 1270.5,-964 1270.5,-976 1270.5,-976 1270.5,-982 1264.5,-988 1258.5,-988"/>
<text text-anchor="middle" x="1217" y="-973" font-family="sans" font-size="10.00">dl_sra</text>
<text text-anchor="middle" x="1217" y="-962" font-family="sans" font-size="10.00">acc: SRR15928351</text>
</g>
<!-- 66&#45;&gt;65 -->
<g id="edge92" class="edge">
<title>66&#45;&gt;65</title>
<path fill="none" stroke="grey" stroke-width="2" d="M1236.31,-951.69C1245.74,-943.23 1257.41,-932.77 1268.38,-922.94"/>
<polygon fill="grey" stroke="grey" stroke-width="2" points="1270.72,-925.54 1275.83,-916.26 1266.05,-920.33 1270.72,-925.54"/>
</g>
</g>
</svg>
