<?xml version="1.0" encoding="UTF-8" standalone="no"?>
<!DOCTYPE svg PUBLIC "-//W3C//DTD SVG 1.1//EN"
 "http://www.w3.org/Graphics/SVG/1.1/DTD/svg11.dtd">
<!-- Generated by graphviz version 2.49.0 (20210829.0051)
 -->
<!-- Title: snakemake_dag Pages: 1 -->
<svg width="1105pt" height="3546pt"
 viewBox="0.00 0.00 1105.00 3546.00" xmlns="http://www.w3.org/2000/svg" xmlns:xlink="http://www.w3.org/1999/xlink">
<g id="graph0" class="graph" transform="scale(1 1) rotate(0) translate(4 3542)">
<title>snakemake_dag</title>
<polygon fill="white" stroke="transparent" points="-4,4 -4,-3542 1101,-3542 1101,4 -4,4"/>
<!-- 0 -->
<g id="node1" class="node">
<title>0</title>
<text text-anchor="start" x="451" y="-89.6" font-family="sans" font-weight="bold" font-size="18.00">all</text>
<text text-anchor="start" x="358" y="-65.8" font-family="sans" font-size="10.00"> </text>
<text text-anchor="start" x="362" y="-65.8" font-family="sans" font-weight="bold" font-size="14.00">↪ input</text>
<text text-anchor="start" x="420" y="-65.8" font-family="sans" font-size="10.00"> </text>
<text text-anchor="start" x="358" y="-46" font-family="monospace" font-size="10.00">out/assemblies/06_Ac_C3_pilon2.fa</text>
<text text-anchor="start" x="358" y="-28" font-family="monospace" font-size="10.00">out/assemblies/06_Ac_Neff_pilon2.fa</text>
<text text-anchor="start" x="562" y="-10" font-family="sans" font-size="10.00"> &#160;</text>
<polygon fill="#8fd957" stroke="#8fd957" points="352,-80 352,-80 576,-80 576,-80 352,-80"/>
<polygon fill="#8fd957" stroke="#8fd957" points="352,-22 352,-22 576,-22 576,-22 352,-22"/>
<polygon fill="none" stroke="#8fd957" stroke-width="2" points="351.5,-1 351.5,-109 574.5,-109 574.5,-1 351.5,-1"/>
</g>
<!-- 1 -->
<g id="node2" class="node">
<title>1</title>
<text text-anchor="start" x="302" y="-275.6" font-family="sans" font-weight="bold" font-size="18.00">post_hic_pilon_polishing_round2</text>
<text text-anchor="start" x="302" y="-251.8" font-family="sans" font-size="10.00"> </text>
<text text-anchor="start" x="306" y="-251.8" font-family="sans" font-weight="bold" font-size="14.00">↪ input</text>
<text text-anchor="start" x="364" y="-251.8" font-family="sans" font-size="10.00"> </text>
<text text-anchor="start" x="302" y="-232" font-family="monospace" font-size="10.00">out/assemblies/05_Ac_{strain}_pilon.fa</text>
<text text-anchor="start" x="302" y="-214" font-family="monospace" font-size="10.00">tmp/alignments/05_Ac_{strain}_pilon.bam</text>
<text text-anchor="start" x="302" y="-196" font-family="monospace" font-size="10.00">tmp/alignments/05_Ac_{strain}_pilon.bam.bai</text>
<text text-anchor="start" x="546" y="-175.8" font-family="sans" font-size="10.00"> </text>
<text text-anchor="start" x="550" y="-175.8" font-family="sans" font-weight="bold" font-size="14.00">output →</text>
<text text-anchor="start" x="620" y="-175.8" font-family="sans" font-size="10.00"> </text>
<text text-anchor="start" x="302" y="-156" font-family="monospace" font-size="10.00">out/assemblies/06_Ac_{strain,C3|Neff}_pilon2.fa</text>
<polygon fill="#57d98f" stroke="#57d98f" points="296,-266 296,-266 631,-266 631,-266 296,-266"/>
<polygon fill="#57d98f" stroke="#57d98f" points="296,-190 296,-190 631,-190 631,-190 296,-190"/>
<polygon fill="none" stroke="#57d98f" stroke-width="2" points="296,-147 296,-295 630,-295 630,-147 296,-147"/>
</g>
<!-- 1&#45;&gt;0 -->
<g id="edge1" class="edge">
<title>1&#45;&gt;0</title>
<path fill="none" stroke="grey" stroke-width="2" d="M463,-145.68C463,-137.33 463,-128.89 463,-120.68"/>
<polygon fill="grey" stroke="grey" stroke-width="2" points="466.5,-120.44 463,-110.44 459.5,-120.44 466.5,-120.44"/>
</g>
<!-- 2 -->
<g id="node3" class="node">
<title>2</title>
<text text-anchor="start" x="168" y="-443.6" font-family="sans" font-weight="bold" font-size="18.00">index_shotgun_bam_pilon_3c_round2</text>
<text text-anchor="start" x="168" y="-419.8" font-family="sans" font-size="10.00"> </text>
<text text-anchor="start" x="172" y="-419.8" font-family="sans" font-weight="bold" font-size="14.00">↪ input</text>
<text text-anchor="start" x="230" y="-419.8" font-family="sans" font-size="10.00"> </text>
<text text-anchor="start" x="168" y="-400" font-family="monospace" font-size="10.00">tmp/alignments/05_Ac_{strain}_pilon.sam</text>
<text text-anchor="start" x="460" y="-379.8" font-family="sans" font-size="10.00"> </text>
<text text-anchor="start" x="464" y="-379.8" font-family="sans" font-weight="bold" font-size="14.00">output →</text>
<text text-anchor="start" x="534" y="-379.8" font-family="sans" font-size="10.00"> </text>
<text text-anchor="start" x="168" y="-360" font-family="monospace" font-size="10.00">tmp/alignments/05_Ac_{strain,C3|Neff}_pilon.bam</text>
<text text-anchor="start" x="168" y="-342" font-family="monospace" font-size="10.00">tmp/alignments/05_Ac_{strain,C3|Neff}_pilon.bam.bai</text>
<polygon fill="#d3d957" stroke="#d3d957" points="162,-434 162,-434 545,-434 545,-434 162,-434"/>
<polygon fill="#d3d957" stroke="#d3d957" points="162,-394 162,-394 545,-394 545,-394 162,-394"/>
<polygon fill="none" stroke="#d3d957" stroke-width="2" points="162,-333 162,-463 544,-463 544,-333 162,-333"/>
</g>
<!-- 2&#45;&gt;1 -->
<g id="edge3" class="edge">
<title>2&#45;&gt;1</title>
<path fill="none" stroke="grey" stroke-width="2" d="M393.96,-331.84C399.51,-323 405.27,-313.84 410.99,-304.74"/>
<polygon fill="grey" stroke="grey" stroke-width="2" points="414.09,-306.39 416.45,-296.06 408.16,-302.66 414.09,-306.39"/>
</g>
<!-- 3 -->
<g id="node4" class="node">
<title>3</title>
<text text-anchor="start" x="174" y="-611.6" font-family="sans" font-weight="bold" font-size="18.00">align_shotgun_3c_assembly_round2</text>
<text text-anchor="start" x="174" y="-587.8" font-family="sans" font-size="10.00"> </text>
<text text-anchor="start" x="178" y="-587.8" font-family="sans" font-weight="bold" font-size="14.00">↪ input</text>
<text text-anchor="start" x="236" y="-587.8" font-family="sans" font-size="10.00"> </text>
<text text-anchor="start" x="174" y="-568" font-family="monospace" font-size="10.00">out/assemblies/05_Ac_{strain}_pilon.fa</text>
<text text-anchor="start" x="174" y="-550" font-family="monospace" font-size="10.00">tmp/reads/{strain}_shotgun.end1.fq.gz</text>
<text text-anchor="start" x="454" y="-529.8" font-family="sans" font-size="10.00"> </text>
<text text-anchor="start" x="458" y="-529.8" font-family="sans" font-weight="bold" font-size="14.00">output →</text>
<text text-anchor="start" x="528" y="-529.8" font-family="sans" font-size="10.00"> </text>
<text text-anchor="start" x="174" y="-510" font-family="monospace" font-size="10.00">tmp/alignments/05_Ac_{strain,C3|Neff}_pilon.sam</text>
<polygon fill="#62d957" stroke="#62d957" points="168,-602 168,-602 539,-602 539,-602 168,-602"/>
<polygon fill="#62d957" stroke="#62d957" points="168,-544 168,-544 539,-544 539,-544 168,-544"/>
<polygon fill="none" stroke="#62d957" stroke-width="2" points="168,-501 168,-631 538,-631 538,-501 168,-501"/>
</g>
<!-- 3&#45;&gt;2 -->
<g id="edge4" class="edge">
<title>3&#45;&gt;2</title>
<path fill="none" stroke="grey" stroke-width="2" d="M353,-499.87C353,-491.54 353,-482.96 353,-474.48"/>
<polygon fill="grey" stroke="grey" stroke-width="2" points="356.5,-474.22 353,-464.22 349.5,-474.22 356.5,-474.22"/>
</g>
<!-- 4 -->
<g id="node5" class="node">
<title>4</title>
<text text-anchor="start" x="536" y="-3239.6" font-family="sans" font-weight="bold" font-size="18.00">combine_units</text>
<text text-anchor="start" x="398" y="-3215.8" font-family="sans" font-size="10.00"> </text>
<text text-anchor="start" x="402" y="-3215.8" font-family="sans" font-weight="bold" font-size="14.00">↪ input</text>
<text text-anchor="start" x="460" y="-3215.8" font-family="sans" font-size="10.00"> </text>
<text text-anchor="start" x="398" y="-3196" font-family="monospace" font-size="10.00">&lt;input function&gt;</text>
<text text-anchor="start" x="741" y="-3175.8" font-family="sans" font-size="10.00"> </text>
<text text-anchor="start" x="745" y="-3175.8" font-family="sans" font-weight="bold" font-size="14.00">output →</text>
<text text-anchor="start" x="815" y="-3175.8" font-family="sans" font-size="10.00"> </text>
<text text-anchor="start" x="398" y="-3156" font-family="monospace" font-size="10.00">tmp/reads/{strain,C3|Neff}_{libtype,hic|long_reads|shotgun}.end1.fq.gz</text>
<text text-anchor="start" x="398" y="-3138" font-family="monospace" font-size="10.00">tmp/reads/{strain,C3|Neff}_{libtype,hic|long_reads|shotgun}.end2.fq.gz</text>
<polygon fill="#579bd9" stroke="#579bd9" points="392,-3230 392,-3230 826,-3230 826,-3230 392,-3230"/>
<polygon fill="#579bd9" stroke="#579bd9" points="392,-3190 392,-3190 826,-3190 826,-3190 392,-3190"/>
<polygon fill="none" stroke="#579bd9" stroke-width="2" points="391.5,-3129 391.5,-3259 824.5,-3259 824.5,-3129 391.5,-3129"/>
</g>
<!-- 4&#45;&gt;3 -->
<g id="edge6" class="edge">
<title>4&#45;&gt;3</title>
<path fill="none" stroke="grey" stroke-width="2" d="M390.22,-3166.09C215.76,-3130.92 0,-3050.53 0,-2868 0,-2868 0,-2868 0,-919 0,-793.51 113.25,-697.25 211.45,-637.37"/>
<polygon fill="grey" stroke="grey" stroke-width="2" points="213.54,-640.2 220.3,-632.04 209.93,-634.2 213.54,-640.2"/>
</g>
<!-- 9 -->
<g id="node10" class="node">
<title>9</title>
<text text-anchor="start" x="660" y="-1133.6" font-family="sans" font-weight="bold" font-size="18.00">align_shotgun_3c_assembly</text>
<text text-anchor="start" x="621" y="-1109.8" font-family="sans" font-size="10.00"> </text>
<text text-anchor="start" x="625" y="-1109.8" font-family="sans" font-weight="bold" font-size="14.00">↪ input</text>
<text text-anchor="start" x="683" y="-1109.8" font-family="sans" font-size="10.00"> </text>
<text text-anchor="start" x="621" y="-1090" font-family="monospace" font-size="10.00">out/assemblies/04_Ac_{strain}_instagraal_polish.fa</text>
<text text-anchor="start" x="621" y="-1072" font-family="monospace" font-size="10.00">tmp/reads/{strain}_shotgun.end1.fq.gz</text>
<text text-anchor="start" x="898" y="-1051.8" font-family="sans" font-size="10.00"> </text>
<text text-anchor="start" x="902" y="-1051.8" font-family="sans" font-weight="bold" font-size="14.00">output →</text>
<text text-anchor="start" x="972" y="-1051.8" font-family="sans" font-size="10.00"> </text>
<text text-anchor="start" x="621" y="-1032" font-family="monospace" font-size="10.00">tmp/alignments/04_Ac_{strain,C3|Neff}_instagraal_polish.sam</text>
<polygon fill="#d95757" stroke="#d95757" points="615,-1124 615,-1124 983,-1124 983,-1124 615,-1124"/>
<polygon fill="#d95757" stroke="#d95757" points="615,-1066 615,-1066 983,-1066 983,-1066 615,-1066"/>
<polygon fill="none" stroke="#d95757" stroke-width="2" points="614.5,-1023 614.5,-1153 981.5,-1153 981.5,-1023 614.5,-1023"/>
</g>
<!-- 4&#45;&gt;9 -->
<g id="edge12" class="edge">
<title>4&#45;&gt;9</title>
<path fill="none" stroke="grey" stroke-width="2" d="M825.54,-3161.48C877.73,-3146.53 930.81,-3124.49 974,-3092 1064.76,-3023.72 1097,-2981.58 1097,-2868 1097,-2868 1097,-2868 1097,-1423 1097,-1310.59 1001.82,-1218.7 918.86,-1159.96"/>
<polygon fill="grey" stroke="grey" stroke-width="2" points="920.82,-1157.06 910.61,-1154.2 916.81,-1162.8 920.82,-1157.06"/>
</g>
<!-- 14 -->
<g id="node15" class="node">
<title>14</title>
<text text-anchor="start" x="709.5" y="-2426.6" font-family="sans" font-weight="bold" font-size="18.00">align_shotgun_ont_assembly</text>
<text text-anchor="start" x="681" y="-2402.8" font-family="sans" font-size="10.00"> </text>
<text text-anchor="start" x="685" y="-2402.8" font-family="sans" font-weight="bold" font-size="14.00">↪ input</text>
<text text-anchor="start" x="743" y="-2402.8" font-family="sans" font-size="10.00"> </text>
<text text-anchor="start" x="681" y="-2383" font-family="monospace" font-size="10.00">out/assemblies/01_Ac_{strain}_flye.fa</text>
<text text-anchor="start" x="681" y="-2365" font-family="monospace" font-size="10.00">tmp/reads/{strain}_shotgun.end1.fq.gz</text>
<text text-anchor="start" x="946" y="-2344.8" font-family="sans" font-size="10.00"> </text>
<text text-anchor="start" x="950" y="-2344.8" font-family="sans" font-weight="bold" font-size="14.00">output →</text>
<text text-anchor="start" x="1020" y="-2344.8" font-family="sans" font-size="10.00"> </text>
<text text-anchor="start" x="681" y="-2325" font-family="monospace" font-size="10.00">tmp/alignments/shotgun_vs_01_Ac_{strain,C3|Neff}_flye.bam</text>
<polygon fill="#57d9d3" stroke="#57d9d3" points="675,-2417 675,-2417 1031,-2417 1031,-2417 675,-2417"/>
<polygon fill="#57d9d3" stroke="#57d9d3" points="675,-2359 675,-2359 1031,-2359 1031,-2359 675,-2359"/>
<polygon fill="none" stroke="#57d9d3" stroke-width="2" points="674.5,-2316 674.5,-2446 1029.5,-2446 1029.5,-2316 674.5,-2316"/>
</g>
<!-- 4&#45;&gt;14 -->
<g id="edge23" class="edge">
<title>4&#45;&gt;14</title>
<path fill="none" stroke="grey" stroke-width="2" d="M667.18,-3127.81C675.9,-3116.37 684.22,-3104.2 691,-3092 742.09,-3000.12 767,-2973.13 767,-2868 767,-2868 767,-2868 767,-2698 767,-2613.16 795.92,-2519.77 820.03,-2456.68"/>
<polygon fill="grey" stroke="grey" stroke-width="2" points="823.35,-2457.8 823.7,-2447.21 816.82,-2455.27 823.35,-2457.8"/>
</g>
<!-- 17 -->
<g id="node18" class="node">
<title>17</title>
<text text-anchor="start" x="350" y="-2921.6" font-family="sans" font-weight="bold" font-size="18.00">filter_long_reads</text>
<text text-anchor="start" x="274" y="-2897.8" font-family="sans" font-size="10.00"> </text>
<text text-anchor="start" x="278" y="-2897.8" font-family="sans" font-weight="bold" font-size="14.00">↪ input</text>
<text text-anchor="start" x="336" y="-2897.8" font-family="sans" font-size="10.00"> </text>
<text text-anchor="start" x="274" y="-2878" font-family="monospace" font-size="10.00">tmp/reads/{strain}_long_reads.fa</text>
<text text-anchor="start" x="274" y="-2860" font-family="monospace" font-size="10.00">tmp/reads/{strain}_shotgun.end1.fq.gz</text>
<text text-anchor="start" x="274" y="-2842" font-family="monospace" font-size="10.00">tmp/reads/{strain}_shotgun.end2.fq.gz</text>
<text text-anchor="start" x="515" y="-2821.8" font-family="sans" font-size="10.00"> </text>
<text text-anchor="start" x="519" y="-2821.8" font-family="sans" font-weight="bold" font-size="14.00">output →</text>
<text text-anchor="start" x="589" y="-2821.8" font-family="sans" font-size="10.00"> </text>
<text text-anchor="start" x="274" y="-2802" font-family="monospace" font-size="10.00">tmp/reads/{strain,C3|Neff}_long_reads_filtered_tmp.fa</text>
<polygon fill="#79d957" stroke="#79d957" points="268,-2912 268,-2912 600,-2912 600,-2912 268,-2912"/>
<polygon fill="#79d957" stroke="#79d957" points="268,-2836 268,-2836 600,-2836 600,-2836 268,-2836"/>
<polygon fill="none" stroke="#79d957" stroke-width="2" points="267.5,-2793 267.5,-2941 598.5,-2941 598.5,-2793 267.5,-2793"/>
</g>
<!-- 4&#45;&gt;17 -->
<g id="edge28" class="edge">
<title>4&#45;&gt;17</title>
<path fill="none" stroke="grey" stroke-width="2" d="M425.51,-3127.98C412.89,-3117.66 401.73,-3105.75 393,-3092 366.6,-3050.44 375.39,-2996.25 391.36,-2951.58"/>
<polygon fill="grey" stroke="grey" stroke-width="2" points="394.64,-2952.8 394.87,-2942.2 388.09,-2950.35 394.64,-2952.8"/>
</g>
<!-- 18 -->
<g id="node19" class="node">
<title>18</title>
<text text-anchor="start" x="435" y="-3071.6" font-family="sans" font-weight="bold" font-size="18.00">fastq_to_fasta_ONT</text>
<text text-anchor="start" x="410" y="-3047.8" font-family="sans" font-size="10.00"> </text>
<text text-anchor="start" x="414" y="-3047.8" font-family="sans" font-weight="bold" font-size="14.00">↪ input</text>
<text text-anchor="start" x="472" y="-3047.8" font-family="sans" font-size="10.00"> </text>
<text text-anchor="start" x="410" y="-3028" font-family="monospace" font-size="10.00">tmp/reads/{strain}_long_reads.end1.fq.gz</text>
<text text-anchor="start" x="573" y="-3007.8" font-family="sans" font-size="10.00"> </text>
<text text-anchor="start" x="577" y="-3007.8" font-family="sans" font-weight="bold" font-size="14.00">output →</text>
<text text-anchor="start" x="647" y="-3007.8" font-family="sans" font-size="10.00"> </text>
<text text-anchor="start" x="410" y="-2988" font-family="monospace" font-size="10.00">tmp/reads/{strain,C3|Neff}_long_reads.fa</text>
<polygon fill="#d9b157" stroke="#d9b157" points="404,-3062 404,-3062 658,-3062 658,-3062 404,-3062"/>
<polygon fill="#d9b157" stroke="#d9b157" points="404,-3022 404,-3022 658,-3022 658,-3022 404,-3022"/>
<polygon fill="none" stroke="#d9b157" stroke-width="2" points="403.5,-2979 403.5,-3091 656.5,-3091 656.5,-2979 403.5,-2979"/>
</g>
<!-- 4&#45;&gt;18 -->
<g id="edge29" class="edge">
<title>4&#45;&gt;18</title>
<path fill="none" stroke="grey" stroke-width="2" d="M575.6,-3127.78C571.25,-3119.03 566.79,-3110.05 562.44,-3101.29"/>
<polygon fill="grey" stroke="grey" stroke-width="2" points="565.54,-3099.67 557.95,-3092.27 559.27,-3102.78 565.54,-3099.67"/>
</g>
<!-- 19 -->
<g id="node20" class="node">
<title>19</title>
<text text-anchor="start" x="76.5" y="-2426.6" font-family="sans" font-weight="bold" font-size="18.00">align_ont_ont_assembly</text>
<text text-anchor="start" x="36" y="-2402.8" font-family="sans" font-size="10.00"> </text>
<text text-anchor="start" x="40" y="-2402.8" font-family="sans" font-weight="bold" font-size="14.00">↪ input</text>
<text text-anchor="start" x="98" y="-2402.8" font-family="sans" font-size="10.00"> </text>
<text text-anchor="start" x="36" y="-2383" font-family="monospace" font-size="10.00">out/assemblies/01_Ac_{strain}_flye.fa</text>
<text text-anchor="start" x="36" y="-2365" font-family="monospace" font-size="10.00">tmp/reads/{strain}_long_reads.end1.fq.gz</text>
<text text-anchor="start" x="277" y="-2344.8" font-family="sans" font-size="10.00"> </text>
<text text-anchor="start" x="281" y="-2344.8" font-family="sans" font-weight="bold" font-size="14.00">output →</text>
<text text-anchor="start" x="351" y="-2344.8" font-family="sans" font-size="10.00"> </text>
<text text-anchor="start" x="36" y="-2325" font-family="monospace" font-size="10.00">tmp/alignments/ONT_vs_01_Ac_{strain,C3|Neff}_flye.bam</text>
<polygon fill="#d99b57" stroke="#d99b57" points="30,-2417 30,-2417 362,-2417 362,-2417 30,-2417"/>
<polygon fill="#d99b57" stroke="#d99b57" points="30,-2359 30,-2359 362,-2359 362,-2359 30,-2359"/>
<polygon fill="none" stroke="#d99b57" stroke-width="2" points="29.5,-2316 29.5,-2446 360.5,-2446 360.5,-2316 29.5,-2316"/>
</g>
<!-- 4&#45;&gt;19 -->
<g id="edge30" class="edge">
<title>4&#45;&gt;19</title>
<path fill="none" stroke="grey" stroke-width="2" d="M436.35,-3127.97C330.94,-3075.68 216,-2990.55 216,-2868 216,-2868 216,-2868 216,-2698 216,-2615.54 208.79,-2521.24 202.82,-2457.28"/>
<polygon fill="grey" stroke="grey" stroke-width="2" points="206.3,-2456.9 201.88,-2447.28 199.33,-2457.56 206.3,-2456.9"/>
</g>
<!-- 20 -->
<g id="node21" class="node">
<title>20</title>
<text text-anchor="start" x="472" y="-2435.6" font-family="sans" font-weight="bold" font-size="18.00">compute_cov</text>
<text text-anchor="start" x="426" y="-2411.8" font-family="sans" font-size="10.00"> </text>
<text text-anchor="start" x="430" y="-2411.8" font-family="sans" font-weight="bold" font-size="14.00">↪ input</text>
<text text-anchor="start" x="488" y="-2411.8" font-family="sans" font-size="10.00"> </text>
<text text-anchor="start" x="426" y="-2392" font-family="monospace" font-size="10.00">out/assemblies/01_Ac_{strain}_flye.fa</text>
<text text-anchor="start" x="426" y="-2374" font-family="monospace" font-size="10.00">tmp/reads/{strain}_shotgun.end1.fq.gz</text>
<text text-anchor="start" x="571" y="-2353.8" font-family="sans" font-size="10.00"> </text>
<text text-anchor="start" x="575" y="-2353.8" font-family="sans" font-weight="bold" font-size="14.00">output →</text>
<text text-anchor="start" x="645" y="-2353.8" font-family="sans" font-size="10.00"> </text>
<text text-anchor="start" x="426" y="-2334" font-family="monospace" font-size="10.00">out/coverage_{strain,C3|Neff}.txt</text>
<text text-anchor="start" x="426" y="-2316" font-family="monospace" font-size="10.00">out/length_{strain,C3|Neff}.txt</text>
<polygon fill="#57d9a6" stroke="#57d9a6" points="420,-2426 420,-2426 656,-2426 656,-2426 420,-2426"/>
<polygon fill="#57d9a6" stroke="#57d9a6" points="420,-2368 420,-2368 656,-2368 656,-2368 420,-2368"/>
<polygon fill="none" stroke="#57d9a6" stroke-width="2" points="419.5,-2307 419.5,-2455 654.5,-2455 654.5,-2307 419.5,-2307"/>
</g>
<!-- 4&#45;&gt;20 -->
<g id="edge32" class="edge">
<title>4&#45;&gt;20</title>
<path fill="none" stroke="grey" stroke-width="2" d="M650.81,-3127.78C656.8,-3116.24 662.2,-3104.05 666,-3092 696.03,-2996.67 686,-2967.95 686,-2868 686,-2868 686,-2868 686,-2698 686,-2612.7 641.03,-2525.75 600.5,-2464.71"/>
<polygon fill="grey" stroke="grey" stroke-width="2" points="603.31,-2462.61 594.82,-2456.27 597.5,-2466.52 603.31,-2462.61"/>
</g>
<!-- 22 -->
<g id="node23" class="node">
<title>22</title>
<text text-anchor="start" x="699.5" y="-1823.6" font-family="sans" font-weight="bold" font-size="18.00">hicstuff_hic_processing</text>
<text text-anchor="start" x="689" y="-1799.8" font-family="sans" font-size="10.00"> </text>
<text text-anchor="start" x="693" y="-1799.8" font-family="sans" font-weight="bold" font-size="14.00">↪ input</text>
<text text-anchor="start" x="751" y="-1799.8" font-family="sans" font-size="10.00"> </text>
<text text-anchor="start" x="689" y="-1780" font-family="monospace" font-size="10.00">out/assemblies/02_Ac_{strain}_hypo_nucl.fa</text>
<text text-anchor="start" x="689" y="-1762" font-family="monospace" font-size="10.00">tmp/reads/{strain}_hic.end1.fq.gz</text>
<text text-anchor="start" x="864" y="-1741.8" font-family="sans" font-size="10.00"> </text>
<text text-anchor="start" x="868" y="-1741.8" font-family="sans" font-weight="bold" font-size="14.00">output →</text>
<text text-anchor="start" x="938" y="-1741.8" font-family="sans" font-size="10.00"> </text>
<text text-anchor="start" x="689" y="-1722" font-family="monospace" font-size="10.00">tmp/hicstuff/{strain,C3|Neff}_nucl</text>
<polygon fill="#576dd9" stroke="#576dd9" points="683,-1814 683,-1814 949,-1814 949,-1814 683,-1814"/>
<polygon fill="#576dd9" stroke="#576dd9" points="683,-1756 683,-1756 949,-1756 949,-1756 683,-1756"/>
<polygon fill="none" stroke="#576dd9" stroke-width="2" points="682.5,-1713 682.5,-1843 947.5,-1843 947.5,-1713 682.5,-1713"/>
</g>
<!-- 4&#45;&gt;22 -->
<g id="edge36" class="edge">
<title>4&#45;&gt;22</title>
<path fill="none" stroke="grey" stroke-width="2" d="M822.6,-3127.92C938.87,-3077.98 1059,-2995.51 1059,-2868 1059,-2868 1059,-2868 1059,-2167 1059,-2041.6 966.54,-1923.56 895.45,-1851.34"/>
<polygon fill="grey" stroke="grey" stroke-width="2" points="897.74,-1848.68 888.21,-1844.06 892.78,-1853.62 897.74,-1848.68"/>
</g>
<!-- 5 -->
<g id="node6" class="node">
<title>5</title>
<text text-anchor="start" x="563" y="-3389.6" font-family="sans" font-weight="bold" font-size="18.00">sra_to_fq</text>
<text text-anchor="start" x="422" y="-3365.8" font-family="sans" font-size="10.00"> </text>
<text text-anchor="start" x="426" y="-3365.8" font-family="sans" font-weight="bold" font-size="14.00">↪ input</text>
<text text-anchor="start" x="484" y="-3365.8" font-family="sans" font-size="10.00"> </text>
<text text-anchor="start" x="422" y="-3346" font-family="monospace" font-size="10.00">&lt;input function&gt;</text>
<text text-anchor="start" x="717" y="-3325.8" font-family="sans" font-size="10.00"> </text>
<text text-anchor="start" x="721" y="-3325.8" font-family="sans" font-weight="bold" font-size="14.00">output →</text>
<text text-anchor="start" x="791" y="-3325.8" font-family="sans" font-size="10.00"> </text>
<text text-anchor="start" x="422" y="-3306" font-family="monospace" font-size="10.00">fq/{strain,C3|Neff}/{libtype,hic|long_reads|shotgun}/{libname}</text>
<polygon fill="#d98457" stroke="#d98457" points="416,-3380 416,-3380 802,-3380 802,-3380 416,-3380"/>
<polygon fill="#d98457" stroke="#d98457" points="416,-3340 416,-3340 802,-3340 802,-3340 416,-3340"/>
<polygon fill="none" stroke="#d98457" stroke-width="2" points="415.5,-3297 415.5,-3409 800.5,-3409 800.5,-3297 415.5,-3297"/>
</g>
<!-- 5&#45;&gt;4 -->
<g id="edge7" class="edge">
<title>5&#45;&gt;4</title>
<path fill="none" stroke="grey" stroke-width="2" d="M608,-3295.76C608,-3287.48 608,-3278.83 608,-3270.24"/>
<polygon fill="grey" stroke="grey" stroke-width="2" points="611.5,-3270.2 608,-3260.2 604.5,-3270.2 611.5,-3270.2"/>
</g>
<!-- 6 -->
<g id="node7" class="node">
<title>6</title>
<text text-anchor="start" x="578.5" y="-3517.6" font-family="sans" font-weight="bold" font-size="18.00">dl_sra</text>
<text text-anchor="start" x="557" y="-3496" font-family="sans" font-size="10.00"> &#160;</text>
<text text-anchor="start" x="582" y="-3475.8" font-family="sans" font-size="10.00"> </text>
<text text-anchor="start" x="586" y="-3475.8" font-family="sans" font-weight="bold" font-size="14.00">output →</text>
<text text-anchor="start" x="656" y="-3475.8" font-family="sans" font-size="10.00"> </text>
<text text-anchor="start" x="557" y="-3456" font-family="monospace" font-size="10.00">tmp/sra/{acc}.sra</text>
<polygon fill="#57c8d9" stroke="#57c8d9" points="551,-3508 551,-3508 667,-3508 667,-3508 551,-3508"/>
<polygon fill="#57c8d9" stroke="#57c8d9" points="551,-3490 551,-3490 667,-3490 667,-3490 551,-3490"/>
<polygon fill="none" stroke="#57c8d9" stroke-width="2" points="550.5,-3447 550.5,-3537 665.5,-3537 665.5,-3447 550.5,-3447"/>
</g>
<!-- 6&#45;&gt;5 -->
<g id="edge8" class="edge">
<title>6&#45;&gt;5</title>
<path fill="none" stroke="grey" stroke-width="2" d="M608,-3445.76C608,-3437.58 608,-3428.9 608,-3420.27"/>
<polygon fill="grey" stroke="grey" stroke-width="2" points="611.5,-3420.19 608,-3410.19 604.5,-3420.19 611.5,-3420.19"/>
</g>
<!-- 7 -->
<g id="node8" class="node">
<title>7</title>
<text text-anchor="start" x="453" y="-797.6" font-family="sans" font-weight="bold" font-size="18.00">post_hic_pilon_polishing</text>
<text text-anchor="start" x="408" y="-773.8" font-family="sans" font-size="10.00"> </text>
<text text-anchor="start" x="412" y="-773.8" font-family="sans" font-weight="bold" font-size="14.00">↪ input</text>
<text text-anchor="start" x="470" y="-773.8" font-family="sans" font-size="10.00"> </text>
<text text-anchor="start" x="408" y="-754" font-family="monospace" font-size="10.00">out/assemblies/04_Ac_{strain}_instagraal_polish.fa</text>
<text text-anchor="start" x="408" y="-736" font-family="monospace" font-size="10.00">tmp/alignments/04_Ac_{strain}_instagraal_polish.bam</text>
<text text-anchor="start" x="408" y="-718" font-family="monospace" font-size="10.00">tmp/alignments/04_Ac_{strain}_instagraal_polish.bam.bai</text>
<text text-anchor="start" x="661" y="-697.8" font-family="sans" font-size="10.00"> </text>
<text text-anchor="start" x="665" y="-697.8" font-family="sans" font-weight="bold" font-size="14.00">output →</text>
<text text-anchor="start" x="735" y="-697.8" font-family="sans" font-size="10.00"> </text>
<text text-anchor="start" x="408" y="-678" font-family="monospace" font-size="10.00">out/assemblies/05_Ac_{strain,C3|Neff}_pilon.fa</text>
<polygon fill="#d96d57" stroke="#d96d57" points="402,-788 402,-788 746,-788 746,-788 402,-788"/>
<polygon fill="#d96d57" stroke="#d96d57" points="402,-712 402,-712 746,-712 746,-712 402,-712"/>
<polygon fill="none" stroke="#d96d57" stroke-width="2" points="401.5,-669 401.5,-817 744.5,-817 744.5,-669 401.5,-669"/>
</g>
<!-- 7&#45;&gt;1 -->
<g id="edge2" class="edge">
<title>7&#45;&gt;1</title>
<path fill="none" stroke="grey" stroke-width="2" d="M583.3,-667.66C591.92,-583.24 596.83,-442.83 554,-332 550.34,-322.54 545.53,-313.29 540.03,-304.43"/>
<polygon fill="grey" stroke="grey" stroke-width="2" points="542.95,-302.51 534.55,-296.06 537.1,-306.35 542.95,-302.51"/>
</g>
<!-- 7&#45;&gt;3 -->
<g id="edge5" class="edge">
<title>7&#45;&gt;3</title>
<path fill="none" stroke="grey" stroke-width="2" d="M479.7,-667.78C467.5,-658.08 455.02,-648.15 442.88,-638.49"/>
<polygon fill="grey" stroke="grey" stroke-width="2" points="444.96,-635.67 434.95,-632.19 440.6,-641.15 444.96,-635.67"/>
</g>
<!-- 8 -->
<g id="node9" class="node">
<title>8</title>
<text text-anchor="start" x="654" y="-965.6" font-family="sans" font-weight="bold" font-size="18.00">index_shotgun_bam_pilon_3c</text>
<text text-anchor="start" x="609" y="-941.8" font-family="sans" font-size="10.00"> </text>
<text text-anchor="start" x="613" y="-941.8" font-family="sans" font-weight="bold" font-size="14.00">↪ input</text>
<text text-anchor="start" x="671" y="-941.8" font-family="sans" font-size="10.00"> </text>
<text text-anchor="start" x="609" y="-922" font-family="monospace" font-size="10.00">tmp/alignments/04_Ac_{strain}_instagraal_polish.sam</text>
<text text-anchor="start" x="910" y="-901.8" font-family="sans" font-size="10.00"> </text>
<text text-anchor="start" x="914" y="-901.8" font-family="sans" font-weight="bold" font-size="14.00">output →</text>
<text text-anchor="start" x="984" y="-901.8" font-family="sans" font-size="10.00"> </text>
<text text-anchor="start" x="609" y="-882" font-family="monospace" font-size="10.00">tmp/alignments/04_Ac_{strain,C3|Neff}_instagraal_polish.bam</text>
<text text-anchor="start" x="609" y="-864" font-family="monospace" font-size="10.00">tmp/alignments/04_Ac_{strain,C3|Neff}_instagraal_polish.bam.bai</text>
<polygon fill="#57d962" stroke="#57d962" points="603,-956 603,-956 995,-956 995,-956 603,-956"/>
<polygon fill="#57d962" stroke="#57d962" points="603,-916 603,-916 995,-916 995,-916 603,-916"/>
<polygon fill="none" stroke="#57d962" stroke-width="2" points="602.5,-855 602.5,-985 993.5,-985 993.5,-855 602.5,-855"/>
</g>
<!-- 8&#45;&gt;7 -->
<g id="edge9" class="edge">
<title>8&#45;&gt;7</title>
<path fill="none" stroke="grey" stroke-width="2" d="M714.22,-853.84C701.8,-844.18 688.89,-834.13 676.13,-824.21"/>
<polygon fill="grey" stroke="grey" stroke-width="2" points="678.26,-821.43 668.22,-818.06 673.96,-826.96 678.26,-821.43"/>
</g>
<!-- 9&#45;&gt;8 -->
<g id="edge11" class="edge">
<title>9&#45;&gt;8</title>
<path fill="none" stroke="grey" stroke-width="2" d="M798,-1021.87C798,-1013.54 798,-1004.96 798,-996.48"/>
<polygon fill="grey" stroke="grey" stroke-width="2" points="801.5,-996.22 798,-986.22 794.5,-996.22 801.5,-996.22"/>
</g>
<!-- 10 -->
<g id="node11" class="node">
<title>10</title>
<text text-anchor="start" x="597" y="-1301.6" font-family="sans" font-weight="bold" font-size="18.00">merge_organelles</text>
<text text-anchor="start" x="512" y="-1277.8" font-family="sans" font-size="10.00"> </text>
<text text-anchor="start" x="516" y="-1277.8" font-family="sans" font-weight="bold" font-size="14.00">↪ input</text>
<text text-anchor="start" x="574" y="-1277.8" font-family="sans" font-size="10.00"> </text>
<text text-anchor="start" x="512" y="-1258" font-family="monospace" font-size="10.00">out/assemblies/02_Ac_{strain}_hypo_mito.fa</text>
<text text-anchor="start" x="512" y="-1240" font-family="monospace" font-size="10.00">out/assemblies/04_Ac_{strain}_instagraal_polish_nucl.fa</text>
<text text-anchor="start" x="783" y="-1219.8" font-family="sans" font-size="10.00"> </text>
<text text-anchor="start" x="787" y="-1219.8" font-family="sans" font-weight="bold" font-size="14.00">output →</text>
<text text-anchor="start" x="857" y="-1219.8" font-family="sans" font-size="10.00"> </text>
<text text-anchor="start" x="512" y="-1200" font-family="monospace" font-size="10.00">out/assemblies/04_Ac_{strain,C3|Neff}_instagraal_polish.fa</text>
<polygon fill="#bcd957" stroke="#bcd957" points="506,-1292 506,-1292 868,-1292 868,-1292 506,-1292"/>
<polygon fill="#bcd957" stroke="#bcd957" points="506,-1234 506,-1234 868,-1234 868,-1234 506,-1234"/>
<polygon fill="none" stroke="#bcd957" stroke-width="2" points="505.5,-1191 505.5,-1321 866.5,-1321 866.5,-1191 505.5,-1191"/>
</g>
<!-- 10&#45;&gt;7 -->
<g id="edge10" class="edge">
<title>10&#45;&gt;7</title>
<path fill="none" stroke="grey" stroke-width="2" d="M624.01,-1189.9C616.06,-1178.62 608.97,-1166.49 604,-1154 561.65,-1047.56 560.21,-913.46 565.04,-828.2"/>
<polygon fill="grey" stroke="grey" stroke-width="2" points="568.54,-828.24 565.65,-818.05 561.55,-827.81 568.54,-828.24"/>
</g>
<!-- 10&#45;&gt;9 -->
<g id="edge13" class="edge">
<title>10&#45;&gt;9</title>
<path fill="none" stroke="grey" stroke-width="2" d="M729.94,-1189.87C736,-1180.9 742.25,-1171.63 748.39,-1162.53"/>
<polygon fill="grey" stroke="grey" stroke-width="2" points="751.31,-1164.46 754,-1154.22 745.5,-1160.55 751.31,-1164.46"/>
</g>
<!-- 11 -->
<g id="node12" class="node">
<title>11</title>
<text text-anchor="start" x="713" y="-1469.6" font-family="sans" font-weight="bold" font-size="18.00">instagraal_polish</text>
<text text-anchor="start" x="609" y="-1445.8" font-family="sans" font-size="10.00"> </text>
<text text-anchor="start" x="613" y="-1445.8" font-family="sans" font-weight="bold" font-size="14.00">↪ input</text>
<text text-anchor="start" x="671" y="-1445.8" font-family="sans" font-size="10.00"> </text>
<text text-anchor="start" x="609" y="-1426" font-family="monospace" font-size="10.00">out/assemblies/02_Ac_{strain}_hypo_nucl.fa</text>
<text text-anchor="start" x="609" y="-1408" font-family="monospace" font-size="10.00">tmp/info_frags_{strain}.txt</text>
<text text-anchor="start" x="910" y="-1387.8" font-family="sans" font-size="10.00"> </text>
<text text-anchor="start" x="914" y="-1387.8" font-family="sans" font-weight="bold" font-size="14.00">output →</text>
<text text-anchor="start" x="984" y="-1387.8" font-family="sans" font-size="10.00"> </text>
<text text-anchor="start" x="609" y="-1368" font-family="monospace" font-size="10.00">out/assemblies/04_Ac_{strain,C3|Neff}_instagraal_polish_nucl.fa</text>
<polygon fill="#57b1d9" stroke="#57b1d9" points="603,-1460 603,-1460 995,-1460 995,-1460 603,-1460"/>
<polygon fill="#57b1d9" stroke="#57b1d9" points="603,-1402 603,-1402 995,-1402 995,-1402 603,-1402"/>
<polygon fill="none" stroke="#57b1d9" stroke-width="2" points="602.5,-1359 602.5,-1489 993.5,-1489 993.5,-1359 602.5,-1359"/>
</g>
<!-- 11&#45;&gt;10 -->
<g id="edge14" class="edge">
<title>11&#45;&gt;10</title>
<path fill="none" stroke="grey" stroke-width="2" d="M754.06,-1357.87C748,-1348.9 741.75,-1339.63 735.61,-1330.53"/>
<polygon fill="grey" stroke="grey" stroke-width="2" points="738.5,-1328.55 730,-1322.22 732.69,-1332.46 738.5,-1328.55"/>
</g>
<!-- 12 -->
<g id="node13" class="node">
<title>12</title>
<text text-anchor="start" x="539" y="-2009.6" font-family="sans" font-weight="bold" font-size="18.00">split_mito_tigs</text>
<text text-anchor="start" x="443" y="-1985.8" font-family="sans" font-size="10.00"> </text>
<text text-anchor="start" x="447" y="-1985.8" font-family="sans" font-weight="bold" font-size="14.00">↪ input</text>
<text text-anchor="start" x="505" y="-1985.8" font-family="sans" font-size="10.00"> </text>
<text text-anchor="start" x="443" y="-1966" font-family="monospace" font-size="10.00">assets/Acastellanii_neff_mitochontrion_NC_001637.1.fasta</text>
<text text-anchor="start" x="443" y="-1948" font-family="monospace" font-size="10.00">out/assemblies/02_Ac_{strain}_hypo.fa</text>
<text text-anchor="start" x="702" y="-1927.8" font-family="sans" font-size="10.00"> </text>
<text text-anchor="start" x="706" y="-1927.8" font-family="sans" font-weight="bold" font-size="14.00">output →</text>
<text text-anchor="start" x="776" y="-1927.8" font-family="sans" font-size="10.00"> </text>
<text text-anchor="start" x="443" y="-1908" font-family="monospace" font-size="10.00">out/assemblies/02_Ac_{strain,C3|Neff}_hypo_mito.fa</text>
<text text-anchor="start" x="443" y="-1890" font-family="monospace" font-size="10.00">out/assemblies/02_Ac_{strain,C3|Neff}_hypo_nucl.fa</text>
<polygon fill="#5784d9" stroke="#5784d9" points="437,-2000 437,-2000 787,-2000 787,-2000 437,-2000"/>
<polygon fill="#5784d9" stroke="#5784d9" points="437,-1942 437,-1942 787,-1942 787,-1942 437,-1942"/>
<polygon fill="none" stroke="#5784d9" stroke-width="2" points="436.5,-1881 436.5,-2029 785.5,-2029 785.5,-1881 436.5,-1881"/>
</g>
<!-- 12&#45;&gt;10 -->
<g id="edge15" class="edge">
<title>12&#45;&gt;10</title>
<path fill="none" stroke="grey" stroke-width="2" d="M590.44,-1879.73C562.27,-1763.73 522.56,-1534.54 592,-1358 595.79,-1348.37 600.97,-1339.12 606.98,-1330.38"/>
<polygon fill="grey" stroke="grey" stroke-width="2" points="609.9,-1332.32 612.97,-1322.17 604.24,-1328.19 609.9,-1332.32"/>
</g>
<!-- 12&#45;&gt;11 -->
<g id="edge17" class="edge">
<title>12&#45;&gt;11</title>
<path fill="none" stroke="grey" stroke-width="2" d="M606.05,-1879.77C600.31,-1773.32 595.62,-1583.76 630,-1526 636.32,-1515.39 644.22,-1505.75 653.14,-1497.03"/>
<polygon fill="grey" stroke="grey" stroke-width="2" points="655.52,-1499.59 660.49,-1490.23 650.77,-1494.45 655.52,-1499.59"/>
</g>
<!-- 21 -->
<g id="node22" class="node">
<title>21</title>
<text text-anchor="start" x="705.5" y="-1655.6" font-family="sans" font-weight="bold" font-size="18.00">instagraal_scaffolding</text>
<text text-anchor="start" x="647" y="-1631.8" font-family="sans" font-size="10.00"> </text>
<text text-anchor="start" x="651" y="-1631.8" font-family="sans" font-weight="bold" font-size="14.00">↪ input</text>
<text text-anchor="start" x="709" y="-1631.8" font-family="sans" font-size="10.00"> </text>
<text text-anchor="start" x="647" y="-1612" font-family="monospace" font-size="10.00">out/assemblies/02_Ac_{strain}_hypo_nucl.fa</text>
<text text-anchor="start" x="647" y="-1594" font-family="monospace" font-size="10.00">tmp/hicstuff/{strain}_nucl</text>
<text text-anchor="start" x="906" y="-1573.8" font-family="sans" font-size="10.00"> </text>
<text text-anchor="start" x="910" y="-1573.8" font-family="sans" font-weight="bold" font-size="14.00">output →</text>
<text text-anchor="start" x="980" y="-1573.8" font-family="sans" font-size="10.00"> </text>
<text text-anchor="start" x="647" y="-1554" font-family="monospace" font-size="10.00">out/assemblies/03_Ac_{strain,C3|Neff}_instagraal_nucl.fa</text>
<text text-anchor="start" x="647" y="-1536" font-family="monospace" font-size="10.00">tmp/info_frags_{strain,C3|Neff}.txt</text>
<polygon fill="#57d9bc" stroke="#57d9bc" points="641,-1646 641,-1646 991,-1646 991,-1646 641,-1646"/>
<polygon fill="#57d9bc" stroke="#57d9bc" points="641,-1588 641,-1588 991,-1588 991,-1588 641,-1588"/>
<polygon fill="none" stroke="#57d9bc" stroke-width="2" points="640.5,-1527 640.5,-1675 989.5,-1675 989.5,-1527 640.5,-1527"/>
</g>
<!-- 12&#45;&gt;21 -->
<g id="edge34" class="edge">
<title>12&#45;&gt;21</title>
<path fill="none" stroke="grey" stroke-width="2" d="M624.13,-1879.96C635.87,-1819.42 653.96,-1739.48 672,-1712 678.58,-1701.98 686.39,-1692.49 694.92,-1683.61"/>
<polygon fill="grey" stroke="grey" stroke-width="2" points="697.64,-1685.84 702.23,-1676.29 692.69,-1680.89 697.64,-1685.84"/>
</g>
<!-- 12&#45;&gt;22 -->
<g id="edge37" class="edge">
<title>12&#45;&gt;22</title>
<path fill="none" stroke="grey" stroke-width="2" d="M697.51,-1879.78C708.72,-1870.17 720.18,-1860.34 731.34,-1850.77"/>
<polygon fill="grey" stroke="grey" stroke-width="2" points="733.7,-1853.36 739.01,-1844.19 729.14,-1848.04 733.7,-1853.36"/>
</g>
<!-- 13 -->
<g id="node14" class="node">
<title>13</title>
<text text-anchor="start" x="462" y="-2249.6" font-family="sans" font-weight="bold" font-size="18.00">hypo_polishing</text>
<text text-anchor="start" x="390" y="-2225.8" font-family="sans" font-size="10.00"> </text>
<text text-anchor="start" x="394" y="-2225.8" font-family="sans" font-weight="bold" font-size="14.00">↪ input</text>
<text text-anchor="start" x="452" y="-2225.8" font-family="sans" font-size="10.00"> </text>
<text text-anchor="start" x="390" y="-2206" font-family="monospace" font-size="10.00">out/assemblies/01_Ac_{strain}_flye.fa</text>
<text text-anchor="start" x="390" y="-2188" font-family="monospace" font-size="10.00">out/coverage_{strain}.txt</text>
<text text-anchor="start" x="390" y="-2170" font-family="monospace" font-size="10.00">out/length_{strain}.txt</text>
<text text-anchor="start" x="390" y="-2152" font-family="monospace" font-size="10.00">tmp/alignments/ONT_vs_01_Ac_{strain}_flye.bam</text>
<text text-anchor="start" x="390" y="-2134" font-family="monospace" font-size="10.00">tmp/alignments/shotgun_vs_01_Ac_{strain}_flye.bam</text>
<text text-anchor="start" x="607" y="-2113.8" font-family="sans" font-size="10.00"> </text>
<text text-anchor="start" x="611" y="-2113.8" font-family="sans" font-weight="bold" font-size="14.00">output →</text>
<text text-anchor="start" x="681" y="-2113.8" font-family="sans" font-size="10.00"> </text>
<text text-anchor="start" x="390" y="-2094" font-family="monospace" font-size="10.00">out/assemblies/02_Ac_{strain,C3|Neff}_hypo.fa</text>
<text text-anchor="start" x="390" y="-2076" font-family="monospace" font-size="10.00">tmp/{strain,C3|Neff}_fq_list.txt</text>
<polygon fill="#a6d957" stroke="#a6d957" points="384,-2240 384,-2240 692,-2240 692,-2240 384,-2240"/>
<polygon fill="#a6d957" stroke="#a6d957" points="384,-2128 384,-2128 692,-2128 692,-2128 384,-2128"/>
<polygon fill="none" stroke="#a6d957" stroke-width="2" points="383.5,-2067 383.5,-2269 690.5,-2269 690.5,-2067 383.5,-2067"/>
</g>
<!-- 13&#45;&gt;12 -->
<g id="edge18" class="edge">
<title>13&#45;&gt;12</title>
<path fill="none" stroke="grey" stroke-width="2" d="M572.48,-2065.83C575.56,-2057.07 578.64,-2048.27 581.66,-2039.67"/>
<polygon fill="grey" stroke="grey" stroke-width="2" points="585.02,-2040.65 585.03,-2030.06 578.41,-2038.34 585.02,-2040.65"/>
</g>
<!-- 14&#45;&gt;13 -->
<g id="edge21" class="edge">
<title>14&#45;&gt;13</title>
<path fill="none" stroke="grey" stroke-width="2" d="M754.92,-2314.97C736.33,-2302.52 716.43,-2289.19 696.47,-2275.82"/>
<polygon fill="grey" stroke="grey" stroke-width="2" points="698.18,-2272.75 687.93,-2270.1 694.29,-2278.57 698.18,-2272.75"/>
</g>
<!-- 15 -->
<g id="node16" class="node">
<title>15</title>
<text text-anchor="start" x="362.5" y="-2585.6" font-family="sans" font-weight="bold" font-size="18.00">flye_assembly</text>
<text text-anchor="start" x="298" y="-2561.8" font-family="sans" font-size="10.00"> </text>
<text text-anchor="start" x="302" y="-2561.8" font-family="sans" font-weight="bold" font-size="14.00">↪ input</text>
<text text-anchor="start" x="360" y="-2561.8" font-family="sans" font-size="10.00"> </text>
<text text-anchor="start" x="298" y="-2542" font-family="monospace" font-size="10.00">tmp/reads/{strain}_long_reads_filtered.fa</text>
<text text-anchor="start" x="491" y="-2521.8" font-family="sans" font-size="10.00"> </text>
<text text-anchor="start" x="495" y="-2521.8" font-family="sans" font-weight="bold" font-size="14.00">output →</text>
<text text-anchor="start" x="565" y="-2521.8" font-family="sans" font-size="10.00"> </text>
<text text-anchor="start" x="298" y="-2502" font-family="monospace" font-size="10.00">out/assemblies/01_Ac_{strain,C3|Neff}_flye.fa</text>
<polygon fill="#d9c857" stroke="#d9c857" points="292,-2576 292,-2576 576,-2576 576,-2576 292,-2576"/>
<polygon fill="#d9c857" stroke="#d9c857" points="292,-2536 292,-2536 576,-2536 576,-2536 292,-2536"/>
<polygon fill="none" stroke="#d9c857" stroke-width="2" points="291.5,-2493 291.5,-2605 574.5,-2605 574.5,-2493 291.5,-2493"/>
</g>
<!-- 15&#45;&gt;13 -->
<g id="edge20" class="edge">
<title>15&#45;&gt;13</title>
<path fill="none" stroke="grey" stroke-width="2" d="M413.1,-2491.67C398.59,-2441.28 385.22,-2366.29 409,-2306 412.67,-2296.69 417.31,-2287.64 422.63,-2278.92"/>
<polygon fill="grey" stroke="grey" stroke-width="2" points="425.7,-2280.62 428.16,-2270.31 419.81,-2276.83 425.7,-2280.62"/>
</g>
<!-- 15&#45;&gt;14 -->
<g id="edge24" class="edge">
<title>15&#45;&gt;14</title>
<path fill="none" stroke="grey" stroke-width="2" d="M574.56,-2491.92C607.78,-2478.76 643.55,-2464.59 678,-2450.94"/>
<polygon fill="grey" stroke="grey" stroke-width="2" points="679.67,-2454.04 687.67,-2447.1 677.09,-2447.53 679.67,-2454.04"/>
</g>
<!-- 15&#45;&gt;19 -->
<g id="edge31" class="edge">
<title>15&#45;&gt;19</title>
<path fill="none" stroke="grey" stroke-width="2" d="M352.42,-2491.8C334.45,-2479.26 315.17,-2465.81 296.47,-2452.78"/>
<polygon fill="grey" stroke="grey" stroke-width="2" points="298.43,-2449.87 288.22,-2447.02 294.42,-2455.61 298.43,-2449.87"/>
</g>
<!-- 15&#45;&gt;20 -->
<g id="edge33" class="edge">
<title>15&#45;&gt;20</title>
<path fill="none" stroke="grey" stroke-width="2" d="M468.21,-2491.8C473.66,-2483.1 479.38,-2473.97 485.1,-2464.84"/>
<polygon fill="grey" stroke="grey" stroke-width="2" points="488.24,-2466.43 490.58,-2456.09 482.3,-2462.71 488.24,-2466.43"/>
</g>
<!-- 16 -->
<g id="node17" class="node">
<title>16</title>
<text text-anchor="start" x="340.5" y="-2735.6" font-family="sans" font-weight="bold" font-size="18.00">format_long_reads</text>
<text text-anchor="start" x="286" y="-2711.8" font-family="sans" font-size="10.00"> </text>
<text text-anchor="start" x="290" y="-2711.8" font-family="sans" font-weight="bold" font-size="14.00">↪ input</text>
<text text-anchor="start" x="348" y="-2711.8" font-family="sans" font-size="10.00"> </text>
<text text-anchor="start" x="286" y="-2692" font-family="monospace" font-size="10.00">tmp/reads/{strain}_long_reads_filtered_tmp.fa</text>
<text text-anchor="start" x="503" y="-2671.8" font-family="sans" font-size="10.00"> </text>
<text text-anchor="start" x="507" y="-2671.8" font-family="sans" font-weight="bold" font-size="14.00">output →</text>
<text text-anchor="start" x="577" y="-2671.8" font-family="sans" font-size="10.00"> </text>
<text text-anchor="start" x="286" y="-2652" font-family="monospace" font-size="10.00">tmp/reads/{strain,C3|Neff}_long_reads_filtered.fa</text>
<polygon fill="#57d979" stroke="#57d979" points="280,-2726 280,-2726 588,-2726 588,-2726 280,-2726"/>
<polygon fill="#57d979" stroke="#57d979" points="280,-2686 280,-2686 588,-2686 588,-2686 280,-2686"/>
<polygon fill="none" stroke="#57d979" stroke-width="2" points="279.5,-2643 279.5,-2755 586.5,-2755 586.5,-2643 279.5,-2643"/>
</g>
<!-- 16&#45;&gt;15 -->
<g id="edge25" class="edge">
<title>16&#45;&gt;15</title>
<path fill="none" stroke="grey" stroke-width="2" d="M433,-2641.63C433,-2633.38 433,-2624.82 433,-2616.4"/>
<polygon fill="grey" stroke="grey" stroke-width="2" points="436.5,-2616.22 433,-2606.22 429.5,-2616.22 436.5,-2616.22"/>
</g>
<!-- 17&#45;&gt;16 -->
<g id="edge26" class="edge">
<title>17&#45;&gt;16</title>
<path fill="none" stroke="grey" stroke-width="2" d="M433,-2791.74C433,-2783.27 433,-2774.68 433,-2766.32"/>
<polygon fill="grey" stroke="grey" stroke-width="2" points="436.5,-2766.27 433,-2756.27 429.5,-2766.27 436.5,-2766.27"/>
</g>
<!-- 18&#45;&gt;17 -->
<g id="edge27" class="edge">
<title>18&#45;&gt;17</title>
<path fill="none" stroke="grey" stroke-width="2" d="M497.16,-2977.8C492.08,-2969.1 486.74,-2959.97 481.4,-2950.84"/>
<polygon fill="grey" stroke="grey" stroke-width="2" points="484.36,-2948.96 476.3,-2942.09 478.32,-2952.49 484.36,-2948.96"/>
</g>
<!-- 19&#45;&gt;13 -->
<g id="edge19" class="edge">
<title>19&#45;&gt;13</title>
<path fill="none" stroke="grey" stroke-width="2" d="M300.4,-2314.97C323.58,-2300.67 348.65,-2285.21 373.5,-2269.87"/>
<polygon fill="grey" stroke="grey" stroke-width="2" points="375.61,-2272.68 382.28,-2264.45 371.93,-2266.73 375.61,-2272.68"/>
</g>
<!-- 20&#45;&gt;13 -->
<g id="edge22" class="edge">
<title>20&#45;&gt;13</title>
<path fill="none" stroke="grey" stroke-width="2" d="M537,-2305.91C537,-2297.63 537,-2289.06 537,-2280.45"/>
<polygon fill="grey" stroke="grey" stroke-width="2" points="540.5,-2280.32 537,-2270.32 533.5,-2280.32 540.5,-2280.32"/>
</g>
<!-- 21&#45;&gt;11 -->
<g id="edge16" class="edge">
<title>21&#45;&gt;11</title>
<path fill="none" stroke="grey" stroke-width="2" d="M807.79,-1525.78C806.97,-1517.37 806.14,-1508.79 805.32,-1500.37"/>
<polygon fill="grey" stroke="grey" stroke-width="2" points="808.78,-1499.8 804.33,-1490.19 801.82,-1500.48 808.78,-1499.8"/>
</g>
<!-- 22&#45;&gt;21 -->
<g id="edge35" class="edge">
<title>22&#45;&gt;21</title>
<path fill="none" stroke="grey" stroke-width="2" d="M815,-1711.84C815,-1703.45 815,-1694.78 815,-1686.15"/>
<polygon fill="grey" stroke="grey" stroke-width="2" points="818.5,-1686.06 815,-1676.06 811.5,-1686.06 818.5,-1686.06"/>
</g>
</g>
</svg>
