<?xml version="1.0" encoding="UTF-8" standalone="no"?>
<!DOCTYPE svg PUBLIC "-//W3C//DTD SVG 1.1//EN"
 "http://www.w3.org/Graphics/SVG/1.1/DTD/svg11.dtd">
<!-- Generated by graphviz version 2.42.3 (20191010.1750)
 -->
<!-- Title: snakemake_dag Pages: 1 -->
<svg width="497pt" height="620pt"
 viewBox="0.00 0.00 497.00 620.00" xmlns="http://www.w3.org/2000/svg" xmlns:xlink="http://www.w3.org/1999/xlink">
<g id="graph0" class="graph" transform="scale(1 1) rotate(0) translate(4 616)">
<title>snakemake_dag</title>
<polygon fill="white" stroke="transparent" points="-4,4 -4,-616 493,-616 493,4 -4,4"/>
<!-- 0 -->
<g id="node1" class="node">
<title>0</title>
<path fill="none" stroke="#68d856" stroke-width="2" d="M309,-36C309,-36 279,-36 279,-36 273,-36 267,-30 267,-24 267,-24 267,-12 267,-12 267,-6 273,0 279,0 279,0 309,0 309,0 315,0 321,-6 321,-12 321,-12 321,-24 321,-24 321,-30 315,-36 309,-36"/>
<text text-anchor="middle" x="294" y="-15.5" font-family="sans" font-size="10.00">all</text>
</g>
<!-- 1 -->
<g id="node2" class="node">
<title>1</title>
<path fill="none" stroke="#56d86b" stroke-width="2" d="M334,-108C334,-108 254,-108 254,-108 248,-108 242,-102 242,-96 242,-96 242,-84 242,-84 242,-78 248,-72 254,-72 254,-72 334,-72 334,-72 340,-72 346,-78 346,-84 346,-84 346,-96 346,-96 346,-102 340,-108 334,-108"/>
<text text-anchor="middle" x="294" y="-87.5" font-family="sans" font-size="10.00">merge_organelles</text>
</g>
<!-- 1&#45;&gt;0 -->
<g id="edge1" class="edge">
<title>1&#45;&gt;0</title>
<path fill="none" stroke="grey" stroke-width="2" d="M294,-71.7C294,-63.98 294,-54.71 294,-46.11"/>
<polygon fill="grey" stroke="grey" stroke-width="2" points="297.5,-46.1 294,-36.1 290.5,-46.1 297.5,-46.1"/>
</g>
<!-- 2 -->
<g id="node3" class="node">
<title>2</title>
<path fill="none" stroke="#569ad8" stroke-width="2" d="M371,-180C371,-180 295,-180 295,-180 289,-180 283,-174 283,-168 283,-168 283,-156 283,-156 283,-150 289,-144 295,-144 295,-144 371,-144 371,-144 377,-144 383,-150 383,-156 383,-156 383,-168 383,-168 383,-174 377,-180 371,-180"/>
<text text-anchor="middle" x="333" y="-159.5" font-family="sans" font-size="10.00">instagraal_polish</text>
</g>
<!-- 2&#45;&gt;1 -->
<g id="edge3" class="edge">
<title>2&#45;&gt;1</title>
<path fill="none" stroke="grey" stroke-width="2" d="M323.36,-143.7C318.87,-135.64 313.44,-125.89 308.48,-116.98"/>
<polygon fill="grey" stroke="grey" stroke-width="2" points="311.45,-115.14 303.53,-108.1 305.34,-118.54 311.45,-115.14"/>
</g>
<!-- 3 -->
<g id="node4" class="node">
<title>3</title>
<path fill="none" stroke="#d89c56" stroke-width="2" d="M325.5,-396C325.5,-396 260.5,-396 260.5,-396 254.5,-396 248.5,-390 248.5,-384 248.5,-384 248.5,-372 248.5,-372 248.5,-366 254.5,-360 260.5,-360 260.5,-360 325.5,-360 325.5,-360 331.5,-360 337.5,-366 337.5,-372 337.5,-372 337.5,-384 337.5,-384 337.5,-390 331.5,-396 325.5,-396"/>
<text text-anchor="middle" x="293" y="-375.5" font-family="sans" font-size="10.00">split_mito_tigs</text>
</g>
<!-- 3&#45;&gt;1 -->
<g id="edge2" class="edge">
<title>3&#45;&gt;1</title>
<path fill="none" stroke="grey" stroke-width="2" d="M288.58,-359.89C279.22,-321.15 259.43,-223.85 274,-144 275.61,-135.2 278.6,-125.95 281.79,-117.7"/>
<polygon fill="grey" stroke="grey" stroke-width="2" points="285.12,-118.79 285.69,-108.21 278.65,-116.12 285.12,-118.79"/>
</g>
<!-- 3&#45;&gt;2 -->
<g id="edge4" class="edge">
<title>3&#45;&gt;2</title>
<path fill="none" stroke="grey" stroke-width="2" d="M293.57,-359.82C294.87,-330.08 299.04,-267.3 312,-216 314.23,-207.17 317.57,-197.84 320.93,-189.52"/>
<polygon fill="grey" stroke="grey" stroke-width="2" points="324.16,-190.86 324.83,-180.29 317.71,-188.14 324.16,-190.86"/>
</g>
<!-- 4 -->
<g id="node5" class="node">
<title>4</title>
<path fill="none" stroke="#88d856" stroke-width="2" d="M433,-252C433,-252 333,-252 333,-252 327,-252 321,-246 321,-240 321,-240 321,-228 321,-228 321,-222 327,-216 333,-216 333,-216 433,-216 433,-216 439,-216 445,-222 445,-228 445,-228 445,-240 445,-240 445,-246 439,-252 433,-252"/>
<text text-anchor="middle" x="383" y="-231.5" font-family="sans" font-size="10.00">instagraal_scaffolding</text>
</g>
<!-- 3&#45;&gt;4 -->
<g id="edge7" class="edge">
<title>3&#45;&gt;4</title>
<path fill="none" stroke="grey" stroke-width="2" d="M303.86,-359.87C319.47,-335.24 348.37,-289.64 366.59,-260.88"/>
<polygon fill="grey" stroke="grey" stroke-width="2" points="369.71,-262.51 372.11,-252.19 363.8,-258.76 369.71,-262.51"/>
</g>
<!-- 6 -->
<g id="node7" class="node">
<title>6</title>
<path fill="none" stroke="#ced856" stroke-width="2" d="M477,-324C477,-324 371,-324 371,-324 365,-324 359,-318 359,-312 359,-312 359,-300 359,-300 359,-294 365,-288 371,-288 371,-288 477,-288 477,-288 483,-288 489,-294 489,-300 489,-300 489,-312 489,-312 489,-318 483,-324 477,-324"/>
<text text-anchor="middle" x="424" y="-303.5" font-family="sans" font-size="10.00">hicstuff_hic_processing</text>
</g>
<!-- 3&#45;&gt;6 -->
<g id="edge12" class="edge">
<title>3&#45;&gt;6</title>
<path fill="none" stroke="grey" stroke-width="2" d="M325.05,-359.88C342.49,-350.55 364.27,-338.92 382.94,-328.94"/>
<polygon fill="grey" stroke="grey" stroke-width="2" points="384.66,-331.99 391.83,-324.19 381.36,-325.82 384.66,-331.99"/>
</g>
<!-- 4&#45;&gt;2 -->
<g id="edge5" class="edge">
<title>4&#45;&gt;2</title>
<path fill="none" stroke="grey" stroke-width="2" d="M370.64,-215.7C364.77,-207.47 357.63,-197.48 351.16,-188.42"/>
<polygon fill="grey" stroke="grey" stroke-width="2" points="353.88,-186.21 345.22,-180.1 348.18,-190.28 353.88,-186.21"/>
</g>
<!-- 5 -->
<g id="node6" class="node">
<title>5</title>
<path fill="none" stroke="#56d8d0" stroke-width="2" d="M309,-468C309,-468 243,-468 243,-468 237,-468 231,-462 231,-456 231,-456 231,-444 231,-444 231,-438 237,-432 243,-432 243,-432 309,-432 309,-432 315,-432 321,-438 321,-444 321,-444 321,-456 321,-456 321,-462 315,-468 309,-468"/>
<text text-anchor="middle" x="276" y="-447.5" font-family="sans" font-size="10.00">hypo_polishing</text>
</g>
<!-- 5&#45;&gt;3 -->
<g id="edge6" class="edge">
<title>5&#45;&gt;3</title>
<path fill="none" stroke="grey" stroke-width="2" d="M280.2,-431.7C282.1,-423.9 284.38,-414.51 286.48,-405.83"/>
<polygon fill="grey" stroke="grey" stroke-width="2" points="289.89,-406.65 288.85,-396.1 283.08,-405 289.89,-406.65"/>
</g>
<!-- 6&#45;&gt;4 -->
<g id="edge8" class="edge">
<title>6&#45;&gt;4</title>
<path fill="none" stroke="grey" stroke-width="2" d="M413.87,-287.7C409.15,-279.64 403.44,-269.89 398.22,-260.98"/>
<polygon fill="grey" stroke="grey" stroke-width="2" points="401.09,-258.96 393.02,-252.1 395.05,-262.5 401.09,-258.96"/>
</g>
<!-- 7 -->
<g id="node8" class="node">
<title>7</title>
<path fill="none" stroke="#d87556" stroke-width="2" d="M146,-540C146,-540 12,-540 12,-540 6,-540 0,-534 0,-528 0,-528 0,-516 0,-516 0,-510 6,-504 12,-504 12,-504 146,-504 146,-504 152,-504 158,-510 158,-516 158,-516 158,-528 158,-528 158,-534 152,-540 146,-540"/>
<text text-anchor="middle" x="79" y="-519.5" font-family="sans" font-size="10.00">align_shotgun_ont_assembly</text>
</g>
<!-- 7&#45;&gt;5 -->
<g id="edge9" class="edge">
<title>7&#45;&gt;5</title>
<path fill="none" stroke="grey" stroke-width="2" d="M126.94,-503.97C155.39,-493.86 191.55,-481.01 221.13,-470.5"/>
<polygon fill="grey" stroke="grey" stroke-width="2" points="222.64,-473.67 230.89,-467.03 220.3,-467.08 222.64,-473.67"/>
</g>
<!-- 8 -->
<g id="node9" class="node">
<title>8</title>
<path fill="none" stroke="#afd856" stroke-width="2" d="M299.5,-540C299.5,-540 188.5,-540 188.5,-540 182.5,-540 176.5,-534 176.5,-528 176.5,-528 176.5,-516 176.5,-516 176.5,-510 182.5,-504 188.5,-504 188.5,-504 299.5,-504 299.5,-504 305.5,-504 311.5,-510 311.5,-516 311.5,-516 311.5,-528 311.5,-528 311.5,-534 305.5,-540 299.5,-540"/>
<text text-anchor="middle" x="244" y="-519.5" font-family="sans" font-size="10.00">align_ont_ont_assembly</text>
</g>
<!-- 8&#45;&gt;5 -->
<g id="edge11" class="edge">
<title>8&#45;&gt;5</title>
<path fill="none" stroke="grey" stroke-width="2" d="M251.91,-503.7C255.55,-495.73 259.95,-486.1 263.99,-477.26"/>
<polygon fill="grey" stroke="grey" stroke-width="2" points="267.21,-478.65 268.18,-468.1 260.84,-475.74 267.21,-478.65"/>
</g>
<!-- 9 -->
<g id="node10" class="node">
<title>9</title>
<path fill="none" stroke="#567bd8" stroke-width="2" d="M400,-540C400,-540 342,-540 342,-540 336,-540 330,-534 330,-528 330,-528 330,-516 330,-516 330,-510 336,-504 342,-504 342,-504 400,-504 400,-504 406,-504 412,-510 412,-516 412,-516 412,-528 412,-528 412,-534 406,-540 400,-540"/>
<text text-anchor="middle" x="371" y="-519.5" font-family="sans" font-size="10.00">compute_cov</text>
</g>
<!-- 9&#45;&gt;5 -->
<g id="edge10" class="edge">
<title>9&#45;&gt;5</title>
<path fill="none" stroke="grey" stroke-width="2" d="M347.52,-503.7C335.44,-494.8 320.55,-483.82 307.48,-474.2"/>
<polygon fill="grey" stroke="grey" stroke-width="2" points="309.34,-471.22 299.21,-468.1 305.19,-476.85 309.34,-471.22"/>
</g>
<!-- 10 -->
<g id="node11" class="node">
<title>10</title>
<path fill="none" stroke="#56d8a9" stroke-width="2" d="M339,-612C339,-612 275,-612 275,-612 269,-612 263,-606 263,-600 263,-600 263,-588 263,-588 263,-582 269,-576 275,-576 275,-576 339,-576 339,-576 345,-576 351,-582 351,-588 351,-588 351,-600 351,-600 351,-606 345,-612 339,-612"/>
<text text-anchor="middle" x="307" y="-591.5" font-family="sans" font-size="10.00">combine_units</text>
</g>
<!-- 10&#45;&gt;6 -->
<g id="edge13" class="edge">
<title>10&#45;&gt;6</title>
<path fill="none" stroke="grey" stroke-width="2" d="M351.18,-584.52C376.21,-577.22 405.53,-563.91 421,-540 462.28,-476.19 444.59,-380.55 432.25,-334.17"/>
<polygon fill="grey" stroke="grey" stroke-width="2" points="435.55,-332.96 429.49,-324.26 428.8,-334.84 435.55,-332.96"/>
</g>
<!-- 10&#45;&gt;7 -->
<g id="edge14" class="edge">
<title>10&#45;&gt;7</title>
<path fill="none" stroke="grey" stroke-width="2" d="M262.77,-579.42C229.13,-569.09 182.31,-554.72 144.36,-543.07"/>
<polygon fill="grey" stroke="grey" stroke-width="2" points="144.99,-539.6 134.41,-540.01 142.94,-546.29 144.99,-539.6"/>
</g>
<!-- 10&#45;&gt;8 -->
<g id="edge15" class="edge">
<title>10&#45;&gt;8</title>
<path fill="none" stroke="grey" stroke-width="2" d="M291.43,-575.7C283.8,-567.22 274.48,-556.86 266.12,-547.58"/>
<polygon fill="grey" stroke="grey" stroke-width="2" points="268.69,-545.2 259.39,-540.1 263.48,-549.88 268.69,-545.2"/>
</g>
<!-- 10&#45;&gt;9 -->
<g id="edge16" class="edge">
<title>10&#45;&gt;9</title>
<path fill="none" stroke="grey" stroke-width="2" d="M322.82,-575.7C330.57,-567.22 340.04,-556.86 348.52,-547.58"/>
<polygon fill="grey" stroke="grey" stroke-width="2" points="351.2,-549.85 355.36,-540.1 346.03,-545.12 351.2,-549.85"/>
</g>
</g>
</svg>
