<?xml version="1.0" encoding="UTF-8" standalone="no"?>
<!DOCTYPE svg PUBLIC "-//W3C//DTD SVG 1.1//EN"
 "http://www.w3.org/Graphics/SVG/1.1/DTD/svg11.dtd">
<!-- Generated by graphviz version 2.49.0 (20210829.0051)
 -->
<!-- Title: snakemake_dag Pages: 1 -->
<svg width="552pt" height="1484pt"
 viewBox="0.00 0.00 552.00 1484.00" xmlns="http://www.w3.org/2000/svg" xmlns:xlink="http://www.w3.org/1999/xlink">
<g id="graph0" class="graph" transform="scale(1 1) rotate(0) translate(4 1480)">
<title>snakemake_dag</title>
<polygon fill="white" stroke="transparent" points="-4,4 -4,-1480 548,-1480 548,4 -4,4"/>
<!-- 0 -->
<g id="node1" class="node">
<title>0</title>
<path fill="none" stroke="#a7d856" stroke-width="2" d="M187,-36C187,-36 157,-36 157,-36 151,-36 145,-30 145,-24 145,-24 145,-12 145,-12 145,-6 151,0 157,0 157,0 187,0 187,0 193,0 199,-6 199,-12 199,-12 199,-24 199,-24 199,-30 193,-36 187,-36"/>
<text text-anchor="middle" x="172" y="-15.5" font-family="sans" font-size="10.00">all</text>
</g>
<!-- 1 -->
<g id="node2" class="node">
<title>1</title>
<path fill="none" stroke="#d88556" stroke-width="2" d="M247.5,-108C247.5,-108 96.5,-108 96.5,-108 90.5,-108 84.5,-102 84.5,-96 84.5,-96 84.5,-84 84.5,-84 84.5,-78 90.5,-72 96.5,-72 96.5,-72 247.5,-72 247.5,-72 253.5,-72 259.5,-78 259.5,-84 259.5,-84 259.5,-96 259.5,-96 259.5,-102 253.5,-108 247.5,-108"/>
<text text-anchor="middle" x="172" y="-87.5" font-family="sans" font-size="10.00">post_hic_pilon_polishing_round2</text>
</g>
<!-- 1&#45;&gt;0 -->
<g id="edge1" class="edge">
<title>1&#45;&gt;0</title>
<path fill="none" stroke="grey" stroke-width="2" d="M172,-71.7C172,-63.98 172,-54.71 172,-46.11"/>
<polygon fill="grey" stroke="grey" stroke-width="2" points="175.5,-46.1 172,-36.1 168.5,-46.1 175.5,-46.1"/>
</g>
<!-- 2 -->
<g id="node3" class="node">
<title>2</title>
<path fill="none" stroke="#8fd856" stroke-width="2" d="M196,-180C196,-180 20,-180 20,-180 14,-180 8,-174 8,-168 8,-168 8,-156 8,-156 8,-150 14,-144 20,-144 20,-144 196,-144 196,-144 202,-144 208,-150 208,-156 208,-156 208,-168 208,-168 208,-174 202,-180 196,-180"/>
<text text-anchor="middle" x="108" y="-159.5" font-family="sans" font-size="10.00">index_shotgun_bam_pilon_3c_round2</text>
</g>
<!-- 2&#45;&gt;1 -->
<g id="edge2" class="edge">
<title>2&#45;&gt;1</title>
<path fill="none" stroke="grey" stroke-width="2" d="M123.82,-143.7C131.57,-135.22 141.04,-124.86 149.52,-115.58"/>
<polygon fill="grey" stroke="grey" stroke-width="2" points="152.2,-117.85 156.36,-108.1 147.03,-113.12 152.2,-117.85"/>
</g>
<!-- 3 -->
<g id="node4" class="node">
<title>3</title>
<path fill="none" stroke="#bed856" stroke-width="2" d="M192.5,-252C192.5,-252 23.5,-252 23.5,-252 17.5,-252 11.5,-246 11.5,-240 11.5,-240 11.5,-228 11.5,-228 11.5,-222 17.5,-216 23.5,-216 23.5,-216 192.5,-216 192.5,-216 198.5,-216 204.5,-222 204.5,-228 204.5,-228 204.5,-240 204.5,-240 204.5,-246 198.5,-252 192.5,-252"/>
<text text-anchor="middle" x="108" y="-231.5" font-family="sans" font-size="10.00">align_shotgun_3c_assembly_round2</text>
</g>
<!-- 3&#45;&gt;2 -->
<g id="edge4" class="edge">
<title>3&#45;&gt;2</title>
<path fill="none" stroke="grey" stroke-width="2" d="M108,-215.7C108,-207.98 108,-198.71 108,-190.11"/>
<polygon fill="grey" stroke="grey" stroke-width="2" points="111.5,-190.1 108,-180.1 104.5,-190.1 111.5,-190.1"/>
</g>
<!-- 4 -->
<g id="node5" class="node">
<title>4</title>
<path fill="none" stroke="#56d863" stroke-width="2" d="M314,-1332C314,-1332 250,-1332 250,-1332 244,-1332 238,-1326 238,-1320 238,-1320 238,-1308 238,-1308 238,-1302 244,-1296 250,-1296 250,-1296 314,-1296 314,-1296 320,-1296 326,-1302 326,-1308 326,-1308 326,-1320 326,-1320 326,-1326 320,-1332 314,-1332"/>
<text text-anchor="middle" x="282" y="-1311.5" font-family="sans" font-size="10.00">combine_units</text>
</g>
<!-- 4&#45;&gt;3 -->
<g id="edge5" class="edge">
<title>4&#45;&gt;3</title>
<path fill="none" stroke="grey" stroke-width="2" d="M237.94,-1310.55C158.62,-1303.5 0,-1276.24 0,-1171 0,-1171 0,-1171 0,-377 0,-327.1 42.77,-283.77 74.48,-258.5"/>
<polygon fill="grey" stroke="grey" stroke-width="2" points="76.91,-261.05 82.68,-252.17 72.63,-255.51 76.91,-261.05"/>
</g>
<!-- 9 -->
<g id="node10" class="node">
<title>9</title>
<path fill="none" stroke="#56d8d0" stroke-width="2" d="M410,-468C410,-468 280,-468 280,-468 274,-468 268,-462 268,-456 268,-456 268,-444 268,-444 268,-438 274,-432 280,-432 280,-432 410,-432 410,-432 416,-432 422,-438 422,-444 422,-444 422,-456 422,-456 422,-462 416,-468 410,-468"/>
<text text-anchor="middle" x="345" y="-447.5" font-family="sans" font-size="10.00">align_shotgun_3c_assembly</text>
</g>
<!-- 4&#45;&gt;9 -->
<g id="edge12" class="edge">
<title>4&#45;&gt;9</title>
<path fill="none" stroke="grey" stroke-width="2" d="M326.15,-1309.04C400.82,-1299.66 544,-1268.91 544,-1171 544,-1171 544,-1171 544,-593 544,-529.61 476.26,-491.85 419.83,-471.39"/>
<polygon fill="grey" stroke="grey" stroke-width="2" points="420.75,-468.01 410.16,-468.01 418.45,-474.62 420.75,-468.01"/>
</g>
<!-- 14 -->
<g id="node15" class="node">
<title>14</title>
<path fill="none" stroke="#566bd8" stroke-width="2" d="M466,-972C466,-972 332,-972 332,-972 326,-972 320,-966 320,-960 320,-960 320,-948 320,-948 320,-942 326,-936 332,-936 332,-936 466,-936 466,-936 472,-936 478,-942 478,-948 478,-948 478,-960 478,-960 478,-966 472,-972 466,-972"/>
<text text-anchor="middle" x="399" y="-951.5" font-family="sans" font-size="10.00">align_shotgun_ont_assembly</text>
</g>
<!-- 4&#45;&gt;14 -->
<g id="edge23" class="edge">
<title>4&#45;&gt;14</title>
<path fill="none" stroke="grey" stroke-width="2" d="M301.75,-1295.91C327.97,-1271.21 371,-1222.79 371,-1171 371,-1171 371,-1171 371,-1097 371,-1056.27 382.23,-1010.19 390.46,-981.86"/>
<polygon fill="grey" stroke="grey" stroke-width="2" points="393.82,-982.86 393.33,-972.27 387.11,-980.85 393.82,-982.86"/>
</g>
<!-- 17 -->
<g id="node18" class="node">
<title>17</title>
<path fill="none" stroke="#d8c356" stroke-width="2" d="M264,-1188C264,-1188 190,-1188 190,-1188 184,-1188 178,-1182 178,-1176 178,-1176 178,-1164 178,-1164 178,-1158 184,-1152 190,-1152 190,-1152 264,-1152 264,-1152 270,-1152 276,-1158 276,-1164 276,-1164 276,-1176 276,-1176 276,-1182 270,-1188 264,-1188"/>
<text text-anchor="middle" x="227" y="-1167.5" font-family="sans" font-size="10.00">filter_long_reads</text>
</g>
<!-- 4&#45;&gt;17 -->
<g id="edge27" class="edge">
<title>4&#45;&gt;17</title>
<path fill="none" stroke="grey" stroke-width="2" d="M237.78,-1303.25C214.51,-1295.63 187.97,-1282.42 174,-1260 165.54,-1246.42 167.88,-1238.78 174,-1224 178.54,-1213.03 186.59,-1203.14 195.05,-1194.96"/>
<polygon fill="grey" stroke="grey" stroke-width="2" points="197.44,-1197.53 202.52,-1188.23 192.75,-1192.33 197.44,-1197.53"/>
</g>
<!-- 18 -->
<g id="node19" class="node">
<title>18</title>
<path fill="none" stroke="#d89c56" stroke-width="2" d="M284.5,-1260C284.5,-1260 195.5,-1260 195.5,-1260 189.5,-1260 183.5,-1254 183.5,-1248 183.5,-1248 183.5,-1236 183.5,-1236 183.5,-1230 189.5,-1224 195.5,-1224 195.5,-1224 284.5,-1224 284.5,-1224 290.5,-1224 296.5,-1230 296.5,-1236 296.5,-1236 296.5,-1248 296.5,-1248 296.5,-1254 290.5,-1260 284.5,-1260"/>
<text text-anchor="middle" x="240" y="-1239.5" font-family="sans" font-size="10.00">fastq_to_fasta_ONT</text>
</g>
<!-- 4&#45;&gt;18 -->
<g id="edge29" class="edge">
<title>4&#45;&gt;18</title>
<path fill="none" stroke="grey" stroke-width="2" d="M271.62,-1295.7C266.74,-1287.56 260.81,-1277.69 255.42,-1268.7"/>
<polygon fill="grey" stroke="grey" stroke-width="2" points="258.41,-1266.88 250.26,-1260.1 252.41,-1270.48 258.41,-1266.88"/>
</g>
<!-- 19 -->
<g id="node20" class="node">
<title>19</title>
<path fill="none" stroke="#569ad8" stroke-width="2" d="M151.5,-972C151.5,-972 40.5,-972 40.5,-972 34.5,-972 28.5,-966 28.5,-960 28.5,-960 28.5,-948 28.5,-948 28.5,-942 34.5,-936 40.5,-936 40.5,-936 151.5,-936 151.5,-936 157.5,-936 163.5,-942 163.5,-948 163.5,-948 163.5,-960 163.5,-960 163.5,-966 157.5,-972 151.5,-972"/>
<text text-anchor="middle" x="96" y="-951.5" font-family="sans" font-size="10.00">align_ont_ont_assembly</text>
</g>
<!-- 4&#45;&gt;19 -->
<g id="edge30" class="edge">
<title>4&#45;&gt;19</title>
<path fill="none" stroke="grey" stroke-width="2" d="M237.75,-1299.54C184.75,-1280.35 103,-1239.62 103,-1171 103,-1171 103,-1171 103,-1097 103,-1056.95 100.19,-1010.62 98.13,-982.06"/>
<polygon fill="grey" stroke="grey" stroke-width="2" points="101.61,-981.75 97.38,-972.04 94.63,-982.27 101.61,-981.75"/>
</g>
<!-- 20 -->
<g id="node21" class="node">
<title>20</title>
<path fill="none" stroke="#d85656" stroke-width="2" d="M290,-972C290,-972 232,-972 232,-972 226,-972 220,-966 220,-960 220,-960 220,-948 220,-948 220,-942 226,-936 232,-936 232,-936 290,-936 290,-936 296,-936 302,-942 302,-948 302,-948 302,-960 302,-960 302,-966 296,-972 290,-972"/>
<text text-anchor="middle" x="261" y="-951.5" font-family="sans" font-size="10.00">compute_cov</text>
</g>
<!-- 4&#45;&gt;20 -->
<g id="edge32" class="edge">
<title>4&#45;&gt;20</title>
<path fill="none" stroke="grey" stroke-width="2" d="M290.91,-1295.58C303.5,-1269.3 325,-1217.62 325,-1171 325,-1171 325,-1171 325,-1097 325,-1053.08 299.24,-1007.73 280.4,-980.44"/>
<polygon fill="grey" stroke="grey" stroke-width="2" points="283.22,-978.37 274.57,-972.24 277.52,-982.42 283.22,-978.37"/>
</g>
<!-- 22 -->
<g id="node23" class="node">
<title>22</title>
<path fill="none" stroke="#56b1d8" stroke-width="2" d="M474,-756C474,-756 368,-756 368,-756 362,-756 356,-750 356,-744 356,-744 356,-732 356,-732 356,-726 362,-720 368,-720 368,-720 474,-720 474,-720 480,-720 486,-726 486,-732 486,-732 486,-744 486,-744 486,-750 480,-756 474,-756"/>
<text text-anchor="middle" x="421" y="-735.5" font-family="sans" font-size="10.00">hicstuff_hic_processing</text>
</g>
<!-- 4&#45;&gt;22 -->
<g id="edge36" class="edge">
<title>4&#45;&gt;22</title>
<path fill="none" stroke="grey" stroke-width="2" d="M326.26,-1305.5C391.54,-1291.62 506,-1255.26 506,-1171 506,-1171 506,-1171 506,-881 506,-834.45 471.96,-789.95 446.96,-763.55"/>
<polygon fill="grey" stroke="grey" stroke-width="2" points="449.35,-760.98 439.86,-756.27 444.34,-765.87 449.35,-760.98"/>
</g>
<!-- 5 -->
<g id="node6" class="node">
<title>5</title>
<path fill="none" stroke="#56d892" stroke-width="2" d="M301,-1404C301,-1404 263,-1404 263,-1404 257,-1404 251,-1398 251,-1392 251,-1392 251,-1380 251,-1380 251,-1374 257,-1368 263,-1368 263,-1368 301,-1368 301,-1368 307,-1368 313,-1374 313,-1380 313,-1380 313,-1392 313,-1392 313,-1398 307,-1404 301,-1404"/>
<text text-anchor="middle" x="282" y="-1383.5" font-family="sans" font-size="10.00">sra_to_fq</text>
</g>
<!-- 5&#45;&gt;4 -->
<g id="edge7" class="edge">
<title>5&#45;&gt;4</title>
<path fill="none" stroke="grey" stroke-width="2" d="M282,-1367.7C282,-1359.98 282,-1350.71 282,-1342.11"/>
<polygon fill="grey" stroke="grey" stroke-width="2" points="285.5,-1342.1 282,-1332.1 278.5,-1342.1 285.5,-1342.1"/>
</g>
<!-- 6 -->
<g id="node7" class="node">
<title>6</title>
<path fill="none" stroke="#56d87b" stroke-width="2" d="M297,-1476C297,-1476 267,-1476 267,-1476 261,-1476 255,-1470 255,-1464 255,-1464 255,-1452 255,-1452 255,-1446 261,-1440 267,-1440 267,-1440 297,-1440 297,-1440 303,-1440 309,-1446 309,-1452 309,-1452 309,-1464 309,-1464 309,-1470 303,-1476 297,-1476"/>
<text text-anchor="middle" x="282" y="-1455.5" font-family="sans" font-size="10.00">dl_sra</text>
</g>
<!-- 6&#45;&gt;5 -->
<g id="edge8" class="edge">
<title>6&#45;&gt;5</title>
<path fill="none" stroke="grey" stroke-width="2" d="M282,-1439.7C282,-1431.98 282,-1422.71 282,-1414.11"/>
<polygon fill="grey" stroke="grey" stroke-width="2" points="285.5,-1414.1 282,-1404.1 278.5,-1414.1 285.5,-1414.1"/>
</g>
<!-- 7 -->
<g id="node8" class="node">
<title>7</title>
<path fill="none" stroke="#78d856" stroke-width="2" d="M292,-324C292,-324 180,-324 180,-324 174,-324 168,-318 168,-312 168,-312 168,-300 168,-300 168,-294 174,-288 180,-288 180,-288 292,-288 292,-288 298,-288 304,-294 304,-300 304,-300 304,-312 304,-312 304,-318 298,-324 292,-324"/>
<text text-anchor="middle" x="236" y="-303.5" font-family="sans" font-size="10.00">post_hic_pilon_polishing</text>
</g>
<!-- 7&#45;&gt;1 -->
<g id="edge3" class="edge">
<title>7&#45;&gt;1</title>
<path fill="none" stroke="grey" stroke-width="2" d="M237.14,-287.71C238.47,-257.28 238.24,-192.77 217,-144 212.54,-133.77 205.44,-124.01 198.18,-115.73"/>
<polygon fill="grey" stroke="grey" stroke-width="2" points="200.62,-113.21 191.25,-108.26 195.49,-117.97 200.62,-113.21"/>
</g>
<!-- 7&#45;&gt;3 -->
<g id="edge6" class="edge">
<title>7&#45;&gt;3</title>
<path fill="none" stroke="grey" stroke-width="2" d="M204.69,-287.88C187.8,-278.64 166.75,-267.13 148.62,-257.21"/>
<polygon fill="grey" stroke="grey" stroke-width="2" points="149.89,-253.92 139.43,-252.19 146.53,-260.06 149.89,-253.92"/>
</g>
<!-- 8 -->
<g id="node9" class="node">
<title>8</title>
<path fill="none" stroke="#56d8b9" stroke-width="2" d="M413.5,-396C413.5,-396 276.5,-396 276.5,-396 270.5,-396 264.5,-390 264.5,-384 264.5,-384 264.5,-372 264.5,-372 264.5,-366 270.5,-360 276.5,-360 276.5,-360 413.5,-360 413.5,-360 419.5,-360 425.5,-366 425.5,-372 425.5,-372 425.5,-384 425.5,-384 425.5,-390 419.5,-396 413.5,-396"/>
<text text-anchor="middle" x="345" y="-375.5" font-family="sans" font-size="10.00">index_shotgun_bam_pilon_3c</text>
</g>
<!-- 8&#45;&gt;7 -->
<g id="edge10" class="edge">
<title>8&#45;&gt;7</title>
<path fill="none" stroke="grey" stroke-width="2" d="M318.34,-359.88C304.22,-350.81 286.69,-339.55 271.44,-329.76"/>
<polygon fill="grey" stroke="grey" stroke-width="2" points="273.07,-326.65 262.77,-324.19 269.29,-332.54 273.07,-326.65"/>
</g>
<!-- 9&#45;&gt;8 -->
<g id="edge11" class="edge">
<title>9&#45;&gt;8</title>
<path fill="none" stroke="grey" stroke-width="2" d="M345,-431.7C345,-423.98 345,-414.71 345,-406.11"/>
<polygon fill="grey" stroke="grey" stroke-width="2" points="348.5,-406.1 345,-396.1 341.5,-406.1 348.5,-406.1"/>
</g>
<!-- 10 -->
<g id="node11" class="node">
<title>10</title>
<path fill="none" stroke="#56d8a2" stroke-width="2" d="M331,-540C331,-540 251,-540 251,-540 245,-540 239,-534 239,-528 239,-528 239,-516 239,-516 239,-510 245,-504 251,-504 251,-504 331,-504 331,-504 337,-504 343,-510 343,-516 343,-516 343,-528 343,-528 343,-534 337,-540 331,-540"/>
<text text-anchor="middle" x="291" y="-519.5" font-family="sans" font-size="10.00">merge_organelles</text>
</g>
<!-- 10&#45;&gt;7 -->
<g id="edge9" class="edge">
<title>10&#45;&gt;7</title>
<path fill="none" stroke="grey" stroke-width="2" d="M278.14,-503.75C271.37,-493.79 263.55,-480.76 259,-468 242.98,-423.08 238.09,-367.35 236.61,-334.63"/>
<polygon fill="grey" stroke="grey" stroke-width="2" points="240.1,-334.32 236.23,-324.46 233.11,-334.58 240.1,-334.32"/>
</g>
<!-- 10&#45;&gt;9 -->
<g id="edge13" class="edge">
<title>10&#45;&gt;9</title>
<path fill="none" stroke="grey" stroke-width="2" d="M304.35,-503.7C310.76,-495.39 318.56,-485.28 325.61,-476.14"/>
<polygon fill="grey" stroke="grey" stroke-width="2" points="328.47,-478.16 331.81,-468.1 322.93,-473.88 328.47,-478.16"/>
</g>
<!-- 11 -->
<g id="node12" class="node">
<title>11</title>
<path fill="none" stroke="#61d856" stroke-width="2" d="M368,-612C368,-612 292,-612 292,-612 286,-612 280,-606 280,-600 280,-600 280,-588 280,-588 280,-582 286,-576 292,-576 292,-576 368,-576 368,-576 374,-576 380,-582 380,-588 380,-588 380,-600 380,-600 380,-606 374,-612 368,-612"/>
<text text-anchor="middle" x="330" y="-591.5" font-family="sans" font-size="10.00">instagraal_polish</text>
</g>
<!-- 11&#45;&gt;10 -->
<g id="edge15" class="edge">
<title>11&#45;&gt;10</title>
<path fill="none" stroke="grey" stroke-width="2" d="M320.36,-575.7C315.87,-567.64 310.44,-557.89 305.48,-548.98"/>
<polygon fill="grey" stroke="grey" stroke-width="2" points="308.45,-547.14 300.53,-540.1 302.34,-550.54 308.45,-547.14"/>
</g>
<!-- 12 -->
<g id="node13" class="node">
<title>12</title>
<path fill="none" stroke="#56c9d8" stroke-width="2" d="M322.5,-828C322.5,-828 257.5,-828 257.5,-828 251.5,-828 245.5,-822 245.5,-816 245.5,-816 245.5,-804 245.5,-804 245.5,-798 251.5,-792 257.5,-792 257.5,-792 322.5,-792 322.5,-792 328.5,-792 334.5,-798 334.5,-804 334.5,-804 334.5,-816 334.5,-816 334.5,-822 328.5,-828 322.5,-828"/>
<text text-anchor="middle" x="290" y="-807.5" font-family="sans" font-size="10.00">split_mito_tigs</text>
</g>
<!-- 12&#45;&gt;10 -->
<g id="edge14" class="edge">
<title>12&#45;&gt;10</title>
<path fill="none" stroke="grey" stroke-width="2" d="M285.58,-791.89C276.22,-753.15 256.43,-655.85 271,-576 272.61,-567.2 275.6,-557.95 278.79,-549.7"/>
<polygon fill="grey" stroke="grey" stroke-width="2" points="282.12,-550.79 282.69,-540.21 275.65,-548.12 282.12,-550.79"/>
</g>
<!-- 12&#45;&gt;11 -->
<g id="edge17" class="edge">
<title>12&#45;&gt;11</title>
<path fill="none" stroke="grey" stroke-width="2" d="M290.57,-791.82C291.87,-762.08 296.04,-699.3 309,-648 311.23,-639.17 314.57,-629.84 317.93,-621.52"/>
<polygon fill="grey" stroke="grey" stroke-width="2" points="321.16,-622.86 321.83,-612.29 314.71,-620.14 321.16,-622.86"/>
</g>
<!-- 21 -->
<g id="node22" class="node">
<title>21</title>
<path fill="none" stroke="#d8b456" stroke-width="2" d="M430,-684C430,-684 330,-684 330,-684 324,-684 318,-678 318,-672 318,-672 318,-660 318,-660 318,-654 324,-648 330,-648 330,-648 430,-648 430,-648 436,-648 442,-654 442,-660 442,-660 442,-672 442,-672 442,-678 436,-684 430,-684"/>
<text text-anchor="middle" x="380" y="-663.5" font-family="sans" font-size="10.00">instagraal_scaffolding</text>
</g>
<!-- 12&#45;&gt;21 -->
<g id="edge34" class="edge">
<title>12&#45;&gt;21</title>
<path fill="none" stroke="grey" stroke-width="2" d="M300.86,-791.87C316.47,-767.24 345.37,-721.64 363.59,-692.88"/>
<polygon fill="grey" stroke="grey" stroke-width="2" points="366.71,-694.51 369.11,-684.19 360.8,-690.76 366.71,-694.51"/>
</g>
<!-- 12&#45;&gt;22 -->
<g id="edge37" class="edge">
<title>12&#45;&gt;22</title>
<path fill="none" stroke="grey" stroke-width="2" d="M322.05,-791.88C339.49,-782.55 361.27,-770.92 379.94,-760.94"/>
<polygon fill="grey" stroke="grey" stroke-width="2" points="381.66,-763.99 388.83,-756.19 378.36,-757.82 381.66,-763.99"/>
</g>
<!-- 13 -->
<g id="node14" class="node">
<title>13</title>
<path fill="none" stroke="#d86e56" stroke-width="2" d="M294,-900C294,-900 228,-900 228,-900 222,-900 216,-894 216,-888 216,-888 216,-876 216,-876 216,-870 222,-864 228,-864 228,-864 294,-864 294,-864 300,-864 306,-870 306,-876 306,-876 306,-888 306,-888 306,-894 300,-900 294,-900"/>
<text text-anchor="middle" x="261" y="-879.5" font-family="sans" font-size="10.00">hypo_polishing</text>
</g>
<!-- 13&#45;&gt;12 -->
<g id="edge18" class="edge">
<title>13&#45;&gt;12</title>
<path fill="none" stroke="grey" stroke-width="2" d="M268.17,-863.7C271.43,-855.81 275.37,-846.3 279,-837.55"/>
<polygon fill="grey" stroke="grey" stroke-width="2" points="282.32,-838.68 282.91,-828.1 275.85,-836 282.32,-838.68"/>
</g>
<!-- 14&#45;&gt;13 -->
<g id="edge21" class="edge">
<title>14&#45;&gt;13</title>
<path fill="none" stroke="grey" stroke-width="2" d="M365.24,-935.88C346.78,-926.51 323.72,-914.81 303.98,-904.8"/>
<polygon fill="grey" stroke="grey" stroke-width="2" points="305.39,-901.59 294.89,-900.19 302.22,-907.83 305.39,-901.59"/>
</g>
<!-- 15 -->
<g id="node16" class="node">
<title>15</title>
<path fill="none" stroke="#d6d856" stroke-width="2" d="M258.5,-1044C258.5,-1044 195.5,-1044 195.5,-1044 189.5,-1044 183.5,-1038 183.5,-1032 183.5,-1032 183.5,-1020 183.5,-1020 183.5,-1014 189.5,-1008 195.5,-1008 195.5,-1008 258.5,-1008 258.5,-1008 264.5,-1008 270.5,-1014 270.5,-1020 270.5,-1020 270.5,-1032 270.5,-1032 270.5,-1038 264.5,-1044 258.5,-1044"/>
<text text-anchor="middle" x="227" y="-1023.5" font-family="sans" font-size="10.00">flye_assembly</text>
</g>
<!-- 15&#45;&gt;13 -->
<g id="edge22" class="edge">
<title>15&#45;&gt;13</title>
<path fill="none" stroke="grey" stroke-width="2" d="M218.46,-1007.71C210.62,-989.36 201.55,-959.78 211,-936 215.29,-925.2 222.94,-915.32 230.99,-907.1"/>
<polygon fill="grey" stroke="grey" stroke-width="2" points="233.58,-909.47 238.4,-900.04 228.75,-904.4 233.58,-909.47"/>
</g>
<!-- 15&#45;&gt;14 -->
<g id="edge24" class="edge">
<title>15&#45;&gt;14</title>
<path fill="none" stroke="grey" stroke-width="2" d="M269.08,-1007.88C292.8,-998.22 322.62,-986.09 347.7,-975.88"/>
<polygon fill="grey" stroke="grey" stroke-width="2" points="349.12,-979.08 357.06,-972.07 346.48,-972.6 349.12,-979.08"/>
</g>
<!-- 15&#45;&gt;19 -->
<g id="edge31" class="edge">
<title>15&#45;&gt;19</title>
<path fill="none" stroke="grey" stroke-width="2" d="M194.95,-1007.88C177.51,-998.55 155.73,-986.92 137.06,-976.94"/>
<polygon fill="grey" stroke="grey" stroke-width="2" points="138.64,-973.82 128.17,-972.19 135.34,-979.99 138.64,-973.82"/>
</g>
<!-- 15&#45;&gt;20 -->
<g id="edge33" class="edge">
<title>15&#45;&gt;20</title>
<path fill="none" stroke="grey" stroke-width="2" d="M235.4,-1007.7C239.27,-999.73 243.95,-990.1 248.24,-981.26"/>
<polygon fill="grey" stroke="grey" stroke-width="2" points="251.47,-982.63 252.69,-972.1 245.17,-979.57 251.47,-982.63"/>
</g>
<!-- 16 -->
<g id="node17" class="node">
<title>16</title>
<path fill="none" stroke="#5682d8" stroke-width="2" d="M269,-1116C269,-1116 185,-1116 185,-1116 179,-1116 173,-1110 173,-1104 173,-1104 173,-1092 173,-1092 173,-1086 179,-1080 185,-1080 185,-1080 269,-1080 269,-1080 275,-1080 281,-1086 281,-1092 281,-1092 281,-1104 281,-1104 281,-1110 275,-1116 269,-1116"/>
<text text-anchor="middle" x="227" y="-1095.5" font-family="sans" font-size="10.00">format_long_reads</text>
</g>
<!-- 16&#45;&gt;15 -->
<g id="edge25" class="edge">
<title>16&#45;&gt;15</title>
<path fill="none" stroke="grey" stroke-width="2" d="M227,-1079.7C227,-1071.98 227,-1062.71 227,-1054.11"/>
<polygon fill="grey" stroke="grey" stroke-width="2" points="230.5,-1054.1 227,-1044.1 223.5,-1054.1 230.5,-1054.1"/>
</g>
<!-- 17&#45;&gt;16 -->
<g id="edge26" class="edge">
<title>17&#45;&gt;16</title>
<path fill="none" stroke="grey" stroke-width="2" d="M227,-1151.7C227,-1143.98 227,-1134.71 227,-1126.11"/>
<polygon fill="grey" stroke="grey" stroke-width="2" points="230.5,-1126.1 227,-1116.1 223.5,-1126.1 230.5,-1126.1"/>
</g>
<!-- 18&#45;&gt;17 -->
<g id="edge28" class="edge">
<title>18&#45;&gt;17</title>
<path fill="none" stroke="grey" stroke-width="2" d="M236.79,-1223.7C235.35,-1215.98 233.63,-1206.71 232.04,-1198.11"/>
<polygon fill="grey" stroke="grey" stroke-width="2" points="235.44,-1197.3 230.18,-1188.1 228.56,-1198.58 235.44,-1197.3"/>
</g>
<!-- 19&#45;&gt;13 -->
<g id="edge19" class="edge">
<title>19&#45;&gt;13</title>
<path fill="none" stroke="grey" stroke-width="2" d="M136.36,-935.88C159.02,-926.26 187.47,-914.19 211.47,-904.01"/>
<polygon fill="grey" stroke="grey" stroke-width="2" points="212.93,-907.2 220.77,-900.07 210.19,-900.75 212.93,-907.2"/>
</g>
<!-- 20&#45;&gt;13 -->
<g id="edge20" class="edge">
<title>20&#45;&gt;13</title>
<path fill="none" stroke="grey" stroke-width="2" d="M261,-935.7C261,-927.98 261,-918.71 261,-910.11"/>
<polygon fill="grey" stroke="grey" stroke-width="2" points="264.5,-910.1 261,-900.1 257.5,-910.1 264.5,-910.1"/>
</g>
<!-- 21&#45;&gt;11 -->
<g id="edge16" class="edge">
<title>21&#45;&gt;11</title>
<path fill="none" stroke="grey" stroke-width="2" d="M367.64,-647.7C361.77,-639.47 354.63,-629.48 348.16,-620.42"/>
<polygon fill="grey" stroke="grey" stroke-width="2" points="350.88,-618.21 342.22,-612.1 345.18,-622.28 350.88,-618.21"/>
</g>
<!-- 22&#45;&gt;21 -->
<g id="edge35" class="edge">
<title>22&#45;&gt;21</title>
<path fill="none" stroke="grey" stroke-width="2" d="M410.87,-719.7C406.15,-711.64 400.44,-701.89 395.22,-692.98"/>
<polygon fill="grey" stroke="grey" stroke-width="2" points="398.09,-690.96 390.02,-684.1 392.05,-694.5 398.09,-690.96"/>
</g>
</g>
</svg>
